<svg xmlns="http://www.w3.org/2000/svg" width="194.654" height="194.619" viewBox="0 0 194.654 194.619">
  <path id="Path_1511" data-name="Path 1511" d="M1191.1,2954.109a62.467,62.467,0,0,0-7.191-3.717l-.008-.008-.017-.009-.049-.022c-4.853-2.265-9.871-4.608-10.413-7.34-.241-1.214.361-2.808,1.836-4.869a64.182,64.182,0,0,1,4.93-5.777l.066-.075.043-.043a61.59,61.59,0,0,0,5.224-6.193c1.5-2.2,1.984-3.862,1.47-5.091-.5-1.2-1.987-2.021-4.549-2.5a60.9,60.9,0,0,0-7.909-.67l-.133-.008h-.009c-5.41-.233-11-.472-12.579-2.837-.683-1.015-.738-2.691-.169-5.128a65.852,65.852,0,0,1,2.354-7.254v-.013l.007-.014c1.966-5.406,4.013-11,1.863-13.146s-7.759-.1-13.185,1.879h-.032a65.589,65.589,0,0,1-7.225,2.347c-2.441.566-4.116.512-5.123-.166-2.368-1.582-2.607-7.182-2.84-12.6a60.633,60.633,0,0,0-.677-8.041c-.476-2.559-1.295-4.049-2.5-4.544-1.232-.513-2.9-.031-5.091,1.47a60.747,60.747,0,0,0-6.166,5.208l-.071.071a67.855,67.855,0,0,1-5.855,5c-2.071,1.476-3.666,2.074-4.874,1.832-2.746-.555-5.087-5.591-7.353-10.465l-.053-.113a61.471,61.471,0,0,0-3.686-7.108c-1.442-2.21-2.784-3.282-4.1-3.276a3.656,3.656,0,0,0-2.554,1.292c-1.876,1.875-3.6,5.575-5.274,9.152l-.018.037-.008.019c-1.668,3.593-3.393,7.31-5.3,9.215a4.093,4.093,0,0,1-2.056,1.246c-1.22.237-2.814-.365-4.875-1.839a64.947,64.947,0,0,1-5.773-4.925l-.078-.077-.005-.006a61.787,61.787,0,0,0-6.226-5.264c-2.193-1.5-3.859-1.978-5.094-1.469a2.654,2.654,0,0,0-.85.582c-1.9,1.9-2.119,7.077-2.328,12.078v.026c-.214,5.014-.441,10.192-2.394,12.144a3.488,3.488,0,0,1-.435.367c-1.011.674-2.69.728-5.129.168a68.086,68.086,0,0,1-7.2-2.334l-.028-.01-.029-.01-.007-.007c-5.318-1.937-10.818-3.939-13.047-2l0,0a98.646,98.646,0,0,0-15.687,20.283,95.16,95.16,0,0,0-9.637,23.5,97.988,97.988,0,0,0-3.268,25.046,99.387,99.387,0,0,0,3.334,25.045,95.264,95.264,0,0,0,9.6,23.471,101.012,101.012,0,0,0,35.969,35.969,94.188,94.188,0,0,0,23.482,9.611,100.86,100.86,0,0,0,25.067,3.309,97.4,97.4,0,0,0,48.479-12.878,98.439,98.439,0,0,0,20.322-15.676l.008-.009-.006-.006v-.011c1.947-2.228-.05-7.711-1.98-13.01l-.013-.037-.019-.05-.009-.029a66.862,66.862,0,0,1-2.327-7.173c-.557-2.434-.507-4.117.163-5.134a3.456,3.456,0,0,1,.372-.438c1.948-1.948,7.134-2.171,12.148-2.39h.071c4.981-.209,10.133-.425,12.029-2.321a2.58,2.58,0,0,0,.575-.848c.51-1.234.03-2.9-1.466-5.089a61.74,61.74,0,0,0-5.171-6.132l-.007-.007-.088-.1-.021-.021a65.987,65.987,0,0,1-4.987-5.835c-1.471-2.068-2.069-3.662-1.829-4.874a4.088,4.088,0,0,1,1.247-2.064c1.9-1.9,5.62-3.629,9.214-5.3l.013,0,.037-.018.081-.04c3.546-1.659,7.214-3.375,9.07-5.231l.005,0a3.66,3.66,0,0,0,1.291-2.545C1194.374,2956.9,1193.3,2955.552,1191.1,2954.109Zm-52.65-37.3a58.4,58.4,0,0,1,0,82.593l-82.593-82.594A58.4,58.4,0,0,1,1138.448,2916.808Zm-64.979,44.787a.7.7,0,0,1,.172-.738.717.717,0,0,1,.741-.175l3.133,1.068,2.654-1.985a.715.715,0,0,1,.759-.061.7.7,0,0,1,.39.649l-.045,3.312,2.7,1.909a.7.7,0,0,1,.3.523.731.731,0,0,1-.2.572.791.791,0,0,1-.3.174l-3.164.984-.981,3.161a.724.724,0,0,1-.178.3.74.74,0,0,1-.573.209.713.713,0,0,1-.522-.3l-1.909-2.7-3.308.04a.7.7,0,0,1-.648-.391.717.717,0,0,1,.067-.764l1.98-2.649Zm-25.505,28.148a1.141,1.141,0,0,1-.486.293l-5.247,1.634-1.635,5.248a1.151,1.151,0,0,1-.293.489,1.208,1.208,0,0,1-.95.343,1.165,1.165,0,0,1-.862-.5l-3.169-4.487-5.493.071a1.189,1.189,0,0,1-.975-1.9l3.285-4.407-1.768-5.2a1.171,1.171,0,0,1,.286-1.225h.006a1.194,1.194,0,0,1,1.222-.289l5.2,1.768,4.407-3.286a1.19,1.19,0,0,1,1.9.975l-.071,5.493,4.487,3.169a1.16,1.16,0,0,1,.5.859A1.211,1.211,0,0,1,1047.964,2989.743Zm8.566-39.675a1.8,1.8,0,0,1-.756.455l-8.142,2.532-2.537,8.147a1.825,1.825,0,0,1-.45.762,1.866,1.866,0,0,1-1.474.535,1.826,1.826,0,0,1-1.344-.777l-4.929-6.968-8.525.111a1.847,1.847,0,0,1-1.5-2.954l5.1-6.842-2.741-8.075a1.821,1.821,0,0,1,.432-1.9h.006a1.836,1.836,0,0,1,1.9-.446l8.079,2.737,6.842-5.1a1.848,1.848,0,0,1,2.95,1.508l-.111,8.525,6.968,4.929a1.8,1.8,0,0,1,.769,1.335A1.888,1.888,0,0,1,1056.53,2950.068Zm55.517,65.3a27.2,27.2,0,0,1-47.863,7.924,27.488,27.488,0,0,1-4.766-10.891,1.253,1.253,0,0,1,.346-1.14h.008a1.272,1.272,0,0,1,1.7-.1,21.307,21.307,0,0,0,31.353-28.013,1.273,1.273,0,0,1,1.459-1.9A27.2,27.2,0,0,1,1112.047,3015.373Z" transform="translate(-999.73 -2860.889)" fill="#c1272d"/>
</svg>
