<svg id="Icon_ionic-ios-download" data-name="Icon ionic-ios-download" xmlns="http://www.w3.org/2000/svg" width="13.564" height="17.633" viewBox="0 0 13.564 17.633">
  <path id="Path_1218" data-name="Path 1218" d="M18.619,10.125H14.083v7.626l2.03-2a.552.552,0,1,1,.776.784l-2.967,2.925a.56.56,0,0,1-.386.157.526.526,0,0,1-.212-.042.589.589,0,0,1-.174-.114h0l-2.967-2.925a.552.552,0,0,1,.776-.784l2.03,2V10.125H8.446a1.7,1.7,0,0,0-1.7,1.7V21.994a1.7,1.7,0,0,0,1.7,1.7H18.619a1.7,1.7,0,0,0,1.7-1.7V11.82A1.7,1.7,0,0,0,18.619,10.125Z" transform="translate(-6.75 -6.056)" fill="#c1272d"/>
  <path id="Path_1219" data-name="Path 1219" d="M18.188,3.926a.551.551,0,1,0-1.1,0V7.444h1.1Z" transform="translate(-10.855 -3.375)" fill="#c1272d"/>
</svg>
