<svg id="Group_1005" data-name="Group 1005" xmlns="http://www.w3.org/2000/svg" width="194.693" height="194.693" viewBox="0 0 194.693 194.693">
  <path id="Path_725" data-name="Path 725" d="M598.637,1363.071c0-5.85-19.856-9.679-20.952-15.207-1.127-5.7,15.735-16.819,13.562-22.059-2.216-5.334-22.017-1.256-25.193-6-3.191-4.777,8.124-21.519,4.074-25.569s-20.8,7.265-25.574,4.07c-4.739-3.176-.661-22.981-5.994-25.193-5.244-2.173-16.361,14.69-22.064,13.562-5.528-1.1-9.356-20.952-15.207-20.952s-9.675,19.856-15.207,20.952c-5.7,1.127-16.816-15.736-22.06-13.562-5.333,2.216-1.252,22.017-6,25.193-4.774,3.191-21.519-8.125-25.57-4.074s7.269,20.8,4.07,25.574c-3.176,4.739-22.981.661-25.193,5.995-2.173,5.244,14.694,16.361,13.562,22.063-1.1,5.527-20.952,9.356-20.952,15.207s19.856,9.675,20.952,15.207c1.131,5.7-15.735,16.816-13.562,22.06,2.216,5.329,22.017,1.252,25.193,6,3.2,4.774-8.12,21.52-4.07,25.57s20.8-7.268,25.57-4.069c4.738,3.176.665,22.977,6,25.193,5.244,2.172,16.361-14.694,22.06-13.562,5.531,1.1,9.356,20.952,15.207,20.952s9.679-19.856,15.207-20.952c5.7-1.131,16.82,15.735,22.06,13.562,5.333-2.213,1.256-22.017,6-25.189,4.777-3.2,21.519,8.121,25.57,4.07s-7.265-20.8-4.07-25.575c3.176-4.738,22.977-.664,25.193-6,2.173-5.244-14.69-16.361-13.558-22.06C578.781,1372.747,598.637,1368.921,598.637,1363.071Zm-97.347,58.4a58.407,58.407,0,1,1,58.409-58.4A58.408,58.408,0,0,1,501.291,1421.476Z" transform="translate(-403.944 -1265.725)" fill="#c1272d"/>
</svg>
