<svg id="グループ_1399" data-name="グループ 1399" xmlns="http://www.w3.org/2000/svg" width="99.662" height="113.295" viewBox="0 0 99.662 113.295">
  <path id="パス_660" data-name="パス 660" d="M539.655,647a30.5,30.5,0,0,1,7.09,2.042A25.236,25.236,0,0,1,562.439,672.9c.178,18.857.078,37.723.036,56.583a21.966,21.966,0,0,1-10.662,19.209,2.121,2.121,0,0,0-1.127,2.048c.055,2.285.031,4.569,0,6.853-.015,1.912-.794,2.667-2.7,2.669H536.271a2.279,2.279,0,0,1-2.615-2.545c-.03-1.4-.051-2.8,0-4.2.04-.954-.3-1.312-1.266-1.293-2.688.048-5.378.015-8.068.015H493.288c-1.578,0-1.578,0-1.581,1.606,0,1.29.021,2.581,0,3.868a2.279,2.279,0,0,1-1.965,2.554,2.248,2.248,0,0,1-.65-.009H477.276c-1.757,0-2.563-.778-2.584-2.56-.031-2.357-.037-4.717,0-7.074a1.955,1.955,0,0,0-1.03-1.875A22.041,22.041,0,0,1,462.9,729.36q-.048-28.238,0-56.471a26.119,26.119,0,0,1,22.2-25.728,6.079,6.079,0,0,0,.636-.167Zm-70.683,54.165v27.413a21.19,21.19,0,0,0,.281,3.636A16.644,16.644,0,0,0,485.7,745.993q26.964.015,53.929,0a16.784,16.784,0,0,0,16.741-16.828c0-.076,0-.153,0-.229q.027-27.744,0-55.487a20.946,20.946,0,0,0-.264-3.3,20.039,20.039,0,0,0-19.726-17.078c-15.806-.055-31.612-.082-47.418.015a19.487,19.487,0,0,0-15.976,8.08,19.943,19.943,0,0,0-4.02,12.389c-.022,9.189,0,18.4,0,27.613Z" transform="translate(-462.879 -646.994)" fill="#c1272d"/>
  <path id="パス_661" data-name="パス 661" d="M512.678,676.582h26.41a5.413,5.413,0,0,1,5.86,5.757q.042,10.719,0,21.438a5.453,5.453,0,0,1-5.072,5.81,5.378,5.378,0,0,1-.772,0q-26.414.024-52.827,0a5.489,5.489,0,0,1-5.862-5.905q-.024-10.6,0-21.208a5.456,5.456,0,0,1,5.959-5.881Zm-25.864,19.824.3.121,13.255-13.761a.994.994,0,0,1-.494.1H488.519c-1.46,0-1.7.258-1.705,1.772v11.765Z" transform="translate(-462.879 -646.994)" fill="#c1272d"/>
  <path id="パス_662" data-name="パス 662" d="M512.572,667.166H494.006c-1.463,0-1.481-.024-1.484-1.482,0-1.4.042-2.8-.016-4.2-.042-.969.322-1.287,1.282-1.278,4.09.036,8.18.015,12.267.015h25.317c1.463,0,1.481.024,1.484,1.481,0,1.364-.051,2.727.019,4.091.054,1.063-.34,1.4-1.394,1.39C525.17,667.145,518.871,667.166,512.572,667.166Z" transform="translate(-462.879 -646.994)" fill="#c1272d"/>
  <path id="パス_663" data-name="パス 663" d="M513.233,732.566c3.426,0,6.85.03,10.274-.016,1.048-.015,1.427.325,1.4,1.394-.063,2.615-.045,5.232,0,7.844,0,.87-.324,1.169-1.169,1.169q-10.44-.027-20.878,0c-.972,0-1.275-.4-1.263-1.33.039-2.578.048-5.15,0-7.732-.022-1.03.4-1.348,1.372-1.339C506.383,732.587,509.806,732.569,513.233,732.566Z" transform="translate(-462.879 -646.994)" fill="#c1272d"/>
  <path id="パス_664" data-name="パス 664" d="M485.544,735.265a6.309,6.309,0,1,1,.07,0Z" transform="translate(-462.879 -646.994)" fill="#c1272d"/>
  <path id="パス_665" data-name="パス 665" d="M539.8,735.265a6.272,6.272,0,1,1,.007,0Z" transform="translate(-462.879 -646.994)" fill="#c1272d"/>
</svg>
