<svg xmlns="http://www.w3.org/2000/svg" width="88.323" height="64.223" viewBox="0 0 88.323 64.223">
  <g id="Group_2356" data-name="Group 2356" transform="translate(-709.624 -661.419)">
    <path id="Path_1431" data-name="Path 1431" d="M752.164,666.266a5.866,5.866,0,0,0-5.679-4.394H726.359a2.934,2.934,0,0,0-2.935,2.933v27.772H712.558a2.934,2.934,0,0,0-2.934,2.934v19.838h3.308a10.231,10.231,0,0,1,20.225,0h8.757a10.23,10.23,0,0,1,20.224,0h1.652V692.578h-4.8ZM731.7,690.854v-20.7h12.914l5.367,20.7Z" transform="translate(0 -0.109)" fill="#333"/>
    <path id="Path_1432" data-name="Path 1432" d="M790.123,714.551V661.419h-6.554v57.617h32.086v-4.484Z" transform="translate(-17.708)" fill="#333"/>
    <path id="Path_1433" data-name="Path 1433" d="M724.484,722.592a8.85,8.85,0,1,0,8.85,8.849A8.85,8.85,0,0,0,724.484,722.592Zm0,11.886a3.035,3.035,0,1,1,3.035-3.037A3.036,3.036,0,0,1,724.484,734.478Z" transform="translate(-1.439 -14.649)" fill="#333"/>
    <path id="Path_1434" data-name="Path 1434" d="M762.59,722.592a8.85,8.85,0,1,0,8.85,8.849A8.85,8.85,0,0,0,762.59,722.592Zm0,11.886a3.035,3.035,0,1,1,3.035-3.037A3.036,3.036,0,0,1,762.59,734.478Z" transform="translate(-10.564 -14.649)" fill="#333"/>
    <rect id="Rectangle_1216" data-name="Rectangle 1216" width="21.391" height="17.251" transform="translate(776.211 694.47)" fill="#333"/>
    <rect id="Rectangle_1217" data-name="Rectangle 1217" width="21.391" height="17.251" transform="translate(776.211 673.769)" fill="#333"/>
  </g>
</svg>
