<svg id="Group_2029" data-name="Group 2029" xmlns="http://www.w3.org/2000/svg" width="225.533" height="140.12" viewBox="0 0 225.533 140.12">
  <path id="Path_382" data-name="Path 382" d="M672.326,1160.605c-.142.566-.3,1.127-.416,1.7a41.614,41.614,0,0,1-45.649,33.641c-23.851-2.648-40.771-25.063-36.2-48.684,3.395-17.55,14.146-29.061,31.574-33.087,17.12-3.952,31.474,1.6,42.51,15.344,4.511,5.618,6.827,12.222,8.183,19.21Zm-14.615-6.451a26.715,26.715,0,0,0-26.867-26.369c-14.854-.074-26.668,12.224-26.622,27.27a26.574,26.574,0,0,0,26.863,26.234C646.11,1181.247,657.786,1169.361,657.711,1154.154Z" transform="translate(-446.793 -1056.128)" fill="#333"/>
  <path id="Path_383" data-name="Path 383" d="M582.871,1136.482c-1.738-.014-2.735.5-3.166,2.256a32.028,32.028,0,0,1-1.587,4.8c-.621,1.478-.147,2.138,1.181,2.917,14.844,8.706,22.324,21.637,21.5,38.91a41.572,41.572,0,1,1-36.274-43.72c1.86.237,2.586-.466,3.13-2.14q6.749-20.8,13.652-41.558c2.441-7.309,7.559-11.906,15.177-13,7.187-1.031,14.486-.261,21.733-.348,1.286-.016,1.543.836,1.533,1.917-.016,2.271-.121,4.553.038,6.815.153,2.182-.766,2.773-2.809,2.741-5.79-.094-11.581-.054-17.373-.022-3.878.022-6.305,1.774-7.611,5.445-.637,1.8-1.117,3.65-1.826,5.413-.7,1.748-.311,2.272,1.613,2.252,8.208-.084,16.419-.046,24.627-.028a47.234,47.234,0,0,1,21.677,5.722,3.211,3.211,0,0,1,1.9,3.329c-.07,5.2-.112,10.41.016,15.613.054,2.16-.757,2.771-2.813,2.753-9.015-.078-18.03-.034-27.046-.032C601.05,1136.512,591.961,1136.548,582.871,1136.482Zm2.136,54.167c3.3-10.976-.874-23.24-10.022-29.422-2.109-1.423-2.128-1.429-2.9.92-1.147,3.48-2.22,6.984-3.413,10.449a3.007,3.007,0,0,0,.484,3.032,12.083,12.083,0,0,1,.159,14.381,12.277,12.277,0,0,1-22.193-6.194c-.605-5.125,3.014-10.721,8.266-12.413a3.709,3.709,0,0,0,2.709-2.774c.96-3.155,1.933-6.313,3.1-9.391,1.163-3.054.149-3.267-2.324-3.172a25.991,25.991,0,0,0-17.056,6.634c-8.236,7.508-11.183,16.829-8.151,27.5,2.98,10.48,10.255,16.8,20.982,19.027a7.622,7.622,0,0,0,1.3.207c1.171.028,2.343.01,3.514.01A26.368,26.368,0,0,0,585.007,1190.649Z" transform="translate(-517.727 -1084.398)" fill="#333"/>
  <path id="Path_384" data-name="Path 384" d="M593.677,1113.924H558.725c-.587,0-1.173-.014-1.758.014-.647.032-1.487-.107-1.764.594-.3.756.528,1.125.988,1.547a51.1,51.1,0,0,1,13.51,19.781,46.2,46.2,0,0,1,3.13,15.647c.1,4.9,1.925,6.791,6.827,6.819q14.29.083,28.579,0c4.557-.02,5.937-1.545,6.054-6.146.37-14.406,6.194-26.31,16.632-36.088.534-.5,1.708-.785,1.276-1.754-.32-.719-1.324-.406-2.029-.406Q611.924,1113.912,593.677,1113.924Z" transform="translate(-480.654 -1055.196)" fill="#333"/>
  <path id="Path_385" data-name="Path 385" d="M616.279,1124h30.353a9.592,9.592,0,0,0,5.684-1.364,6.623,6.623,0,0,0,3.022-5.783c-.024-4.105.022-8.211-.01-12.316-.034-4.533-2.867-7.233-7.466-7.432a65.768,65.768,0,0,0-26.768,3.971,56.659,56.659,0,0,1-22,3.5c-4.762-.117-9.532.064-14.295-.062-2.075-.053-2.68.753-2.644,2.7.088,4.545.02,9.091.03,13.638.008,2.982.155,3.139,3.076,3.142Q600.772,1124.01,616.279,1124Z" transform="translate(-453.881 -1071.887)" fill="#333"/>
  <path id="Path_386" data-name="Path 386" d="M533.794,1109.054c0,4.1.062,8.2-.028,12.3-.044,1.969.747,2.6,2.634,2.383a30.76,30.76,0,0,0,16.694-7.151,3.812,3.812,0,0,0,1.477-3.234q-.1-4.39,0-8.782a3.728,3.728,0,0,0-1.527-3.207,31.1,31.1,0,0,0-16.948-7.1c-1.844-.177-2.317.687-2.306,2.283C533.814,1100.71,533.8,1104.883,533.794,1109.054Z" transform="translate(-501.836 -1074.653)" fill="#333"/>
  <path id="Path_387" data-name="Path 387" d="M534.875,1108.781c0-3.954-.058-7.908.024-11.86.04-1.933-.6-2.931-2.656-2.709a7.79,7.79,0,0,1-1.535,0c-1.746-.16-2.511.509-2.5,2.367q.093,12.408,0,24.814c-.012,1.756.55,2.64,2.4,2.451a8.179,8.179,0,0,1,1.754,0c1.947.221,2.572-.681,2.532-2.549C534.815,1117.127,534.875,1112.951,534.875,1108.781Z" transform="translate(-507.339 -1074.705)" fill="#333"/>
  <path id="Path_388" data-name="Path 388" d="M616.417,1152.157a12.2,12.2,0,1,0-12.354-12.272A12.343,12.343,0,0,0,616.417,1152.157Z" transform="translate(-432.177 -1041.434)" fill="#333"/>
</svg>
