<svg xmlns="http://www.w3.org/2000/svg" width="159.248" height="159.246" viewBox="0 0 159.248 159.246">
  <path id="パス_725" data-name="パス 725" d="M876.86,502.913c0-4.777-16.243-7.918-17.137-12.439-.922-4.661,12.87-13.756,11.093-18.043-1.814-4.363-18.009-1.027-20.607-4.908-2.61-3.906,6.644-17.6,3.333-20.912s-17.012,5.943-20.917,3.328c-3.878-2.6-.542-18.791-4.9-20.605-4.288-1.777-13.377,12.015-18.046,11.092-4.521-.9-7.652-17.137-12.437-17.137s-7.915,16.243-12.439,17.137c-4.661.922-13.754-12.87-18.044-11.092-4.362,1.812-1.024,18.008-4.908,20.605s-17.6-6.644-20.912-3.331,5.945,17.012,3.328,20.917c-2.6,3.876-18.791.542-20.607,4.9-1.777,4.289,12.018,13.377,11.093,18.044-.9,4.521-17.138,7.652-17.138,12.439s16.243,7.913,17.138,12.437c.924,4.663-12.87,13.754-11.093,18.043,1.814,4.359,18.008,1.024,20.607,4.908s-6.642,17.6-3.328,20.914,17.011-5.945,20.912-3.328c3.876,2.6.545,18.791,4.908,20.607,4.289,1.776,13.377-12.018,18.044-11.093,4.524.9,7.652,17.137,12.439,17.137s7.916-16.243,12.437-17.137c4.661-.924,13.757,12.87,18.044,11.093,4.362-1.811,1.027-18.008,4.908-20.6,3.906-2.616,17.6,6.644,20.914,3.33s-5.943-17.012-3.33-20.919c2.6-3.876,18.791-.543,20.607-4.908,1.777-4.289-12.015-13.377-11.09-18.043C860.62,510.826,876.86,507.7,876.86,502.913Zm-79.624,47.766A47.774,47.774,0,1,1,845.011,502.9h0a47.774,47.774,0,0,1-47.774,47.774Z" transform="translate(-717.612 -423.289)" fill="#c1272d"/>
</svg>
