<svg xmlns="http://www.w3.org/2000/svg" width="136.678" height="109.342" viewBox="0 0 136.678 109.342">
  <path id="Icon_awesome-chalkboard-teacher" data-name="Icon awesome-chalkboard-teacher" d="M44.421,75.173a4.886,4.886,0,0,0-1.508.233,28.172,28.172,0,0,1-8.743,1.476,28.2,28.2,0,0,1-8.745-1.476,4.873,4.873,0,0,0-1.506-.233A23.92,23.92,0,0,0,0,99.224a10.225,10.225,0,0,0,10.251,10.118H58.088A10.225,10.225,0,0,0,68.339,99.224,23.92,23.92,0,0,0,44.421,75.173ZM34.17,68.339a20.5,20.5,0,1,0-20.5-20.5A20.5,20.5,0,0,0,34.17,68.339ZM126.427,0H44.421A10.437,10.437,0,0,0,34.17,10.59V20.5a27.025,27.025,0,0,1,13.668,3.8V13.668H123.01V75.173H109.342V61.505H82.007V75.173H65.725A27.218,27.218,0,0,1,74.2,88.841h52.226a10.437,10.437,0,0,0,10.251-10.59V10.59A10.437,10.437,0,0,0,126.427,0Z" transform="translate(0)" fill="#c1272d"/>
</svg>
