<svg id="Group_6" data-name="Group 6" xmlns="http://www.w3.org/2000/svg" width="116.134" height="84.445" viewBox="0 0 116.134 84.445">
  <path id="Path_1431" data-name="Path 1431" d="M765.559,667.65a7.714,7.714,0,0,0-7.467-5.778H731.628a3.858,3.858,0,0,0-3.859,3.857v36.517H713.482a3.858,3.858,0,0,0-3.858,3.858v26.084h4.35a13.452,13.452,0,0,1,26.593,0h11.514a13.452,13.452,0,0,1,26.592,0h2.172V702.246h-6.316Zm-26.9,32.329V672.758h16.98l7.057,27.221Z" transform="translate(-709.624 -661.419)" fill="#c1272d"/>
  <path id="Path_1432" data-name="Path 1432" d="M792.187,731.281V661.419h-8.618v75.759h42.189v-5.9Z" transform="translate(-709.624 -661.419)" fill="#c1272d"/>
  <path id="Path_1433" data-name="Path 1433" d="M727.27,722.592a11.636,11.636,0,1,0,11.636,11.635A11.636,11.636,0,0,0,727.27,722.592Zm0,15.628a3.991,3.991,0,1,1,3.991-3.993A3.992,3.992,0,0,1,727.27,738.22Z" transform="translate(-709.624 -661.419)" fill="#c1272d"/>
  <path id="Path_1434" data-name="Path 1434" d="M765.377,722.592a11.636,11.636,0,1,0,11.636,11.635A11.637,11.637,0,0,0,765.377,722.592Zm0,15.628a3.991,3.991,0,1,1,3.99-3.993A3.992,3.992,0,0,1,765.377,738.22Z" transform="translate(-709.624 -661.419)" fill="#c1272d"/>
  <rect id="Rectangle_1216" data-name="Rectangle 1216" width="28.127" height="22.682" transform="translate(87.554 43.459)" fill="#c1272d"/>
  <rect id="Rectangle_1217" data-name="Rectangle 1217" width="28.127" height="22.682" transform="translate(87.554 16.24)" fill="#c1272d"/>
</svg>
