<svg xmlns="http://www.w3.org/2000/svg" width="71.629" height="57.303" viewBox="0 0 71.629 57.303">
  <path id="Icon_awesome-school" data-name="Icon awesome-school" d="M0,25.07V55.513A1.79,1.79,0,0,0,1.791,57.3h8.954V21.489H3.581A3.582,3.582,0,0,0,0,25.07ZM40.291,19.7H37.605V15.221a.9.9,0,0,0-.9-.9H34.919a.9.9,0,0,0-.9.9v7.163a.9.9,0,0,0,.9.9h5.372a.9.9,0,0,0,.9-.9V20.593A.9.9,0,0,0,40.291,19.7ZM55.708,12.54,37.8.6a3.584,3.584,0,0,0-3.973,0L15.921,12.54a3.582,3.582,0,0,0-1.595,2.979V57.3H28.652V41.187A1.79,1.79,0,0,1,30.442,39.4H41.187a1.79,1.79,0,0,1,1.791,1.791V57.3H57.3V15.52A3.582,3.582,0,0,0,55.708,12.54ZM35.815,28.652A8.954,8.954,0,1,1,44.768,19.7,8.954,8.954,0,0,1,35.815,28.652Zm32.233-7.163H60.885V57.3h8.954a1.79,1.79,0,0,0,1.791-1.791V25.07A3.582,3.582,0,0,0,68.048,21.489Z" fill="#c1272d"/>
</svg>
