<svg id="Group_2135" data-name="Group 2135" xmlns="http://www.w3.org/2000/svg" width="91.06" height="125.963" viewBox="0 0 91.06 125.963">
  <path id="Path_1492" data-name="Path 1492" d="M506.326,1902.609l-.024-.018-1.623,1.526-7.494,7.048,4.922,7.784,6.154-7.91,1.124-1.446,1.375-3.672Z" transform="translate(-450.634 -1831.978)" fill="none"/>
  <path id="Path_1493" data-name="Path 1493" d="M510.488,1972.924a1.042,1.042,0,0,1-.821.4h-.051a1.044,1.044,0,0,1-.828-.484l-.231-.365a2.485,2.485,0,0,1-.216,1.224l-1.5,3.246.11.644.714,4.187.513,3.007,6.413-17.133-.067.086Z" transform="translate(-458.283 -1883.504)" fill="none"/>
  <path id="Path_1494" data-name="Path 1494" d="M447.922,1960.73a1.043,1.043,0,0,1-.828.483h-.051a1.039,1.039,0,0,1-.821-.4l-2.866-3.684,5.837,15.594.521-3.058.714-4.186.11-.645-1.5-3.246c-.642-1.39.161-3.128,1.445-3.128h6.132a1.363,1.363,0,0,1,.525.108l-3.926-6.209Z" transform="translate(-408.003 -1871.39)" fill="none"/>
  <path id="Path_1495" data-name="Path 1495" d="M429.617,1918.95l4.922-7.784-7.1-6.672-1.605-1.51-.417-.391-3.956,2.956,2.11,5.636.986,1.268Z" transform="translate(-390.667 -1831.978)" fill="none"/>
  <circle id="Ellipse_246" data-name="Ellipse 246" cx="1.975" cy="1.975" r="1.975" transform="translate(32.854 35.022)" fill="#c1272d"/>
  <circle id="Ellipse_247" data-name="Ellipse 247" cx="1.975" cy="1.975" r="1.975" transform="translate(53.969 35.36) rotate(-9.217)" fill="#c1272d"/>
  <path id="Path_1496" data-name="Path 1496" d="M430.959,1707.722H427a1.132,1.132,0,1,0,0,2.265h3.957a1.132,1.132,0,1,0,0-2.265Z" transform="translate(-394.152 -1677.636)" fill="#c1272d"/>
  <path id="Path_1497" data-name="Path 1497" d="M529.95,1709.987h3.95a1.132,1.132,0,1,0,0-2.265h-3.95a1.132,1.132,0,1,0,0,2.265Z" transform="translate(-475.689 -1677.636)" fill="#c1272d"/>
  <path id="Path_1498" data-name="Path 1498" d="M379.421,1687.305l-.654-1.035-.019-.009A20.109,20.109,0,0,1,377,1681.4v0a1.131,1.131,0,0,1,.882-1.334,27.931,27.931,0,0,0,9.977-4.225,28.353,28.353,0,0,0,11.156-14.935,1.146,1.146,0,0,1,.7-.727,7.092,7.092,0,0,0,3.975-6.526,2.072,2.072,0,0,0-1.071-1.773.591.591,0,0,0-.374-.058,1.477,1.477,0,0,1-.217.177l-2.282,1.487a1.446,1.446,0,0,1-2.03-.468l-3.244-5.414c-7.747-1.159-14.233-7.629-17.2-16.5-3.662,8.708-14.41,15.273-27.545,16.389l-3.314,5.529a1.446,1.446,0,0,1-2.03.468L342.1,1652a1.458,1.458,0,0,1-.219-.179.7.7,0,0,0-.337.064,2.077,2.077,0,0,0-1.068,1.773,7.052,7.052,0,0,0,3.934,6.5,1.11,1.11,0,0,1,.736.731,28.352,28.352,0,0,0,11.158,14.954,28.015,28.015,0,0,0,9.98,4.225h0a1.132,1.132,0,0,1,.866,1.345,20.3,20.3,0,0,1-1.744,4.861l-.922,1.459,7.241,6.81Z" transform="translate(-326.518 -1616.946)" fill="none"/>
  <path id="Path_1499" data-name="Path 1499" d="M358.265,1650.313l-2.874-3.018-14.409-8.329-.212-.145-.857-.566-1.113-.73-4.528-2.577-.012.028-4.669-3.49a1.041,1.041,0,0,0-1.335.075l-.331.312a18.265,18.265,0,0,1-1.554-3.735,30.134,30.134,0,0,0,9.63-4.3,30.646,30.646,0,0,0,11.913-15.67,9.188,9.188,0,0,0,4.908-8.644,4.888,4.888,0,0,0-.949-2.406,35.622,35.622,0,0,0-24.7-32.917,30.378,30.378,0,0,0-8.23-1.139c-10.272,0-19.448,5.169-25.511,13.273a32.862,32.862,0,0,0-6.938,15.226,33.335,33.335,0,0,0-.478,5.558,4.87,4.87,0,0,0-.948,2.406,9.193,9.193,0,0,0,4.908,8.648,30.648,30.648,0,0,0,11.9,15.679,30.149,30.149,0,0,0,9.636,4.306,18.2,18.2,0,0,1-1.789,4.159l-.8-.752a1.04,1.04,0,0,0-1.335-.075l-6.529,4.879-2.038,1.16-1.115.73-.855.566-.214.145-14.407,8.329-2.874,3.018-6.177,38.709h91.06ZM327.421,1635.2l1.622-1.525.025.018L333.5,1637l-1.375,3.674L331,1642.124l-6.154,7.911-4.921-7.784Zm-3.771,16.831.231.365a1.041,1.041,0,0,0,.828.483h.052a1.035,1.035,0,0,0,.819-.4l4.035-5.187.069-.085-6.414,17.133-.512-3.007-.713-4.187-.11-.644,1.5-3.247A2.479,2.479,0,0,0,323.651,1652.032Zm-11.381-19.648a20.285,20.285,0,0,0,1.745-4.86,1.131,1.131,0,0,0-.865-1.346h0a28.043,28.043,0,0,1-9.981-4.226A28.347,28.347,0,0,1,292.007,1607a1.109,1.109,0,0,0-.736-.73,7.054,7.054,0,0,1-3.935-6.5,2.082,2.082,0,0,1,1.069-1.774.7.7,0,0,1,.337-.064,1.385,1.385,0,0,0,.218.179l2.284,1.489a1.447,1.447,0,0,0,2.03-.468l3.313-5.53c13.136-1.118,23.882-7.681,27.545-16.389,2.968,8.874,9.453,15.345,17.2,16.506l3.244,5.412a1.447,1.447,0,0,0,2.03.468l2.281-1.489a1.168,1.168,0,0,0,.219-.178.581.581,0,0,1,.372.061,2.065,2.065,0,0,1,1.071,1.772,7.093,7.093,0,0,1-3.974,6.526,1.145,1.145,0,0,0-.695.726,28.353,28.353,0,0,1-11.156,14.936,27.962,27.962,0,0,1-9.977,4.226,1.131,1.131,0,0,0-.882,1.334v0a20.089,20.089,0,0,0,1.745,4.859l.019.01.653,1.036-7.693,7.233-7.24-6.809Zm-4.135,1.292.416.391,1.606,1.511,7.094,6.672-4.921,7.784-5.056-6.5-.986-1.267-2.109-5.638Zm8.481,45.71a1.409,1.409,0,0,1-.274.038c-.624,0-1.458-.859-7.535-7.732-3.246-3.673-6.485-7.4-6.516-7.44a2.239,2.239,0,0,1-.439-2.125l1.562-5.05a.166.166,0,0,0-.087-.2l-6.884-3.377a2.241,2.241,0,0,1-1.25-2.193,1.067,1.067,0,0,1,.069-.3l4.48-11.388a1.04,1.04,0,1,1,1.936.762l-4.395,11.172a.155.155,0,0,0,.077.079l6.884,3.38a2.236,2.236,0,0,1,1.156,2.679l-1.562,5.05a.174.174,0,0,0,.031.158c4.505,5.187,11.926,13.618,13.011,14.543a1.041,1.041,0,0,1-.264,1.942Zm-.759-29.258c-1.283,0-2.086,1.737-1.446,3.126l1.5,3.247-.111.644-.713,4.188-.522,3.057-5.836-15.593,2.866,3.682a1.032,1.032,0,0,0,.819.4h.05a1.042,1.042,0,0,0,.83-.483l5.291-8.371,3.927,6.209a1.377,1.377,0,0,0-.524-.107Zm12.514,21.564c-6.079,6.873-6.911,7.732-7.535,7.732a1.386,1.386,0,0,1-.274-.038,1.041,1.041,0,0,1-.264-1.942c1.085-.926,8.506-9.356,13.019-14.554a.159.159,0,0,0,.023-.144l-1.562-5.053a2.236,2.236,0,0,1,1.156-2.679l6.884-3.38a.154.154,0,0,0,.077-.079l-4.395-11.172a1.04,1.04,0,1,1,1.936-.762l4.48,11.388a1.074,1.074,0,0,1,.069.3,2.236,2.236,0,0,1-1.25,2.191l-6.884,3.382a.162.162,0,0,0-.087.195l1.562,5.052a2.234,2.234,0,0,1-.428,2.113C334.857,1664.289,331.618,1668.019,328.372,1671.692Zm26.095,8.341a4.352,4.352,0,0,1-4.349,4.348h-10.4a4.35,4.35,0,0,1-4.347-4.348v-11.316a1.039,1.039,0,0,1,1.04-1.041h17.017a1.04,1.04,0,0,1,1.04,1.041Z" transform="translate(-273.38 -1563.06)" fill="#c1272d"/>
  <path id="Path_1500" data-name="Path 1500" d="M581.435,2086.345a2.271,2.271,0,0,0,2.268,2.269h10.4a2.271,2.271,0,0,0,2.268-2.269v-10.278H581.435Z" transform="translate(-517.366 -1969.373)" fill="#c1272d"/>
  <path id="Path_1501" data-name="Path 1501" d="M470.546,1820.521a12.864,12.864,0,0,1-4.023-.642l-1.023-.337a1.04,1.04,0,0,1,.651-1.976l1.023.337a10.852,10.852,0,0,0,6.745,0l1.023-.337a1.04,1.04,0,0,1,.651,1.976l-1.023.337A12.865,12.865,0,0,1,470.546,1820.521Z" transform="translate(-424.975 -1764.589)" fill="#c1272d"/>
  <path id="Path_1502" data-name="Path 1502" d="M478.444,1765.036a1.037,1.037,0,0,1-.549-.158l-2.607-1.625a1.039,1.039,0,0,1-.271-1.521l2.638-3.391a1.04,1.04,0,1,1,1.642,1.277l-1.93,2.48,1.627,1.014a1.04,1.04,0,0,1-.551,1.923Z" transform="translate(-432.906 -1717.411)" fill="#c1272d"/>
</svg>
