<svg xmlns="http://www.w3.org/2000/svg" width="122.326" height="72.619" viewBox="0 0 122.326 72.619">
  <g id="Group_2050" data-name="Group 2050" transform="translate(21687.864 -4360.001)">
    <path id="パス_1347" data-name="パス 1347" d="M724.588,99.205H612.43a4.458,4.458,0,0,1,0-8.915H724.588a4.458,4.458,0,0,1,0,8.915Z" transform="translate(-22295.84 4269.711)" fill="#c1272d"/>
    <path id="パス_1348" data-name="パス 1348" d="M724.915,115.884H612.759a4.46,4.46,0,0,1,0-8.919H724.915a4.46,4.46,0,0,1,0,8.919Z" transform="translate(-22295.543 4284.884)" fill="#c1272d"/>
    <path id="パス_1349" data-name="パス 1349" d="M725.247,132.56H613.091a4.459,4.459,0,0,1,0-8.917H725.247a4.459,4.459,0,0,1,0,8.917Z" transform="translate(-22295.242 4300.06)" fill="#c1272d"/>
  </g>
</svg>
