<svg xmlns="http://www.w3.org/2000/svg" width="162.31" height="100.84" viewBox="0 0 162.31 100.84">
  <g id="Group_2369" data-name="Group 2369" transform="translate(0)">
    <path id="Path_696" data-name="Path 696" d="M649.055,492.9c-.1.407-.219.811-.3,1.222A29.946,29.946,0,0,1,589.85,483.3c2.443-12.628,10.18-20.913,22.723-23.81,12.321-2.846,22.651,1.149,30.593,11.041,3.247,4.045,4.913,8.8,5.889,13.825Zm-10.518-4.642a19.25,19.25,0,1,0-19.162,19.528A19.224,19.224,0,0,0,638.536,488.261Z" transform="translate(-486.745 -417.714)" fill="#c1272d"/>
    <path id="Path_697" data-name="Path 697" d="M564.609,467.545c-1.251-.01-1.968.362-2.278,1.622a22.98,22.98,0,0,1-1.142,3.452c-.447,1.064-.106,1.54.85,2.1,10.683,6.266,16.066,15.571,15.472,28A29.919,29.919,0,1,1,551.4,471.258c1.338.171,1.861-.335,2.252-1.54q4.857-14.971,9.825-29.909c1.757-5.259,5.44-8.568,10.922-9.355,5.172-.742,10.425-.189,15.64-.252.926-.01,1.11.6,1.1,1.381-.011,1.635-.087,3.277.028,4.9.11,1.572-.552,2-2.022,1.973-4.167-.067-8.335-.038-12.5-.015a5.307,5.307,0,0,0-5.478,3.919c-.459,1.291-.8,2.627-1.314,3.9s-.224,1.635,1.16,1.621c5.907-.06,11.817-.033,17.724-.02a33.99,33.99,0,0,1,15.6,4.118,2.311,2.311,0,0,1,1.367,2.4c-.05,3.746-.08,7.492.012,11.235.038,1.556-.545,1.994-2.025,1.983-6.488-.056-12.975-.025-19.464-.025C577.692,467.567,571.151,467.592,564.609,467.545Zm1.537,38.982c2.377-7.9-.629-16.726-7.212-21.174-1.517-1.024-1.532-1.028-2.088.662-.825,2.5-1.6,5.026-2.456,7.518a2.166,2.166,0,0,0,.348,2.184,8.7,8.7,0,0,1,.114,10.349,8.8,8.8,0,1,1-10.022-13.393,2.665,2.665,0,0,0,1.95-2c.69-2.27,1.391-4.542,2.234-6.757.837-2.2.107-2.351-1.672-2.283a18.7,18.7,0,0,0-12.275,4.773c-5.927,5.4-8.048,12.113-5.866,19.79,2.145,7.541,7.38,12.09,15.1,13.692a5.237,5.237,0,0,0,.936.149c.843.021,1.686.007,2.529.007A18.975,18.975,0,0,0,566.147,506.527Z" transform="translate(-517.727 -430.062)" fill="#c1272d"/>
    <path id="Path_698" data-name="Path 698" d="M582.874,459.572H557.72c-.423,0-.844-.01-1.265.01-.466.023-1.07-.079-1.27.427-.213.543.38.809.711,1.112a36.777,36.777,0,0,1,9.723,14.238,33.234,33.234,0,0,1,2.252,11.26c.069,3.527,1.385,4.887,4.913,4.907q10.284.058,20.568,0c3.28-.016,4.273-1.112,4.357-4.423.266-10.368,4.457-18.934,11.969-25.971.384-.36,1.23-.565.919-1.263-.231-.519-.953-.292-1.46-.292Q596.006,459.564,582.874,459.572Z" transform="translate(-501.535 -417.307)" fill="#c1272d"/>
    <path id="Path_699" data-name="Path 699" d="M606.714,462.1h21.845a6.891,6.891,0,0,0,4.091-.98,4.768,4.768,0,0,0,2.175-4.162c-.018-2.955.015-5.91-.007-8.865-.024-3.262-2.063-5.2-5.373-5.347A47.307,47.307,0,0,0,610.18,445.6a40.806,40.806,0,0,1-15.83,2.522c-3.427-.086-6.86.046-10.288-.044-1.493-.039-1.929.54-1.9,1.941.063,3.27.014,6.542.021,9.813.006,2.148.112,2.261,2.214,2.263Q595.554,462.108,606.714,462.1Z" transform="translate(-489.841 -424.597)" fill="#c1272d"/>
    <path id="Path_700" data-name="Path 700" d="M533.785,450.563c0,2.949.044,5.9-.02,8.847-.032,1.419.537,1.873,1.9,1.717a22.139,22.139,0,0,0,12.014-5.146,2.743,2.743,0,0,0,1.063-2.328q-.075-3.157,0-6.319a2.681,2.681,0,0,0-1.1-2.308,22.375,22.375,0,0,0-12.2-5.112c-1.327-.128-1.668.494-1.659,1.643C533.8,444.558,533.787,447.56,533.785,450.563Z" transform="translate(-510.786 -425.805)" fill="#c1272d"/>
    <path id="Path_701" data-name="Path 701" d="M533.006,450.35c0-2.844-.041-5.69.017-8.534.029-1.393-.434-2.109-1.911-1.95a5.6,5.6,0,0,1-1.1,0c-1.256-.115-1.807.367-1.8,1.7q.067,8.928,0,17.858c-.009,1.264.4,1.9,1.728,1.764a5.864,5.864,0,0,1,1.263,0c1.4.159,1.851-.49,1.823-1.836C532.963,456.358,533.006,453.353,533.006,450.35Z" transform="translate(-513.19 -425.828)" fill="#c1272d"/>
    <path id="Path_702" data-name="Path 702" d="M612.953,490.98a8.781,8.781,0,1,0-8.89-8.833A8.884,8.884,0,0,0,612.953,490.98Z" transform="translate(-480.362 -411.297)" fill="#c1272d"/>
  </g>
</svg>
