<svg xmlns="http://www.w3.org/2000/svg" width="63" height="44.1" viewBox="0 0 63 44.1">
  <path id="Icon_awesome-car-side" data-name="Icon awesome-car-side" d="M9.45,18h1.575L21.733,4.614a6.3,6.3,0,0,1,4.92-2.364H47.71a6.3,6.3,0,0,1,5.849,3.96l4.716,12.012A6.285,6.285,0,0,1,63,24.3V35.325A1.575,1.575,0,0,1,61.425,36.9H56.7a9.45,9.45,0,0,1-18.9,0H25.2a9.45,9.45,0,0,1-18.9,0H1.575A1.575,1.575,0,0,1,0,35.325V27.45A9.45,9.45,0,0,1,9.45,18Zm37.8,23.625A4.725,4.725,0,1,0,42.525,36.9,4.73,4.73,0,0,0,47.25,41.625ZM40.162,18H51.49L47.71,8.55H40.162Zm-4.725,0V8.55H26.653L19.093,18ZM15.75,41.625A4.725,4.725,0,1,0,11.025,36.9,4.73,4.73,0,0,0,15.75,41.625Z" transform="translate(0 -2.25)" fill="#fff"/>
</svg>
