<svg id="Group_2366" data-name="Group 2366" xmlns="http://www.w3.org/2000/svg" width="25.656" height="24.27" viewBox="0 0 25.656 24.27">
  <rect id="Rectangle_352" data-name="Rectangle 352" width="25.656" height="1.932" transform="translate(0 22.337)" fill="#c1272d"/>
  <g id="Group_463" data-name="Group 463" transform="translate(2.533)">
    <path id="Path_640" data-name="Path 640" d="M53.27,129.51l-2.381-2.38a1.632,1.632,0,0,0-2.308,0l-1.544,1.544-11.579,11.58a3,3,0,0,0-.7,1.106l-1.529,4.255a1.218,1.218,0,0,0,1.559,1.558l4.254-1.529a3,3,0,0,0,1.106-.7l11.176-11.176h0l.4-.4,1.543-1.543h0A1.632,1.632,0,0,0,53.27,129.51Zm-17,11.55,11.522-11.524,1.335,1.336L37.487,142.51l-1.329-1.328C36.193,141.14,36.228,141.1,36.267,141.06Zm2.39,3.507-2.711.975-1.087-1.087.974-2.71c.007-.02.017-.038.024-.058l2.857,2.856C38.694,144.552,38.676,144.561,38.656,144.568Zm.684-.434c-.038.038-.08.074-.121.109l-1.329-1.329,11.638-11.638,1.335,1.335Zm13.123-13.123-1.139,1.14-.057.057-3.074-3.074,1.2-1.2a.492.492,0,0,1,.694,0l2.381,2.38a.491.491,0,0,1,0,.695Z" transform="translate(-33.157 -126.652)" fill="#c1272d"/>
  </g>
</svg>
