<svg xmlns="http://www.w3.org/2000/svg" width="42.941" height="54" viewBox="0 0 42.941 54">
  <g id="Group_485" data-name="Group 485" style="isolation: isolate">
    <path id="Path_658" data-name="Path 658" d="M59.7,382.771a21.85,21.85,0,0,0-16.912,35.205l12.072,16.332a5.987,5.987,0,0,0,9.677,0l12.236-16.55A21.847,21.847,0,0,0,59.7,382.771ZM74.484,416,62.239,432.562a3.137,3.137,0,0,1-5.071,0L45.093,416.223l-.057-.076A18.594,18.594,0,1,1,74.484,416Z" transform="translate(-38.233 -382.771)" fill="#fff"/>
    <path id="Path_659" data-name="Path 659" d="M56.867,391.112a10.2,10.2,0,1,0,10.055,10.2A10.141,10.141,0,0,0,56.867,391.112Z" transform="translate(-35.396 -379.852)" fill="#fff"/>
  </g>
</svg>
