<svg xmlns="http://www.w3.org/2000/svg" width="64.549" height="45.386" viewBox="0 0 64.549 45.386">
  <path id="Icon_awesome-youtube" data-name="Icon awesome-youtube" d="M64.25,11.6a8.111,8.111,0,0,0-5.707-5.744C53.509,4.5,33.324,4.5,33.324,4.5S13.139,4.5,8.106,5.858A8.111,8.111,0,0,0,2.4,11.6C1.05,16.668,1.05,27.239,1.05,27.239S1.05,37.81,2.4,42.876a7.99,7.99,0,0,0,5.707,5.652c5.034,1.358,25.219,1.358,25.219,1.358s20.185,0,25.219-1.358a7.99,7.99,0,0,0,5.707-5.652C65.6,37.81,65.6,27.239,65.6,27.239s0-10.571-1.349-15.637ZM26.723,36.836v-19.2l16.871,9.6Z" transform="translate(-1.05 -4.5)" fill="#c1272d"/>
</svg>
