<svg id="Group_363" data-name="Group 363" xmlns="http://www.w3.org/2000/svg" width="124.094" height="117.387" viewBox="0 0 124.094 117.387">
  <rect id="Rectangle_314" data-name="Rectangle 314" width="124.094" height="9.346" transform="translate(0 108.041)" fill="#fff"/>
  <g id="Group_362" data-name="Group 362" transform="translate(12.251)">
    <path id="Path_493" data-name="Path 493" d="M471.945,2284.028l-11.516-11.511a7.893,7.893,0,0,0-11.163,0l-7.465,7.465-56,56.011a14.512,14.512,0,0,0-3.394,5.348l-7.394,20.58a5.891,5.891,0,0,0,7.539,7.535l20.576-7.4a14.5,14.5,0,0,0,5.35-3.392l54.055-54.056h0l1.951-1.954,7.462-7.464,0,0A7.9,7.9,0,0,0,471.945,2284.028ZM389.7,2339.894l55.73-55.738,6.46,6.46L395.6,2346.9l-6.427-6.424C389.346,2340.278,389.516,2340.078,389.7,2339.894Zm11.557,16.966-13.113,4.713-5.256-5.257,4.712-13.111c.034-.1.08-.187.118-.281l13.818,13.816C401.444,2356.779,401.354,2356.825,401.26,2356.86Zm3.31-2.1c-.184.186-.384.357-.586.526l-6.427-6.427,56.288-56.29,6.456,6.458Zm63.471-63.473-5.511,5.513-.275.276L447.385,2282.2l5.785-5.788a2.379,2.379,0,0,1,3.354,0l11.516,11.511a2.371,2.371,0,0,1-.005,3.357Z" transform="translate(-374.664 -2270.202)" fill="#fff"/>
  </g>
</svg>
