<svg id="Group_1" data-name="Group 1" xmlns="http://www.w3.org/2000/svg" width="174.02" height="70.219" viewBox="0 0 174.02 70.219">
  <path id="パス_826" data-name="パス 826" d="M1040.864,732.529a13.88,13.88,0,1,0,13.867,13.892h0a13.877,13.877,0,0,0-13.861-13.892Zm0,21.175a7.3,7.3,0,1,1,7.292-7.3v0h0a7.292,7.292,0,0,1-7.289,7.295h0Z" transform="translate(-903.151 -690.07)" fill="#c1272d"/>
  <path id="パス_828" data-name="パス 828" d="M937.249,732.529a13.88,13.88,0,1,0,13.868,13.892h0a13.878,13.878,0,0,0-13.861-13.892Zm0,21.175a7.3,7.3,0,1,1,7.292-7.3v0h0a7.292,7.292,0,0,1-7.289,7.295h0Z" transform="translate(-903.151 -690.07)" fill="#c1272d"/>
  <path id="パス_830" data-name="パス 830" d="M1076.968,750.06a2.659,2.659,0,0,1-2.862,2.373h-12.631a2.415,2.415,0,1,1-.889-4.747h0a2.506,2.506,0,0,1,.889,0h12.618A2.663,2.663,0,0,1,1076.968,750.06Z" transform="translate(-903.151 -690.07)" fill="#c1272d"/>
  <path id="パス_831" data-name="パス 831" d="M919.3,750.06a2.658,2.658,0,0,1-2.861,2.373h-10.43a2.415,2.415,0,1,1-.889-4.747h0a2.506,2.506,0,0,1,.889,0h10.43A2.661,2.661,0,0,1,919.3,750.06Z" transform="translate(-903.151 -690.07)" fill="#c1272d"/>
  <path id="パス_832" data-name="パス 832" d="M1024.123,750.06a2.66,2.66,0,0,1-2.862,2.373H957.6a2.415,2.415,0,1,1-.889-4.747,2.506,2.506,0,0,1,.889,0h63.657A2.663,2.663,0,0,1,1024.123,750.06Z" transform="translate(-903.151 -690.07)" fill="#c1272d"/>
  <path id="パス_812" data-name="パス 812" d="M1076.623,740.278l-1.287-7.1-1.787-13.754h-.354c-.188,0-.2-.028-.028-.044l.313-.031-.564-.085c-.394-.128-1.208-.347-2.213-.595l-14.929-1.931a9.912,9.912,0,0,1-4.568-2.909l-10.661-13.31a6.776,6.776,0,0,0-4.653-2.236h-24.575l-1.819-8.215h-8.917l-1.982,8.215H984.675a9.435,9.435,0,0,0-5.079,1.8l-19.744,14.794a11.584,11.584,0,0,1-5.066,2.126l-43.242,6.731a4.625,4.625,0,0,0-3.62,3.075l-.56,1.991,11.776-2.317-1.6,5.3-4.459.254-1.174-.911-5.373.626-2.429,8.607a2.41,2.41,0,0,0-.019,1.253l-.755,1.493h15.887a18.215,18.215,0,0,1,21.118-14.754l.11.02a1.469,1.469,0,0,1,.263.034h.05a17.823,17.823,0,0,1,2.3.607c.313.1.627.223.94.342.357.144.707.3,1.055.46A18.3,18.3,0,0,1,955.425,743.1h67.423a18.335,18.335,0,0,1,36.072,0h18.251Zm-85.138-15.4h-9.594V722.35h9.594Zm10.238-20.461-.222,9.358a2.946,2.946,0,0,1-2.924,2.862H966.224c-1.566,0-1.829-.77-.567-1.709l15.627-11.66a10.107,10.107,0,0,1,5.144-1.71h12.5a2.792,2.792,0,0,1,2.8,2.787Zm27.1,19.7h-9.593v-2.524h9.593Zm2.467-7.483h-24.421a2.865,2.865,0,0,1-2.856-2.862v-9.355h0a2.858,2.858,0,0,1,2.865-2.846l22.258.125a3.443,3.443,0,0,1,3.272,2.849l1.343,9.258a2.25,2.25,0,0,1,.035.511,2.408,2.408,0,0,1-2.483,2.323Zm14.535,0h-4.7a3.62,3.62,0,0,1-3.4-2.818l-1.829-9.462c-.313-1.547-.072-2.774.5-2.73a6.3,6.3,0,0,1,2.774,2.367l7.8,10.351c.948,1.265.432,2.295-1.134,2.295Z" transform="translate(-903.151 -690.07)" fill="#c1272d"/>
</svg>
