<svg id="グループ_1395" data-name="グループ 1395" xmlns="http://www.w3.org/2000/svg" width="94.114" height="99.994" viewBox="0 0 94.114 99.994">
  <path id="パス_1011" data-name="パス 1011" d="M510.221,440.328a8.381,8.381,0,1,0-.005,0Z" transform="translate(-465.653 -423.293)" fill="#c1272d"/>
  <path id="パス_1012" data-name="パス 1012" d="M522.354,476.448v11.713h-6.713a3.958,3.958,0,0,0,.173-.47c1.043-3.809,3.384-13.109,2.559-17.159-.746-3.664-4.471-4.951-9.046-5.705a83.492,83.492,0,0,1,2.374-13.086c.119.508.226,1.109.34,1.777a12.464,12.464,0,0,0,1.346,4.5c.508.83,1.678,2.775,11.652,4.438a3.185,3.185,0,0,0,.507.043,3.082,3.082,0,0,0,.508-6.124,39.373,39.373,0,0,1-7.528-1.9,18.306,18.306,0,0,1-.4-1.967c-.528-3.189-1.417-8.531-7.843-10.136-.681-.17-3.887-.944-6.256-1.6-7.5-2.059-13.117,4.329-14.963,6.429-.167.19-.3.348-.408.457-2.032,2.1-3.512,8.554-4.21,12.216a3.086,3.086,0,0,0,2.45,3.608,3.152,3.152,0,0,0,.582.055,3.085,3.085,0,0,0,3.024-2.506,38.731,38.731,0,0,1,2.63-9.14c.15-.158,1.777-1.968,2.453-2.6a48.087,48.087,0,0,0-2.313,18.067c-.016,1.871.155,3.809.319,5.726a33.618,33.618,0,0,1,.12,7.8c-.726,4.21-3.2,16.25-3.227,16.369a3.963,3.963,0,0,0,.345,2.593h-6.282v11.712h-18.9v11.713h37.8V511.575h18.9v-11.71h18.9V488.153h18.522V476.44Zm-24.407,23.425a4,4,0,0,0,.343-.985c.1-.508,2.539-12.286,3.272-16.623a39,39,0,0,0-.035-9.846l-.051-.6c.817.111,1.668.215,2.539.322a52.894,52.894,0,0,1,6.571,1.074,75.765,75.765,0,0,1-2.458,12.373,3.957,3.957,0,0,0,.165,2.574h-4.839v11.713Z" transform="translate(-465.653 -423.293)" fill="#c1272d"/>
</svg>
