<svg id="Group_2" data-name="Group 2" xmlns="http://www.w3.org/2000/svg" width="308.077" height="97.303" viewBox="0 0 308.077 97.303">
  <rect id="長方形_579" data-name="長方形 579" width="36.348" height="5.489" transform="translate(0 82.173)" fill="#c1272d"/>
  <path id="パス_810" data-name="パス 810" d="M558.533,745.164H684.691v5.49H558.533" transform="translate(-484.801 -662.987)" fill="#c1272d"/>
  <rect id="長方形_580" data-name="長方形 580" width="29.661" height="5.489" transform="translate(276 82.173)" fill="#c1272d"/>
  <path id="パス_813" data-name="パス 813" d="M540.844,728.19a16.049,16.049,0,1,0,16.049,16.05h0A16.049,16.049,0,0,0,540.844,728.19Zm0,24.489a8.438,8.438,0,1,1,8.435-8.442h0a8.438,8.438,0,0,1-8.437,8.431Z" transform="translate(-484.801 -662.987)" fill="#c1272d"/>
  <path id="パス_815" data-name="パス 815" d="M703.674,728.19a16.049,16.049,0,1,0,16.049,16.05h0A16.049,16.049,0,0,0,703.674,728.19Zm0,24.489a8.438,8.438,0,1,1,8.436-8.442h0a8.441,8.441,0,0,1-8.436,8.431Z" transform="translate(-484.801 -662.987)" fill="#c1272d"/>
  <path id="パス_817" data-name="パス 817" d="M746.1,728.19a16.049,16.049,0,1,0,16.049,16.05h0A16.05,16.05,0,0,0,746.1,728.19Zm0,24.489a8.438,8.438,0,1,1,8.435-8.442h0a8.441,8.441,0,0,1-8.435,8.431Z" transform="translate(-484.801 -662.987)" fill="#c1272d"/>
  <path id="パス_810-2" data-name="パス 810-2" d="M500.184,663l-14.638,33.427.3.026-.319,43.948h35.764a19.917,19.917,0,0,1,39.088,0H684.124a19.79,19.79,0,0,1,23-15.765c7.374-.021,31.425-.033,35.71-.033a19.779,19.779,0,0,1,22.8,15.795h27.24v-77.41Zm16.235,70.69a2.418,2.418,0,0,1-2.412,2.4H492.6a2.415,2.415,0,0,1-2.407-2.4l-.118-35.484a13.356,13.356,0,0,1,.967-4.6l11.092-24.955a4.038,4.038,0,0,1,3.381-2.2h8.771a2.394,2.394,0,0,1,2.389,2.4v.005Zm54.117-46.326a2.4,2.4,0,0,1-2.4,2.4H522.174a2.4,2.4,0,0,1-2.4-2.4h0V669.149a2.4,2.4,0,0,1,2.4-2.4h45.971a2.4,2.4,0,0,1,2.4,2.4v.005Zm54.54,0a2.4,2.4,0,0,1-2.4,2.4H576.717a2.4,2.4,0,0,1-2.4-2.4v0h0V669.149a2.4,2.4,0,0,1,2.4-2.4h45.961a2.4,2.4,0,0,1,2.4,2.4h0Zm54.538,0a2.4,2.4,0,0,1-2.4,2.4H631.254a2.4,2.4,0,0,1-2.4-2.4V669.151a2.4,2.4,0,0,1,2.4-2.4h45.972a2.4,2.4,0,0,1,2.4,2.4v0Zm54.542,0a2.4,2.4,0,0,1-2.4,2.4H685.8a2.4,2.4,0,0,1-2.4-2.4V669.151a2.4,2.4,0,0,1,2.4-2.4h45.969a2.4,2.4,0,0,1,2.4,2.4v0Zm54.543,0a2.4,2.4,0,0,1-2.4,2.4H740.34a2.4,2.4,0,0,1-2.4-2.4V669.151a2.4,2.4,0,0,1,2.4-2.4h45.971a2.4,2.4,0,0,1,2.4,2.4v0Z" transform="translate(-484.801 -662.987)" fill="#c1272d"/>
</svg>
