<svg id="グループ_1493" data-name="グループ 1493" xmlns="http://www.w3.org/2000/svg" width="129.126" height="99.994" viewBox="0 0 129.126 99.994">
  <path id="パス_1125" data-name="パス 1125" d="M223.376,488.683a9.636,9.636,0,1,0-9.64-9.631h0a9.636,9.636,0,0,0,9.637,9.631Z" transform="translate(-193.245 -423.292)" fill="#c1272d"/>
  <path id="パス_1126" data-name="パス 1126" d="M223.376,493.824c-7.066,0-12.205,8.346-12.205,13.489v15.975h24.413V507.313C235.584,502.185,230.433,493.824,223.376,493.824Z" transform="translate(-193.245 -423.292)" fill="#c1272d"/>
  <path id="パス_1127" data-name="パス 1127" d="M257.808,488.683a9.636,9.636,0,1,0-9.639-9.631h0a9.634,9.634,0,0,0,9.635,9.631Z" transform="translate(-193.245 -423.292)" fill="#c1272d"/>
  <path id="パス_1128" data-name="パス 1128" d="M257.808,493.824c-7.07,0-12.209,8.346-12.209,13.489v15.975h24.416V507.313C270.015,502.185,264.874,493.824,257.808,493.824Z" transform="translate(-193.245 -423.292)" fill="#c1272d"/>
  <path id="パス_1129" data-name="パス 1129" d="M292.236,488.683a9.636,9.636,0,1,0-9.635-9.635h0A9.64,9.64,0,0,0,292.236,488.683Z" transform="translate(-193.245 -423.292)" fill="#c1272d"/>
  <path id="パス_1130" data-name="パス 1130" d="M193.245,423.292V504H207.6a20.341,20.341,0,0,1,2.609-6.053H199.3v-68.6H316.32v68.6H305.409A20.24,20.24,0,0,1,308.017,504h14.354v-80.7Z" transform="translate(-193.245 -423.292)" fill="#c1272d"/>
  <path id="パス_1131" data-name="パス 1131" d="M292.236,493.824c-7.066,0-12.2,8.346-12.2,13.489v15.975h24.409V507.313C304.441,502.185,299.3,493.824,292.236,493.824Z" transform="translate(-193.245 -423.292)" fill="#c1272d"/>
</svg>
