<svg xmlns="http://www.w3.org/2000/svg" width="104.231" height="110.752" viewBox="0 0 104.231 110.752">
  <g id="Group_2038" data-name="Group 2038" transform="translate(-1802.16 -1409.643)">
    <path id="Path_1011" data-name="Path 1011" d="M2132.723,1428.509a9.434,9.434,0,1,0-9.274-9.591A9.435,9.435,0,0,0,2132.723,1428.509Z" transform="translate(-281.214 0)" fill="#c1272d"/>
    <path id="Path_1012" data-name="Path 1012" d="M1864.949,1601.316v12.971h-7.435a4.437,4.437,0,0,0,.191-.52c1.157-4.22,3.748-14.518,2.834-19-.827-4.058-4.952-5.484-10.02-6.319a92.379,92.379,0,0,1,2.631-14.492c.132.576.251,1.228.376,1.977a13.78,13.78,0,0,0,1.49,4.986c.556.919,1.859,3.073,12.9,4.914a3.481,3.481,0,0,0,.565.047,3.415,3.415,0,0,0,.557-6.784,43.6,43.6,0,0,1-8.338-2.1,20.264,20.264,0,0,1-.439-2.18c-.586-3.533-1.568-9.447-8.686-11.226-.753-.188-4.306-1.045-6.928-1.766-8.306-2.28-14.526,4.8-16.57,7.122-.186.212-.337.386-.452.506-2.251,2.326-3.887,9.474-4.663,13.528a3.415,3.415,0,1,0,6.709,1.282c.842-4.4,2.2-9.1,2.914-10.115.164-.173,1.97-2.18,2.717-2.878-2.067,6.679-3.359,15.683-2.561,20.011-.016,2.072.171,4.228.355,6.341a37.261,37.261,0,0,1,.133,8.643c-.8,4.663-3.545,17.994-3.573,18.129a4.39,4.39,0,0,0,.383,2.871h-6.95v12.971h-20.93V1653.2h41.859V1640.23h20.93v-12.971h20.929v-12.971h20.513v-12.971Zm-27.031,25.943a4.393,4.393,0,0,0,.379-1.093c.114-.554,2.8-13.606,3.626-18.409a43.218,43.218,0,0,0-.039-10.906l-.057-.664c.906.125,1.849.24,2.812.358a58.541,58.541,0,0,1,7.276,1.189,83.932,83.932,0,0,1-2.72,13.7,4.388,4.388,0,0,0,.183,2.851h-5.36v12.971Z" transform="translate(0 -132.805)" fill="#c1272d"/>
  </g>
</svg>
