<svg id="Group_2027" data-name="Group 2027" xmlns="http://www.w3.org/2000/svg" width="323.648" height="161.678" viewBox="0 0 323.648 161.678">
  <path id="Path_380" data-name="Path 380" d="M581.972,1126.381l-21.508-34.224a39.739,39.739,0,0,0-33.638-18.587H426.672a62.723,62.723,0,0,0-44.785,18.8L353.3,1121.52l-68.168,15.78a25.1,25.1,0,0,0-19.431,24.453v26.77a10.461,10.461,0,0,0,10.454,10.454H312.4c-.048.721-.117,1.438-.117,2.164a34.114,34.114,0,0,0,68.228,0c0-.726-.07-1.443-.117-2.164H487.649c-.048.721-.118,1.438-.118,2.164a34.108,34.108,0,1,0,68.216,0c0-.726-.058-1.443-.106-2.164H578.9a10.459,10.459,0,0,0,10.454-10.454v-36.543A48.1,48.1,0,0,0,581.972,1126.381ZM346.4,1214.734a13.591,13.591,0,1,1,13.588-13.594A13.592,13.592,0,0,1,346.4,1214.734Zm86.261-85.765H371.233l23.513-23.976a44.979,44.979,0,0,1,31.926-13.4h6v37.377Zm70.084,0H448.424v-37.377H502.75Zm18.89,85.765a13.591,13.591,0,1,1,13.588-13.594A13.6,13.6,0,0,1,521.64,1214.734Zm-3.122-85.765v-37.377h8.308a21.576,21.576,0,0,1,18.374,10.156l17.106,27.222Z" transform="translate(-265.704 -1073.57)" fill="#333"/>
</svg>
