<svg xmlns="http://www.w3.org/2000/svg" width="30.433" height="21.303" viewBox="0 0 30.433 21.303">
  <path id="Icon_awesome-car-side" data-name="Icon awesome-car-side" d="M4.565,9.858h.761L10.5,3.392A3.044,3.044,0,0,1,12.875,2.25H23.047a3.043,3.043,0,0,1,2.825,1.913l2.278,5.8A3.036,3.036,0,0,1,30.433,12.9v5.326a.761.761,0,0,1-.761.761H27.389a4.565,4.565,0,0,1-9.13,0H12.173a4.565,4.565,0,0,1-9.13,0H.761A.761.761,0,0,1,0,18.227v-3.8A4.565,4.565,0,0,1,4.565,9.858ZM22.825,21.27a2.282,2.282,0,1,0-2.282-2.282A2.285,2.285,0,0,0,22.825,21.27ZM19.4,9.858h5.472L23.047,5.293H19.4Zm-2.282,0V5.293H12.875L9.223,9.858ZM7.608,21.27a2.282,2.282,0,1,0-2.282-2.282A2.285,2.285,0,0,0,7.608,21.27Z" transform="translate(0 -2.25)" fill="#c1272d"/>
</svg>
