<svg id="Group_2060" data-name="Group 2060" xmlns="http://www.w3.org/2000/svg" width="173.135" height="159.248" viewBox="0 0 173.135 159.248">
  <path id="パス_1382" data-name="パス 1382" d="M609.637,506.7,585.613,470.66a4.231,4.231,0,0,1,0-4.715l24.024-36.039a4.252,4.252,0,0,0-3.537-6.614H494.015v90.023H606.1a4.251,4.251,0,0,0,3.538-6.61Z" transform="translate(-437.219 -423.286)" fill="#c1272d"/>
  <path id="パス_1383" data-name="パス 1383" d="M505.073,552.756V423.288H484.935V552.994c-15.4,1.911-26.585,7.644-26.585,14.437,0,8.34,16.912,15.1,37.764,15.1s37.766-6.763,37.766-15.1C533.881,560.325,521.61,554.365,505.073,552.756Z" transform="translate(-458.35 -423.288)" fill="#c1272d"/>
</svg>
