<svg xmlns="http://www.w3.org/2000/svg" width="125" height="99.994" viewBox="0 0 125 99.994">
  <path id="Icon_awesome-school" data-name="Icon awesome-school" d="M705.112,467.043v53.126a3.123,3.123,0,0,0,3.125,3.119h15.626V460.794h-12.5A6.251,6.251,0,0,0,705.112,467.043Zm70.311-9.371h-4.687v-7.816a1.57,1.57,0,0,0-1.571-1.57h-3.117a1.569,1.569,0,0,0-1.57,1.57h0v12.5a1.57,1.57,0,0,0,1.57,1.571h9.375a1.571,1.571,0,0,0,1.571-1.571h0v-3.125A1.571,1.571,0,0,0,775.423,457.672Zm26.9-12.495-31.251-20.836a6.255,6.255,0,0,0-6.933,0L732.9,445.177a6.252,6.252,0,0,0-2.783,5.2v72.912h25V495.169a3.124,3.124,0,0,1,3.124-3.118h18.751a3.123,3.123,0,0,1,3.125,3.122v28.115H805.1v-72.91A6.251,6.251,0,0,0,802.327,445.177Zm-34.715,28.117a15.626,15.626,0,1,1,15.624-15.627v.005A15.625,15.625,0,0,1,767.612,473.294Zm56.25-12.5h-12.5v62.494h15.626a3.123,3.123,0,0,0,3.125-3.122V467.043A6.25,6.25,0,0,0,823.862,460.794Z" transform="translate(-705.112 -423.293)" fill="#c1272d"/>
</svg>
