<svg xmlns="http://www.w3.org/2000/svg" width="82.637" height="103.919" viewBox="0 0 82.637 103.919">
  <g id="Group_2390" data-name="Group 2390" transform="translate(19477.234 -3463.198)">
    <path id="Path_658" data-name="Path 658" d="M79.552,382.771c-22.784,0-41.319,18.8-41.319,41.918a41.943,41.943,0,0,0,8.773,25.832l23.232,31.43a11.521,11.521,0,0,0,18.622.005l23.547-31.849a41.9,41.9,0,0,0,8.464-25.419C120.87,401.575,102.333,382.771,79.552,382.771Zm28.443,63.944L84.43,478.59a6.037,6.037,0,0,1-9.759,0L51.434,447.146l-.11-.146a36.261,36.261,0,0,1-7.554-22.311c0-20.017,16.051-36.3,35.782-36.3s35.78,16.284,35.78,36.3A36.3,36.3,0,0,1,107.995,446.715Z" transform="translate(-19515.467 3080.427)" fill="#c1272d"/>
    <path id="Path_659" data-name="Path 659" d="M66.163,391.112a19.634,19.634,0,1,0,19.349,19.63A19.515,19.515,0,0,0,66.163,391.112Z" transform="translate(-19502.078 3093.759)" fill="#c1272d"/>
  </g>
</svg>
