<svg xmlns="http://www.w3.org/2000/svg" width="148.877" height="104.213" viewBox="0 0 148.877 104.213">
  <path id="Icon_awesome-car-side" data-name="Icon awesome-car-side" d="M22.332,39.469h3.722l25.3-31.631A14.894,14.894,0,0,1,62.984,2.25h49.76a14.886,14.886,0,0,1,13.822,9.358l11.145,28.386a14.853,14.853,0,0,1,11.166,14.362V80.41a3.721,3.721,0,0,1-3.722,3.722H133.989a22.332,22.332,0,0,1-44.663,0H59.551a22.332,22.332,0,0,1-44.663,0H3.722A3.721,3.721,0,0,1,0,80.41V61.8A22.331,22.331,0,0,1,22.332,39.469ZM111.658,95.3a11.166,11.166,0,1,0-11.166-11.166A11.178,11.178,0,0,0,111.658,95.3ZM94.909,39.469h26.768l-8.933-22.331H94.909Zm-11.166,0V17.138H62.984L45.119,39.469ZM37.219,95.3A11.166,11.166,0,1,0,26.053,84.132,11.178,11.178,0,0,0,37.219,95.3Z" transform="translate(0 -2.25)" fill="#c1272d"/>
</svg>
