<svg id="Group_487" data-name="Group 487" xmlns="http://www.w3.org/2000/svg" width="47.521" height="54" viewBox="0 0 47.521 54">
  <path id="Path_660" data-name="Path 660" d="M71.989,493.516a14.537,14.537,0,0,1,3.38.974c4.784,2.283,7.433,6.045,7.483,11.372.085,8.991.038,17.985.018,26.977A10.473,10.473,0,0,1,77.787,542a1.008,1.008,0,0,0-.537.976c.026,1.089.015,2.179.005,3.267-.008.911-.378,1.271-1.286,1.273q-2.793,0-5.586,0a1.086,1.086,0,0,1-1.246-1.214c-.015-.667-.025-1.335,0-2,.019-.454-.139-.626-.6-.617-1.281.023-2.564.008-3.847.008H49.882c-.752,0-.752,0-.753.766,0,.616.01,1.23-.005,1.845a1.086,1.086,0,0,1-1.246,1.214q-2.819.006-5.639,0c-.838,0-1.223-.372-1.233-1.22-.014-1.124-.018-2.249,0-3.372a.932.932,0,0,0-.491-.895,10.508,10.508,0,0,1-5.129-9.239q-.023-13.462-.005-26.925A12.453,12.453,0,0,1,45.967,493.6a2.854,2.854,0,0,0,.3-.08Zm-33.7,25.825q0,6.534.006,13.069a10.114,10.114,0,0,0,.134,1.729,7.936,7.936,0,0,0,7.842,6.569q12.858.008,25.717-.005a8,8,0,0,0,7.981-8.133q.013-13.228,0-26.455a10.023,10.023,0,0,0-.125-1.573,9.555,9.555,0,0,0-9.405-8.143c-7.536-.026-15.072-.039-22.607.007a9.292,9.292,0,0,0-7.617,3.852,9.509,9.509,0,0,0-1.917,5.907C38.276,510.557,38.288,514.948,38.288,519.341Z" transform="translate(-35.38 -493.516)" fill="#fff"/>
  <path id="Path_661" data-name="Path 661" d="M57.448,504.786q6.3,0,12.593,0a2.581,2.581,0,0,1,2.793,2.745q.021,5.111,0,10.221a2.605,2.605,0,0,1-2.787,2.769q-12.593.011-25.187,0a2.617,2.617,0,0,1-2.8-2.816q-.011-5.059,0-10.117a2.6,2.6,0,0,1,2.842-2.8Q51.178,504.784,57.448,504.786Zm-12.332,9.452.148.058,6.319-6.561a.473.473,0,0,1-.235.049q-2.709,0-5.416,0c-.7,0-.812.123-.813.845-.005,1.507,0,3.013,0,4.521Z" transform="translate(-33.701 -490.683)" fill="#fff"/>
  <path id="Path_662" data-name="Path 662" d="M56.239,501.866q-4.426,0-8.852,0c-.7,0-.706-.011-.708-.706,0-.668.02-1.336-.007-2-.02-.462.153-.614.611-.609,1.95.018,3.9.008,5.849.008q6.033,0,12.066,0c.7,0,.706.011.708.707,0,.65-.025,1.3.009,1.95.026.507-.161.666-.664.663C62.246,501.856,59.243,501.866,56.239,501.866Z" transform="translate(-32.542 -492.251)" fill="#fff"/>
  <path id="Path_663" data-name="Path 663" d="M55.684,526.118c1.633,0,3.266.014,4.9-.008.5-.008.681.154.668.665-.03,1.247-.021,2.494,0,3.739.005.414-.155.558-.557.558q-4.978-.013-9.955,0c-.464,0-.608-.193-.6-.634.019-1.229.023-2.458,0-3.687-.01-.491.189-.643.654-.638C52.418,526.128,54.051,526.119,55.684,526.118Z" transform="translate(-31.672 -485.322)" fill="#fff"/>
  <path id="Path_664" data-name="Path 664" d="M44.614,528.34a2.976,2.976,0,1,1,3.025-2.988A2.99,2.99,0,0,1,44.614,528.34Z" transform="translate(-33.808 -486.258)" fill="#fff"/>
  <path id="Path_665" data-name="Path 665" d="M65.3,528.34a2.976,2.976,0,1,1,2.992-2.974A2.981,2.981,0,0,1,65.3,528.34Z" transform="translate(-28.617 -486.258)" fill="#fff"/>
</svg>
