<svg xmlns="http://www.w3.org/2000/svg" xmlns:xlink="http://www.w3.org/1999/xlink" width="131.13" height="104.899" viewBox="0 0 131.13 104.899">
  <defs>
    <clipPath id="clip-path">
      <rect width="131.13" height="104.899" fill="none"/>
    </clipPath>
  </defs>
  <g id="Repeat_Grid_7" data-name="Repeat Grid 7" clip-path="url(#clip-path)">
    <g transform="translate(-374.188 -518.178)">
      <path id="Icon_awesome-school" data-name="Icon awesome-school" d="M705.112,469.188v55.731a3.276,3.276,0,0,0,3.278,3.272h16.392V462.633H711.667A6.558,6.558,0,0,0,705.112,469.188Zm73.759-9.831h-4.917v-8.2a1.647,1.647,0,0,0-1.648-1.647h-3.27a1.646,1.646,0,0,0-1.647,1.647h0v13.113a1.648,1.648,0,0,0,1.647,1.648h9.834a1.649,1.649,0,0,0,1.648-1.648h0v-3.278A1.648,1.648,0,0,0,778.871,459.358Zm28.223-13.108-32.783-21.858a6.561,6.561,0,0,0-7.273,0l-32.78,21.858a6.559,6.559,0,0,0-2.92,5.454v76.487h26.226v-29.5a3.277,3.277,0,0,1,3.277-3.271h19.67a3.276,3.276,0,0,1,3.278,3.275v29.494h26.219V451.706A6.558,6.558,0,0,0,807.094,446.25Zm-36.417,29.5a16.392,16.392,0,1,1,16.39-16.393v.005A16.392,16.392,0,0,1,770.677,475.746Zm59.008-13.113H816.571v65.558h16.392a3.277,3.277,0,0,0,3.279-3.275V469.188A6.557,6.557,0,0,0,829.685,462.633Z" transform="translate(-330.924 94.885)" fill="#c1272d"/>
    </g>
  </g>
</svg>
