<svg xmlns="http://www.w3.org/2000/svg" width="130.912" height="50.544" viewBox="0 0 130.912 50.544">
  <g id="Group_2354" data-name="Group 2354" transform="translate(-1072 -10343.499)">
    <g id="Group_2152" data-name="Group 2152">
      <path id="Path_998" data-name="Path 998" d="M155.478,215.209a5.744,5.744,0,0,0-5.745,5.742V224.8l-15.8,3.058c-5.745,0-12.925-3.593-21.54-3.593s-15.8,3.593-21.542,3.593l-15.8-3.058v-3.847a5.744,5.744,0,0,0-11.488,0V238.9a5.744,5.744,0,0,0,11.488,0V235.52c4.59.96,10.915,2.273,15.079,3.107,7.181,1.435,9.334,12.206,22.26,12.206s15.077-10.77,22.259-12.206c4.163-.834,10.488-2.147,15.077-3.107V238.9a5.744,5.744,0,0,0,11.489,0V220.951A5.743,5.743,0,0,0,155.478,215.209Z" transform="translate(1024.561 10143.211)" fill="#333"/>
      <rect id="Rectangle_748" data-name="Rectangle 748" width="43.747" height="7.499" transform="translate(1072 10348.5)" fill="#333"/>
      <rect id="Rectangle_749" data-name="Rectangle 749" width="43.748" height="7.499" transform="translate(1159.164 10348.5)" fill="#333"/>
      <path id="Path_999" data-name="Path 999" d="M76.56,156.4a3.281,3.281,0,0,0-3.28,3.283h6.562A3.282,3.282,0,0,0,76.56,156.4Z" transform="translate(1017.313 10187.102)" fill="#333"/>
      <path id="Path_1506" data-name="Path 1506" d="M76.56,156.4a3.281,3.281,0,0,0-3.28,3.283h6.562A3.282,3.282,0,0,0,76.56,156.4Z" transform="translate(1104.313 10187.102)" fill="#333"/>
    </g>
  </g>
</svg>
