<svg xmlns="http://www.w3.org/2000/svg" width="64.549" height="52.426" viewBox="0 0 64.549 52.426">
  <path id="Icon_awesome-twitter" data-name="Icon awesome-twitter" d="M926.454,590.763c.041.575.041,1.148.041,1.72,0,17.489-13.312,37.64-37.639,37.64a37.384,37.384,0,0,1-20.317-5.939,27.416,27.416,0,0,0,3.2.163,26.488,26.488,0,0,0,16.424-5.652,13.25,13.25,0,0,1-12.371-9.174,16.708,16.708,0,0,0,2.5.2,14.026,14.026,0,0,0,3.481-.45,13.23,13.23,0,0,1-10.607-12.984v-.163a13.315,13.315,0,0,0,5.987,1.685,13.248,13.248,0,0,1-4.1-17.7,37.6,37.6,0,0,0,27.277,13.844,14.907,14.907,0,0,1-.327-3.03,13.241,13.241,0,0,1,22.894-9.051,26.071,26.071,0,0,0,8.4-3.2,13.19,13.19,0,0,1-5.816,7.29,26.519,26.519,0,0,0,7.618-2.047A28.422,28.422,0,0,1,926.454,590.763Z" transform="translate(-868.539 -577.697)" fill="#c1272d"/>
</svg>
