<svg id="Group_464" data-name="Group 464" xmlns="http://www.w3.org/2000/svg" width="57.086" height="54" viewBox="0 0 57.086 54">
  <rect id="Rectangle_352" data-name="Rectangle 352" width="57.086" height="4.299" transform="translate(0 49.701)" fill="#fff"/>
  <g id="Group_463" data-name="Group 463" transform="translate(5.636)">
    <path id="Path_640" data-name="Path 640" d="M77.909,133.012l-5.3-5.3a3.631,3.631,0,0,0-5.135,0l-3.434,3.434L38.279,156.915a6.675,6.675,0,0,0-1.561,2.46l-3.4,9.467a2.71,2.71,0,0,0,3.468,3.466l9.465-3.4a6.685,6.685,0,0,0,2.461-1.561l24.867-24.867h0l.9-.9,3.433-3.433v0A3.631,3.631,0,0,0,77.909,133.012Zm-37.833,25.7,25.637-25.64,2.971,2.972L42.791,161.936l-2.957-2.955C39.911,158.888,39.99,158.8,40.075,158.711Zm5.317,7.8-6.032,2.169-2.418-2.418,2.168-6.031c.015-.044.037-.085.054-.129l6.356,6.355C45.477,166.479,45.435,166.5,45.392,166.515Zm1.523-.966c-.085.085-.177.164-.27.242l-2.957-2.957L69.582,136.94l2.97,2.971Zm29.2-29.2-2.535,2.536-.127.127-6.841-6.841,2.662-2.662a1.094,1.094,0,0,1,1.543,0l5.3,5.3a1.092,1.092,0,0,1,0,1.545Z" transform="translate(-33.157 -126.652)" fill="#fff"/>
  </g>
</svg>
