<svg xmlns="http://www.w3.org/2000/svg" width="177.098" height="110.001" viewBox="0 0 177.098 110.001">
  <g id="Group_2046" data-name="Group 2046" transform="translate(-282.56 -29.49)">
    <path id="パス_696" data-name="パス 696" d="M395.065,85.788c-.111.445-.241.885-.329,1.332a32.68,32.68,0,0,1-35.846,26.416c-18.729-2.081-32.014-19.68-28.426-38.232,2.665-13.779,11.109-22.816,24.791-25.981,13.446-3.1,24.715,1.253,33.381,12.045,3.543,4.413,5.359,9.6,6.424,15.085Zm-11.478-5.066a20.973,20.973,0,0,0-21.1-20.7c-11.665-.062-20.941,9.6-20.905,21.411a21,21,0,0,0,42-.7Z" transform="translate(64.594 25.739)" fill="#edc732"/>
    <path id="パス_697" data-name="パス 697" d="M333.715,70.389c-1.365-.012-2.148.395-2.486,1.769a24.821,24.821,0,0,1-1.246,3.765c-.49,1.161-.116,1.682.927,2.292,11.658,6.838,17.53,16.991,16.882,30.555a32.644,32.644,0,1,1-30.64-34.533q1.082.067,2.157.2c1.459.187,2.029-.364,2.457-1.679q5.3-16.337,10.719-32.636c1.918-5.735,5.936-9.347,11.918-10.205,5.643-.809,11.374-.206,17.064-.277,1.01-.009,1.213.66,1.2,1.509-.012,1.783-.095,3.576.031,5.35.121,1.715-.6,2.178-2.207,2.152-4.546-.071-9.094-.04-13.64-.017a5.79,5.79,0,0,0-5.977,4.276c-.5,1.407-.877,2.864-1.433,4.25s-.246,1.783,1.265,1.769c6.443-.066,12.892-.035,19.337-.024A37.118,37.118,0,0,1,377.069,53.4a2.522,2.522,0,0,1,1.492,2.613c-.054,4.087-.087,8.176.012,12.256.043,1.7-.594,2.176-2.209,2.164-7.079-.061-14.157-.026-21.236-.026C347.99,70.415,340.852,70.438,333.715,70.389Zm1.679,42.532c2.592-8.618-.686-18.249-7.869-23.1-1.655-1.121-1.672-1.121-2.278.724-.9,2.729-1.743,5.482-2.68,8.2a2.365,2.365,0,0,0,.381,2.382,9.488,9.488,0,0,1,.125,11.291A9.6,9.6,0,1,1,312.138,97.8a2.907,2.907,0,0,0,2.129-2.176c.752-2.476,1.518-4.957,2.436-7.374.911-2.4.116-2.564-1.823-2.488a20.4,20.4,0,0,0-13.393,5.206c-6.469,5.9-8.782,13.216-6.4,21.593,2.339,8.228,8.053,13.193,16.475,14.938a5.747,5.747,0,0,0,1.022.163c.92.024,1.84.007,2.758.007a20.7,20.7,0,0,0,20.051-14.749Z" transform="translate(0 0)" fill="#edc732"/>
    <path id="パス_698" data-name="パス 698" d="M337.551,49.015H310.106c-.461,0-.922-.009-1.381.012-.506.024-1.168-.088-1.386.466-.232.594.416.882.778,1.213A40.142,40.142,0,0,1,318.725,66.24a36.25,36.25,0,0,1,2.457,12.287c.076,3.853,1.511,5.333,5.362,5.355q11.218.064,22.44,0c3.578-.017,4.662-1.213,4.754-4.825.291-11.312,4.863-20.659,13.06-28.339.421-.39,1.341-.615,1-1.376-.253-.565-1.041-.319-1.594-.319Q351.878,49.008,337.551,49.015Z" transform="translate(33.759 26.589)" fill="#edc732"/>
    <path id="パス_699" data-name="パス 699" d="M351.942,59.035h23.835a7.529,7.529,0,0,0,4.463-1.069,5.205,5.205,0,0,0,2.372-4.541c-.019-3.224.016-6.45-.007-9.673-.028-3.559-2.252-5.679-5.863-5.835a51.6,51.6,0,0,0-21.019,3.12,44.514,44.514,0,0,1-17.272,2.751c-3.739-.092-7.485.052-11.225-.047-1.63-.043-2.1.589-2.077,2.117.071,3.569.017,7.14.024,10.709.007,2.341.123,2.467,2.415,2.467Q339.764,59.043,351.942,59.035Z" transform="translate(58.139 11.375)" fill="#edc732"/>
    <path id="パス_700" data-name="パス 700" d="M293.186,47.632c0,3.217.047,6.438-.024,9.652-.033,1.549.587,2.043,2.069,1.873a24.142,24.142,0,0,0,13.107-5.615A3,3,0,0,0,309.5,51q-.085-3.445,0-6.894a2.928,2.928,0,0,0-1.2-2.521A24.427,24.427,0,0,0,295,36.007c-1.447-.14-1.821.539-1.812,1.793C293.2,41.078,293.186,44.354,293.186,47.632Z" transform="translate(14.472 8.871)" fill="#edc732"/>
    <path id="パス_701" data-name="パス 701" d="M294.724,47.421c0-3.1-.045-6.208.019-9.314.031-1.521-.475-2.3-2.086-2.129a6.048,6.048,0,0,1-1.206,0c-1.369-.125-1.97.4-1.961,1.859q.071,9.742,0,19.486c-.009,1.379.433,2.072,1.885,1.925a6.4,6.4,0,0,1,1.379,0c1.528.173,2.02-.537,1.989-2C294.677,53.977,294.724,50.7,294.724,47.421Z" transform="translate(9.46 8.825)" fill="#edc732"/>
    <path id="パス_702" data-name="パス 702" d="M349.33,77.311a9.582,9.582,0,1,0-9.7-9.64A9.7,9.7,0,0,0,349.33,77.311Z" transform="translate(77.903 39.121)" fill="#edc732"/>
  </g>
</svg>
