<svg id="Group_2062" data-name="Group 2062" xmlns="http://www.w3.org/2000/svg" width="132.85" height="149.232" viewBox="0 0 132.85 149.232">
  <path id="パス_1008" data-name="パス 1008" d="M340.957,735.055a11.413,11.413,0,0,1-3.15-2.295,13.145,13.145,0,0,1-2.577-3.61c-.975-2.088-1.6-3.741-2.2-5.238a28.481,28.481,0,0,0-1.449-3.23,13.193,13.193,0,0,0-3.822-4.386,34.9,34.9,0,0,0-6.825-3.717,66.96,66.96,0,0,0-10.8-3.487,55.19,55.19,0,0,0-12.225-1.7,21.922,21.922,0,0,0-2.741.177,57.923,57.923,0,0,0-7-2.615,3.282,3.282,0,0,0-3.962,2.132c-.037.062-.068.126-.1.191a3.309,3.309,0,0,0,2.322,4.059,90.283,90.283,0,0,1,9.023,3.531,51.238,51.238,0,0,0,11.6,3.605c2.779.409,5.44.573,7.644,1.049a9.328,9.328,0,0,1,5.08,2.487,8.985,8.985,0,0,1,1.425,1.858l.2.478a3.362,3.362,0,0,1-1.062.578,13.627,13.627,0,0,1-2.866.685,47.717,47.717,0,0,1-6.688.409c-7.4,0-16.073-1.127-23.435-1.3-13.151-.29-24.515-6.168-35.214-14.425-8.738-6.739-16.9-15.007-25.021-22.731-1.809-1.717-3.613-3.422-5.414-5.067a3.308,3.308,0,0,0-4.605,4.749c.048.046.1.091.147.134l.018.018c9.652,8.741,19.588,19.428,30.845,28.131,9.993,7.725,21.2,13.917,34.186,15.433-.261,2.631-.326,5.435-.326,8.357,0,12.955,8.247,23.76,19.226,26.3v39.016a4.962,4.962,0,0,0,9.923,0V765.622c10.979-2.548,19.224-13.351,19.224-26.3,0-1.911-.026-3.76-.116-5.558a20.561,20.561,0,0,0,4.5,5.115,16.528,16.528,0,0,0,3.487,2.2,9.622,9.622,0,0,0,3.949.946,6.2,6.2,0,0,0,3.376-.956,6.094,6.094,0,0,0,2.349-2.917h0a15.89,15.89,0,0,0,1.062-5.892c-.04-6.032-2.658-12.044-5.585-17.517-2.941-5.446-6.336-10.369-8.184-13.472a29.753,29.753,0,0,0-8.528-9.106,55.3,55.3,0,0,0-16.283-7.3c-5.633-1.688-11.245-2.933-16.059-4.505-13.006-4.2-25.9-4.887-38.173-7.908a13.5,13.5,0,0,1-6.8-4.027c-1.962-1.943-3.981-4.628-7.058-7.325a3.308,3.308,0,0,0-4.355,4.98c2.491,2.162,4.332,4.6,6.728,7.021a20.242,20.242,0,0,0,9.923,5.781c13.069,3.167,25.784,3.875,37.7,7.775,6.989,2.261,14.687,3.76,21.422,6.274a39.767,39.767,0,0,1,9.147,4.636,23.073,23.073,0,0,1,6.666,7.093c2.051,3.427,5.314,8.155,8.044,13.227,2.752,5.039,4.836,10.415,4.793,14.38a9.4,9.4,0,0,1-.5,3.105A3.857,3.857,0,0,1,340.957,735.055Z" transform="translate(-216.096 -660.278)" fill="#c1272d"/>
  <path id="パス_1009" data-name="パス 1009" d="M279.157,741.557a3.3,3.3,0,0,0-3.056-2.043H245.924a3.308,3.308,0,0,0-.1,6.615h22.3l-4.9,4.9a3.306,3.306,0,0,0,2.339,5.645h37.423a3.317,3.317,0,0,0,2.565-1.22l7.588-9.322h13a3.309,3.309,0,0,0,0-6.617H311.571a3.321,3.321,0,0,0-2.565,1.222l-7.591,9.324H273.547l4.9-4.9A3.308,3.308,0,0,0,279.157,741.557Z" transform="translate(-200.414 -613.332)" fill="#c1272d"/>
</svg>
