<svg xmlns="http://www.w3.org/2000/svg" width="50.82" height="54" viewBox="0 0 50.82 54">
  <g id="Group_1369" data-name="Group 1369" style="isolation: isolate">
    <g id="Group_1394" data-name="Group 1394">
      <path id="Path_1011" data-name="Path 1011" d="M2127.969,1418.841a4.6,4.6,0,1,0-4.522-4.676A4.6,4.6,0,0,0,2127.969,1418.841Z" transform="translate(-2103.908 -1409.642)" fill="#fff"/>
      <path id="Path_1012" data-name="Path 1012" d="M1832.774,1580.847v6.324h-3.625a2.163,2.163,0,0,0,.093-.253c.564-2.057,1.827-7.079,1.382-9.266-.4-1.979-2.414-2.674-4.885-3.081a45.023,45.023,0,0,1,1.283-7.066c.064.281.122.6.183.964a6.721,6.721,0,0,0,.726,2.431c.271.448.906,1.5,6.291,2.4a1.711,1.711,0,0,0,.276.023,1.665,1.665,0,0,0,.272-3.307,21.266,21.266,0,0,1-4.066-1.024,9.855,9.855,0,0,1-.214-1.063c-.286-1.723-.764-4.606-4.235-5.474-.367-.092-2.1-.51-3.378-.861-4.05-1.112-7.083,2.338-8.079,3.472-.091.1-.164.188-.22.247-1.1,1.134-1.9,4.619-2.274,6.6a1.665,1.665,0,0,0,1.323,1.948,1.688,1.688,0,0,0,.315.03,1.666,1.666,0,0,0,1.633-1.353,20.909,20.909,0,0,1,1.421-4.932c.08-.084.96-1.063,1.324-1.4-1.008,3.256-1.638,7.647-1.249,9.757-.008,1.01.083,2.061.173,3.091a18.151,18.151,0,0,1,.065,4.214c-.391,2.274-1.729,8.774-1.742,8.839a2.141,2.141,0,0,0,.187,1.4h-3.389v6.325h-10.2v6.324h20.409v-6.324h10.2V1593.5h10.2v-6.324h10v-6.324Zm-13.18,12.649a2.133,2.133,0,0,0,.185-.533c.056-.27,1.364-6.634,1.768-8.976a21.062,21.062,0,0,0-.019-5.317q-.014-.162-.028-.324c.442.061.9.117,1.371.175a28.507,28.507,0,0,1,3.548.58,40.949,40.949,0,0,1-1.326,6.681,2.14,2.14,0,0,0,.089,1.39h-2.613v6.324Z" transform="translate(-1802.16 -1552.145)" fill="#fff"/>
    </g>
  </g>
</svg>
