<svg id="Group_2388" data-name="Group 2388" xmlns="http://www.w3.org/2000/svg" width="106.276" height="104.644" viewBox="0 0 106.276 104.644">
  <rect id="Rectangle_373" data-name="Rectangle 373" width="106.276" height="6.035" transform="translate(0 98.609)" fill="#c1272d"/>
  <path id="Path_678" data-name="Path 678" d="M245.686,106.7l-10.51-10.5a7.2,7.2,0,0,0-10.188,0L218.173,103l-51.114,51.122a13.241,13.241,0,0,0-3.1,4.881l-6.749,18.783a5.376,5.376,0,0,0,6.881,6.876l18.78-6.749a13.274,13.274,0,0,0,4.881-3.1l49.337-49.339,0,0,1.78-1.786,6.81-6.812,0,0A7.208,7.208,0,0,0,245.686,106.7Zm-75.064,50.99,50.866-50.871,5.9,5.9-51.373,51.373-5.867-5.864C170.3,158.036,170.453,157.854,170.622,157.685Zm10.55,15.484-11.968,4.3-4.8-4.8,4.3-11.966c.032-.087.074-.169.108-.253l12.61,12.607C181.339,173.1,181.257,173.137,181.172,173.169Zm3.022-1.915c-.169.169-.351.325-.536.478l-5.867-5.867,51.376-51.376,5.893,5.9Zm57.929-57.934-5.029,5.032-.251.251-13.572-13.572,5.28-5.28a2.17,2.17,0,0,1,3.061,0l10.51,10.5a2.166,2.166,0,0,1,0,3.067Z" transform="translate(-149.212 -94.077)" fill="#c1272d"/>
</svg>
