<svg xmlns="http://www.w3.org/2000/svg" width="84.407" height="103.737" viewBox="0 0 84.407 103.737">
  <g id="Group_2395" data-name="Group 2395" transform="translate(19166.162 -3611.771)">
    <path id="Path_1285" data-name="Path 1285" d="M114.707,0h-49.6A17.421,17.421,0,0,0,47.7,17.4V86.334a17.422,17.422,0,0,0,17.4,17.4h37.135l1.888-1.887,26.094-26.094,1.887-1.888V17.4A17.421,17.421,0,0,0,114.707,0Zm10.959,71.2H108.706a9.133,9.133,0,0,0-9.132,9.133V97.294H65.105A10.96,10.96,0,0,1,54.146,86.334V17.4A10.96,10.96,0,0,1,65.105,6.443h49.6A10.958,10.958,0,0,1,125.666,17.4V71.2Z" transform="translate(-19213.865 3611.771)" fill="#c1272d"/>
    <rect id="Rectangle_1101" data-name="Rectangle 1101" width="6.217" height="5.933" transform="translate(-19148.74 3637.488)" fill="#c1272d"/>
    <rect id="Rectangle_1102" data-name="Rectangle 1102" width="6.217" height="5.932" transform="translate(-19148.74 3651.928)" fill="#c1272d"/>
    <rect id="Rectangle_1103" data-name="Rectangle 1103" width="6.217" height="5.932" transform="translate(-19148.74 3666.369)" fill="#c1272d"/>
    <rect id="Rectangle_1104" data-name="Rectangle 1104" width="6.217" height="5.931" transform="translate(-19148.74 3680.815)" fill="#c1272d"/>
    <rect id="Rectangle_1105" data-name="Rectangle 1105" width="36.646" height="5.933" transform="translate(-19135.818 3637.488)" fill="#c1272d"/>
    <rect id="Rectangle_1106" data-name="Rectangle 1106" width="36.646" height="5.932" transform="translate(-19135.818 3651.928)" fill="#c1272d"/>
    <rect id="Rectangle_1107" data-name="Rectangle 1107" width="36.646" height="5.932" transform="translate(-19135.818 3666.369)" fill="#c1272d"/>
    <rect id="Rectangle_1108" data-name="Rectangle 1108" width="15.062" height="5.931" transform="translate(-19135.818 3680.815)" fill="#c1272d"/>
  </g>
</svg>
