<svg id="ブルドーザーアイコン" xmlns="http://www.w3.org/2000/svg" width="109.897" height="69.977" viewBox="0 0 109.897 69.977">
  <path id="Path_1467" data-name="Path 1467" d="M36,329.643a9.591,9.591,0,1,1-9.587,9.595A9.594,9.594,0,0,1,36,329.643ZM36,342.6a3.371,3.371,0,1,0-3.366-3.366A3.375,3.375,0,0,0,36,342.6Z" transform="translate(58.638 -278.847)" fill="#c1272d"/>
  <path id="Path_1468" data-name="Path 1468" d="M6.943,100.968a11.02,11.02,0,0,1,10.591-7.976H46.466A4.237,4.237,0,0,1,50.7,97.229v26.956H53.75A9.445,9.445,0,0,1,63.2,133.63V150.1H61.451a13.9,13.9,0,0,0-27.031,0H28.044A16.174,16.174,0,0,0,0,140.093v-10a35.26,35.26,0,0,1,1.372-9.736Zm7.4,15.488,4.423,2.667-6.7,12.746h11.97l5.555-7.685H40.845V99.99H17.533a4.042,4.042,0,0,0-3.866,2.911L8.1,122.291a27.955,27.955,0,0,0-.838,4.017Z" transform="translate(46.702 -92.992)" fill="#c1272d"/>
  <path id="Path_1469" data-name="Path 1469" d="M195.586,308.3a11.882,11.882,0,1,1-11.876,11.887A11.886,11.886,0,0,1,195.586,308.3Zm0,16.057a4.176,4.176,0,1,0-4.17-4.17A4.181,4.181,0,0,0,195.586,324.354Z" transform="translate(-137.008 -262.083)" fill="#c1272d"/>
  <path id="Path_1470" data-name="Path 1470" d="M339.068,229.007l17.773-31.1,7.25-.555v30.908a14.169,14.169,0,0,1-14.169,14.169H323.666v-9.533Z" transform="translate(-323.666 -174.95)" fill="#c1272d"/>
  <path id="Path_1471" data-name="Path 1471" d="M188.03,177.617l6.264,4.313a1.383,1.383,0,0,1-1.569,2.278l-6.264-4.315a1.382,1.382,0,1,1,1.569-2.277Z" transform="translate(-124.89 -159.261)" fill="#c1272d"/>
</svg>
