<svg id="Group_2059" data-name="Group 2059" xmlns="http://www.w3.org/2000/svg" width="159.283" height="159.218" viewBox="0 0 159.283 159.218">
  <path id="パス_1384" data-name="パス 1384" d="M983.063,454.472a77.908,77.908,0,0,0-7.886,19.226,80.136,80.136,0,0,0-2.674,20.494,81.4,81.4,0,0,0,2.728,20.494,78.1,78.1,0,0,0,7.854,19.205,82.672,82.672,0,0,0,29.431,29.429,77.045,77.045,0,0,0,19.215,7.864,82.489,82.489,0,0,0,20.51,2.707,79.659,79.659,0,0,0,39.667-10.536,80.539,80.539,0,0,0,16.629-12.827h0L995.892,437.88A80.775,80.775,0,0,0,983.063,454.472Zm28.907,65.61a.912.912,0,0,1-.4.239l-4.3,1.338-1.336,4.3a.936.936,0,0,1-.24.4.99.99,0,0,1-.777.28.958.958,0,0,1-.705-.408l-2.594-3.671-4.5.059a.976.976,0,0,1-.8-1.556l2.688-3.605L997.57,513.2a.957.957,0,0,1,.234-1h0a.98.98,0,0,1,1-.236l4.257,1.448,3.607-2.69a.972.972,0,0,1,1.362.2.961.961,0,0,1,.193.6l-.057,4.5,3.671,2.594a.949.949,0,0,1,.408.7.985.985,0,0,1-.275.774Zm20.119-18.3,1.62-2.167-.871-2.567a.578.578,0,0,1,.142-.6.589.589,0,0,1,.605-.143l2.564.873,2.172-1.624a.582.582,0,0,1,.621-.049.57.57,0,0,1,.318.532l-.036,2.707,2.212,1.561a.576.576,0,0,1,.248.428.589.589,0,0,1-.169.468.619.619,0,0,1-.244.143l-2.589.8-.8,2.585a.586.586,0,0,1-.615.414.579.579,0,0,1-.427-.247l-1.561-2.212-2.707.033a.584.584,0,0,1-.532-.318.593.593,0,0,1,.046-.616Zm-10.464,35.907h0a1.039,1.039,0,0,1,1.392-.086,17.433,17.433,0,0,0,25.653-22.921,1.043,1.043,0,0,1,1.195-1.551,22.262,22.262,0,1,1-28.526,25.491,1.026,1.026,0,0,1,.287-.935ZM997,475.37h0a1.5,1.5,0,0,1,1.553-.366l6.61,2.241,5.6-4.171a1.513,1.513,0,0,1,2.414,1.234l-.092,6.975,5.7,4.032a1.47,1.47,0,0,1,.637,1.092,1.546,1.546,0,0,1-.439,1.215,1.5,1.5,0,0,1-.618.373l-6.663,2.07-2.077,6.663a1.5,1.5,0,0,1-.368.623,1.538,1.538,0,0,1-1.207.44,1.5,1.5,0,0,1-1.1-.637l-4.032-5.7-6.975.091a1.512,1.512,0,0,1-1.229-2.417l4.169-5.6-2.244-6.607a1.494,1.494,0,0,1,.36-1.551Z" transform="translate(-972.503 -414.673)" fill="#c1272d"/>
  <path id="パス_1385" data-name="パス 1385" d="M1120.368,499.561a50.729,50.729,0,0,0-5.892-3.04h-.014l-.038-.019c-3.972-1.854-8.077-3.771-8.52-6.007a5.644,5.644,0,0,1,1.5-3.981,53.054,53.054,0,0,1,4.034-4.726l.054-.06h0l.035-.035a50.307,50.307,0,0,0,4.274-5.067c1.229-1.8,1.623-3.159,1.2-4.166s-1.626-1.653-3.723-2.046a49.718,49.718,0,0,0-6.47-.549h-.108c-4.427-.191-9-.387-10.292-2.322a5.528,5.528,0,0,1-.137-4.2,53.856,53.856,0,0,1,1.925-5.935v-.022c1.61-4.424,3.284-9,1.524-10.757s-6.348-.083-10.788,1.538h-.027a53.428,53.428,0,0,1-5.911,1.921,5.542,5.542,0,0,1-4.193-.135c-1.938-1.295-2.134-5.876-2.323-10.308h0a49.724,49.724,0,0,0-.553-6.578c-.39-2.094-1.061-3.314-2.043-3.717-1.01-.42-2.37-.025-4.168,1.2a49.5,49.5,0,0,0-5.045,4.261l-.057.057a55.286,55.286,0,0,1-4.792,4.088,5.636,5.636,0,0,1-3.981,1.5c-2.247-.454-4.164-4.575-6.016-8.563l-.043-.092a49.832,49.832,0,0,0-3.018-5.816c-1.178-1.809-2.277-2.686-3.359-2.68a3,3,0,0,0-2.089,1.056,29.553,29.553,0,0,0-4.314,7.485l-.014.03v.016a29.319,29.319,0,0,1-4.335,7.539,3.349,3.349,0,0,1-1.682,1.021,5.673,5.673,0,0,1-3.981-1.5,53.443,53.443,0,0,1-4.723-4.029l-.064-.064h0a50.57,50.57,0,0,0-5.1-4.308c-1.795-1.225-3.158-1.618-4.168-1.2a2.2,2.2,0,0,0-.7.478c-1.559,1.559-1.734,5.792-1.911,9.885v.021c-.175,4.1-.36,8.34-1.959,9.937a2.949,2.949,0,0,1-.357.3,5.588,5.588,0,0,1-4.2.137,55.393,55.393,0,0,1-5.892-1.911l-.024-.008-.022-.01h0c-4.352-1.592-8.854-3.223-10.67-1.631l22.526,22.524a47.787,47.787,0,0,1,67.58,67.58l22.5,22.5v-.01c1.593-1.822-.041-6.309-1.62-10.646h0l-.011-.03-.016-.041v-.024a54.618,54.618,0,0,1-1.911-5.868,5.639,5.639,0,0,1,.134-4.2,2.717,2.717,0,0,1,.3-.358c1.592-1.592,5.838-1.777,9.94-1.956h.057c4.077-.17,8.292-.347,9.842-1.9a2.131,2.131,0,0,0,.478-.694c.417-1.01.024-2.371-1.2-4.164a50.487,50.487,0,0,0-4.231-5.018h0l-.073-.08-.016-.018a53.938,53.938,0,0,1-4.08-4.777,5.652,5.652,0,0,1-1.5-3.981,3.327,3.327,0,0,1,1.021-1.69,29.328,29.328,0,0,1,7.537-4.335h.011l.032-.013.065-.032a29.388,29.388,0,0,0,7.423-4.281h0a3.013,3.013,0,0,0,1.056-2.083C1123.049,501.84,1122.172,500.74,1120.368,499.561Z" transform="translate(-963.787 -423.307)" fill="#c1272d"/>
</svg>
