<svg id="Group_2058" data-name="Group 2058" xmlns="http://www.w3.org/2000/svg" width="198.242" height="130.964" viewBox="0 0 198.242 130.964">
  <path id="パス_728" data-name="パス 728" d="M528.318,683.833a.592.592,0,0,0,.347.762h0a.589.589,0,0,0,.238.035h2.76a1.116,1.116,0,0,0,1.011-.8L534,678.876a1,1,0,0,1,1.213-.733,1.015,1.015,0,0,1,.183.065,4.406,4.406,0,0,0,2.461.645,6.973,6.973,0,0,0,2.589-.5,8.694,8.694,0,0,0,2.333-1.4,9.586,9.586,0,0,0,1.852-2.07,8.547,8.547,0,0,0,1.149-2.549,6.792,6.792,0,0,0,.219-2.575,4.735,4.735,0,0,0-.75-2.094,4.293,4.293,0,0,0-1.609-1.408,5.034,5.034,0,0,0-2.332-.517,6.055,6.055,0,0,0-4.27,1.756l.364-1.371h-3.562a1.111,1.111,0,0,0-1.008.8Zm7.308-11.526a3.345,3.345,0,0,1,.523-1.1,4.573,4.573,0,0,1,.843-.9,3.911,3.911,0,0,1,1.04-.6,3.128,3.128,0,0,1,1.141-.216,2.317,2.317,0,0,1,1.056.229,1.994,1.994,0,0,1,.741.614,1.92,1.92,0,0,1,.349.9,2.808,2.808,0,0,1-.086,1.094,3.206,3.206,0,0,1-.51,1.06,4.42,4.42,0,0,1-.841.891,3.75,3.75,0,0,1-1.038.6,3.162,3.162,0,0,1-1.144.217,2.245,2.245,0,0,1-1.031-.225,2.078,2.078,0,0,1-.745-.6,1.945,1.945,0,0,1-.365-.878,2.536,2.536,0,0,1,.073-1.09Z" transform="translate(-408.786 -658.49)" fill="#c1272d"/>
  <path id="パス_729" data-name="パス 729" d="M543.788,680.178h2.76a1.114,1.114,0,0,0,1.011-.8l4.9-18.381a.591.591,0,0,0-.347-.761h0a.551.551,0,0,0-.234-.035h-2.757a1.113,1.113,0,0,0-1.011.8l-4.9,18.381a.59.59,0,0,0,.347.76h0A.606.606,0,0,0,543.788,680.178Z" transform="translate(-404.195 -660.199)" fill="#c1272d"/>
  <path id="パス_730" data-name="パス 730" d="M551.013,677.583a6.614,6.614,0,0,0,4.589,1.252,9.714,9.714,0,0,0,5.253-1.252,6.1,6.1,0,0,0,2.655-3.754l1.87-7a.594.594,0,0,0-.349-.762.606.606,0,0,0-.237-.035h-2.762a1.108,1.108,0,0,0-1.009.8l-1.643,6.158a2.714,2.714,0,0,1-2.825,2.286q-2.212,0-1.6-2.286l1.642-6.158a.594.594,0,0,0-.351-.762.606.606,0,0,0-.236-.035h-2.761a1.115,1.115,0,0,0-1.011.8l-1.865,7A3.584,3.584,0,0,0,551.013,677.583Z" transform="translate(-402.055 -658.399)" fill="#c1272d"/>
  <path id="パス_731" data-name="パス 731" d="M566.5,678.945a9.207,9.207,0,0,0,2.47-.326,7.757,7.757,0,0,0,2.094-.916,6.178,6.178,0,0,0,1.59-1.456,5.426,5.426,0,0,0,.951-1.95,2.746,2.746,0,0,0-.262-2.371,3.661,3.661,0,0,0-2.355-1.288q-.614-.145-.981-.241a1.627,1.627,0,0,1-.544-.217.427.427,0,0,1-.2-.251.853.853,0,0,1,.034-.349,1.042,1.042,0,0,1,.547-.654,2.142,2.142,0,0,1,1.039-.242,4.167,4.167,0,0,1,2.19.625l2.224-2.839a8.82,8.82,0,0,0-3.758-.794,8.678,8.678,0,0,0-2.355.313,7.117,7.117,0,0,0-1.985.891,5.79,5.79,0,0,0-1.482,1.408,5.6,5.6,0,0,0-.879,1.864,2.533,2.533,0,0,0,.215,2.224,4.109,4.109,0,0,0,2.5,1.216c.375.081.683.157.916.225a1.52,1.52,0,0,1,.5.241.458.458,0,0,1,.177.289,1.137,1.137,0,0,1-.612,1.073,2.09,2.09,0,0,1-1.057.262,4.813,4.813,0,0,1-3.13-1.252L562.5,676.8a.728.728,0,0,0-.025,1.028.931.931,0,0,0,.076.069A7.808,7.808,0,0,0,566.5,678.945Z" transform="translate(-398.301 -658.51)" fill="#c1272d"/>
  <path id="パス_732" data-name="パス 732" d="M630.684,716.766,617.512,695.8A24.349,24.349,0,0,0,596.9,684.418H535.556a38.414,38.414,0,0,0-27.432,11.514l-17.5,17.855-41.758,9.665a15.37,15.37,0,0,0-11.907,14.978v16.4a6.411,6.411,0,0,0,6.4,6.411h22.2c-.03.441-.076.879-.076,1.325a20.9,20.9,0,0,0,41.794,0c0-.446-.044-.887-.075-1.325h65.7c-.029.441-.075.879-.075,1.325a20.892,20.892,0,1,0,41.782.471c0-.075,0-.149,0-.224v-.247c0-.446-.033-.887-.063-1.325h14.247a6.411,6.411,0,0,0,6.4-6.411V732.445A29.435,29.435,0,0,0,630.684,716.766ZM486.391,770.883a8.323,8.323,0,1,1,8.323-8.324h0a8.323,8.323,0,0,1-8.322,8.324Zm52.837-52.533H501.6l14.407-14.691a27.549,27.549,0,0,1,19.555-8.209h3.674v22.9Zm42.931,0H548.882v-22.9h33.277Zm11.571,52.533a8.323,8.323,0,1,1,8.324-8.324h0a8.33,8.33,0,0,1-8.323,8.324Zm-1.913-52.533v-22.9H596.9a13.225,13.225,0,0,1,11.253,6.223l10.476,16.675Z" transform="translate(-436.956 -652.729)" fill="#c1272d"/>
</svg>
