<svg xmlns="http://www.w3.org/2000/svg" width="82.615" height="75.848" viewBox="0 0 82.615 75.848">
  <g id="Group_1288" data-name="Group 1288" transform="translate(-486.195 -7619.084)">
    <rect id="Rectangle_355" data-name="Rectangle 355" width="82.615" height="3.541" transform="translate(486.195 7691.391)" fill="#c1272d"/>
    <path id="Path_642" data-name="Path 642" d="M290.414,3451.749l-7.838-7.835a4.6,4.6,0,0,0-6.858,0l-4.9,4.9-37.23,37.228a10.541,10.541,0,0,0-1.96,3.918l-4.9,13.717c-.51,1.424-1.07,2.85,0,3.919a5.433,5.433,0,0,0,4.9.979l13.716-4.9a6.886,6.886,0,0,0,2.939-1.958l36.25-36.251h0l.98-.979,4.9-4.9h0A5.786,5.786,0,0,0,290.414,3451.749Zm-54.865,37.23,37.23-37.23,4.9,4.9-38.21,37.233-3.919-4.9C235.661,3488.844,235.426,3489.1,235.549,3488.979Zm7.838,10.777-8.818,3.919-2.939-3.919,2.939-8.817c.022-.062-.025.063,0,0l8.818,8.817Zm2.939-.981c-.124.125-.846-.108-.98,0l-3.919-3.916,37.23-37.23,3.919,3.919Zm41.149-42.128-2.939,3.919h0l-10.777-9.8,3.919-3.918a2.582,2.582,0,0,1,2.939,0l6.858,7.84a1.266,1.266,0,0,1,0,1.956Z" transform="translate(268.801 4176.705)" fill="#c1272d"/>
  </g>
</svg>
