<svg xmlns="http://www.w3.org/2000/svg" width="162.502" height="125.604" viewBox="0 0 162.502 125.604">
  <g id="Group_2389" data-name="Group 2389" transform="translate(19028.032 -3306.278)">
    <path id="パス_712" data-name="パス 712" d="M277.186,451.032A1.97,1.97,0,1,0,279.154,453h0A1.971,1.971,0,0,0,277.186,451.032Z" transform="translate(-19200.127 2890.092)" fill="#c1272d"/>
    <path id="パス_713" data-name="パス 713" d="M296.179,454.967a1.97,1.97,0,1,0-1.971-1.972,1.97,1.97,0,0,0,1.971,1.972Z" transform="translate(-19195.27 2890.089)" fill="#c1272d"/>
    <path id="パス_714" data-name="パス 714" d="M296.739,461.936a1.131,1.131,0,1,0-2.261-.009v.009h0c0,1.639-2.638,3.466-6.422,3.466s-6.42-1.826-6.42-3.466a1.134,1.134,0,1,0-2.267,0c0,3.214,3.819,5.733,8.687,5.733S296.739,465.15,296.739,461.936Z" transform="translate(-19199.068 2892.593)" fill="#c1272d"/>
    <path id="パス_715" data-name="パス 715" d="M333.773,512.3c-3.435-7.4-7.849-10.483-19.687-13.817a16.033,16.033,0,0,1-11.135-11.335c.377-.1.754-.226,1.1-.323a28.042,28.042,0,0,0,22.12,10.031,27.256,27.256,0,0,0,5.817-.551,1.1,1.1,0,0,0,.8-.754,1.067,1.067,0,0,0-.226-1.077c-.075-.1-8.352-9.681-11.085-14.294-.6-1.005-1.153-2.182-1.731-3.411-.075-.15-.126-.3-.2-.427a30.93,30.93,0,0,0,4.915-9.153c1.382-.8,5.466-3.662,4.891-8.627a4.25,4.25,0,0,0-2.458-3.586,3.088,3.088,0,0,0-1.029-.251,30.94,30.94,0,0,0-.928-5.066v-.05a30.457,30.457,0,0,0-59.337,2.432c0,.05-.024.077-.024.1-.151.853-.276,1.706-.352,2.581a3.212,3.212,0,0,0-1.054.251,4.276,4.276,0,0,0-2.432,3.586c-.578,4.968,3.511,7.824,4.89,8.627a30.528,30.528,0,0,0,21.5,19.962,16.047,16.047,0,0,1-11.11,11.335c-11.837,3.335-16.251,6.421-19.687,13.817-3.236,6.973-7.1,33.2-7.248,34.308a1.131,1.131,0,0,0,2.231.337v-.014c.052-.274,3.963-27.006,7.073-33.677,3.14-6.746,7.047-9.456,18.232-12.591a17.554,17.554,0,0,0,5.391-2.482l-.427,14.068a1.131,1.131,0,0,0,.677,1.079,1.514,1.514,0,0,0,.452.1,1.078,1.078,0,0,0,.8-.353l11.032-11.007,11.01,11.007a1.17,1.17,0,0,0,.8.353,1.5,1.5,0,0,0,.451-.1,1.1,1.1,0,0,0,.678-1.079l-.427-14.068a17.7,17.7,0,0,0,5.419,2.482c11.179,3.14,15.1,5.843,18.232,12.591,3.11,6.67,7.022,33.4,7.047,33.677a1.154,1.154,0,0,0,1.13.981.325.325,0,0,0,.151-.024,1.131,1.131,0,0,0,.98-1.264v-.016C340.845,545.5,337.008,519.271,333.773,512.3Zm-48.828-2.834.377-12.037,8.226,3.436Zm1.256-14.12a20.126,20.126,0,0,0,4.439-8.8,1.192,1.192,0,0,0-.175-.879,1,1,0,0,0-.7-.477,28.216,28.216,0,0,1-21.118-19.137,1.088,1.088,0,0,0-.677-.725c-.727-.4-4.439-2.609-3.962-6.5a2.057,2.057,0,0,1,1.054-1.781.734.734,0,0,1,.451-.052,1.041,1.041,0,0,0,.8.3,1.142,1.142,0,0,0,1.078-1.078,24.274,24.274,0,0,1,.325-3.015c.1-.05.226-.075.352-.126.05-.024.075-.024.1-.05a1.932,1.932,0,0,0,.352-.126,1.459,1.459,0,0,0,.175-.075c.126-.052.226-.1.352-.151.075-.025.126-.05.2-.074.151-.077.276-.152.452-.227l.15-.074c.2-.1.427-.226.628-.327.052-.024.1-.075.151-.1.175-.1.352-.2.551-.3l.226-.151c.175-.126.351-.225.5-.325a1.661,1.661,0,0,1,.276-.175c.174-.151.377-.276.551-.4a1.319,1.319,0,0,1,.226-.176c.276-.2.551-.4.828-.628l.1-.1c.251-.2.475-.4.727-.628.1-.075.175-.176.276-.251.2-.175.4-.352.6-.552l.3-.3c.2-.2.4-.427.6-.654a1.35,1.35,0,0,0,.276-.273c.3-.325.6-.677.9-1.029a38.428,38.428,0,0,0,6.5-11.238c.5.581,1,1.105,1.507,1.633l.476.477c.352.35.7.7,1.029,1.025.2.179.4.353.6.554.325.276.628.578.953.853.2.176.427.35.628.526.327.276.628.526.953.775.2.174.427.325.628.5.325.251.653.476.953.7.226.176.427.323.628.475.352.229.677.451,1,.68.2.126.4.251.6.4.35.226.7.452,1.053.653.176.1.352.226.528.323.451.276.9.528,1.329.754a2.222,2.222,0,0,1,.251.15c.55.3,1.078.578,1.6.828.075.051.151.075.226.126.452.2.9.427,1.355.628.175.076.325.126.475.2.377.176.729.326,1.1.477.175.075.35.126.526.2.35.151.677.276,1.029.4.175.075.352.125.526.2.352.126.677.226,1,.352l.526.151c.352.126.677.226,1,.327.175.048.325.1.476.149.377.1.727.176,1.078.276.126.025.251.075.377.1.426.1.828.2,1.226.3.05.025.126.025.175.05.979.2,1.884.4,2.783.551h.126c.377.075.775.126,1.153.2.1,0,.176.025.276.025.325.05.628.1.954.126a1.278,1.278,0,0,0,.3.024c.3.051.578.075.879.1.1,0,.2.023.3.023.277.029.552.053.8.078a.89.89,0,0,1,.276.025c.276,0,.55.025.8.025a.646.646,0,0,0,.2.024c.3,0,.578.024.828.024h.126c.9.025,1.7.025,2.331,0h.1a2.753,2.753,0,0,0,.476-.024H323a26.1,26.1,0,0,1,.7,5.066,1.1,1.1,0,0,0,1.1,1.051,1.075,1.075,0,0,0,.775-.251c.1-.077.275-.052.476.024a2.106,2.106,0,0,1,1.053,1.781c.476,3.962-3.385,6.194-4.012,6.52a1.117,1.117,0,0,0-.652.727,27.844,27.844,0,0,1-5.191,9.5c-.151.176-.276.352-.427.5-.276.33-.551.628-.853.932-.149.15-.3.323-.451.475-.251.251-.528.5-.778.753-.2.175-.377.349-.551.5-.275.226-.551.475-.828.7-.175.126-.352.276-.526.427-.325.226-.628.476-.953.7a5.41,5.41,0,0,0-.452.323c-.377.251-.754.476-1.13.7a3.307,3.307,0,0,1-.5.3c-.377.226-.754.452-1.13.653-.2.1-.377.174-.578.276-.377.2-.754.377-1.153.551-.2.074-.4.175-.6.251l-.979.377a7.477,7.477,0,0,1-.8.276,23.472,23.472,0,0,1-3.211.9,1.108,1.108,0,0,0-.727.477,1.181,1.181,0,0,0-.151.879,20.29,20.29,0,0,0,4.414,8.8l-9.33,3.888Zm11.336,5.517,8.25-3.436.377,12.037Z" transform="translate(-19206.566 2883.968)" fill="#c1272d"/>
    <path id="パス_716" data-name="パス 716" d="M285.2,459.5a1.131,1.131,0,0,0,1.131-1.13.516.516,0,0,1,1.032,0h0a1.131,1.131,0,0,0,2.261,0,2.781,2.781,0,0,0-5.562,0,1.13,1.13,0,0,0,1.13,1.13Z" transform="translate(-19197.865 2891.258)" fill="#c1272d"/>
    <path id="パス_717" data-name="パス 717" d="M224.034,487.1a1.13,1.13,0,0,1-1.136-1.125,1.147,1.147,0,0,1,.087-.44l1.309-3.188a1.132,1.132,0,1,1,2.1.842l-.008.016-1.305,3.189A1.13,1.13,0,0,1,224.034,487.1Z" transform="translate(-19213.531 2897.926)" fill="#c1272d"/>
    <path id="パス_718" data-name="パス 718" d="M235.33,487.1a1.133,1.133,0,0,1-1.049-.7l-1.306-3.19a1.133,1.133,0,1,1,2.1-.858l1.306,3.188a1.139,1.139,0,0,1-.627,1.482,1.156,1.156,0,0,1-.422.083Z" transform="translate(-19210.969 2897.927)" fill="#c1272d"/>
    <path id="パス_719" data-name="パス 719" d="M229.55,487.883a1.131,1.131,0,0,1-1.131-1.13h0V483.5a1.13,1.13,0,1,1,2.261,0v3.248a1.131,1.131,0,0,1-1.13,1.13Z" transform="translate(-19212.115 2898.115)" fill="#c1272d"/>
    <circle id="楕円形_95" data-name="楕円形 95" cx="1.971" cy="1.971" r="1.971" transform="translate(-18996.463 3341.116)" fill="#c1272d"/>
    <circle id="楕円形_96" data-name="楕円形 96" cx="1.971" cy="1.971" r="1.971" transform="translate(-18972.6 3341.116)" fill="#c1272d"/>
    <path id="パス_720" data-name="パス 720" d="M231.091,467.667c-4.871,0-8.687-2.512-8.687-5.733a1.13,1.13,0,0,1,2.261,0h0c0,1.639,2.638,3.466,6.422,3.466s6.422-1.826,6.422-3.466a1.13,1.13,0,0,1,2.261,0h0C239.778,465.149,235.964,467.667,231.091,467.667Z" transform="translate(-19213.658 2892.595)" fill="#c1272d"/>
    <path id="パス_721" data-name="パス 721" d="M222.424,448.539h-3.942a1.13,1.13,0,1,1-.007-2.261h3.949a1.13,1.13,0,0,1,0,2.261Z" transform="translate(-19214.951 2888.87)" fill="#c1272d"/>
    <path id="パス_722" data-name="パス 722" d="M241.419,448.539h-3.942a1.131,1.131,0,0,1,0-2.261h3.942a1.13,1.13,0,0,1,0,2.261Z" transform="translate(-19210.08 2888.87)" fill="#c1272d"/>
    <path id="パス_723" data-name="パス 723" d="M231.529,459.5a1.131,1.131,0,0,1-1.13-1.13.516.516,0,0,0-1.033,0h0a1.13,1.13,0,1,1-2.261,0,2.781,2.781,0,1,1,5.562-.01v.01a1.131,1.131,0,0,1-1.13,1.13Z" transform="translate(-19212.449 2891.255)" fill="#c1272d"/>
    <path id="パス_724" data-name="パス 724" d="M284.052,547.6c-.161-1.113-4-27.344-7.238-34.31-3.433-7.4-7.849-10.5-19.688-13.817a15.272,15.272,0,0,1-9.337-7.2h0A18.212,18.212,0,0,1,246,488.119a30.129,30.129,0,0,0,9.613-4.295,30.607,30.607,0,0,0,11.894-15.645c1.382-.817,5.472-3.672,4.9-8.628h0a4.876,4.876,0,0,0-.935-2.4,32.909,32.909,0,0,0-31.06-32.817,2.1,2.1,0,0,0-3.629,0,32.91,32.91,0,0,0-31.055,32.812,4.859,4.859,0,0,0-.938,2.4c-.578,4.961,3.528,7.819,4.9,8.63a30.6,30.6,0,0,0,11.88,15.652,30.113,30.113,0,0,0,9.618,4.3,18.233,18.233,0,0,1-1.787,4.158h0a15.3,15.3,0,0,1-9.337,7.19c-11.834,3.319-16.249,6.416-19.689,13.817-3.236,6.967-7.077,33.2-7.238,34.31a1.132,1.132,0,0,0,.953,1.284h.008a1.166,1.166,0,0,0,.161.011h88.68a1.13,1.13,0,0,0,1.13-1.13v-.009a1.083,1.083,0,0,0-.011-.157ZM238.581,426.54A30.647,30.647,0,0,1,268.769,452.1c-2.972-5.16-7.788-13.2-10.207-15.4l-.384-.353c-3.345-3.077-7.137-6.568-19.6-6.568s-16.246,3.491-19.6,6.568l-.384.352c-2.412,2.2-7.225,10.225-10.2,15.4a30.648,30.648,0,0,1,30.179-25.55Zm27.257,25.031a45.516,45.516,0,0,0-7.557-5.67l-.377-.183c-3.463-1.663-7.045-3.38-19.321-3.38s-15.852,1.717-19.316,3.38l-.377.183a45.64,45.64,0,0,0-7.56,5.673c2.992-5.117,6.924-11.483,8.813-13.207l.386-.357c3.19-2.934,6.488-5.969,18.056-5.969s14.875,3.032,18.064,5.969l.387.359c1.867,1.7,5.744,7.955,8.81,13.2Zm-21.194,41.052a16.365,16.365,0,0,1-12.106.01c-.208-.085-.412-.173-.614-.265a20.281,20.281,0,0,0,1.741-4.852,1.131,1.131,0,0,0-.867-1.344h-.005a27.96,27.96,0,0,1-9.963-4.218,28.3,28.3,0,0,1-11.138-14.927,1.108,1.108,0,0,0-.735-.729c-.825-.46-4.372-2.672-3.928-6.489a2.073,2.073,0,0,1,1.068-1.771.7.7,0,0,1,.43-.053,1.13,1.13,0,0,0,1.908-.766c.033-.667.1-1.33.173-1.988,3.025-2.714,7.27-6.341,9.251-7.285l.387-.185c3.236-1.553,6.581-3.155,18.339-3.155s15.1,1.6,18.339,3.155l.387.185c1.96.933,6.137,4.489,9.251,7.285.08.652.143,1.309.176,1.968a1.13,1.13,0,0,0,1.857.8.594.594,0,0,1,.478.031,2.071,2.071,0,0,1,1.069,1.771c.451,3.894-3.245,6.116-3.969,6.513a1.144,1.144,0,0,0-.695.725,28.3,28.3,0,0,1-11.136,14.907,27.871,27.871,0,0,1-9.958,4.218,1.129,1.129,0,0,0-.881,1.334v.008h0a20.091,20.091,0,0,0,1.741,4.851c-.2.084-.4.17-.6.251Z" transform="translate(-19221.154 2882.986)" fill="#c1272d"/>
  </g>
</svg>
