<svg id="Group_2370" data-name="Group 2370" xmlns="http://www.w3.org/2000/svg" width="201.038" height="124.901" viewBox="0 0 201.038 124.901">
  <path id="Path_696" data-name="Path 696" d="M663.31,501.09c-.126.5-.272,1-.371,1.514a37.1,37.1,0,0,1-40.692,29.987c-21.26-2.36-36.343-22.341-32.269-43.4,3.026-15.642,12.609-25.9,28.145-29.491,15.26-3.525,28.055,1.423,37.893,13.675,4.021,5.01,6.085,10.894,7.294,17.124Zm-13.028-5.75a23.811,23.811,0,0,0-23.949-23.506c-13.241-.067-23.772,10.9-23.73,24.308a23.843,23.843,0,0,0,47.679-.8Z" transform="translate(-462.272 -407.961)" fill="#c1272d"/>
  <path id="Path_697" data-name="Path 697" d="M575.8,476.489c-1.55-.013-2.438.449-2.822,2.009a28.456,28.456,0,0,1-1.415,4.275c-.553,1.318-.131,1.908,1.053,2.6,13.232,7.76,19.9,19.287,19.163,34.684a37.058,37.058,0,1,1-32.335-38.972c1.658.211,2.305-.415,2.79-1.908q6.016-18.544,12.169-37.046c2.176-6.513,6.739-10.613,13.528-11.587,6.406-.919,12.912-.234,19.372-.312,1.146-.012,1.375.747,1.366,1.711-.014,2.025-.108,4.059.034,6.073.136,1.947-.683,2.474-2.5,2.444-5.161-.083-10.324-.047-15.486-.018a6.573,6.573,0,0,0-6.785,4.854c-.568,1.6-1,3.253-1.627,4.825s-.277,2.025,1.437,2.007c7.317-.075,14.636-.041,21.953-.025a42.1,42.1,0,0,1,19.322,5.1,2.862,2.862,0,0,1,1.693,2.967c-.062,4.639-.1,9.28.014,13.915.047,1.927-.675,2.47-2.508,2.456-8.036-.069-16.071-.03-24.109-.03C592,476.516,583.9,476.548,575.8,476.489Zm1.9,48.283c2.944-9.785-.779-20.717-8.933-26.226-1.879-1.268-1.9-1.274-2.586.82-1.022,3.1-1.978,6.225-3.041,9.311a2.683,2.683,0,0,0,.431,2.7,10.769,10.769,0,0,1,.142,12.818A10.9,10.9,0,1,1,551.3,507.613a3.3,3.3,0,0,0,2.415-2.472c.855-2.811,1.723-5.626,2.767-8.369,1.036-2.722.133-2.912-2.071-2.827a23.159,23.159,0,0,0-15.2,5.912c-7.342,6.692-9.968,15-7.265,24.512,2.657,9.34,9.141,14.975,18.7,16.959a6.492,6.492,0,0,0,1.159.185c1.044.027,2.089.009,3.132.009A23.5,23.5,0,0,0,577.7,524.772Z" transform="translate(-517.727 -430.062)" fill="#c1272d"/>
  <path id="Path_698" data-name="Path 698" d="M589.492,459.582H558.336c-.523,0-1.045-.013-1.567.012-.577.028-1.326-.1-1.572.529-.264.672.471,1,.881,1.377a45.551,45.551,0,0,1,12.043,17.635,41.16,41.16,0,0,1,2.79,13.947c.086,4.369,1.716,6.053,6.085,6.078q12.738.072,25.475,0c4.062-.02,5.292-1.377,5.4-5.478.33-12.841,5.52-23.452,14.825-32.168.476-.446,1.523-.7,1.138-1.564-.286-.642-1.181-.362-1.808-.362Q605.756,459.571,589.492,459.582Z" transform="translate(-488.744 -407.232)" fill="#c1272d"/>
  <path id="Path_699" data-name="Path 699" d="M612.573,466.733q13.529,0,27.057,0a8.535,8.535,0,0,0,5.067-1.214,5.906,5.906,0,0,0,2.694-5.155c-.022-3.66.019-7.32-.009-10.98-.03-4.041-2.556-6.445-6.655-6.623a58.593,58.593,0,0,0-23.86,3.541,50.546,50.546,0,0,1-19.607,3.123c-4.245-.106-8.5.057-12.742-.055-1.849-.048-2.389.669-2.356,2.4.078,4.05.017,8.1.026,12.155.007,2.66.138,2.8,2.742,2.8Q598.75,466.742,612.573,466.733Z" transform="translate(-467.813 -420.281)" fill="#c1272d"/>
  <path id="Path_700" data-name="Path 700" d="M533.79,453.108c0,3.652.055,7.308-.025,10.958-.039,1.757.665,2.319,2.348,2.126a27.422,27.422,0,0,0,14.88-6.374,3.4,3.4,0,0,0,1.317-2.884q-.093-3.91,0-7.826a3.321,3.321,0,0,0-1.361-2.859,27.714,27.714,0,0,0-15.108-6.332c-1.643-.158-2.066.612-2.055,2.036C533.808,445.67,533.792,449.388,533.79,453.108Z" transform="translate(-505.303 -422.443)" fill="#c1272d"/>
  <path id="Path_701" data-name="Path 701" d="M534.151,452.857c0-3.523-.051-7.047.022-10.57.036-1.725-.538-2.612-2.367-2.415a6.938,6.938,0,0,1-1.369,0c-1.556-.142-2.238.454-2.225,2.11q.082,11.058,0,22.119c-.011,1.565.49,2.353,2.14,2.185a7.26,7.26,0,0,1,1.564,0c1.735.2,2.293-.607,2.258-2.273C534.1,460.3,534.151,456.576,534.151,452.857Z" transform="translate(-509.605 -422.483)" fill="#c1272d"/>
  <path id="Path_702" data-name="Path 702" d="M615.075,495.171a10.876,10.876,0,1,0-11.012-10.941A11,11,0,0,0,615.075,495.171Z" transform="translate(-450.846 -396.474)" fill="#c1272d"/>
</svg>
