<svg xmlns="http://www.w3.org/2000/svg" width="147.044" height="86.422" viewBox="0 0 147.044 86.422">
  <path id="Path_2" data-name="Path 2" d="M345.329,732.49v-9.826H290.221v-.044H276.7V677.546a3.673,3.673,0,0,0-3.667-3.678h-35.79c-2.029,0-2.934,1.783-3.678,3.678l-11.475,29.147a26.385,26.385,0,0,0-2.142,8.837l.023,13.043a4.165,4.165,0,0,0-3.649,3.818v6.872a4.4,4.4,0,0,0,4.776,3.933h10.951c0,.267-.018.533-.018.8a15.843,15.843,0,0,0,31.674.893l0-.169V744c0-.244,0-.536-.02-.8h44.275c0,.267-.017.533-.017.8a15.843,15.843,0,0,0,31.673.893c0-.056,0-.112,0-.169V744c0-.244,0-.536-.021-.8h23.764V732.49Zm-97.454,20.523a9.293,9.293,0,1,1,9.292-9.292A9.292,9.292,0,0,1,247.875,753.013Zm13.539-45.077h-.006v0H232.539c-2.658.16-2.185-1.391-1.426-3.235l8.794-22.654c.389-1,.87-1.939,1.939-1.939h19.527a1.935,1.935,0,0,1,1.939,1.933v0l.023,23.95A1.929,1.929,0,0,1,261.414,707.936Zm62.375,45.077a9.292,9.292,0,0,1-9.292-9.292c0-.177.017-.35.026-.525a9.28,9.28,0,0,1,18.532,0c.01.175.027.348.027.525A9.293,9.293,0,0,1,323.789,753.013Z" transform="translate(-216.317 -673.867)" fill="#c1272d"/>
</svg>
