<svg id="Group_2031" data-name="Group 2031" xmlns="http://www.w3.org/2000/svg" width="137.405" height="110" viewBox="0 0 137.405 110">
  <path id="Path_527" data-name="Path 527" d="M617.341,2492.378c-13.419,9.975-45.152,38.777-68.942,38.777-1.569,0-.936,1.134-.936,1.134l20.787,8.691L555.605,2553.5v20.711l67.4,28.17,61.736-61.122v-20.711Zm-51.625,41.157a113.339,113.339,0,0,0,21.216-11.053c1.723-1.109,3.419-2.259,5.1-3.416.371-.254.736-.5,1.1-.764q2.44-1.7,4.8-3.434c.183-.134.358-.266.541-.4q2.285-1.686,4.475-3.362c.2-.15.393-.3.589-.449q2.418-1.859,4.7-3.647l54.9,22.946c-14.475,11.02-33.071,23.477-47.335,23.477a20.948,20.948,0,0,1-2.954-.2l-34.173-14.278-5.886-2.457Zm8.426,9.9,37.076,15.5a26.391,26.391,0,0,0,4.581.389c14.921,0,32.964-11.33,47.655-22.233L621.3,2578.825l-58.292-24.358Zm104.706-4.64-57.2,56.627L561.5,2570.287v-4.9l60.533,25.3,56.817-56.251Zm0-7.846-57.386,56.813L561.5,2562.705v-5.218l60.574,25.312,56.777-56.209Z" transform="translate(-547.337 -2492.378)" fill="#c1272d"/>
  <path id="Path_528" data-name="Path 528" d="M572.189,2523.185a.719.719,0,0,0,.721-.084l5.474-2.459a10.08,10.08,0,0,0,1.772-1.024l17.625-12.756c.216-.157.218-.332,0-.441l-4.02-1.993a1.69,1.69,0,0,0-.863-.165l-7.056.111a1.293,1.293,0,0,0-.757.242l-4.482,3.244c-.289.21-.183.35.178.352l6.551-.009.071.035-12.363,8.947-7.16,3.421c-.216.155-.216.333,0,.439Z" transform="translate(-515.987 -2474.103)" fill="#c1272d"/>
</svg>
