<svg id="Group_982" data-name="Group 982" xmlns="http://www.w3.org/2000/svg" width="59.972" height="59.972" viewBox="0 0 59.972 59.972">
  <g id="Group_388" data-name="Group 388">
    <circle id="Ellipse_65" data-name="Ellipse 65" cx="29.986" cy="29.986" r="29.986" fill="#c1272d"/>
    <g id="Group_387" data-name="Group 387" transform="translate(12.901 14.639)">
      <path id="Path_575" data-name="Path 575" d="M603.052,2602.893a25.775,25.775,0,0,1-5.8,8.145,34.886,34.886,0,0,1-9.443,6.078l-2.439-3.941a24.563,24.563,0,0,0,10.177-7.481,22.442,22.442,0,0,0,4.629-11.424V2590.6l-8.763-.037v-4.239h13.941c.011.294.016.61.016.953v3.216a29.357,29.357,0,0,0,.645,6.238,20.64,20.64,0,0,0,2.385,5.813,24.362,24.362,0,0,0,4.445,5.538,37.654,37.654,0,0,0,6.589,4.833l-3.48,4.134a43.692,43.692,0,0,1-8.357-7.2A29.709,29.709,0,0,1,603.052,2602.893Z" transform="translate(-585.365 -2586.32)" fill="#fff"/>
    </g>
  </g>
</svg>
