<svg id="Group_2028" data-name="Group 2028" xmlns="http://www.w3.org/2000/svg" width="391.331" height="197.238" viewBox="0 0 391.331 197.238">
  <g id="Group_1021" data-name="Group 1021" transform="translate(0 0)">
    <path id="パス_858" data-name="パス 858" d="M298.153,99.316a29.366,29.366,0,1,0,29.362,29.369v0A29.366,29.366,0,0,0,298.153,99.316Zm0,44.81a15.444,15.444,0,1,1,15.433-15.456v.012A15.437,15.437,0,0,1,298.153,144.126Z" transform="translate(-218.17 39.191)" fill="#333"/>
    <path id="パス_860" data-name="パス 860" d="M340.653,99.316a29.366,29.366,0,1,0,29.362,29.369v0A29.366,29.366,0,0,0,340.653,99.316Zm0,44.81a15.444,15.444,0,1,1,15.433-15.456v.012A15.437,15.437,0,0,1,340.653,144.126Z" transform="translate(-97.635 39.191)" fill="#333"/>
    <path id="パス_862" data-name="パス 862" d="M359.716,99.316a29.366,29.366,0,1,0,29.366,29.366h0A29.369,29.369,0,0,0,359.716,99.316Zm0,44.81a15.444,15.444,0,1,1,15.437-15.452v.008a15.438,15.438,0,0,1-15.437,15.444Z" transform="translate(-43.558 39.191)" fill="#333"/>
    <path id="Path_816" data-name="Path 816" d="M646.9,111.438h-.188V89.549H631.423l-11.531,21.889H432.815L403.964,63.21H340.227V76.222H376v37.889l.579.046,13.066,70.309H358.571L347.346,83.154H264.026L260.807,145.5l-5.217,5.34v74.943h43.2c.115-.568.284-1.109.422-1.665a37,37,0,0,1,72.971,1.665h89.811a36.9,36.9,0,0,1,48.343-29.8c12.985-.023,35.538-.042,49.785-.05a39.669,39.669,0,0,1,49.248,29.431c.069.142.157.268.222.414h23.6v-36.4h13.733Zm-324.36,17.22h-51.63l.932-36.719h51.132Z" transform="translate(-255.59 -63.21)" fill="#333"/>
  </g>
</svg>
