<svg id="Group_2363" data-name="Group 2363" xmlns="http://www.w3.org/2000/svg" width="14.581" height="19.017" viewBox="0 0 14.581 19.017">
  <path id="Path_643" data-name="Path 643" d="M698.825,39.648c-1.307.847-1.563,3.5-1.069,5.655a19.521,19.521,0,0,0,2.577,6.06,20.236,20.236,0,0,0,4.482,4.825c1.77,1.331,4.293,2.178,5.6,1.329a6.592,6.592,0,0,0,1.687-1.809l-.7-1.082-1.931-2.976c-.143-.221-1.043-.019-1.5.239a4.352,4.352,0,0,0-1.185,1.287c-.423.244-.776,0-1.516-.34a9.008,9.008,0,0,1-2.746-2.9A9.006,9.006,0,0,1,701,46.255c-.01-.814-.087-1.236.308-1.523a4.346,4.346,0,0,0,1.657-.556c.422-.312.974-1.051.831-1.272l-1.931-2.976-.7-1.082A6.622,6.622,0,0,0,698.825,39.648Z" transform="translate(-697.522 -38.842)" fill="#c1272d"/>
</svg>
