<svg xmlns="http://www.w3.org/2000/svg" width="53.724" height="104.576" viewBox="0 0 53.724 104.576">
  <path id="Path_1424" data-name="Path 1424" d="M267.755,350.181c0-13.228,1.5-16.774,16.362-22.64,8.861-3.407,12.543-9.273,12.543-15.131,0-8.455-7.907-16.636-19.224-16.636a25.472,25.472,0,0,0-9.135,1.637,8.624,8.624,0,0,1-2.591.412,6.956,6.956,0,0,1-6.817-6.958c0-8.048,13.635-8.859,18.544-8.859,20.726,0,35.18,15.27,35.18,30.807,0,10.5-6.546,21.138-22.09,27.411-6.953,2.865-8.181,3.546-8.181,8.867,0,.81.136,1.9.136,2.993v.412a7.477,7.477,0,0,1-7.636,7.769C267.891,360.265,267.755,353.315,267.755,350.181Zm8.181,36.4c-3.681,0-9.544-1.637-9.544-9.544,0-6.679,5.725-9.273,9.544-9.273,4.5,0,9.68,3.274,9.68,9.14C285.616,380.444,282.753,386.583,275.936,386.583Z" transform="translate(-258.891 -282.007)" fill="#c1272d"/>
</svg>
