<svg id="Group_7" data-name="Group 7" xmlns="http://www.w3.org/2000/svg" width="173.327" height="67.438" viewBox="0 0 173.327 67.438">
  <path id="Path_1435" data-name="Path 1435" d="M1079.975,689.832a7.664,7.664,0,0,0-7.665,7.661v5.133l-21.075,4.08c-7.665,0-17.245-4.793-28.738-4.793s-21.077,4.793-28.742,4.793l-21.076-4.08v-5.133a7.664,7.664,0,0,0-15.327,0v23.953a7.664,7.664,0,0,0,15.327,0v-4.515c6.123,1.28,14.563,3.033,20.119,4.145,9.581,1.915,12.454,16.284,29.7,16.284s20.116-14.369,29.7-16.284c5.555-1.112,13.993-2.865,20.116-4.145v4.515a7.664,7.664,0,0,0,15.329,0V697.493A7.662,7.662,0,0,0,1079.975,689.832Z" transform="translate(-935.832 -669.922)" fill="#c1272d"/>
  <rect id="Rectangle_1218" data-name="Rectangle 1218" width="58.367" height="10.006" transform="translate(0 6.675)" fill="#c1272d"/>
  <rect id="Rectangle_1219" data-name="Rectangle 1219" width="58.369" height="10.006" transform="translate(114.959 6.675)" fill="#c1272d"/>
  <path id="Path_1436" data-name="Path 1436" d="M965.016,669.922a4.378,4.378,0,0,0-4.377,4.381h8.754A4.379,4.379,0,0,0,965.016,669.922Z" transform="translate(-935.832 -669.922)" fill="#c1272d"/>
  <path id="Path_1437" data-name="Path 1437" d="M1079.975,669.922a4.378,4.378,0,0,0-4.378,4.381h8.755A4.38,4.38,0,0,0,1079.975,669.922Z" transform="translate(-935.832 -669.922)" fill="#c1272d"/>
</svg>
