<svg xmlns="http://www.w3.org/2000/svg" width="65.307" height="62.196" viewBox="0 0 65.307 62.196">
  <path id="Icon_simple-line" data-name="Icon simple-line" d="M52.695,26.14a1.716,1.716,0,0,1,0,3.431H47.919v3.061h4.776a1.713,1.713,0,1,1,0,3.426H46.2A1.717,1.717,0,0,1,44.5,34.347V21.365A1.719,1.719,0,0,1,46.21,19.65H52.7a1.714,1.714,0,0,1-.008,3.429H47.919V26.14h4.776ZM42.2,34.347a1.713,1.713,0,0,1-1.176,1.622,1.758,1.758,0,0,1-.542.084,1.682,1.682,0,0,1-1.388-.68l-6.648-9.026v8a1.71,1.71,0,1,1-3.42,0V21.365a1.705,1.705,0,0,1,1.17-1.619,1.583,1.583,0,0,1,.528-.09,1.76,1.76,0,0,1,1.347.691l6.7,9.061V21.365a1.714,1.714,0,0,1,3.429,0Zm-15.622,0a1.712,1.712,0,1,1-3.423,0V21.365a1.712,1.712,0,1,1,3.423,0Zm-6.71,1.712H13.38a1.724,1.724,0,0,1-1.714-1.712V21.365a1.714,1.714,0,0,1,3.429,0V32.633h4.778a1.713,1.713,0,0,1,0,3.426m45.435-8.691C65.307,12.752,50.654.858,32.654.858S0,12.752,0,27.367c0,13.091,11.619,24.06,27.307,26.145,1.064.223,2.512.7,2.879,1.605a6.647,6.647,0,0,1,.1,2.939l-.446,2.776c-.122.819-.653,3.227,2.854,1.755s18.819-11.1,25.677-18.98c4.691-5.14,6.933-10.406,6.933-16.24" transform="translate(0 -0.858)" fill="#c1272d"/>
</svg>
