<svg id="Group_2032" data-name="Group 2032" xmlns="http://www.w3.org/2000/svg" width="107.872" height="111.219" viewBox="0 0 107.872 111.219">
  <path id="Path_543" data-name="Path 543" d="M637.716,1354.212H561.977a11.71,11.71,0,0,0-11.7,11.7v14.307l3.433.491a4.056,4.056,0,0,1,0,8.031l-3.435.491v14.309a11.71,11.71,0,0,0,11.7,11.7h75.739a11.712,11.712,0,0,0,11.7-11.7v-14.586l-3.817-.179a4.054,4.054,0,0,1,0-8.1l3.817-.181v-14.582A11.713,11.713,0,0,0,637.716,1354.212Zm7.7,22.462a8.059,8.059,0,0,0,0,16.1v10.765a7.7,7.7,0,0,1-7.7,7.7H561.977a7.7,7.7,0,0,1-7.7-7.7V1392.7a8.058,8.058,0,0,0,0-15.952v-10.837a7.7,7.7,0,0,1,7.7-7.7h75.739a7.7,7.7,0,0,1,7.7,7.7Z" transform="translate(-545.91 -1304.019)" fill="#003385"/>
  <rect id="Rectangle_322" data-name="Rectangle 322" width="2.648" height="6.908" transform="translate(27.352 95.453)" fill="#003385"/>
  <rect id="Rectangle_323" data-name="Rectangle 323" width="2.648" height="6.906" transform="translate(27.352 83.32)" fill="#003385"/>
  <rect id="Rectangle_324" data-name="Rectangle 324" width="2.648" height="6.908" transform="translate(27.352 71.185)" fill="#003385"/>
  <rect id="Rectangle_325" data-name="Rectangle 325" width="2.648" height="6.908" transform="translate(27.352 59.052)" fill="#003385"/>
  <path id="Path_544" data-name="Path 544" d="M560.288,1348.892l-2.314,1.287,3.359,6.035,2.313-1.286Z" transform="translate(-537.797 -1309.628)" fill="#003385"/>
  <path id="Path_545" data-name="Path 545" d="M654.555,1368.668l-5.235-9.407-1.859-3.336-3.42,1.7a4.055,4.055,0,0,1-3.938-7.08l3.248-2.013-1.859-3.339-5.233-9.4a11.711,11.711,0,0,0-15.913-4.533l-66.183,36.821a11.713,11.713,0,0,0-4.536,15.913l.191.343a16.177,16.177,0,0,1,2.677-3.782,7.7,7.7,0,0,1,3.614-8.978l66.185-36.821a7.7,7.7,0,0,1,10.469,2.983l5.233,9.405a8.057,8.057,0,0,0,7.827,14.066l5.233,9.409a7.681,7.681,0,0,1-.775,8.6,16.312,16.312,0,0,1,2.747,2.948A11.714,11.714,0,0,0,654.555,1368.668Z" transform="translate(-548.152 -1329.78)" fill="#003385"/>
</svg>
