<svg id="Group_8" data-name="Group 8" xmlns="http://www.w3.org/2000/svg" width="72.287" height="99.992" viewBox="0 0 72.287 99.992">
  <g id="Group_2129" data-name="Group 2129">
    <path id="Path_1492" data-name="Path 1492" d="M504.442,1902.606l-.019-.014-1.288,1.212-5.949,5.6,3.907,6.179,4.885-6.279.892-1.148,1.091-2.915Z" transform="translate(-460.235 -1846.535)" fill="none"/>
    <path id="Path_1493" data-name="Path 1493" d="M509.736,1971.837a.828.828,0,0,1-.651.319h-.04a.828.828,0,0,1-.658-.384l-.183-.29a1.974,1.974,0,0,1-.171.972l-1.191,2.577.087.511.566,3.324.407,2.387,5.09-13.6-.053.068Z" transform="translate(-468.296 -1900.852)" fill="none"/>
    <path id="Path_1494" data-name="Path 1494" d="M446.981,1959a.828.828,0,0,1-.658.383h-.04a.826.826,0,0,1-.652-.319l-2.275-2.924,4.633,12.379.414-2.429.567-3.323.087-.511-1.191-2.577c-.51-1.1.128-2.483,1.147-2.483h4.868a1.087,1.087,0,0,1,.417.085l-3.116-4.929Z" transform="translate(-415.294 -1888.085)" fill="none"/>
    <path id="Path_1495" data-name="Path 1495" d="M427.937,1915.578l3.907-6.179-5.632-5.3-1.274-1.2-.331-.312-3.14,2.347,1.675,4.474.783,1.006Z" transform="translate(-397.017 -1846.535)" fill="none"/>
    <circle id="Ellipse_246" data-name="Ellipse 246" cx="1.568" cy="1.568" r="1.568" transform="translate(26.078 27.8)" fill="#c1272d"/>
    <circle id="Ellipse_247" data-name="Ellipse 247" cx="1.568" cy="1.568" r="1.568" transform="translate(42.842 28.071) rotate(-9.217)" fill="#c1272d"/>
    <path id="Path_1496" data-name="Path 1496" d="M429.909,1707.722h-3.141a.9.9,0,1,0,0,1.8h3.141a.9.9,0,1,0,0-1.8Z" transform="translate(-400.693 -1683.838)" fill="#c1272d"/>
    <path id="Path_1497" data-name="Path 1497" d="M529.716,1709.521h3.136a.9.9,0,1,0,0-1.8h-3.136a.9.9,0,1,0,0,1.8Z" transform="translate(-486.644 -1683.838)" fill="#c1272d"/>
    <path id="Path_1498" data-name="Path 1498" d="M371.392,1675.717l-.519-.821-.015-.008a15.967,15.967,0,0,1-1.385-3.859h0a.9.9,0,0,1,.7-1.06,22.171,22.171,0,0,0,7.92-3.354,22.507,22.507,0,0,0,8.856-11.856.909.909,0,0,1,.552-.577,5.63,5.63,0,0,0,3.156-5.18,1.644,1.644,0,0,0-.851-1.407.466.466,0,0,0-.3-.046,1.2,1.2,0,0,1-.172.14l-1.812,1.18a1.148,1.148,0,0,1-1.612-.372l-2.575-4.3c-6.15-.92-11.3-6.056-13.654-13.1-2.907,6.913-11.439,12.125-21.866,13.011l-2.63,4.389a1.148,1.148,0,0,1-1.612.372l-1.812-1.18a1.157,1.157,0,0,1-.174-.142.55.55,0,0,0-.267.051,1.648,1.648,0,0,0-.848,1.407,5.6,5.6,0,0,0,3.123,5.16.882.882,0,0,1,.585.58,22.506,22.506,0,0,0,8.858,11.871,22.238,22.238,0,0,0,7.923,3.354h0a.9.9,0,0,1,.687,1.068,16.121,16.121,0,0,1-1.385,3.859l-.732,1.159,5.748,5.406Z" transform="translate(-329.396 -1619.864)" fill="none"/>
    <path id="Path_1499" data-name="Path 1499" d="M340.764,1632.325l-2.282-2.4-11.438-6.612-.168-.115-.68-.448-.883-.58-3.594-2.047-.01.022L318,1617.38a.827.827,0,0,0-1.06.06l-.262.248a14.5,14.5,0,0,1-1.233-2.965,23.925,23.925,0,0,0,7.644-3.415,24.328,24.328,0,0,0,9.457-12.44,7.294,7.294,0,0,0,3.9-6.862,3.881,3.881,0,0,0-.753-1.91,28.279,28.279,0,0,0-19.609-26.131,24.139,24.139,0,0,0-6.533-.9A25.321,25.321,0,0,0,289.3,1573.6a26.091,26.091,0,0,0-5.508,12.087,26.453,26.453,0,0,0-.38,4.412,3.869,3.869,0,0,0-.753,1.91,7.3,7.3,0,0,0,3.9,6.865A24.331,24.331,0,0,0,296,1611.317a23.954,23.954,0,0,0,7.649,3.418,14.441,14.441,0,0,1-1.42,3.3l-.634-.6a.826.826,0,0,0-1.06-.06l-5.183,3.873-1.618.921-.885.58-.678.448-.17.115-11.437,6.612-2.282,2.4-4.9,30.729h72.286Zm-24.485-12,1.288-1.211.02.015,3.518,2.628-1.091,2.916-.892,1.147-4.885,6.281-3.906-6.179Zm-2.993,13.36.183.29a.828.828,0,0,0,.657.383h.041a.823.823,0,0,0,.651-.319l3.2-4.117.055-.067-5.092,13.6-.406-2.387-.566-3.324-.088-.512,1.19-2.577A1.969,1.969,0,0,0,313.287,1633.689Zm-9.034-15.6a16.1,16.1,0,0,0,1.385-3.858.9.9,0,0,0-.687-1.069h0a22.262,22.262,0,0,1-7.923-3.355,22.5,22.5,0,0,1-8.858-11.871.881.881,0,0,0-.585-.579,5.6,5.6,0,0,1-3.124-5.16,1.653,1.653,0,0,1,.849-1.409.548.548,0,0,1,.268-.05,1.119,1.119,0,0,0,.173.142l1.813,1.182a1.149,1.149,0,0,0,1.611-.372l2.63-4.389c10.428-.887,18.959-6.1,21.866-13.01,2.356,7.044,7.5,12.181,13.654,13.1l2.576,4.3a1.148,1.148,0,0,0,1.611.372l1.811-1.182a.958.958,0,0,0,.173-.141.461.461,0,0,1,.3.048,1.64,1.64,0,0,1,.85,1.407,5.63,5.63,0,0,1-3.155,5.18.909.909,0,0,0-.551.576,22.509,22.509,0,0,1-8.856,11.856,22.188,22.188,0,0,1-7.92,3.355.9.9,0,0,0-.7,1.059v0a15.945,15.945,0,0,0,1.385,3.857l.015.008.518.822-6.107,5.743-5.747-5.406Zm-3.282,1.026.33.311,1.275,1.2,5.632,5.3L304.3,1632.1l-4.014-5.159-.783-1.005-1.674-4.476ZM307.7,1655.4a1.128,1.128,0,0,1-.218.03c-.5,0-1.157-.682-5.982-6.138-2.577-2.916-5.148-5.876-5.173-5.906a1.777,1.777,0,0,1-.348-1.687l1.24-4.009a.132.132,0,0,0-.069-.157l-5.465-2.681a1.778,1.778,0,0,1-.992-1.74.845.845,0,0,1,.055-.239l3.556-9.04a.826.826,0,1,1,1.537.6l-3.488,8.869a.125.125,0,0,0,.061.063l5.465,2.682a1.775,1.775,0,0,1,.918,2.127l-1.24,4.009a.138.138,0,0,0,.025.125c3.576,4.118,9.467,10.811,10.329,11.545a.826.826,0,0,1-.21,1.542Zm-.6-23.226c-1.019,0-1.656,1.379-1.148,2.481l1.192,2.577-.088.512-.566,3.324-.414,2.427-4.633-12.379,2.275,2.923a.821.821,0,0,0,.65.319h.04a.829.829,0,0,0,.659-.383l4.2-6.645,3.117,4.929a1.094,1.094,0,0,0-.416-.085Zm9.934,17.118c-4.826,5.456-5.486,6.138-5.982,6.138a1.109,1.109,0,0,1-.218-.03.826.826,0,0,1-.21-1.542c.862-.734,6.753-7.427,10.335-11.553a.127.127,0,0,0,.018-.114l-1.24-4.012a1.776,1.776,0,0,1,.918-2.127l5.465-2.682a.125.125,0,0,0,.061-.063l-3.489-8.869a.826.826,0,1,1,1.537-.6l3.556,9.04a.847.847,0,0,1,.055.239,1.776,1.776,0,0,1-.992,1.739l-5.465,2.684a.129.129,0,0,0-.069.155l1.24,4.01a1.774,1.774,0,0,1-.34,1.678C322.182,1643.42,319.612,1646.38,317.035,1649.3Zm20.715,6.622a3.454,3.454,0,0,1-3.452,3.451h-8.257a3.453,3.453,0,0,1-3.451-3.451v-8.984a.825.825,0,0,1,.825-.826h13.509a.826.826,0,0,1,.825.826Z" transform="translate(-273.38 -1563.06)" fill="#c1272d"/>
    <path id="Path_1500" data-name="Path 1500" d="M581.435,2084.226a1.8,1.8,0,0,0,1.8,1.8h8.257a1.8,1.8,0,0,0,1.8-1.8v-8.159H581.435Z" transform="translate(-530.575 -1991.369)" fill="#c1272d"/>
    <path id="Path_1501" data-name="Path 1501" d="M469.358,1819.9a10.218,10.218,0,0,1-3.194-.509l-.812-.267a.826.826,0,0,1,.517-1.568l.812.268a8.616,8.616,0,0,0,5.354,0l.812-.268a.826.826,0,0,1,.517,1.568l-.812.267A10.22,10.22,0,0,1,469.358,1819.9Z" transform="translate(-433.184 -1775.504)" fill="#c1272d"/>
  </g>
  <path id="Path_1502" data-name="Path 1502" d="M477.693,1763.573a.823.823,0,0,1-.436-.125l-2.069-1.289a.825.825,0,0,1-.215-1.208l2.094-2.692a.825.825,0,1,1,1.3,1.014l-1.532,1.969,1.292.805a.826.826,0,0,1-.437,1.526Z" transform="translate(-441.544 -1725.765)" fill="#c1272d"/>
</svg>
