<svg id="Group_4" data-name="Group 4" xmlns="http://www.w3.org/2000/svg" width="184.32" height="81.18" viewBox="0 0 184.32 81.18">
  <path id="パス_858" data-name="パス 858" d="M499.721,496.395a13.447,13.447,0,1,0,13.444,13.449h0a13.447,13.447,0,0,0-13.444-13.449Zm0,20.519a7.072,7.072,0,1,1,7.067-7.077h0a7.068,7.068,0,0,1-7.058,7.077Z" transform="translate(-462.905 -442.108)" fill="#c1272d"/>
  <path id="パス_862" data-name="パス 862" d="M607.862,496.395a13.447,13.447,0,1,0,13.446,13.446h0A13.449,13.449,0,0,0,607.862,496.395Zm0,20.519a7.072,7.072,0,1,1,7.067-7.077v0h0a7.066,7.066,0,0,1-7.062,7.072h-.005Z" transform="translate(-462.905 -442.108)" fill="#c1272d"/>
  <path id="Path_1463" data-name="Path 1463" d="M632.518,474.761H508.537l-3.618-32.653h-38.15l-1.476,28.548L462.9,473.1v34.314h19.781c.052-.26.131-.506.2-.762a16.943,16.943,0,0,1,33.411.762h74.13a17.6,17.6,0,0,1,34.87,0h10.55v-6.235h11.383V474.761ZM493.551,462.942H469.909l.428-16.813H493.75Z" transform="translate(-462.905 -442.108)" fill="#c1272d"/>
</svg>
