<svg xmlns="http://www.w3.org/2000/svg" width="98.406" height="104.563" viewBox="0 0 98.406 104.563">
  <g id="Group_2391" data-name="Group 2391" transform="translate(19326.875 -3461.561)">
    <path id="Path_1011" data-name="Path 1011" d="M2132.2,1427.454a8.906,8.906,0,1,0-8.756-9.054A8.906,8.906,0,0,0,2132.2,1427.454Z" transform="translate(-21412.494 2051.919)" fill="#c1272d"/>
    <path id="Path_1012" data-name="Path 1012" d="M1861.439,1599.082v12.246h-7.019a4.32,4.32,0,0,0,.18-.49c1.091-3.983,3.538-13.707,2.675-17.942-.781-3.831-4.674-5.177-9.459-5.966a87.2,87.2,0,0,1,2.483-13.682c.125.543.237,1.159.355,1.866a13,13,0,0,0,1.406,4.707c.525.868,1.755,2.9,12.181,4.639a3.286,3.286,0,0,0,.533.044,3.224,3.224,0,0,0,.526-6.4,41.265,41.265,0,0,1-7.872-1.983,18.922,18.922,0,0,1-.414-2.059c-.554-3.335-1.48-8.919-8.2-10.6-.711-.178-4.066-.986-6.541-1.667-7.843-2.153-13.714,4.528-15.644,6.724-.176.2-.317.365-.426.477-2.127,2.2-3.671,8.945-4.4,12.772a3.225,3.225,0,0,0,2.561,3.772,3.313,3.313,0,0,0,.61.057,3.225,3.225,0,0,0,3.163-2.619c.8-4.157,2.074-8.59,2.751-9.55.156-.163,1.86-2.058,2.565-2.718-1.951,6.306-3.171,14.807-2.418,18.893-.015,1.956.161,3.991.335,5.986a35.158,35.158,0,0,1,.125,8.16c-.758,4.4-3.347,16.988-3.373,17.115a4.149,4.149,0,0,0,.361,2.71h-6.562v12.247h-19.76v12.246h39.519v-12.246h19.76v-12.247h19.76v-12.246h19.367v-12.246Zm-25.52,24.492a4.135,4.135,0,0,0,.358-1.031c.108-.523,2.642-12.845,3.423-17.38a40.82,40.82,0,0,0-.036-10.3c-.017-.208-.036-.417-.054-.626.855.118,1.746.227,2.656.338a55.293,55.293,0,0,1,6.87,1.123,79.217,79.217,0,0,1-2.569,12.936,4.137,4.137,0,0,0,.173,2.692h-5.06v12.246Z" transform="translate(-21129.035 1918.056)" fill="#c1272d"/>
  </g>
</svg>
