<svg xmlns="http://www.w3.org/2000/svg" width="137.5" height="110" viewBox="0 0 137.5 110">
  <path id="Icon_awesome-school" data-name="Icon awesome-school" d="M0,48.125v58.437A3.437,3.437,0,0,0,3.437,110H20.625V41.25H6.875A6.876,6.876,0,0,0,0,48.125ZM77.344,37.813H72.187V29.219A1.718,1.718,0,0,0,70.469,27.5H67.031a1.718,1.718,0,0,0-1.719,1.719v13.75a1.718,1.718,0,0,0,1.719,1.719H77.344a1.718,1.718,0,0,0,1.719-1.719V39.531A1.718,1.718,0,0,0,77.344,37.813Zm29.595-13.741L72.563,1.154a6.879,6.879,0,0,0-7.627,0L30.562,24.071A6.875,6.875,0,0,0,27.5,29.79V110H55V79.063a3.437,3.437,0,0,1,3.438-3.437H79.063A3.437,3.437,0,0,1,82.5,79.063V110H110V29.792A6.876,6.876,0,0,0,106.938,24.071ZM68.75,55A17.187,17.187,0,1,1,85.938,37.813,17.188,17.188,0,0,1,68.75,55Zm61.875-13.75h-13.75V110h17.187a3.437,3.437,0,0,0,3.438-3.437V48.125A6.876,6.876,0,0,0,130.625,41.25Z" fill="#003385"/>
</svg>
