<svg xmlns="http://www.w3.org/2000/svg" width="100.876" height="104.006" viewBox="0 0 100.876 104.006">
  <g id="Group_2142" data-name="Group 2142" transform="translate(0)">
    <path id="Path_543" data-name="Path 543" d="M632.045,1354.212H561.218a10.951,10.951,0,0,0-10.939,10.941v13.378l3.211.459a3.793,3.793,0,0,1,0,7.51l-3.212.46v13.38a10.951,10.951,0,0,0,10.939,10.94h70.827a10.953,10.953,0,0,0,10.943-10.94V1386.7l-3.569-.167a3.791,3.791,0,0,1,0-7.575l3.569-.169v-13.636A10.953,10.953,0,0,0,632.045,1354.212Zm7.2,21.005a7.536,7.536,0,0,0,0,15.056v10.066a7.2,7.2,0,0,1-7.2,7.2H561.218a7.2,7.2,0,0,1-7.2-7.2V1390.2a7.535,7.535,0,0,0,0-14.917v-10.134a7.2,7.2,0,0,1,7.2-7.2h70.827a7.2,7.2,0,0,1,7.2,7.2Z" transform="translate(-546.193 -1307.274)" fill="#c1272d"/>
    <rect id="Rectangle_322" data-name="Rectangle 322" width="2.476" height="6.46" transform="translate(25.578 89.262)" fill="#c1272d"/>
    <rect id="Rectangle_323" data-name="Rectangle 323" width="2.476" height="6.458" transform="translate(25.578 77.916)" fill="#c1272d"/>
    <rect id="Rectangle_324" data-name="Rectangle 324" width="2.476" height="6.46" transform="translate(25.578 66.568)" fill="#c1272d"/>
    <rect id="Rectangle_325" data-name="Rectangle 325" width="2.476" height="6.46" transform="translate(25.578 55.222)" fill="#c1272d"/>
    <path id="Path_544" data-name="Path 544" d="M560.138,1348.892l-2.164,1.2,3.141,5.644,2.163-1.2Z" transform="translate(-539.105 -1312.174)" fill="#c1272d"/>
    <path id="Path_545" data-name="Path 545" d="M647.654,1366.146l-4.9-8.8-1.738-3.12-3.2,1.588a3.792,3.792,0,0,1-3.683-6.62l3.038-1.883-1.739-3.122-4.893-8.793a10.951,10.951,0,0,0-14.881-4.24l-61.89,34.433a10.953,10.953,0,0,0-4.242,14.881l.179.321a15.109,15.109,0,0,1,2.5-3.537,7.2,7.2,0,0,1,3.379-8.4l61.892-34.433a7.2,7.2,0,0,1,9.79,2.789l4.893,8.8a7.535,7.535,0,0,0,7.32,13.154l4.893,8.8a7.184,7.184,0,0,1-.724,8.044,15.253,15.253,0,0,1,2.568,2.757A10.954,10.954,0,0,0,647.654,1366.146Z" transform="translate(-548.152 -1329.78)" fill="#c1272d"/>
  </g>
</svg>
