<svg xmlns="http://www.w3.org/2000/svg" width="136.392" height="104.184" viewBox="0 0 136.392 104.184">
  <g id="Group_2393" data-name="Group 2393" transform="translate(19025.74 -3461.102)">
    <path id="Path_1306" data-name="Path 1306" d="M306.866,60.446h-65.4a3.843,3.843,0,0,0-3.843,3.845v60.391a3.843,3.843,0,0,0,3.843,3.845h65.4a3.844,3.844,0,0,0,3.845-3.845V64.291A3.844,3.844,0,0,0,306.866,60.446Z" transform="translate(-19200.059 3400.656)" fill="#c1272d"/>
    <path id="Path_1307" data-name="Path 1307" d="M81.025,354.34a12.948,12.948,0,1,0,12.949,12.947A12.95,12.95,0,0,0,81.025,354.34Zm0,18.777a5.827,5.827,0,1,1,5.826-5.83A5.828,5.828,0,0,1,81.025,373.117Z" transform="translate(-19075.682 3185.05)" fill="#c1272d"/>
    <path id="Path_1308" data-name="Path 1308" d="M368.146,354.34a12.948,12.948,0,1,0,12.948,12.947A12.948,12.948,0,0,0,368.146,354.34Zm0,18.777a5.827,5.827,0,1,1,5.826-5.83A5.828,5.828,0,0,1,368.146,373.117Z" transform="translate(-19286.318 3185.05)" fill="#c1272d"/>
    <path id="Path_1309" data-name="Path 1309" d="M53.31,128.623h-29.2a3.192,3.192,0,0,0-2.459,1.154L.744,154.861A3.188,3.188,0,0,0,0,156.911v33.508a3.2,3.2,0,0,0,3.2,3.2h9.813a19.777,19.777,0,0,1,36.13,0h7.371v-61.8A3.207,3.207,0,0,0,53.31,128.623ZM11.7,157.241a3.3,3.3,0,0,1,.74-2.083l13.347-16.435a3.306,3.306,0,0,1,2.566-1.223H41.429a3.3,3.3,0,0,1,3.3,3.306v18.65a3.3,3.3,0,0,1-3.3,3.3H15a3.3,3.3,0,0,1-3.3-3.3Z" transform="translate(-19025.74 3350.641)" fill="#c1272d"/>
    <path id="Path_1310" data-name="Path 1310" d="M238.571,338.792a1.8,1.8,0,0,0-1.8,1.8V346a1.8,1.8,0,0,0,1.8,1.8H263.2a19.9,19.9,0,0,1,8.1-9.013Z" transform="translate(-19199.436 3196.459)" fill="#c1272d"/>
    <path id="Path_1311" data-name="Path 1311" d="M458.024,338.792H441.191a19.9,19.9,0,0,1,8.1,9.013h8.73a1.8,1.8,0,0,0,1.8-1.8V340.6A1.8,1.8,0,0,0,458.024,338.792Z" transform="translate(-19349.402 3196.459)" fill="#c1272d"/>
  </g>
</svg>
