<svg id="_i_icon_10157_icon_101570" xmlns="http://www.w3.org/2000/svg" width="53.594" height="53.594" viewBox="0 0 53.594 53.594">
  <path id="Path_1266" data-name="Path 1266" d="M48.946,11.707c-.478-.7-.978-1.366-1.515-2.01a26.8,26.8,0,0,0-41.268,0c-.536.644-1.037,1.313-1.515,2.01a26.827,26.827,0,0,0-.01,30.171c.478.7.981,1.366,1.518,2.01a26.8,26.8,0,0,0,41.283,0q.8-.967,1.516-2.01a26.827,26.827,0,0,0-.01-30.171Zm-.429,16.457-7.942,1.214s-1.92,5.041-.278,5.7c5.582,2.234,1.675,6.325-2.234,8.1-1.75.793-1.428,1.909-.213,2.367a21.7,21.7,0,0,1-27.484-4.48A21.882,21.882,0,0,1,8.8,39.041a21.619,21.619,0,0,1-3.443-8.5A18.042,18.042,0,0,1,7.69,28.688c1.793-1.2,5.082-2.99,5.082-7.774s3.289-4.483,3.289-4.483h1.495L16.29,19.443l3.072-.278,2.679-4.828,5.381-2.69s3.384-4.485,0-4.483H17.4A21.7,21.7,0,0,1,38.1,8.2,13.216,13.216,0,0,0,36.388,8l-4.462.561v4.181l3.163.165a4.744,4.744,0,0,1,4.436,3.963l.772,4.645,8.1,4.684.177.6C48.569,27.26,48.545,27.713,48.517,28.164Z" fill="#fff"/>
  <path id="Path_1267" data-name="Path 1267" d="M154.817,336.044v1h-3.059v-1.3l-4.352,3.176v4.295h6.176l.765,1.3h2.529l1.882-1.825v-3.235l-3-3.412Z" transform="translate(-131.976 -300.605)" fill="#fff"/>
  <path id="Path_1268" data-name="Path 1268" d="M155.974,297.281a.618.618,0,0,0-.568.657v.306a.619.619,0,0,0,.568.657h1.192a.62.62,0,0,0,.569-.657v-.306a.618.618,0,0,0-.569-.657Z" transform="translate(-139.139 -266.163)" fill="#fff"/>
  <path id="Path_1269" data-name="Path 1269" d="M123.727,282.016h-1.534a.62.62,0,0,0-.569.659v.909c0,.363.147.657.4.657h.062c.27,0,.208.294.208.661v.425a.618.618,0,0,0,.569.657h.867a.616.616,0,0,0,.566-.657v-2.653A.617.617,0,0,0,123.727,282.016Z" transform="translate(-108.893 -252.496)" fill="#fff"/>
  <path id="Path_1270" data-name="Path 1270" d="M142.913,233.612h.115a.621.621,0,0,1,.569.661v.327a.618.618,0,0,0,.568.657h4.4a.6.6,0,0,0,.556-.517l.919-4.877a.743.743,0,0,0-.113-.554.543.543,0,0,0-.443-.247h-1.59a.592.592,0,0,0-.553.52l-.317,1.7a.6.6,0,0,1-.556.52h-3.552a.617.617,0,0,0-.569.657v.5A.618.618,0,0,0,142.913,233.612Z" transform="translate(-127.444 -205.085)" fill="#fff"/>
  <path id="Path_1271" data-name="Path 1271" d="M195.02,190.7h2.466a.6.6,0,0,0,.559-.535L198.4,188a.739.739,0,0,0-.121-.543.543.543,0,0,0-.438-.239h-2.466a.6.6,0,0,0-.558.536l-.357,2.167a.735.735,0,0,0,.121.543A.534.534,0,0,0,195.02,190.7Z" transform="translate(-174.098 -167.622)" fill="#fff"/>
</svg>
