<svg id="Group_2061" data-name="Group 2061" xmlns="http://www.w3.org/2000/svg" width="206.021" height="159.241" viewBox="0 0 206.021 159.241">
  <path id="パス_712" data-name="パス 712" d="M277.714,451.032a2.5,2.5,0,1,0,2.5,2.5h0A2.5,2.5,0,0,0,277.714,451.032Z" transform="translate(-144.484 -406.857)" fill="#c1272d"/>
  <path id="パス_713" data-name="パス 713" d="M296.707,456.022a2.5,2.5,0,1,0-2.5-2.5,2.5,2.5,0,0,0,2.5,2.5Z" transform="translate(-133.231 -406.86)" fill="#c1272d"/>
  <path id="パス_714" data-name="パス 714" d="M301.39,462.24a1.433,1.433,0,1,0-2.866-.011v.011h0c0,2.078-3.344,4.394-8.142,4.394s-8.139-2.315-8.139-4.394a1.437,1.437,0,1,0-2.874,0c0,4.075,4.841,7.268,11.014,7.268S301.39,466.315,301.39,462.24Z" transform="translate(-142.023 -401.07)" fill="#c1272d"/>
  <path id="パス_715" data-name="パス 715" d="M356.185,535.107c-4.355-9.38-9.951-13.291-24.959-17.517a20.327,20.327,0,0,1-14.117-14.37c.478-.126.956-.287,1.4-.409a35.552,35.552,0,0,0,28.044,12.717,34.539,34.539,0,0,0,7.375-.7,1.4,1.4,0,0,0,1.019-.955,1.353,1.353,0,0,0-.287-1.365c-.1-.127-10.588-12.273-14.054-18.122-.764-1.274-1.462-2.766-2.194-4.325-.1-.189-.159-.381-.255-.541a39.21,39.21,0,0,0,6.231-11.6c1.752-1.018,6.93-4.642,6.2-10.937a5.388,5.388,0,0,0-3.116-4.547,3.92,3.92,0,0,0-1.3-.319,39.222,39.222,0,0,0-1.177-6.422v-.064a38.613,38.613,0,0,0-75.227,3.083c0,.064-.03.1-.03.127-.191,1.081-.35,2.163-.446,3.273a4.08,4.08,0,0,0-1.336.318,5.422,5.422,0,0,0-3.083,4.547c-.733,6.3,4.451,9.92,6.2,10.937a38.7,38.7,0,0,0,27.255,25.308,20.344,20.344,0,0,1-14.086,14.37c-15.008,4.228-20.6,8.141-24.959,17.517-4.1,8.84-9,42.1-9.189,43.5a1.433,1.433,0,0,0,2.828.427v-.018c.065-.347,5.024-34.238,8.967-42.7,3.981-8.553,8.934-11.988,23.115-15.963a22.25,22.25,0,0,0,6.835-3.147l-.541,17.836a1.434,1.434,0,0,0,.858,1.368,1.917,1.917,0,0,0,.573.127,1.366,1.366,0,0,0,1.018-.447l13.987-13.955,13.958,13.955a1.483,1.483,0,0,0,1.018.447,1.9,1.9,0,0,0,.572-.127,1.391,1.391,0,0,0,.86-1.368l-.541-17.836a22.433,22.433,0,0,0,6.87,3.147c14.173,3.981,19.138,7.408,23.115,15.963,3.943,8.456,8.9,42.35,8.934,42.7a1.463,1.463,0,0,0,1.433,1.244.413.413,0,0,0,.191-.03,1.434,1.434,0,0,0,1.242-1.6l0-.013V578.6C365.151,577.2,360.286,543.947,356.185,535.107Zm-61.9-3.593.478-15.261,10.429,4.355Zm1.592-17.9a25.516,25.516,0,0,0,5.628-11.16,1.511,1.511,0,0,0-.221-1.115,1.272,1.272,0,0,0-.89-.605,35.772,35.772,0,0,1-26.773-24.261,1.379,1.379,0,0,0-.858-.919c-.922-.508-5.628-3.308-5.023-8.235a2.608,2.608,0,0,1,1.336-2.258.929.929,0,0,1,.572-.065,1.319,1.319,0,0,0,1.018.382,1.448,1.448,0,0,0,1.366-1.366,30.777,30.777,0,0,1,.412-3.822c.126-.064.287-.1.446-.159.064-.03.1-.03.126-.064a2.434,2.434,0,0,0,.446-.159,1.83,1.83,0,0,0,.221-.1c.159-.065.287-.126.446-.191.1-.032.159-.064.255-.094.191-.1.35-.193.573-.288l.19-.094c.255-.127.541-.287.8-.414.065-.03.126-.1.191-.127.221-.127.446-.255.7-.381l.287-.191c.221-.159.444-.285.637-.412a2.129,2.129,0,0,1,.35-.221c.221-.191.478-.35.7-.508a1.685,1.685,0,0,1,.287-.223c.35-.255.7-.508,1.049-.8l.127-.126c.318-.256.6-.51.922-.8.127-.1.221-.223.35-.318.255-.221.508-.446.763-.7l.382-.381c.255-.256.508-.541.763-.83a1.716,1.716,0,0,0,.35-.346c.381-.412.763-.858,1.145-1.3a48.715,48.715,0,0,0,8.235-14.248c.637.737,1.274,1.4,1.911,2.07l.6.605c.446.444.889.889,1.3,1.3.255.226.508.448.763.7.412.35.8.733,1.209,1.081.255.223.541.444.8.667.414.35.8.667,1.209.983.255.221.541.412.8.637.412.318.828.6,1.209.889.287.223.541.409.8.6.446.29.858.572,1.274.862.255.159.51.318.764.508.444.287.889.573,1.334.828.223.127.446.287.669.409.572.35,1.145.669,1.685.955a2.787,2.787,0,0,1,.318.19c.7.382,1.366.733,2.034,1.049.1.065.191.1.287.159.573.255,1.145.541,1.718.8.221.1.412.159.6.255.478.223.924.414,1.4.605.221.1.444.159.667.255.444.191.858.35,1.3.508.221.1.446.159.667.255.446.159.858.287,1.274.446l.667.191c.446.159.858.287,1.274.414.221.06.412.126.6.189.478.126.922.223,1.366.35.159.032.319.1.478.126.54.127,1.049.255,1.554.382.064.032.159.032.221.064,1.241.256,2.389.51,3.529.7h.159c.478.1.983.159,1.462.255.127,0,.223.032.35.032.412.064.8.126,1.209.159a1.609,1.609,0,0,0,.381.03c.382.065.733.1,1.115.127.127,0,.255.029.381.029.35.037.7.067,1.018.1a1.129,1.129,0,0,1,.35.032c.35,0,.7.032,1.018.032a.808.808,0,0,0,.255.03c.382,0,.732.03,1.049.03h.159c1.145.032,2.161.032,2.956,0h.127a3.469,3.469,0,0,0,.6-.03h.478a33.09,33.09,0,0,1,.89,6.422,1.4,1.4,0,0,0,1.4,1.333,1.361,1.361,0,0,0,.983-.318c.126-.1.349-.065.6.03a2.67,2.67,0,0,1,1.335,2.258c.6,5.023-4.292,7.852-5.086,8.267a1.416,1.416,0,0,0-.826.922,35.3,35.3,0,0,1-6.582,12.05c-.191.223-.35.446-.541.637-.35.419-.7.8-1.081,1.182-.19.189-.381.409-.572.6-.318.318-.669.637-.986.956-.255.221-.478.443-.7.637-.349.287-.7.6-1.049.89-.221.159-.446.35-.667.541-.412.287-.8.6-1.209.89a6.848,6.848,0,0,0-.573.409c-.478.319-.955.6-1.433.89a4.21,4.21,0,0,1-.637.381c-.478.287-.956.573-1.433.828-.255.127-.478.221-.732.35-.478.255-.956.478-1.462.7-.255.094-.508.221-.763.318l-1.241.478a9.471,9.471,0,0,1-1.018.35,29.758,29.758,0,0,1-4.07,1.145,1.4,1.4,0,0,0-.922.605,1.5,1.5,0,0,0-.191,1.115,25.723,25.723,0,0,0,5.6,11.16l-11.829,4.929Zm14.372,6.994,10.459-4.355.478,15.261Z" transform="translate(-159.373 -421.02)" fill="#c1272d"/>
  <path id="パス_716" data-name="パス 716" d="M285.5,460.547a1.433,1.433,0,0,0,1.433-1.433.654.654,0,0,1,1.309,0h0a1.433,1.433,0,0,0,2.867,0,3.526,3.526,0,0,0-7.052,0,1.433,1.433,0,0,0,1.433,1.433Z" transform="translate(-139.243 -404.158)" fill="#c1272d"/>
  <path id="パス_717" data-name="パス 717" d="M224.338,488.563a1.433,1.433,0,0,1-1.44-1.427,1.455,1.455,0,0,1,.11-.557l1.659-4.042a1.435,1.435,0,1,1,2.664,1.067l-.01.021-1.655,4.043A1.433,1.433,0,0,1,224.338,488.563Z" transform="translate(-175.481 -388.726)" fill="#c1272d"/>
  <path id="パス_718" data-name="パス 718" d="M235.984,488.559a1.437,1.437,0,0,1-1.33-.893L233,483.621a1.436,1.436,0,0,1,2.658-1.088l1.656,4.042a1.443,1.443,0,0,1-.795,1.879,1.468,1.468,0,0,1-.535.105Z" transform="translate(-169.56 -388.723)" fill="#c1272d"/>
  <path id="パス_719" data-name="パス 719" d="M229.852,489.359a1.433,1.433,0,0,1-1.433-1.433h0v-4.118a1.433,1.433,0,0,1,2.866,0v4.118a1.433,1.433,0,0,1-1.433,1.433Z" transform="translate(-172.21 -388.288)" fill="#c1272d"/>
  <ellipse id="楕円形_95" data-name="楕円形 95" cx="2.499" cy="2.499" rx="2.499" ry="2.499" transform="translate(40.022 44.164)" fill="#c1272d"/>
  <ellipse id="楕円形_96" data-name="楕円形 96" cx="2.499" cy="2.499" rx="2.499" ry="2.499" transform="translate(70.269 44.164)" fill="#c1272d"/>
  <path id="パス_720" data-name="パス 720" d="M233.418,469.505c-6.176,0-11.014-3.185-11.014-7.268a1.433,1.433,0,1,1,2.866,0h0c0,2.078,3.344,4.394,8.142,4.394s8.142-2.315,8.142-4.394a1.433,1.433,0,1,1,2.866,0h0C244.431,466.312,239.595,469.505,233.418,469.505Z" transform="translate(-175.774 -401.068)" fill="#c1272d"/>
  <path id="パス_721" data-name="パス 721" d="M223.783,449.144h-5a1.433,1.433,0,0,1-.01-2.866h5.007a1.433,1.433,0,0,1,0,2.866Z" transform="translate(-178.769 -409.674)" fill="#c1272d"/>
  <path id="パス_722" data-name="パス 722" d="M242.776,449.144h-5a1.433,1.433,0,0,1,0-2.866h5a1.433,1.433,0,0,1,0,2.866Z" transform="translate(-167.51 -409.674)" fill="#c1272d"/>
  <path id="パス_723" data-name="パス 723" d="M232.714,460.549a1.433,1.433,0,0,1-1.433-1.433.655.655,0,0,0-1.309,0h0a1.433,1.433,0,0,1-2.866,0,3.526,3.526,0,0,1,7.052-.013v.013a1.433,1.433,0,0,1-1.433,1.433Z" transform="translate(-172.988 -404.16)" fill="#c1272d"/>
  <path id="パス_724" data-name="パス 724" d="M308.4,580.883c-.2-1.411-5.07-34.667-9.176-43.5-4.352-9.377-9.951-13.307-24.961-17.517a19.361,19.361,0,0,1-11.837-9.123h0a23.084,23.084,0,0,1-2.271-5.265,38.2,38.2,0,0,0,12.187-5.445A38.8,38.8,0,0,0,287.425,480.2c1.752-1.035,6.937-4.655,6.211-10.939h0a6.182,6.182,0,0,0-1.185-3.046,41.722,41.722,0,0,0-39.377-41.605,2.667,2.667,0,0,0-4.6,0,41.723,41.723,0,0,0-39.371,41.6,6.16,6.16,0,0,0-1.19,3.048c-.733,6.289,4.473,9.913,6.211,10.94a38.791,38.791,0,0,0,15.062,19.844,38.184,38.184,0,0,0,12.194,5.446,23.118,23.118,0,0,1-2.266,5.271h0a19.39,19.39,0,0,1-11.837,9.115c-15,4.207-20.6,8.134-24.962,17.517-4.1,8.833-8.972,42.088-9.176,43.5a1.435,1.435,0,0,0,1.209,1.628l.01,0a1.467,1.467,0,0,0,.2.014H306.989a1.433,1.433,0,0,0,1.433-1.433v-.011a1.375,1.375,0,0,0-.014-.2ZM250.755,427.41a38.854,38.854,0,0,1,38.272,32.4c-3.768-6.542-9.873-16.731-12.94-19.525l-.487-.448c-4.241-3.9-9.048-8.327-24.843-8.327s-20.6,4.425-24.843,8.327l-.487.446c-3.058,2.79-9.16,12.963-12.937,19.522a38.856,38.856,0,0,1,38.261-32.393Zm34.557,31.735a57.683,57.683,0,0,0-9.58-7.188l-.478-.232c-4.39-2.108-8.932-4.285-24.5-4.285s-20.1,2.177-24.489,4.285l-.478.232a57.87,57.87,0,0,0-9.585,7.192c3.793-6.488,8.778-14.558,11.173-16.743l.489-.452c4.045-3.72,8.225-7.567,22.892-7.567s18.858,3.844,22.9,7.567l.49.455c2.366,2.151,7.282,10.085,11.17,16.732Zm-26.87,52.045a20.747,20.747,0,0,1-15.348.013c-.264-.108-.522-.22-.779-.336a25.71,25.71,0,0,0,2.207-6.152,1.434,1.434,0,0,0-1.1-1.7h-.006a35.447,35.447,0,0,1-12.632-5.348,35.875,35.875,0,0,1-14.121-18.925,1.4,1.4,0,0,0-.932-.924c-1.046-.583-5.543-3.387-4.98-8.227a2.629,2.629,0,0,1,1.354-2.245.892.892,0,0,1,.545-.067,1.433,1.433,0,0,0,2.419-.971c.041-.846.121-1.686.22-2.521,3.835-3.441,9.217-8.039,11.729-9.236l.49-.234c4.1-1.968,8.343-4,23.25-4s19.15,2.032,23.25,4l.49.234c2.484,1.183,7.781,5.692,11.729,9.236.1.827.182,1.659.223,2.5a1.433,1.433,0,0,0,2.354,1.019.754.754,0,0,1,.607.04,2.625,2.625,0,0,1,1.355,2.245c.572,4.937-4.113,7.754-5.032,8.257a1.451,1.451,0,0,0-.881.919,35.879,35.879,0,0,1-14.119,18.9,35.336,35.336,0,0,1-12.625,5.348,1.432,1.432,0,0,0-1.116,1.691l0,.01h0a25.47,25.47,0,0,0,2.207,6.15c-.252.107-.5.215-.76.319Z" transform="translate(-193.122 -423.292)" fill="#c1272d"/>
</svg>
