<svg xmlns="http://www.w3.org/2000/svg" width="38" height="22.021" viewBox="0 0 38 22.021">
  <g id="Group_2526" data-name="Group 2526" transform="translate(-51 -29.002)">
    <g id="Group_1952" data-name="Group 1952" transform="translate(51 29.002)">
      <path id="Path_572" data-name="Path 572" d="M64.349,34.347H29.481a1.352,1.352,0,1,1,0-2.7H64.349a1.352,1.352,0,1,1,0,2.7Z" transform="translate(-28.111 -31.643)" fill="#fff"/>
      <path id="Path_573" data-name="Path 573" d="M64.616,47.882H29.749a1.352,1.352,0,1,1,0-2.7H64.616a1.352,1.352,0,1,1,0,2.7Z" transform="translate(-28.183 -35.519)" fill="#fff"/>
      <path id="Path_574" data-name="Path 574" d="M64.884,61.416H30.017a1.352,1.352,0,1,1,0-2.7H64.884a1.352,1.352,0,1,1,0,2.7Z" transform="translate(-28.255 -39.395)" fill="#fff"/>
    </g>
  </g>
</svg>
