<svg xmlns="http://www.w3.org/2000/svg" width="91.636" height="104.13" viewBox="0 0 91.636 104.13">
  <g id="Group_2392" data-name="Group 2392" transform="translate(19480.918 -3613.409)">
    <path id="Path_660" data-name="Path 660" d="M105.974,493.516a28.019,28.019,0,0,1,6.518,1.878c9.225,4.4,14.334,11.658,14.43,21.93.164,17.338.072,34.681.034,52.021-.019,7.654-3.465,13.491-9.8,17.659a1.945,1.945,0,0,0-1.035,1.882c.051,2.1.029,4.2.01,6.3-.015,1.757-.729,2.451-2.481,2.454q-5.386.007-10.772,0a2.094,2.094,0,0,1-2.4-2.341c-.029-1.286-.048-2.575,0-3.858.036-.876-.268-1.207-1.163-1.19-2.471.043-4.944.015-7.418.015H63.345c-1.45,0-1.45,0-1.453,1.477,0,1.187.019,2.372-.01,3.557a2.1,2.1,0,0,1-2.4,2.341q-5.437.011-10.873,0c-1.617,0-2.358-.717-2.377-2.353-.027-2.167-.034-4.336,0-6.5a1.8,1.8,0,0,0-.946-1.725c-6.424-4.192-9.879-10.077-9.891-17.816q-.043-25.96-.01-51.92A24.013,24.013,0,0,1,55.794,493.67a5.457,5.457,0,0,0,.584-.154Zm-64.987,49.8q0,12.6.012,25.2a19.5,19.5,0,0,0,.258,3.335,15.3,15.3,0,0,0,15.123,12.667q24.794.015,49.591-.01a15.431,15.431,0,0,0,15.391-15.683q.025-25.507-.007-51.015a19.333,19.333,0,0,0-.241-3.034,18.426,18.426,0,0,0-18.137-15.7c-14.532-.051-29.063-.075-43.595.014a17.918,17.918,0,0,0-14.688,7.428,18.337,18.337,0,0,0-3.7,11.39C40.963,526.377,40.987,534.845,40.987,543.315Z" transform="translate(-19516.299 3119.894)" fill="#c1272d"/>
    <path id="Path_661" data-name="Path 661" d="M71.735,504.786q12.14,0,24.283,0c3.284,0,5.372,2.02,5.386,5.294q.04,9.856,0,19.71a5.024,5.024,0,0,1-5.374,5.34q-24.284.021-48.568,0a5.047,5.047,0,0,1-5.391-5.429q-.022-9.755,0-19.51c.01-3.4,2.063-5.405,5.48-5.405Q59.643,504.783,71.735,504.786ZM47.954,523.013l.285.111,12.186-12.652a.912.912,0,0,1-.454.094q-5.223-.007-10.444,0c-1.342,0-1.566.237-1.568,1.629-.01,2.905,0,5.811,0,8.719Z" transform="translate(-19506.857 3135.816)" fill="#c1272d"/>
    <path id="Path_662" data-name="Path 662" d="M65.123,504.947q-8.535,0-17.07,0c-1.344,0-1.361-.022-1.366-1.361,0-1.289.039-2.577-.014-3.861-.039-.89.294-1.185,1.178-1.175,3.76.034,7.519.014,11.279.014q11.633,0,23.267,0c1.344,0,1.361.022,1.366,1.363,0,1.253-.048,2.51.017,3.76.051.977-.311,1.284-1.281,1.279C76.706,504.927,70.915,504.947,65.123,504.947Z" transform="translate(-19500.348 3127)" fill="#c1272d"/>
    <path id="Path_663" data-name="Path 663" d="M60.839,526.125c3.149,0,6.3.027,9.445-.015.963-.014,1.313.3,1.289,1.282-.058,2.4-.041,4.809-.007,7.21.01.8-.3,1.076-1.074,1.076q-9.6-.025-19.2,0c-.9,0-1.173-.371-1.161-1.224.036-2.37.043-4.739,0-7.109-.019-.946.364-1.24,1.262-1.23C54.541,526.144,57.69,526.127,60.839,526.125Z" transform="translate(-19495.453 3165.952)" fill="#c1272d"/>
    <path id="Path_664" data-name="Path 664" d="M47.38,533.865a5.739,5.739,0,1,1,5.832-5.762A5.766,5.766,0,0,1,47.38,533.865Z" transform="translate(-19507.461 3160.689)" fill="#c1272d"/>
    <path id="Path_665" data-name="Path 665" d="M68.092,533.865a5.738,5.738,0,1,1,5.77-5.736A5.748,5.748,0,0,1,68.092,533.865Z" transform="translate(-19478.281 3160.689)" fill="#c1272d"/>
  </g>
</svg>
