<svg xmlns="http://www.w3.org/2000/svg" width="73.232" height="104.062" viewBox="0 0 73.232 104.062">
  <g id="Group_2394" data-name="Group 2394" transform="translate(19005.988 -3613.87)">
    <path id="Path_1001" data-name="Path 1001" d="M149.076,23.905,131.207,0H93.712L75.844,18.7,93.712,51.5h37.495Z" transform="translate(-19081.832 3613.87)" fill="#c1272d"/>
    <path id="Path_1002" data-name="Path 1002" d="M188.762,271.87H200.11v-5.652H166.782v5.652H179.6V277c0,11.616,12.624,10.939,12.624,20.979,0,4.9-3.754,8.312-8.87,8.87-4.871.529-9.846-4.253-9.494-9.182.488-6.807-4.708-8.669-6.16-9.327s-3.3.4-1.98,1.716,1.452,3.563,1.1,7.3c-.88,9.33,5.924,18.817,16.533,18.817a19.206,19.206,0,0,0,19.207-19.207C202.548,281.474,186.91,281.336,188.762,271.87Z" transform="translate(-19153.08 3401.759)" fill="#c1272d"/>
  </g>
</svg>
