<svg id="Group_371" data-name="Group 371" xmlns="http://www.w3.org/2000/svg" width="89.611" height="117.535" viewBox="0 0 89.611 117.535">
  <path id="Path_516" data-name="Path 516" d="M375.806,2067.9h-9.331v5.942a10.119,10.119,0,0,1-.221,2.087h10.551a2.117,2.117,0,0,1,2.116,2.117v81.83a2.116,2.116,0,0,1-2.116,2.115H306.362a2.116,2.116,0,0,1-2.116-2.115v-81.83a2.117,2.117,0,0,1,2.116-2.117h10.551a10.123,10.123,0,0,1-.221-2.087V2067.9h-9.331a10.585,10.585,0,0,0-10.584,10.584v83.38a10.583,10.583,0,0,0,10.584,10.583h68.444a10.583,10.583,0,0,0,10.584-10.583v-83.38A10.585,10.585,0,0,0,375.806,2067.9Z" transform="translate(-296.778 -2054.906)" fill="#fff"/>
  <path id="Path_517" data-name="Path 517" d="M329.27,2078.817h29.615a6.35,6.35,0,0,0,6.35-6.35v-6.359a6.35,6.35,0,0,0-6.35-6.35H350.86a6.808,6.808,0,0,0-13.566,0H329.27a6.35,6.35,0,0,0-6.35,6.35v6.359A6.349,6.349,0,0,0,329.27,2078.817Zm14.807-21.548a3.111,3.111,0,1,1-3.112,3.11A3.111,3.111,0,0,1,344.077,2057.269Z" transform="translate(-299.272 -2053.536)" fill="#fff"/>
  <path id="Path_518" data-name="Path 518" d="M324.8,2106.763l2.727-2.727,7.5-7.5-2.726-2.726-7.5,7.5-4.771-4.773-2.728,2.727Z" transform="translate(-298.736 -2057.378)" fill="#fff"/>
  <path id="Path_519" data-name="Path 519" d="M332.3,2115.48l-7.5,7.5-4.771-4.773-2.728,2.728,7.5,7.5,2.727-2.727,7.5-7.5Z" transform="translate(-298.736 -2059.446)" fill="#fff"/>
  <path id="Path_520" data-name="Path 520" d="M320.029,2139.875,317.3,2142.6l7.5,7.5,2.727-2.727,7.5-7.5-2.726-2.725-7.5,7.5Z" transform="translate(-298.736 -2061.513)" fill="#fff"/>
</svg>
