<svg id="Group_3" data-name="Group 3" xmlns="http://www.w3.org/2000/svg" width="226.83" height="90.189" viewBox="0 0 226.83 90.189">
  <path id="パス_840" data-name="パス 840" d="M189.913,499.648a11.82,11.82,0,1,0,11.82,11.82h0A11.82,11.82,0,0,0,189.913,499.648Zm0,18.037a6.215,6.215,0,1,1,6.213-6.217,6.216,6.216,0,0,1-6.213,6.217Z" transform="translate(-156.244 -433.097)" fill="#c1272d"/>
  <path id="パス_842" data-name="パス 842" d="M313.542,499.648A11.82,11.82,0,1,0,325.36,511.47h0a11.82,11.82,0,0,0-11.818-11.822Zm0,18.037a6.215,6.215,0,1,1,6.213-6.217h0a6.213,6.213,0,0,1-6.208,6.217Z" transform="translate(-156.244 -433.097)" fill="#c1272d"/>
  <path id="パス_844" data-name="パス 844" d="M346.192,499.648A11.82,11.82,0,1,0,358.01,511.47h0a11.82,11.82,0,0,0-11.818-11.822Zm0,18.037a6.215,6.215,0,1,1,6.213-6.217h0a6.213,6.213,0,0,1-6.209,6.217Z" transform="translate(-156.244 -433.097)" fill="#c1272d"/>
  <path id="パス_813" data-name="パス 813" d="M205.86,433.1v59.415l-6.671-.039.216-39.422H164.678l-3.744,24.3-4.159,2.082-.153,12.507-.359-.021.216.019-.235,16.7h19.035a14.9,14.9,0,0,1,29.26,0H298.91a14.827,14.827,0,0,1,17.315-11.826q.6.114,1.2.277c.15-.015.3-.041.448-.052.257-.015,17.135-.026,24.74-.03a14.84,14.84,0,0,1,18.019,10.759c.072.287.136.575.191.866h21.8V494.451h.456V433.1ZM185,470.79h-19.49l2.78-14.308h16.883Zm14.193,21.746h-4.848l.743-.084,4.107.024Zm176.233-9.217H214.394V479.86H375.422Z" transform="translate(-156.244 -433.097)" fill="#c1272d"/>
  <path id="パス_814" data-name="パス 814" d="M302.081,508.643h2.61a14.44,14.44,0,0,1,5.019-8.347A11.824,11.824,0,0,0,302.081,508.643Z" transform="translate(-156.244 -433.097)" fill="#c1272d"/>
</svg>
