<svg id="Group_540" data-name="Group 540" xmlns="http://www.w3.org/2000/svg" width="62.458" height="31.201" viewBox="0 0 62.458 31.201">
  <path id="Path_695" data-name="Path 695" d="M213.81,1172.385l-4.15-6.6a7.671,7.671,0,0,0-6.492-3.587H183.84a12.1,12.1,0,0,0-8.643,3.629l-5.516,5.624-13.155,3.046a4.843,4.843,0,0,0-3.75,4.719v5.166a2.018,2.018,0,0,0,2.018,2.018h6.994c-.009.139-.022.277-.022.417a6.583,6.583,0,0,0,13.166,0c0-.14-.013-.278-.023-.417h20.7c-.009.139-.023.277-.023.417a6.582,6.582,0,1,0,13.165,0c0-.14-.011-.278-.02-.417h4.487a2.018,2.018,0,0,0,2.018-2.018v-7.052A9.283,9.283,0,0,0,213.81,1172.385Zm-45.46,17.051a2.623,2.623,0,1,1,2.622-2.624A2.624,2.624,0,0,1,168.35,1189.436ZM185,1172.885H173.141l4.538-4.627a8.681,8.681,0,0,1,6.161-2.586H185v7.213Zm13.525,0H188.037v-7.213h10.484Zm3.645,16.551a2.623,2.623,0,1,1,2.622-2.624A2.625,2.625,0,0,1,202.166,1189.436Zm-.6-16.551v-7.213h1.6a4.161,4.161,0,0,1,3.545,1.959l3.3,5.254Z" transform="translate(-152.776 -1162.194)" fill="#c1272d"/>
</svg>
