<svg id="Group_1009" data-name="Group 1009" xmlns="http://www.w3.org/2000/svg" width="180.916" height="192.781" viewBox="0 0 180.916 192.781">
  <g id="Group_565" data-name="Group 565" transform="translate(100.025 20.129)">
    <path id="Path_733" data-name="Path 733" d="M948.5,1307.276c30.186,0,33.124.084,34.2,7.053.209,1.358-.419,2.418-1.792,2.418H948.483a1.665,1.665,0,0,0-1.614,1.709v8.264a1.666,1.666,0,0,0,1.614,1.71h32.8a1.666,1.666,0,0,1,1.614,1.71v5.443a1.667,1.667,0,0,1-1.614,1.715h-32.8a1.663,1.663,0,0,0-1.614,1.709v8.261a1.666,1.666,0,0,0,1.614,1.714h32.558c1.27,0,1.752,1.513,1.665,2.213-.819,6.672-3.611,6.851-31.368,6.851h-2.555c-1.6,0-1.914.718-1.914,2.159v10a1.872,1.872,0,0,0,1.851,1.937c11.037,0,21.675-.218,30.751-.6,12.928-.6,19.584-7.053,19.963-19.143.191-5.638.38-12.892.38-20.142s-.189-14.706-.38-20.553c-.379-9.466-7.414-16.922-19.009-17.324-7.759-.193-17.06-.562-26.766-.6-.518,0-1.815-.025-1.182-1.614a4.793,4.793,0,0,0,.19-1.814,7.577,7.577,0,0,0-.585-3.084c-.154-.345.427-.948,1.25-.948h64.729c4.948,0,7.419-4.027,7.419-8.259,0-4.028-2.472-8.056-7.419-8.056H948.483a1.665,1.665,0,0,0-1.614,1.71v33.7C946.869,1306.81,947.565,1307.276,948.5,1307.276Z" transform="translate(-946.869 -1270.01)" fill="#fff"/>
    <path id="Path_734" data-name="Path 734" d="M1020.722,1340.327h-4.56c-17.859,0-32.554-2.007-44.521-5.574a1.915,1.915,0,0,1-.5-3.307c15.213-11.952,18.6-17.63,18.6-22.948,0-6.446-5.134-12.288-15.589-12.288-2.6,0-14.771.126-25.571.285a1.8,1.8,0,0,0-1.712,1.857v10.824a1.814,1.814,0,0,0,1.776,1.857c7.624-.075,14.091-.2,14.668-.319h.759c.763,0,1.712.4,1.712,1.207,0,2.171-7.672,8.989-14.778,13.624a1.281,1.281,0,0,1-.787.055c-.743-.457-1.455-.935-2.159-1.417-.4-.272-1.19-.2-1.19.486v20.771c0,.942.352,1.566,1.092,1.143.981-.566,2-1.06,2.994-1.609a1.4,1.4,0,0,1,.755-.02c16.479,8.553,37.059,14.11,60.269,14.11,6.845,0,15.783-.2,15.783-10.277C1027.761,1344.359,1025.29,1340.327,1020.722,1340.327Z" transform="translate(-946.869 -1186.413)" fill="#fff"/>
  </g>
  <path id="Path_735" data-name="Path 735" d="M1007.712,1428.391c-17.282,0-22.834-.113-23.21-8.054-.137-1.887-.177-4.081-.19-6.442a2.746,2.746,0,0,1,2.653-2.829H1006a2.732,2.732,0,0,0,2.65-2.808v-8.683a2.733,2.733,0,0,0-2.65-2.812H987.365a2.768,2.768,0,0,1-2.653-2.913c.217-11.995,2.46-11.995,22.791-11.995h1.143v-14.3h-1.519c-11.271,0-17.539.259-21.62.9-2.231.347-3.777-2.292-2.535-4.288,1.6-2.586,3.141-5.218,4.588-7.9a2.574,2.574,0,0,1,2.262-1.4H1006a2.733,2.733,0,0,0,2.65-2.812v-9.9a2.732,2.732,0,0,0-2.65-2.807h-4.746a3.627,3.627,0,0,1-3.183-5.046c.7-1.777,1.38-3.575,2.072-5.36a3.442,3.442,0,0,1,3.247-2.25l1.759.025a3.552,3.552,0,0,0,3.5-3.655v-9.7a1.255,1.255,0,0,0-1.175-1.412,1.118,1.118,0,0,1-.985-1.555c.744-2.389,1.4-4.837,2.057-7.229a3.075,3.075,0,0,0,.1-.784v-36.7a10.976,10.976,0,0,0-3.041-.469c-3.994,0-7.794,2.418-8.744,7.858-.628,3.482-1.126,6.827-1.81,10.258a2.727,2.727,0,0,1-2.615,2.234H948.954a8.03,8.03,0,0,0-8.178,8.261c0,3.826,2.661,7.656,8.178,7.656h37.023a3.61,3.61,0,0,1,3.314,4.677c-.3,1.1-.621,2.2-.953,3.282a3.48,3.48,0,0,1-3.309,2.515H958.647a7.772,7.772,0,0,0-7.98,7.857c0,3.625,2.472,7.251,7.794,7.251h.186l19.437-.163a2.813,2.813,0,0,1,2.464,3.967c-1,2.335-2.048,4.649-3.1,6.911a2.641,2.641,0,0,1-2.417,1.559l-38.628-.385c-5.32,0-8.171,4.228-8.171,8.457,0,3.831,2.661,7.657,8.171,7.657l26.935-.167a2.826,2.826,0,0,1,2.23,4.383c-10.218,15.674-23.012,29.294-38.669,38.694-3.8,2.218-5.323,5.444-5.323,8.466a8.9,8.9,0,0,0,8.743,8.864c8.558,0,30.23-21.156,39.923-33.242a13.846,13.846,0,0,0-.566,4.027c-.383,8.465-.763,19.139-.763,29.415,0,3.223.19,6.245.19,9.267.38,10.677,7.6,17.928,19.579,18.736q8.4.542,17.258.6a2.543,2.543,0,0,0,2.705-2.842v-11.764C1008.645,1428.685,1008.182,1428.391,1007.712,1428.391Z" transform="translate(-921.576 -1265.207)" fill="#fff"/>
</svg>
