<svg id="Group_1007" data-name="Group 1007" xmlns="http://www.w3.org/2000/svg" width="220" height="170.047" viewBox="0 0 220 170.047">
  <g id="Group_556" data-name="Group 556" transform="translate(96.858 6.536)">
    <path id="Path_712" data-name="Path 712" d="M311.488,1279.619a2.667,2.667,0,1,0,2.665,2.665A2.666,2.666,0,0,0,311.488,1279.619Z" transform="translate(-266.067 -1238.985)" fill="#fff"/>
    <path id="Path_713" data-name="Path 713" d="M321,1284.952a2.667,2.667,0,1,0-2.669-2.668A2.668,2.668,0,0,0,321,1284.952Z" transform="translate(-243.282 -1238.985)" fill="#fff"/>
    <path id="Path_714" data-name="Path 714" d="M334.419,1286.048a1.533,1.533,0,0,0-3.066,0c0,2.22-3.572,4.692-8.7,4.692s-8.692-2.472-8.692-4.692a1.535,1.535,0,0,0-3.069,0c0,4.353,5.168,7.761,11.761,7.761S334.419,1290.4,334.419,1286.048Z" transform="translate(-261.09 -1227.256)" fill="#fff"/>
    <path id="Path_715" data-name="Path 715" d="M409.545,1382.952c-4.652-10.016-10.627-14.192-26.652-18.708-10.253-2.852-13.886-11.238-15.075-15.346.509-.136,1.019-.306,1.494-.441,9.473,11.442,21.967,13.581,29.946,13.581a36.842,36.842,0,0,0,7.877-.747,1.494,1.494,0,0,0,1.086-1.018,1.446,1.446,0,0,0-.306-1.46c-.1-.135-11.306-13.105-15.007-19.352-.815-1.358-1.562-2.954-2.343-4.618-.1-.2-.17-.407-.272-.577a41.906,41.906,0,0,0,6.655-12.392c1.867-1.087,7.4-4.957,6.621-11.68a5.759,5.759,0,0,0-3.327-4.855,4.191,4.191,0,0,0-1.392-.339,42.106,42.106,0,0,0-1.256-6.858v-.068a41.232,41.232,0,0,0-80.33,3.294c0,.067-.034.1-.034.135-.2,1.155-.373,2.309-.475,3.5a4.38,4.38,0,0,0-1.426.339,5.792,5.792,0,0,0-3.293,4.855c-.781,6.723,4.753,10.593,6.621,11.68a41.329,41.329,0,0,0,29.1,27.026c-1.188,4.108-4.821,12.494-15.041,15.346-16.025,4.516-22,8.692-26.652,18.708-4.38,9.439-9.608,44.953-9.812,46.446a1.527,1.527,0,1,0,3.022.438c.068-.37,5.364-36.563,9.574-45.594,4.244-9.133,9.541-12.8,24.683-17.044a23.755,23.755,0,0,0,7.3-3.361l-.577,19.047a1.536,1.536,0,0,0,.917,1.46,1.984,1.984,0,0,0,.611.136,1.458,1.458,0,0,0,1.086-.478l14.939-14.9,14.9,14.9a1.574,1.574,0,0,0,1.086.478,1.983,1.983,0,0,0,.611-.136,1.486,1.486,0,0,0,.917-1.46l-.577-19.047a23.96,23.96,0,0,0,7.334,3.361c15.143,4.244,20.439,7.911,24.683,17.044,4.21,9.031,9.507,45.224,9.54,45.594a1.561,1.561,0,0,0,1.528,1.327.431.431,0,0,0,.2-.034,1.537,1.537,0,0,0,1.324-1.731C419.119,1427.9,413.924,1392.391,409.545,1382.952Zm-66.1-3.836.509-16.3,11.136,4.651Zm1.7-19.115a27.252,27.252,0,0,0,6.01-11.917,1.623,1.623,0,0,0-.238-1.188,1.36,1.36,0,0,0-.951-.645,38.194,38.194,0,0,1-28.588-25.908,1.481,1.481,0,0,0-.917-.982c-.985-.543-6.01-3.531-5.364-8.793a2.783,2.783,0,0,1,1.426-2.411,1,1,0,0,1,.611-.068,1.407,1.407,0,0,0,1.086.407,1.546,1.546,0,0,0,1.46-1.46,32.5,32.5,0,0,1,.441-4.074c.136-.068.305-.1.475-.17.068-.034.1-.034.136-.068a2.639,2.639,0,0,0,.475-.169,2.154,2.154,0,0,0,.238-.1c.17-.068.306-.136.475-.2.1-.033.17-.068.272-.1.2-.1.374-.2.611-.306l.2-.1c.272-.136.577-.306.849-.442.068-.034.136-.1.2-.136.238-.136.475-.272.747-.407l.306-.2c.238-.17.475-.306.679-.441a2.285,2.285,0,0,1,.373-.238c.238-.2.509-.373.747-.543a1.866,1.866,0,0,1,.306-.238c.374-.271.747-.543,1.121-.849l.136-.136c.34-.271.645-.543.985-.849.136-.1.238-.238.373-.34.272-.237.543-.475.815-.747l.407-.407c.271-.272.543-.577.815-.886a1.834,1.834,0,0,0,.374-.37c.407-.441.815-.917,1.222-1.392a51.984,51.984,0,0,0,8.793-15.214c.679.784,1.358,1.5,2.037,2.21l.645.645c.475.475.951.951,1.392,1.389.271.241.543.479.815.75.441.373.849.781,1.29,1.154.272.239.577.476.849.714.441.373.849.713,1.29,1.052.272.238.577.441.849.679.441.34.883.645,1.29.95.306.238.577.441.849.642.475.309.917.614,1.358.92.271.169.543.339.815.543.475.306.951.611,1.426.883.238.136.475.306.713.441.611.373,1.222.713,1.8,1.019a2.983,2.983,0,0,1,.339.2c.747.407,1.46.781,2.173,1.121.1.068.2.1.306.169.611.272,1.222.577,1.833.849.238.1.441.17.645.272.509.238.985.441,1.494.645.238.1.475.17.713.272.475.2.917.374,1.392.543.238.1.475.17.713.272.475.17.917.306,1.358.475l.713.2c.476.17.917.306,1.358.442.238.065.441.136.645.2.509.136.985.238,1.46.373.17.034.34.1.509.136.577.136,1.12.272,1.664.407.068.034.17.034.238.068,1.324.272,2.546.543,3.769.747h.17c.509.1,1.052.17,1.562.272.136,0,.238.034.373.034.441.068.849.135,1.29.169a1.653,1.653,0,0,0,.407.034c.408.068.781.1,1.188.136.136,0,.272.031.407.031.373.037.747.071,1.086.1a1.265,1.265,0,0,1,.374.034c.373,0,.747.033,1.086.033a.833.833,0,0,0,.272.034c.407,0,.781.034,1.12.034h.17c1.222.034,2.309.034,3.158,0h.136a3.7,3.7,0,0,0,.645-.034h.509a35.511,35.511,0,0,1,.951,6.858,1.492,1.492,0,0,0,1.494,1.423,1.443,1.443,0,0,0,1.052-.336c.136-.1.373-.068.645.034a2.853,2.853,0,0,1,1.426,2.411c.645,5.364-4.584,8.385-5.432,8.827a1.509,1.509,0,0,0-.883.985,37.7,37.7,0,0,1-7.028,12.867c-.2.238-.373.475-.577.676-.373.445-.747.848-1.154,1.26-.2.2-.407.438-.611.645-.34.34-.713.679-1.052,1.019-.271.238-.509.472-.747.679-.373.305-.747.642-1.12.951-.238.169-.475.373-.713.577-.441.306-.849.645-1.29.951a6.958,6.958,0,0,0-.611.441c-.509.34-1.018.645-1.528.951a4.477,4.477,0,0,1-.679.407c-.509.306-1.019.608-1.528.883-.271.136-.509.238-.781.374-.509.272-1.019.509-1.562.747-.272.1-.543.238-.815.34l-1.324.509a10.324,10.324,0,0,1-1.086.373,31.724,31.724,0,0,1-4.346,1.222,1.5,1.5,0,0,0-.985.645,1.609,1.609,0,0,0-.2,1.188A27.475,27.475,0,0,0,370.432,1360l-12.63,5.263Zm15.346,7.469,11.17-4.651.509,16.3Z" transform="translate(-296.227 -1267.651)" fill="#fff"/>
    <path id="Path_716" data-name="Path 716" d="M314.787,1287.2a1.535,1.535,0,0,0,1.535-1.534.7.7,0,0,1,1.4,0,1.533,1.533,0,1,0,3.066,0,3.765,3.765,0,1,0-7.53,0A1.535,1.535,0,0,0,314.787,1287.2Z" transform="translate(-255.449 -1233.515)" fill="#fff"/>
  </g>
  <g id="Group_558" data-name="Group 558" transform="translate(0)">
    <g id="Group_557" data-name="Group 557" transform="translate(50.65 99.23)">
      <path id="Path_717" data-name="Path 717" d="M284.151,1302.339a1.538,1.538,0,0,1-1.419-2.119l1.772-4.315a1.532,1.532,0,1,1,2.835,1.161l-1.769,4.319A1.532,1.532,0,0,1,284.151,1302.339Z" transform="translate(-282.617 -1294.953)" fill="#fff"/>
      <path id="Path_718" data-name="Path 718" d="M290.926,1302.339a1.535,1.535,0,0,1-1.419-.955l-1.769-4.319a1.533,1.533,0,1,1,2.839-1.161l1.769,4.315a1.538,1.538,0,0,1-1.419,2.119Z" transform="translate(-270.63 -1294.953)" fill="#fff"/>
      <path id="Path_719" data-name="Path 719" d="M286.912,1302.783a1.533,1.533,0,0,1-1.531-1.534v-4.4a1.533,1.533,0,1,1,3.066,0v4.4A1.533,1.533,0,0,1,286.912,1302.783Z" transform="translate(-275.998 -1294.079)" fill="#fff"/>
    </g>
    <circle id="Ellipse_95" data-name="Ellipse 95" cx="2.668" cy="2.668" r="2.668" transform="translate(42.746 47.168)" fill="#fff"/>
    <circle id="Ellipse_96" data-name="Ellipse 96" cx="2.668" cy="2.668" r="2.668" transform="translate(75.046 47.168)" fill="#fff"/>
    <path id="Path_720" data-name="Path 720" d="M294.129,1293.809c-6.593,0-11.761-3.409-11.761-7.761a1.533,1.533,0,0,1,3.066,0c0,2.22,3.572,4.692,8.695,4.692s8.7-2.472,8.7-4.692a1.533,1.533,0,0,1,3.066,0C305.89,1290.4,300.726,1293.809,294.129,1293.809Z" transform="translate(-232.564 -1220.72)" fill="#fff"/>
    <path id="Path_721" data-name="Path 721" d="M286.706,1280.3h-5.337a1.533,1.533,0,0,1,0-3.065h5.337a1.533,1.533,0,1,1,0,3.065Z" transform="translate(-238.624 -1238.15)" fill="#fff"/>
    <path id="Path_722" data-name="Path 722" d="M296.223,1280.3h-5.337a1.533,1.533,0,1,1,0-3.065h5.337a1.533,1.533,0,0,1,0,3.065Z" transform="translate(-215.839 -1238.15)" fill="#fff"/>
    <path id="Path_723" data-name="Path 723" d="M290.717,1287.2a1.535,1.535,0,0,1-1.535-1.534.7.7,0,0,0-1.4,0,1.533,1.533,0,1,1-3.066,0,3.765,3.765,0,1,1,7.531,0A1.535,1.535,0,0,1,290.717,1287.2Z" transform="translate(-226.929 -1226.979)" fill="#fff"/>
    <path id="Path_724" data-name="Path 724" d="M390.812,1434.016c-.217-1.508-5.419-37.018-9.8-46.449-4.648-10.013-10.627-14.209-26.656-18.7a20.672,20.672,0,0,1-12.64-9.741h0v0a24.639,24.639,0,0,1-2.424-5.623,40.83,40.83,0,0,0,13.017-5.813,41.437,41.437,0,0,0,16.093-21.2c1.864-1.1,7.408-4.971,6.631-11.68v0a6.611,6.611,0,0,0-1.266-3.252,44.561,44.561,0,0,0-42.05-44.423,2.847,2.847,0,0,0-4.913,0,44.55,44.55,0,0,0-42.043,44.42,6.583,6.583,0,0,0-1.27,3.255c-.781,6.716,4.777,10.586,6.638,11.683a41.408,41.408,0,0,0,16.083,21.189,40.779,40.779,0,0,0,13.021,5.816,24.7,24.7,0,0,1-2.421,5.629l0,0a20.7,20.7,0,0,1-12.64,9.734c-16.022,4.492-22,8.685-26.656,18.7-4.38,9.431-9.581,44.942-9.8,46.449a1.536,1.536,0,0,0,1.518,1.755H389.3a1.536,1.536,0,0,0,1.514-1.755ZM329.26,1270.13a41.5,41.5,0,0,1,40.868,34.6c-4.023-6.991-10.546-17.865-13.818-20.85l-.52-.478c-4.529-4.167-9.663-8.892-26.53-8.892s-21.994,4.726-26.523,8.892l-.519.475c-3.266,2.981-9.781,13.842-13.815,20.847A41.494,41.494,0,0,1,329.26,1270.13Zm36.906,33.885c-3.643-3.158-7.809-6.525-10.23-7.677l-.519-.248c-4.689-2.251-9.537-4.576-26.157-4.576s-21.461,2.325-26.15,4.576l-.516.248c-2.421,1.148-6.59,4.523-10.236,7.68,4.05-6.927,9.374-15.547,11.931-17.879l.526-.483c4.319-3.972,8.783-8.081,24.445-8.081s20.137,4.108,24.456,8.081l.526.486C356.765,1288.443,362.014,1296.918,366.166,1304.014Zm-28.7,55.575a22.156,22.156,0,0,1-16.389.014c-.282-.115-.557-.234-.832-.36a27.461,27.461,0,0,0,2.36-6.57,1.534,1.534,0,0,0-1.185-1.82,37.837,37.837,0,0,1-13.489-5.711,38.3,38.3,0,0,1-15.078-20.208,1.507,1.507,0,0,0-.995-.988c-1.117-.621-5.918-3.616-5.317-8.783a2.8,2.8,0,0,1,1.446-2.4.939.939,0,0,1,.581-.071,1.533,1.533,0,0,0,2.584-1.039c.044-.9.129-1.8.234-2.692,4.095-3.674,9.843-8.584,12.525-9.86l.526-.251c4.38-2.1,8.909-4.271,24.822-4.271s20.449,2.169,24.829,4.271l.526.251c2.652,1.263,8.308,6.078,12.525,9.866.109.883.194,1.772.238,2.666a1.532,1.532,0,0,0,2.512,1.089.806.806,0,0,1,.649.041,2.8,2.8,0,0,1,1.446,2.4c.615,5.272-4.393,8.281-5.375,8.817a1.547,1.547,0,0,0-.941.982,38.31,38.31,0,0,1-15.078,20.181,37.726,37.726,0,0,1-13.482,5.711,1.533,1.533,0,0,0-1.185,1.82,27.147,27.147,0,0,0,2.36,6.567C338.013,1359.363,337.742,1359.478,337.466,1359.59Z" transform="translate(-267.699 -1265.726)" fill="#fff"/>
  </g>
</svg>
