<svg xmlns="http://www.w3.org/2000/svg" width="203.215" height="186.912" viewBox="0 0 203.215 186.912">
  <g id="Group_1979" data-name="Group 1979" transform="translate(-0.499 -0.148)">
    <g id="Group_1464" data-name="Group 1464" transform="translate(0.499 0.148)">
      <path id="Path_1382" data-name="Path 1382" d="M326.1,97.9,297.9,55.6a4.971,4.971,0,0,1,0-5.534L326.1,7.764A4.991,4.991,0,0,0,321.943,0H190.386V105.662H321.943A4.988,4.988,0,0,0,326.1,97.9Z" transform="translate(-123.722)" fill="#fff"/>
      <path id="Path_1383" data-name="Path 1383" d="M62.621,151.953V0H38.977V152.24c-18.071,2.239-31.2,8.978-31.2,16.943,0,9.788,19.85,17.728,44.327,17.729s44.327-7.94,44.327-17.729C96.429,160.839,82.028,153.842,62.621,151.953Z" transform="translate(-7.776)" fill="#fff"/>
    </g>
  </g>
</svg>
