<svg xmlns="http://www.w3.org/2000/svg" width="73.15" height="60.402" viewBox="0 0 73.15 60.402">
  <g id="Group_547" data-name="Group 547" transform="translate(0 0)">
    <path id="Path_705" data-name="Path 705" d="M811.992,1292.66l-.469-16.118a1.612,1.612,0,1,0-3.223,0l-.373,12.823a1.319,1.319,0,0,1-1.291,1.28l-9.08.192a1.822,1.822,0,0,0,0,3.643l12.355.26A2.082,2.082,0,0,0,811.992,1292.66Z" transform="translate(-780.194 -1259.256)" fill="#606060"/>
    <path id="Path_706" data-name="Path 706" d="M854.046,1290.1a.8.8,0,0,0-.336-1.57l-14.788,3.157a.32.32,0,0,1-.386-.3,28.7,28.7,0,0,0-.384-3.693.4.4,0,0,1,.311-.461l14.765-3.152a.8.8,0,0,0-.336-1.57l-14.765,3.152a.4.4,0,0,1-.472-.294q-.349-1.355-.826-2.657a.32.32,0,0,1,.233-.426l14.656-3.128a.8.8,0,0,0-.336-1.57l-14.93,3.188a.483.483,0,0,1-.537-.271q-.571-1.229-1.252-2.392a.321.321,0,0,1,.209-.477l15.8-3.373a.8.8,0,0,0-.335-1.57l-16.427,3.507a.643.643,0,0,1-.658-.259q-.519-.727-1.082-1.419a.321.321,0,0,1,.181-.519l15.378-3.282a.8.8,0,0,0-.335-1.57l-16.456,3.512a.64.64,0,0,1-.592-.179q-.6-.6-1.227-1.172a.32.32,0,0,1,.149-.55l15.932-3.4a.8.8,0,1,0-.335-1.57s-15.282,3.268-17.548,3.755a.638.638,0,0,1-.511-.109q-.791-.576-1.619-1.1a.321.321,0,0,1,.1-.586l10.9-2.269a.827.827,0,0,0,.669-.88.8.8,0,0,0-.962-.7l-13.46,2.771a.63.63,0,0,1-.392-.044c-.335-.151-1.036-.464-1.448-.628a.321.321,0,0,1,.05-.613l10.443-2.229a.8.8,0,1,0-.336-1.57l-14.382,3.07a.321.321,0,0,1-.135,0c-.284-.063-.57-.122-.858-.176a.32.32,0,0,1-.005-.628l7.776-1.66a.8.8,0,0,0-.336-1.57l-17.739,3.787c-.021,0-.039.013-.059.019a28.511,28.511,0,0,0,8.221,56.4.718.718,0,0,0,.376-1.269,14.59,14.59,0,0,1-1.8-1.72,1.5,1.5,0,0,0-1.16-.515c-.2,0-.409.007-.615.007a24.845,24.845,0,1,1,24.57-21.235,3.357,3.357,0,0,0,.393,2.135,19.112,19.112,0,0,1,1.055,2.187.741.741,0,0,0,1.4-.07q.254-.886.448-1.8a.482.482,0,0,1,.37-.37l15.38-3.284a.8.8,0,0,0-.335-1.57l-14.607,3.118a.322.322,0,0,1-.385-.356q.144-1.139.2-2.307a.481.481,0,0,1,.38-.452Z" transform="translate(-781.531 -1260.605)" fill="#606060"/>
    <path id="Path_707" data-name="Path 707" d="M833.232,1300.083a.824.824,0,0,0,.169-.017l12.587-2.687a.8.8,0,0,0-.335-1.57l-12.587,2.687a.8.8,0,0,0,.166,1.588Z" transform="translate(-776.74 -1257.292)" fill="#606060"/>
    <path id="Path_708" data-name="Path 708" d="M848.516,1300.783l-16.393,3.5a.32.32,0,0,1-.389-.3c-.126-4.943-2.961-9.321-6.792-12.388a9.046,9.046,0,0,1-3.314-4.97c-.26-1.082-.124-1.2-.124-1.2a.365.365,0,0,0-.57-.264,2.685,2.685,0,0,0-1.1.749c-1.546,1.5-3.293,4.006-2.144,7.429,1.24,3.672.583,4.442-.063,4.393-.838-.066-.968-.582-.834-2.193a4.005,4.005,0,0,0-.688-2.4.912.912,0,0,0-1.544-.011c-.922,1.45-2.618,4.087-4.039,6.158a11.054,11.054,0,0,0-1.806,6.113h-.042a11.511,11.511,0,0,0,15.449,10.817,1.459,1.459,0,0,1,.194-.056l19.6-4.344a.8.8,0,1,0-.347-1.567l-14.35,3.18a.321.321,0,0,1-.314-.521,11.526,11.526,0,0,0,1.419-2.062.645.645,0,0,1,.434-.33l17.219-3.676a.8.8,0,0,0-.336-1.57l-15.935,3.4a.32.32,0,0,1-.376-.394,11.423,11.423,0,0,0,.322-1.9.477.477,0,0,1,.374-.431l16.822-3.591a.8.8,0,1,0-.335-1.57Zm-34.639,7.014a6.365,6.365,0,0,1,.589-3.194.27.27,0,0,1,.492.018,4.309,4.309,0,0,0,8.234-2.276.336.336,0,0,1,.522-.321,6.349,6.349,0,1,1-9.838,5.774Z" transform="translate(-778.976 -1258.299)" fill="#606060"/>
  </g>
</svg>
