<svg id="Group_1013" data-name="Group 1013" xmlns="http://www.w3.org/2000/svg" width="256.521" height="159.372" viewBox="0 0 256.521 159.372">
  <path id="Path_696" data-name="Path 696" d="M683.732,512.819c-.161.643-.347,1.282-.474,1.932a47.333,47.333,0,0,1-51.922,38.262c-27.128-3.012-46.373-28.507-41.174-55.375,3.861-19.959,16.089-33.052,35.912-37.63,19.472-4.5,35.8,1.816,48.351,17.45,5.131,6.393,7.765,13.9,9.307,21.85Zm-16.624-7.337A30.383,30.383,0,0,0,636.55,475.49c-16.9-.086-30.332,13.9-30.279,31.016.051,16.51,13.744,29.886,30.553,29.839C653.914,536.3,667.195,522.779,667.109,505.482Z" transform="translate(-427.211 -393.988)" fill="#fff"/>
  <path id="Path_697" data-name="Path 697" d="M591.822,489.3c-1.977-.016-3.111.573-3.6,2.563a36.334,36.334,0,0,1-1.805,5.455c-.706,1.682-.167,2.434,1.343,3.32,16.884,9.9,25.392,24.61,24.452,44.256a47.285,47.285,0,1,1-41.259-49.727c2.115.27,2.941-.53,3.559-2.434q7.677-23.662,15.527-47.27c2.777-8.311,8.6-13.542,17.262-14.785,8.174-1.173,16.476-.3,24.719-.4,1.463-.016,1.755.953,1.743,2.183-.018,2.584-.138,5.179.043,7.749.174,2.484-.872,3.157-3.2,3.118-6.585-.106-13.173-.059-19.76-.023-4.411.023-7.172,2.018-8.657,6.193-.725,2.041-1.271,4.151-2.077,6.157-.8,1.988-.353,2.584,1.834,2.561,9.336-.1,18.675-.052,28.011-.032,8.784.018,16.9,2.529,24.655,6.508a3.651,3.651,0,0,1,2.16,3.786c-.079,5.92-.127,11.841.019,17.756.061,2.459-.861,3.152-3.2,3.134-10.253-.088-20.507-.039-30.763-.039C612.5,489.336,602.161,489.377,591.822,489.3Zm2.43,61.609c3.757-12.486-.994-26.435-11.4-33.464-2.4-1.619-2.421-1.625-3.3,1.047-1.3,3.958-2.524,7.944-3.881,11.881a3.423,3.423,0,0,0,.55,3.451,13.742,13.742,0,0,1,.181,16.356,13.964,13.964,0,0,1-25.242-7.045c-.689-5.828,3.429-12.194,9.4-14.121a4.212,4.212,0,0,0,3.082-3.154c1.091-3.587,2.2-7.178,3.53-10.679,1.322-3.473.169-3.716-2.642-3.607-7.292.279-13.927,2.554-19.4,7.543-9.368,8.539-12.719,19.143-9.271,31.276,3.39,11.918,11.664,19.107,23.865,21.639a8.267,8.267,0,0,0,1.479.236c1.332.034,2.665.011,4,.011A29.989,29.989,0,0,0,594.251,550.911Z" transform="translate(-517.727 -430.062)" fill="#fff"/>
  <path id="Path_698" data-name="Path 698" d="M598.973,459.6H559.218c-.668,0-1.334-.016-2,.016-.736.036-1.692-.124-2.006.675-.337.858.6,1.279,1.124,1.757a58.123,58.123,0,0,1,15.366,22.5,52.52,52.52,0,0,1,3.56,17.8c.109,5.575,2.189,7.724,7.765,7.755q16.253.092,32.506,0c5.183-.025,6.753-1.757,6.887-6.99.421-16.385,7.044-29.925,18.917-41.045.607-.568,1.943-.892,1.452-2-.365-.82-1.506-.462-2.308-.462Q619.726,459.582,598.973,459.6Z" transform="translate(-470.42 -392.798)" fill="#fff"/>
  <path id="Path_699" data-name="Path 699" d="M620.966,473.369q17.262,0,34.524,0a10.89,10.89,0,0,0,6.465-1.549,7.536,7.536,0,0,0,3.438-6.578c-.028-4.67.024-9.341-.012-14.01-.038-5.156-3.261-8.224-8.492-8.451a74.762,74.762,0,0,0-30.445,4.518,64.493,64.493,0,0,1-25.018,3.985c-5.417-.136-10.842.073-16.259-.07-2.359-.061-3.048.854-3.006,3.068.1,5.168.022,10.34.034,15.509.009,3.395.176,3.573,3.5,3.576Q603.328,473.381,620.966,473.369Z" transform="translate(-436.256 -414.096)" fill="#fff"/>
  <path id="Path_700" data-name="Path 700" d="M533.8,456.754c0,4.66.07,9.325-.032,13.983-.05,2.242.849,2.96,3,2.713a34.988,34.988,0,0,0,18.987-8.134,4.334,4.334,0,0,0,1.68-3.68q-.118-4.99,0-9.986A4.237,4.237,0,0,0,555.69,448a35.362,35.362,0,0,0-19.277-8.08c-2.1-.2-2.636.781-2.622,2.6C533.821,447.264,533.8,452.008,533.8,456.754Z" transform="translate(-497.449 -417.626)" fill="#fff"/>
  <path id="Path_701" data-name="Path 701" d="M535.79,456.448c0-4.495-.066-8.992.027-13.487.045-2.2-.686-3.333-3.021-3.082a8.85,8.85,0,0,1-1.746,0c-1.985-.181-2.856.579-2.84,2.692q.105,14.109,0,28.224c-.014,2,.625,3,2.73,2.788a9.272,9.272,0,0,1,2,0c2.214.251,2.925-.775,2.881-2.9C535.722,465.943,535.79,461.194,535.79,456.448Z" transform="translate(-504.471 -417.692)" fill="#fff"/>
  <path id="Path_702" data-name="Path 702" d="M618.114,501.174a13.878,13.878,0,1,0-14.051-13.961A14.041,14.041,0,0,0,618.114,501.174Z" transform="translate(-408.56 -375.239)" fill="#fff"/>
</svg>
