<svg xmlns="http://www.w3.org/2000/svg" width="185.626" height="81.695" viewBox="0 0 185.626 81.695">
  <g id="Group_2230" data-name="Group 2230" transform="translate(-888.5 -459.001)">
    <line id="Line_90" data-name="Line 90" x2="185.626" transform="translate(888.5 540.195)" fill="none" stroke="#c1272d" stroke-miterlimit="10" stroke-width="1"/>
    <g id="Group_2075" data-name="Group 2075" transform="translate(169.096 16.893)">
      <path id="Path_1464" data-name="Path 1464" d="M765.975,499.115A12.087,12.087,0,1,0,778.059,511.2,12.086,12.086,0,0,0,765.975,499.115Zm.008,18.443h-.008a6.348,6.348,0,1,1,.008,0Z" fill="#c1272d"/>
      <path id="Path_1465" data-name="Path 1465" d="M863.18,499.115A12.087,12.087,0,1,0,875.266,511.2,12.086,12.086,0,0,0,863.18,499.115Zm6.352,12.084a6.351,6.351,0,0,1-6.348,6.357h0v0a6.357,6.357,0,1,1,6.352-6.361Z" fill="#c1272d"/>
      <path id="Path_1466" data-name="Path 1466" d="M894.11,461.958h-.077v-9.01H887.74l-4.746,9.01H806l-11.874-19.85H767.889v5.356h14.723v15.594l.239.02,5.378,28.937H775.44l-4.62-41.7H736.528l-1.327,25.66-2.146,2.2V509.02h17.781c.046-.235.117-.456.174-.686a15.23,15.23,0,0,1,30.033.686h67.128a15.159,15.159,0,0,1,30.008,0h10.29V494.031h5.652ZM760.6,469.044H739.35l.385-15.112H760.78Z" fill="#c1272d"/>
    </g>
  </g>
</svg>
