<svg xmlns="http://www.w3.org/2000/svg" width="74.579" height="74.583" viewBox="0 0 74.579 74.583">
  <path id="Path_1513" data-name="Path 1513" d="M1069.689,2748.469l.015-.006.032-.015a13.642,13.642,0,0,0,3.472-2,1.4,1.4,0,0,0,.495-.975c0-.5-.411-1.02-1.255-1.573a24.181,24.181,0,0,0-2.759-1.427l0,0,0,0-.019-.008c-1.862-.871-3.785-1.77-3.993-2.816a2.633,2.633,0,0,1,.7-1.867,24.648,24.648,0,0,1,1.888-2.214l.028-.029.017-.017a23.329,23.329,0,0,0,2-2.371c.576-.841.753-1.488.561-1.95s-.762-.776-1.743-.961a23.347,23.347,0,0,0-3.033-.26l-.051,0c-2.072-.091-4.214-.183-4.821-1.09a2.589,2.589,0,0,1-.067-1.966,24.7,24.7,0,0,1,.9-2.777l0-.005c.754-2.071,1.535-4.213.71-5.038s-2.973-.04-5.053.716l-.012,0a25.324,25.324,0,0,1-2.768.9,2.6,2.6,0,0,1-1.964-.066c-.909-.608-1-2.755-1.094-4.831a23.566,23.566,0,0,0-.262-3.082c-.185-.982-.486-1.545-.96-1.743s-1.111-.013-1.95.562a22.82,22.82,0,0,0-2.362,1.994l-.026.026a25.489,25.489,0,0,1-2.244,1.912,2.627,2.627,0,0,1-1.867.7c-1.052-.213-1.951-2.142-2.821-4.012l-.021-.043a23.855,23.855,0,0,0-1.414-2.726c-.553-.846-1.067-1.256-1.573-1.256a1.406,1.406,0,0,0-.979.495,13.786,13.786,0,0,0-2.017,3.506l-.01.011,0,0a13.656,13.656,0,0,1-2.028,3.53,1.575,1.575,0,0,1-.787.479,2.659,2.659,0,0,1-1.87-.708,25.025,25.025,0,0,1-2.214-1.888l-.029-.029a23.462,23.462,0,0,0-2.387-2.02c-.84-.575-1.479-.758-1.954-.566a1.053,1.053,0,0,0-.324.225c-.728.728-.81,2.71-.888,4.628s-.167,3.907-.915,4.655a1.325,1.325,0,0,1-.166.14,2.61,2.61,0,0,1-1.967.062,26.211,26.211,0,0,1-2.758-.9l-.007-.007-.008-.009c-2.038-.743-4.143-1.51-5-.77l0,0a37.8,37.8,0,0,0-6.006,7.769,36.485,36.485,0,0,0-3.685,9,37.533,37.533,0,0,0-1.244,9.6,38.111,38.111,0,0,0,1.287,9.6,36.655,36.655,0,0,0,3.688,9,38.847,38.847,0,0,0,13.8,13.8,36.16,36.16,0,0,0,9,3.69,38.739,38.739,0,0,0,9.61,1.278,36.8,36.8,0,0,0,26.362-10.922l-.006-.006-.019-.007,0-.008-6.222-6.222v0l6.224,6.224c.728-.862-.034-2.955-.772-4.98l-.006-.016-.007-.019,0-.011a25.638,25.638,0,0,1-.9-2.75,2.631,2.631,0,0,1,.062-1.967,1.5,1.5,0,0,1,.14-.169c.746-.746,2.736-.829,4.657-.911l.026,0c1.911-.077,3.884-.158,4.611-.885a.957.957,0,0,0,.219-.324c.2-.474.012-1.111-.562-1.952a23.907,23.907,0,0,0-1.984-2.352l-.035-.034-.008-.008a25.53,25.53,0,0,1-1.916-2.239,2.646,2.646,0,0,1-.7-1.868,1.561,1.561,0,0,1,.479-.794A13.686,13.686,0,0,1,1069.689,2748.469Zm-52.069,9.033a.446.446,0,0,1-.188.111l-2.01.626-.626,2.01a.444.444,0,0,1-.111.188.463.463,0,0,1-.363.131.448.448,0,0,1-.333-.192l-1.214-1.719-2.107.024a.452.452,0,0,1-.415-.251.447.447,0,0,1,.042-.477l1.259-1.685-.679-2a.449.449,0,0,1,.108-.467.458.458,0,0,1,.472-.114l2,.68,1.685-1.26a.457.457,0,0,1,.729.373l-.024,2.107,1.718,1.215a.448.448,0,0,1,.191.331A.468.468,0,0,1,1017.62,2757.5Zm3.274-15.2a.7.7,0,0,1-.29.174l-3.122.966-.968,3.124a.7.7,0,0,1-.738.494.689.689,0,0,1-.516-.3l-1.893-2.673-3.267.039a.71.71,0,0,1-.577-1.133l1.95-2.621-1.053-3.1a.7.7,0,0,1,.169-.727l0,0a.7.7,0,0,1,.726-.174l3.1,1.051,2.621-1.95a.709.709,0,0,1,1.131.578l-.039,3.268,2.673,1.893a.694.694,0,0,1,.3.51A.73.73,0,0,1,1020.894,2742.3Zm17.52,30.289a10.414,10.414,0,0,1-14.561-2.221,10.6,10.6,0,0,1-1.832-4.177.48.48,0,0,1,.131-.434.488.488,0,0,1,.656-.041,8.158,8.158,0,0,0,12.009-10.726.481.481,0,0,1,.069-.608.475.475,0,0,1,.489-.119,10.416,10.416,0,0,1,3.039,18.326Zm-11.024-25.867a.269.269,0,0,1,.065-.283.277.277,0,0,1,.285-.066l1.2.41,1.017-.761a.274.274,0,0,1,.291-.023.271.271,0,0,1,.149.249l-.015,1.27,1.035.731a.3.3,0,0,1,.04.033.278.278,0,0,1,0,.389.337.337,0,0,1-.114.067l-1.212.375-.374,1.21a.275.275,0,0,1-.489.077l-.732-1.035-1.267.013a.269.269,0,0,1-.249-.149.272.272,0,0,1,.023-.291l.757-1.014Zm29.8,7.115a22.231,22.231,0,0,1-4.882,7.4l-31.687-31.688a22.332,22.332,0,0,1,11.538-6.1,22.757,22.757,0,0,1,4.27-.4,22.147,22.147,0,0,1,4.266.419,22.405,22.405,0,0,1,16.495,30.367Z" transform="translate(-999.124 -2708.142)" fill="#606060"/>
</svg>
