<svg xmlns="http://www.w3.org/2000/svg" width="63.262" height="67.41" viewBox="0 0 63.262 67.41">
  <g id="Group_566" data-name="Group 566" transform="translate(0 0)">
    <g id="Group_565" data-name="Group 565" transform="translate(34.976 7.039)">
      <path id="Path_733" data-name="Path 733" d="M947.44,1283.041c10.555,0,11.583.029,11.96,2.466.073.475-.147.845-.626.845H947.433a.582.582,0,0,0-.564.6v2.89a.582.582,0,0,0,.564.6H958.9a.583.583,0,0,1,.564.6v1.9a.583.583,0,0,1-.564.6H947.433a.581.581,0,0,0-.564.6v2.889a.583.583,0,0,0,.564.6h11.385c.444,0,.613.529.582.774-.286,2.333-1.263,2.4-10.969,2.4h-.893c-.559,0-.669.251-.669.755v3.5a.655.655,0,0,0,.647.677c3.859,0,7.579-.076,10.753-.21,4.521-.211,6.848-2.466,6.98-6.694.067-1.971.133-4.508.133-7.043s-.066-5.142-.133-7.187c-.133-3.31-2.593-5.917-6.647-6.058-2.713-.068-5.966-.2-9.359-.21-.181,0-.635-.009-.413-.564a1.678,1.678,0,0,0,.066-.634,2.649,2.649,0,0,0-.2-1.078c-.054-.12.149-.332.437-.332h22.634a2.865,2.865,0,0,0,0-5.7H947.433a.582.582,0,0,0-.564.6v11.784C946.869,1282.878,947.112,1283.041,947.44,1283.041Z" transform="translate(-946.869 -1270.01)" fill="#606060"/>
      <path id="Path_734" data-name="Path 734" d="M972.693,1311.636H971.1a54.775,54.775,0,0,1-15.568-1.949.67.67,0,0,1-.174-1.156c5.32-4.179,6.5-6.165,6.5-8.024,0-2.254-1.8-4.3-5.451-4.3-.91,0-5.165.044-8.942.1a.628.628,0,0,0-.6.649v3.785a.634.634,0,0,0,.621.649c2.666-.026,4.927-.069,5.129-.111h.266c.267,0,.6.141.6.422,0,.759-2.683,3.143-5.168,4.764a.447.447,0,0,1-.275.019c-.26-.16-.509-.327-.755-.5-.14-.1-.416-.069-.416.17v7.263c0,.329.123.548.382.4.343-.2.7-.371,1.047-.563a.492.492,0,0,1,.264-.007,45.793,45.793,0,0,0,21.074,4.934c2.393,0,5.519-.07,5.519-3.594C975.155,1313.046,974.291,1311.636,972.693,1311.636Z" transform="translate(-946.869 -1257.816)" fill="#606060"/>
    </g>
    <path id="Path_735" data-name="Path 735" d="M951.7,1322.268c-6.043,0-7.984-.04-8.116-2.816-.048-.66-.062-1.427-.066-2.252a.96.96,0,0,1,.928-.989H951.1a.955.955,0,0,0,.926-.982v-3.036a.956.956,0,0,0-.926-.983h-6.515a.968.968,0,0,1-.928-1.019c.076-4.194.86-4.194,7.969-4.194h.4v-5h-.531a54.85,54.85,0,0,0-7.56.314.965.965,0,0,1-.887-1.5c.56-.9,1.1-1.824,1.6-2.762a.9.9,0,0,1,.791-.49H951.1a.956.956,0,0,0,.926-.983v-3.46a.955.955,0,0,0-.926-.982h-1.66a1.268,1.268,0,0,1-1.113-1.765c.246-.621.483-1.25.724-1.874a1.2,1.2,0,0,1,1.135-.787l.615.009a1.242,1.242,0,0,0,1.224-1.278v-3.392a.439.439,0,0,0-.411-.494.391.391,0,0,1-.344-.544c.26-.835.49-1.691.719-2.528a1.079,1.079,0,0,0,.036-.274v-12.835a3.836,3.836,0,0,0-1.063-.164,3.033,3.033,0,0,0-3.058,2.748c-.22,1.218-.394,2.387-.633,3.587a.954.954,0,0,1-.914.781h-15.2a2.808,2.808,0,0,0-2.86,2.889,2.646,2.646,0,0,0,2.86,2.677H944.1a1.262,1.262,0,0,1,1.159,1.635c-.106.384-.217.768-.333,1.148a1.217,1.217,0,0,1-1.157.879h-9.225a2.717,2.717,0,0,0-2.79,2.747,2.5,2.5,0,0,0,2.725,2.536h.065l6.8-.057a.984.984,0,0,1,.861,1.387c-.351.817-.716,1.626-1.084,2.417a.923.923,0,0,1-.845.545l-13.507-.135a2.824,2.824,0,0,0-2.857,2.957,2.644,2.644,0,0,0,2.857,2.677l9.418-.058a.988.988,0,0,1,.78,1.533,42.66,42.66,0,0,1-13.521,13.53,3.409,3.409,0,0,0-1.861,2.96,3.113,3.113,0,0,0,3.057,3.1c2.992,0,10.57-7.4,13.96-11.624a4.84,4.84,0,0,0-.2,1.408c-.134,2.96-.267,6.692-.267,10.286,0,1.127.066,2.184.066,3.24.133,3.734,2.659,6.269,6.846,6.552q2.939.189,6.035.208a.889.889,0,0,0,.946-.994v-4.113C952.022,1322.371,951.86,1322.268,951.7,1322.268Z" transform="translate(-921.576 -1265.207)" fill="#606060"/>
  </g>
</svg>
