<svg xmlns="http://www.w3.org/2000/svg" width="91.232" height="56.681" viewBox="0 0 91.232 56.681">
  <g id="Group_1010" data-name="Group 1010" transform="translate(0 0)">
    <path id="Path_696" data-name="Path 696" d="M622.893,477.877c-.057.229-.123.456-.168.687a16.832,16.832,0,0,1-33.11-6.086c1.373-7.1,5.722-11.755,12.772-13.383,6.925-1.6,12.732.646,17.2,6.206a17.353,17.353,0,0,1,3.31,7.771Zm-5.912-2.609a10.82,10.82,0,1,0-10.771,10.976A10.806,10.806,0,0,0,616.981,475.268Z" transform="translate(-531.661 -435.615)" fill="#606060"/>
    <path id="Path_697" data-name="Path 697" d="M544.079,451.131c-.7-.006-1.106.2-1.28.912a12.915,12.915,0,0,1-.642,1.94c-.251.6-.06.866.478,1.181,6,3.522,9.031,8.752,8.7,15.74a16.817,16.817,0,1,1-14.674-17.686c.752.1,1.046-.188,1.266-.866q2.73-8.415,5.522-16.812a7.272,7.272,0,0,1,6.139-5.258c2.907-.417,5.86-.106,8.791-.142.52-.006.624.339.62.776-.006.919-.049,1.842.015,2.756.062.883-.31,1.123-1.136,1.109-2.342-.038-4.685-.021-7.027-.008a2.983,2.983,0,0,0-3.079,2.2c-.258.726-.452,1.476-.739,2.19s-.126.919.652.911c3.32-.034,6.642-.018,9.962-.011a19.106,19.106,0,0,1,8.769,2.315,1.3,1.3,0,0,1,.768,1.346c-.028,2.105-.045,4.211.007,6.315.022.875-.306,1.121-1.138,1.115-3.647-.031-7.293-.014-10.941-.014C551.432,451.143,547.756,451.157,544.079,451.131Zm.864,21.911a10.78,10.78,0,0,0-4.054-11.9c-.853-.576-.861-.578-1.173.372-.464,1.408-.9,2.825-1.38,4.226a1.218,1.218,0,0,0,.2,1.227,4.887,4.887,0,0,1,.064,5.817,4.945,4.945,0,1,1-5.633-7.528,1.5,1.5,0,0,0,1.1-1.122c.388-1.276.782-2.553,1.256-3.8s.06-1.322-.94-1.283a10.509,10.509,0,0,0-6.9,2.683,10.832,10.832,0,0,0,5.191,18.819,2.939,2.939,0,0,0,.526.084c.474.012.948,0,1.421,0A10.665,10.665,0,0,0,544.943,473.042Z" transform="translate(-517.727 -430.062)" fill="#606060"/>
    <path id="Path_698" data-name="Path 698" d="M570.729,459.554H556.59c-.238,0-.474-.006-.711.006-.262.013-.6-.044-.714.24-.12.305.214.455.4.625a20.672,20.672,0,0,1,5.465,8,18.679,18.679,0,0,1,1.266,6.329c.039,1.983.779,2.747,2.762,2.758q5.78.033,11.561,0c1.844-.009,2.4-.625,2.449-2.486a20.052,20.052,0,0,1,6.728-14.6c.216-.2.691-.317.516-.71-.13-.292-.536-.164-.821-.164Q578.11,459.55,570.729,459.554Z" transform="translate(-525.009 -435.798)" fill="#606060"/>
    <path id="Path_699" data-name="Path 699" d="M595.961,453.6H608.24a3.873,3.873,0,0,0,2.3-.551,2.68,2.68,0,0,0,1.223-2.339c-.01-1.661.009-3.322,0-4.983a2.854,2.854,0,0,0-3.02-3.006,26.589,26.589,0,0,0-10.828,1.607,22.937,22.937,0,0,1-8.9,1.417c-1.926-.048-3.856.026-5.783-.025-.839-.022-1.084.3-1.069,1.091.035,1.838.008,3.677.012,5.516,0,1.207.063,1.271,1.244,1.272Q589.688,453.6,595.961,453.6Z" transform="translate(-530.269 -432.519)" fill="#606060"/>
    <path id="Path_700" data-name="Path 700" d="M533.776,445.892c0,1.657.025,3.316-.011,4.973-.018.8.3,1.053,1.066.965a12.443,12.443,0,0,0,6.753-2.893,1.542,1.542,0,0,0,.6-1.309q-.042-1.775,0-3.552a1.507,1.507,0,0,0-.618-1.3,12.577,12.577,0,0,0-6.856-2.874c-.746-.072-.937.278-.933.924C533.784,442.517,533.777,444.2,533.776,445.892Z" transform="translate(-520.849 -431.976)" fill="#606060"/>
    <path id="Path_701" data-name="Path 701" d="M530.906,445.75c0-1.6-.023-3.2.01-4.8.016-.783-.244-1.185-1.074-1.1a3.147,3.147,0,0,1-.621,0c-.706-.064-1.016.206-1.01.958q.037,5.018,0,10.038c-.005.71.222,1.068.971.991a3.3,3.3,0,0,1,.71,0c.787.089,1.04-.276,1.025-1.032C530.882,449.127,530.906,447.438,530.906,445.75Z" transform="translate(-519.768 -431.966)" fill="#606060"/>
    <path id="Path_702" data-name="Path 702" d="M609.06,483.29a4.936,4.936,0,1,0-5-4.965A4.994,4.994,0,0,0,609.06,483.29Z" transform="translate(-534.532 -438.501)" fill="#606060"/>
  </g>
</svg>
