<svg id="Group_539" data-name="Group 539" xmlns="http://www.w3.org/2000/svg" width="75.411" height="82.95" viewBox="0 0 75.411 82.95">
  <path id="Path_694" data-name="Path 694" d="M615.342,173.1a16.631,16.631,0,0,0-2.719-4.289c-.513-.6-1.045-1.16-1.585-1.711a2.065,2.065,0,0,0-.463-1.838l.01,0a1.889,1.889,0,0,1-.111-.492,10.25,10.25,0,0,1-.061-1.221c0-1.26.128-3.016.128-5.037a27.5,27.5,0,0,0-1.24-8.693,22.207,22.207,0,0,0-6.045-9.361,27.148,27.148,0,0,0-12.335-6.491c-.136-.032-.271-.057-.4-.091a7.023,7.023,0,0,0-11.346-8.268,7.023,7.023,0,0,0-11.346,8.268c-.134.033-.266.058-.4.092a27.115,27.115,0,0,0-12.336,6.49,22.264,22.264,0,0,0-6.048,9.361,27.594,27.594,0,0,0-1.238,8.693c0,2.021.13,3.772.13,5.032a7.688,7.688,0,0,1-.1,1.464,1.034,1.034,0,0,1-.068.248l0,.006.008,0a2.071,2.071,0,0,0-.461,1.838c-.178.176-.352.36-.526.542A18.232,18.232,0,0,0,543,173.1a22.144,22.144,0,0,0-1.536,8.885,19.54,19.54,0,0,0,2.842,10.4c2.785,4.521,7.445,7.883,13.394,10.108s13.244,3.343,21.469,3.343c10.966,0,20.264-1.977,26.965-5.949a22.625,22.625,0,0,0,7.9-7.5,19.552,19.552,0,0,0,2.843-10.405A22.138,22.138,0,0,0,615.342,173.1Zm-30.655-45.986a2.817,2.817,0,1,1-2.816,2.815A2.823,2.823,0,0,1,584.687,127.117Zm-11.03,0a2.817,2.817,0,1,1-2.815,2.815A2.823,2.823,0,0,1,573.658,127.117Zm32.582,34.634a24.667,24.667,0,0,1-2.976-5.594c-1.98-5.164-4.873-8.81-8.9-11.032s-9-3.043-15.193-3.043S568,142.9,563.98,145.125s-6.917,5.868-8.9,11.032a25.006,25.006,0,0,1-2.977,5.6c-.04-1.028-.083-2.1-.08-3.25a23.4,23.4,0,0,1,1.03-7.376,17.94,17.94,0,0,1,4.928-7.6,22.866,22.866,0,0,1,10.452-5.468,53.26,53.26,0,0,1,21.473,0,22.883,22.883,0,0,1,10.452,5.468,17.971,17.971,0,0,1,4.928,7.6,23.39,23.39,0,0,1,1.03,7.376C606.323,159.661,606.28,160.729,606.239,161.751Z" transform="translate(-541.468 -122.894)" fill="#c1272d"/>
</svg>
