<svg xmlns="http://www.w3.org/2000/svg" width="280.867" height="280.867" viewBox="0 0 280.867 280.867">
  <path id="Subtraction_24" data-name="Subtraction 24" d="M12358.3,25088.7h0v-.008h-.014a98.365,98.365,0,0,1-25.715-3.352,96.5,96.5,0,0,1-23.637-9.984,97.475,97.475,0,0,1-20.2-15.711,103.06,103.06,0,0,1-15.543-20.469,96.6,96.6,0,0,1-9.91-23.875,104.13,104.13,0,0,1,0-51.914,97.689,97.689,0,0,1,9.91-23.867,101.138,101.138,0,0,1,15.51-20.477,99.043,99.043,0,0,1,20.229-15.719,95.767,95.767,0,0,1,23.67-10.008,98.752,98.752,0,0,1,25.7-3.312Zm-64.684-87.969a1.282,1.282,0,0,0-1.062.57,28.355,28.355,0,0,0-4.373,11.3,28.041,28.041,0,0,0,4.869,20.438,27.363,27.363,0,0,0,46.563-3.211,27.963,27.963,0,0,0,.1-25.852,1.249,1.249,0,0,0-1.133-.7,1.27,1.27,0,0,0-1.262,1.016,21.89,21.89,0,0,1-5.215,10.031,21.515,21.515,0,0,1-9.5,6.016,21.264,21.264,0,0,1-20.521-4.477,21.778,21.778,0,0,1-7.172-13.984A1.282,1.282,0,0,0,12293.621,25000.727Zm45.924-16.3h0l2.963,1.578a.807.807,0,0,0,.336.086.757.757,0,0,0,.555-.258.769.769,0,0,0,.16-.609l-.566-3.32,2.395-2.359a.734.734,0,0,0-.4-1.25l-3.316-.484-1.473-3.031a.73.73,0,0,0-.654-.406.72.72,0,0,0-.65.406l-1.482,3.031-3.307.484a.734.734,0,0,0-.4,1.25l2.391,2.359-.566,3.32a.733.733,0,0,0,.715.867.757.757,0,0,0,.342-.086l2.957-1.578Zm-44.455-27.2a1.186,1.186,0,0,0-1.078.68l-2.457,5.031-5.492.813a1.175,1.175,0,0,0-.969.82,1.209,1.209,0,0,0,.307,1.25l3.975,3.922-.943,5.516a1.2,1.2,0,0,0,.264.984,1.214,1.214,0,0,0,.922.438,1.18,1.18,0,0,0,.559-.141l4.916-2.609,4.918,2.609a1.15,1.15,0,0,0,.557.141,1.226,1.226,0,0,0,.928-.437,1.208,1.208,0,0,0,.258-.984l-.941-5.516,3.975-3.922a1.205,1.205,0,0,0,.307-1.25,1.187,1.187,0,0,0-.969-.82l-5.494-.812-2.455-5.031A1.215,1.215,0,0,0,12295.09,24957.227Zm31.439-33.187a1.849,1.849,0,0,0-1.672,1.047l-3.811,7.8-8.527,1.266a1.859,1.859,0,0,0-1.51,1.281,1.888,1.888,0,0,0,.475,1.938l6.168,6.07-1.457,8.586a1.889,1.889,0,0,0,1.844,2.211,1.84,1.84,0,0,0,.865-.227l7.633-4.047,7.625,4.047a1.793,1.793,0,0,0,.867.219,1.9,1.9,0,0,0,1.443-.687,1.836,1.836,0,0,0,.4-1.516l-1.453-8.586,6.166-6.07a1.88,1.88,0,0,0,.475-1.937,1.846,1.846,0,0,0-1.5-1.281l-8.527-1.266-3.818-7.8A1.852,1.852,0,0,0,12326.529,24924.039Zm31.783,164.648v-39.75a58.059,58.059,0,0,0,22.9-4.727,58.888,58.888,0,0,0,10-5.508,59.926,59.926,0,0,0,8.7-91.453,60.191,60.191,0,0,0-8.7-7.281,59.284,59.284,0,0,0-10-5.5,58.192,58.192,0,0,0-22.9-4.734V24890c2.98.211,5.479,5.617,7.9,10.859l0,.008.014.031.012.023a69.8,69.8,0,0,0,3.473,6.875c1.342,2.172,2.58,3.344,3.785,3.586a3.8,3.8,0,0,0,.572.047c2.789,0,6.65-3.57,10.387-7.031l.006-.008.012-.008c3.723-3.461,7.572-7.039,10.293-7.039a2.73,2.73,0,0,1,1.021.188c1.246.531,2.1,2.078,2.59,4.742a63.018,63.018,0,0,1,.686,8.289v.008l.006.109a66.752,66.752,0,0,0,.607,7.727c.418,2.547,1.129,4.133,2.17,4.844a4.126,4.126,0,0,0,2.359.578c2.721,0,6.605-1.43,10.367-2.82l.018-.016.039-.008c3.75-1.375,7.625-2.8,10.3-2.8a3.685,3.685,0,0,1,2.75.906c.945.953,1.139,2.688.592,5.328a63.984,63.984,0,0,1-2.447,7.789l-.041.117c-1.865,5.156-3.787,10.477-2.221,12.859.689,1.047,2.256,1.766,4.791,2.188a65.371,65.371,0,0,0,7.752.625l.1.008a59.892,59.892,0,0,1,8.127.688c2.641.5,4.172,1.352,4.686,2.617.5,1.227.025,2.891-1.461,5.078a62.4,62.4,0,0,1-5.26,6.3h-.006c-3.7,4.078-7.533,8.289-6.971,11.141.234,1.219,1.393,2.461,3.541,3.82a67.266,67.266,0,0,0,6.838,3.516l.025.023c5.291,2.484,10.762,5.055,10.762,8.156s-5.451,5.664-10.723,8.141l-.016.008h-.014l0,.016a65.723,65.723,0,0,0-6.863,3.531c-2.148,1.352-3.3,2.594-3.543,3.82-.559,2.852,3.264,7.055,6.959,11.117l.006.016h.008l.09.1a61.733,61.733,0,0,1,5.17,6.2c1.486,2.188,1.965,3.852,1.461,5.086-.51,1.258-2.043,2.117-4.686,2.609a60.243,60.243,0,0,1-8.154.7h-.07l-.105.008a64.138,64.138,0,0,0-7.646.609c-2.529.43-4.1,1.141-4.791,2.2-1.564,2.359.346,7.672,2.2,12.8l.02.055.006.016.006.016a64.9,64.9,0,0,1,2.482,7.867c.543,2.633.35,4.375-.592,5.336a3.675,3.675,0,0,1-2.742.9h-.008c-2.65,0-6.5-1.4-10.215-2.758l-.086-.031-.039-.016-.014-.008c-3.762-1.391-7.646-2.828-10.367-2.828a4.089,4.089,0,0,0-2.363.594c-1.039.7-1.752,2.281-2.178,4.836a68.156,68.156,0,0,0-.6,7.813l0,.016v.016l-.006.125v.016a63.494,63.494,0,0,1-.686,8.156c-.5,2.656-1.344,4.2-2.59,4.727a2.532,2.532,0,0,1-1.016.2c-2.711,0-6.545-3.555-10.252-7.008l-.053-.039c-3.736-3.461-7.6-7.047-10.389-7.047a3.794,3.794,0,0,0-.576.055c-1.205.25-2.443,1.422-3.785,3.586a67.665,67.665,0,0,0-3.459,6.852l-.016.031-.023.047-.018.039h0c-2.408,5.219-4.9,10.609-7.879,10.828Z" transform="translate(-26268.285 -8791.09) rotate(-45)" fill="#fff" stroke="rgba(0,0,0,0)" stroke-miterlimit="10" stroke-width="1"/>
</svg>
