<svg id="Group_544" data-name="Group 544" xmlns="http://www.w3.org/2000/svg" width="159.111" height="76.642" viewBox="0 0 159.111 76.642">
  <g id="Group_543" data-name="Group 543" transform="translate(3.344 0)">
    <path id="Path_703" data-name="Path 703" d="M405.983,433.764l-10.129-16.119a18.714,18.714,0,0,0-15.842-8.753H332.843a29.539,29.539,0,0,0-21.092,8.855l-13.461,13.726-32.1,7.432a11.82,11.82,0,0,0-9.151,11.515v12.607a4.925,4.925,0,0,0,4.923,4.923h17.069c-.022.34-.056.677-.056,1.02a16.066,16.066,0,0,0,32.132,0c0-.343-.032-.68-.055-1.02h50.511c-.022.34-.055.677-.055,1.02a16.063,16.063,0,1,0,32.127,0c0-.343-.027-.68-.049-1.02h10.952a4.925,4.925,0,0,0,4.923-4.923v-17.21A22.645,22.645,0,0,0,405.983,433.764ZM295.041,475.373a6.4,6.4,0,1,1,6.4-6.4A6.4,6.4,0,0,1,295.041,475.373Zm40.625-40.391H306.734l11.074-11.291a21.184,21.184,0,0,1,15.036-6.311h2.824v17.6Zm33.006,0H343.088v-17.6h25.585Zm8.9,40.391a6.4,6.4,0,1,1,6.4-6.4A6.406,6.406,0,0,1,377.569,475.373Zm-1.47-40.391v-17.6h3.912a10.159,10.159,0,0,1,8.653,4.783l8.057,12.819Z" transform="translate(-257.035 -408.892)" fill="#c1272d"/>
  </g>
  <line id="Line_89" data-name="Line 89" x2="159.111" transform="translate(0 76.142)" fill="none" stroke="#c1272d" stroke-miterlimit="10" stroke-width="1"/>
</svg>
