<svg id="Group_1007" data-name="Group 1007" xmlns="http://www.w3.org/2000/svg" width="220.641" height="145.488" viewBox="0 0 220.641 145.488">
  <g id="Group_562" data-name="Group 562" transform="translate(133.002 0)">
    <path id="Path_728" data-name="Path 728" d="M695.268,1282.755a.658.658,0,0,0,.651.887h3.07a1.241,1.241,0,0,0,1.125-.887l1.47-5.518a1.115,1.115,0,0,1,1.554-.742,4.9,4.9,0,0,0,2.74.718,7.719,7.719,0,0,0,2.882-.562,9.654,9.654,0,0,0,2.6-1.553,10.68,10.68,0,0,0,2.06-2.3,9.489,9.489,0,0,0,1.278-2.84,7.547,7.547,0,0,0,.244-2.866,5.279,5.279,0,0,0-.838-2.331,4.809,4.809,0,0,0-1.792-1.567,5.62,5.62,0,0,0-2.6-.575,6.743,6.743,0,0,0-4.752,1.955l.4-1.527h-3.959a1.236,1.236,0,0,0-1.122.889Zm8.132-12.828a3.74,3.74,0,0,1,.579-1.219,5.091,5.091,0,0,1,.937-1,4.3,4.3,0,0,1,1.157-.669,3.5,3.5,0,0,1,1.27-.242,2.594,2.594,0,0,1,1.176.255,2.236,2.236,0,0,1,.822.683,2.123,2.123,0,0,1,.388,1,3.1,3.1,0,0,1-.1,1.219,3.57,3.57,0,0,1-.568,1.179,4.9,4.9,0,0,1-.935.991,4.207,4.207,0,0,1-1.154.67,3.509,3.509,0,0,1-1.272.241,2.509,2.509,0,0,1-1.149-.254,2.311,2.311,0,0,1-.828-.67,2.151,2.151,0,0,1-.407-.978A2.844,2.844,0,0,1,703.4,1269.926Z" transform="translate(-695.236 -1254.551)" fill="#fff"/>
    <path id="Path_729" data-name="Path 729" d="M704.01,1281.837h3.072a1.24,1.24,0,0,0,1.125-.887l5.451-20.457a.66.66,0,0,0-.651-.889h-3.07a1.238,1.238,0,0,0-1.125.889l-5.453,20.457A.658.658,0,0,0,704.01,1281.837Z" transform="translate(-681.653 -1259.604)" fill="#fff"/>
    <path id="Path_730" data-name="Path 730" d="M708.082,1275.632q1.463,1.394,5.105,1.393a10.815,10.815,0,0,0,5.847-1.393,6.79,6.79,0,0,0,2.952-4.179l2.076-7.79a.66.66,0,0,0-.651-.889h-3.075a1.236,1.236,0,0,0-1.122.889l-1.829,6.852a3.018,3.018,0,0,1-3.142,2.545q-2.463,0-1.784-2.545l1.827-6.852a.661.661,0,0,0-.651-.889h-3.073a1.242,1.242,0,0,0-1.125.889l-2.076,7.79Q706.619,1274.237,708.082,1275.632Z" transform="translate(-675.302 -1254.283)" fill="#fff"/>
    <path id="Path_731" data-name="Path 731" d="M718.411,1277.343a10.2,10.2,0,0,0,2.748-.362,8.6,8.6,0,0,0,2.336-1.017,6.866,6.866,0,0,0,1.77-1.62,6.064,6.064,0,0,0,1.058-2.17,3.056,3.056,0,0,0-.286-2.639,4.07,4.07,0,0,0-2.617-1.432c-.456-.108-.82-.2-1.093-.268a1.8,1.8,0,0,1-.605-.241.47.47,0,0,1-.222-.281.956.956,0,0,1,.037-.388,1.166,1.166,0,0,1,.608-.724,2.388,2.388,0,0,1,1.157-.268,4.645,4.645,0,0,1,2.438.7l2.478-3.161a9.829,9.829,0,0,0-4.184-.884,9.689,9.689,0,0,0-2.625.348,7.919,7.919,0,0,0-2.207.991,6.431,6.431,0,0,0-1.65,1.567,6.23,6.23,0,0,0-.98,2.076,2.823,2.823,0,0,0,.239,2.478,4.575,4.575,0,0,0,2.786,1.353c.42.091.761.174,1.018.254a1.724,1.724,0,0,1,.557.268.5.5,0,0,1,.2.321,1.209,1.209,0,0,1-.054.442,1.225,1.225,0,0,1-.627.75,2.308,2.308,0,0,1-1.176.3,5.356,5.356,0,0,1-3.485-1.394l-2.062,2.636a.809.809,0,0,0,.059,1.221A8.672,8.672,0,0,0,718.411,1277.343Z" transform="translate(-664.213 -1254.602)" fill="#fff"/>
  </g>
  <g id="Group_563" data-name="Group 563" transform="translate(0 35.267)">
    <path id="Path_732" data-name="Path 732" d="M861.19,1308.771l-14.66-23.331a27.1,27.1,0,0,0-22.934-12.67H755.318a42.758,42.758,0,0,0-30.531,12.817l-19.485,19.87-46.474,10.757a17.11,17.11,0,0,0-13.246,16.669v18.249a7.13,7.13,0,0,0,7.128,7.128h24.708c-.032.49-.08.98-.08,1.476a23.257,23.257,0,0,0,46.514,0c0-.5-.048-.986-.08-1.476H796.89c-.032.49-.08.98-.08,1.476a23.252,23.252,0,1,0,46.5,0c0-.5-.037-.986-.069-1.476H859.1a7.132,7.132,0,0,0,7.128-7.128v-24.911A32.783,32.783,0,0,0,861.19,1308.771ZM700.6,1369a9.264,9.264,0,1,1,9.263-9.265A9.266,9.266,0,0,1,700.6,1369Zm58.806-58.466h-41.88l16.029-16.345a30.665,30.665,0,0,1,21.764-9.136h4.088v25.482Zm47.779,0H770.149v-25.482h37.035ZM820.063,1369a9.264,9.264,0,1,1,9.26-9.265A9.27,9.27,0,0,1,820.063,1369Zm-2.13-58.466v-25.482H823.6a14.712,14.712,0,0,1,12.528,6.925l11.66,18.557Z" transform="translate(-645.583 -1272.77)" fill="#fff"/>
  </g>
</svg>
