<svg id="Group_542" data-name="Group 542" xmlns="http://www.w3.org/2000/svg" width="159.111" height="59.031" viewBox="0 0 159.111 59.031">
  <g id="Group_541" data-name="Group 541" transform="translate(31.855 0)">
    <path id="Path_696" data-name="Path 696" d="M624,478.513c-.059.236-.127.471-.174.71a17.387,17.387,0,0,1-34.2-6.287c1.418-7.332,5.911-12.142,13.193-13.824,7.153-1.652,13.151.667,17.762,6.411A17.925,17.925,0,0,1,624,473.549Zm-6.107-2.7a11.177,11.177,0,1,0-11.126,11.338A11.162,11.162,0,0,0,617.892,475.818Z" transform="translate(-529.761 -434.858)" fill="#c1272d"/>
    <path id="Path_697" data-name="Path 697" d="M544.947,451.825c-.726-.006-1.143.211-1.323.942a13.346,13.346,0,0,1-.663,2c-.26.618-.062.894.493,1.219,6.2,3.638,9.328,9.041,8.983,16.258A17.371,17.371,0,1,1,537.28,453.98c.777.1,1.081-.195,1.308-.894q2.82-8.692,5.7-17.366a7.511,7.511,0,0,1,6.341-5.431c3-.431,6.053-.11,9.081-.146.537-.006.645.35.641.8-.007.949-.051,1.9.016,2.847.064.913-.32,1.16-1.174,1.146-2.419-.039-4.839-.022-7.259-.008a3.081,3.081,0,0,0-3.18,2.275c-.266.75-.467,1.525-.763,2.262s-.13.949.674.941c3.43-.035,6.861-.019,10.29-.012a19.737,19.737,0,0,1,9.058,2.391,1.342,1.342,0,0,1,.794,1.391c-.029,2.175-.047,4.35.007,6.523.022.9-.316,1.158-1.175,1.151-3.767-.032-7.534-.014-11.3-.014C552.543,451.837,548.745,451.852,544.947,451.825Zm.893,22.633a11.135,11.135,0,0,0-4.188-12.294c-.881-.595-.889-.6-1.212.384-.479,1.454-.927,2.918-1.426,4.365a1.258,1.258,0,0,0,.2,1.268,5.048,5.048,0,0,1,.066,6.009,5.108,5.108,0,1,1-5.819-7.776,1.547,1.547,0,0,0,1.132-1.159c.4-1.318.808-2.637,1.3-3.923s.062-1.365-.971-1.325a10.856,10.856,0,0,0-7.127,2.771,11.189,11.189,0,0,0,5.362,19.44,3.034,3.034,0,0,0,.543.087c.489.012.979,0,1.468,0A11.017,11.017,0,0,0,545.84,474.458Z" transform="translate(-517.727 -430.062)" fill="#c1272d"/>
    <path id="Path_698" data-name="Path 698" d="M571.243,459.555h-14.6c-.245,0-.49-.006-.734.006-.27.013-.621-.046-.737.248-.124.315.221.47.413.646a21.354,21.354,0,0,1,5.645,8.266,19.3,19.3,0,0,1,1.308,6.538c.04,2.048.8,2.838,2.853,2.849q5.971.034,11.942,0c1.9-.009,2.481-.646,2.53-2.568a20.714,20.714,0,0,1,6.95-15.079c.223-.209.714-.328.533-.733-.134-.3-.553-.17-.848-.17Q578.867,459.55,571.243,459.555Z" transform="translate(-524.017 -435.016)" fill="#c1272d"/>
    <path id="Path_699" data-name="Path 699" d="M596.416,453.959H609.1a4,4,0,0,0,2.375-.569,2.768,2.768,0,0,0,1.263-2.417c-.01-1.715.009-3.432,0-5.147a2.949,2.949,0,0,0-3.12-3.1,27.465,27.465,0,0,0-11.185,1.66,23.7,23.7,0,0,1-9.191,1.464c-1.99-.05-3.983.027-5.973-.026-.867-.022-1.12.314-1.1,1.127.037,1.9.008,3.8.013,5.7,0,1.247.065,1.313,1.285,1.314Q589.936,453.964,596.416,453.959Z" transform="translate(-528.559 -432.184)" fill="#c1272d"/>
    <path id="Path_700" data-name="Path 700" d="M533.776,446.089c0,1.712.026,3.426-.012,5.137-.018.824.312,1.087,1.1,1a12.852,12.852,0,0,0,6.975-2.988,1.593,1.593,0,0,0,.617-1.352q-.044-1.833,0-3.669a1.557,1.557,0,0,0-.638-1.34,12.991,12.991,0,0,0-7.082-2.968c-.77-.074-.968.287-.963.954C533.785,442.6,533.777,444.346,533.776,446.089Z" transform="translate(-520.423 -431.715)" fill="#c1272d"/>
    <path id="Path_701" data-name="Path 701" d="M531,445.944c0-1.651-.024-3.3.01-4.955.017-.809-.252-1.225-1.11-1.132a3.24,3.24,0,0,1-.641,0c-.73-.067-1.049.213-1.043.989q.039,5.183,0,10.369c-.005.734.23,1.1,1,1.024a3.429,3.429,0,0,1,.733,0c.813.092,1.075-.284,1.058-1.066C530.97,449.432,531,447.688,531,445.944Z" transform="translate(-519.49 -431.706)" fill="#c1272d"/>
    <path id="Path_702" data-name="Path 702" d="M609.225,483.615a5.1,5.1,0,1,0-5.162-5.129A5.158,5.158,0,0,0,609.225,483.615Z" transform="translate(-532.241 -437.351)" fill="#c1272d"/>
  </g>
  <line id="Line_88" data-name="Line 88" x2="159.111" transform="translate(0 58.531)" fill="none" stroke="#c1272d" stroke-miterlimit="10" stroke-width="1"/>
</svg>
