<svg xmlns="http://www.w3.org/2000/svg" width="75.944" height="69.852" viewBox="0 0 75.944 69.852">
  <g id="Group_547" data-name="Group 547" transform="translate(-0.499 -0.148)">
    <g id="Group_1464" data-name="Group 1464" transform="translate(-7.277 0.148)">
      <path id="Path_1382" data-name="Path 1382" d="M241.1,36.588,230.567,20.778a1.858,1.858,0,0,1,0-2.068L241.1,2.9A1.865,1.865,0,0,0,239.551,0H190.386V39.487h49.165a1.864,1.864,0,0,0,1.552-2.9Z" transform="translate(-157.697)" fill="#606060"/>
      <path id="Path_1383" data-name="Path 1383" d="M28.272,56.787V0H19.436V56.894c-6.753.837-11.66,3.355-11.66,6.332,0,3.658,7.418,6.625,16.565,6.625s16.565-2.967,16.565-6.625C40.907,60.108,35.525,57.493,28.272,56.787Z" transform="translate(0)" fill="#606060"/>
    </g>
  </g>
</svg>
