<svg id="Group_1005" data-name="Group 1005" xmlns="http://www.w3.org/2000/svg" width="70" height="70" viewBox="0 0 70 70">
  <path id="Path_725" data-name="Path 725" d="M473.944,1300.725c0-2.1-7.139-3.48-7.533-5.467-.405-2.049,5.657-6.047,4.876-7.931-.8-1.918-7.916-.452-9.058-2.157s2.921-7.737,1.465-9.193-7.477,2.612-9.195,1.463-.238-8.263-2.155-9.058c-1.885-.781-5.882,5.281-7.933,4.876-1.987-.394-3.364-7.533-5.467-7.533s-3.479,7.139-5.467,7.533c-2.049.405-6.046-5.658-7.931-4.876-1.917.8-.45,7.916-2.156,9.058s-7.737-2.921-9.193-1.465,2.614,7.477,1.463,9.195-8.263.238-9.058,2.155c-.781,1.885,5.283,5.882,4.876,7.932-.394,1.987-7.533,3.364-7.533,5.467s7.139,3.479,7.533,5.468c.407,2.049-5.658,6.046-4.876,7.931.8,1.916,7.916.45,9.058,2.156s-2.92,7.737-1.463,9.193,7.477-2.613,9.193-1.463.239,8.261,2.156,9.058c1.885.781,5.883-5.283,7.931-4.876,1.989.394,3.364,7.533,5.467,7.533s3.48-7.139,5.467-7.533c2.049-.407,6.047,5.657,7.931,4.876,1.917-.8.451-7.916,2.156-9.056s7.737,2.92,9.193,1.463-2.612-7.479-1.463-9.2,8.261-.239,9.058-2.156c.781-1.885-5.281-5.882-4.875-7.931C466.8,1304.2,473.944,1302.828,473.944,1300.725Zm-35,21a21,21,0,1,1,21-21A21,21,0,0,1,438.944,1321.724Z" transform="translate(-403.944 -1265.725)" fill="#606060"/>
</svg>
