<svg xmlns="http://www.w3.org/2000/svg" width="229.232" height="189.285" viewBox="0 0 229.232 189.285">
  <g id="Group_1008" data-name="Group 1008" transform="translate(0 -0.002)">
    <path id="Path_705" data-name="Path 705" d="M846.684,1330.492l-1.471-50.509a5.051,5.051,0,1,0-10.1,0l-1.169,40.185a4.133,4.133,0,0,1-4.046,4.011l-28.455.6a5.709,5.709,0,0,0,0,11.418l38.718.816A6.524,6.524,0,0,0,846.684,1330.492Z" transform="translate(-747.039 -1225.811)" fill="#fff"/>
    <path id="Path_706" data-name="Path 706" d="M1008.773,1353.028a2.516,2.516,0,0,0-1.053-4.921L961.378,1358a1,1,0,0,1-1.21-.95,89.934,89.934,0,0,0-1.2-11.572,1.255,1.255,0,0,1,.974-1.444l46.271-9.878a2.516,2.516,0,0,0-1.052-4.92l-46.271,9.878a1.256,1.256,0,0,1-1.478-.923q-1.1-4.248-2.589-8.328a1,1,0,0,1,.73-1.333l45.928-9.8a2.516,2.516,0,0,0-1.053-4.92l-46.785,9.988a1.513,1.513,0,0,1-1.684-.847q-1.79-3.852-3.922-7.5a1.006,1.006,0,0,1,.655-1.494l49.524-10.571a2.516,2.516,0,0,0-1.049-4.921l-51.479,10.99a2.014,2.014,0,0,1-2.061-.81q-1.625-2.278-3.391-4.447a1.007,1.007,0,0,1,.566-1.625l48.191-10.286a2.515,2.515,0,0,0-1.049-4.92l-51.569,11.006a2.006,2.006,0,0,1-1.855-.562q-1.867-1.893-3.844-3.673a1,1,0,0,1,.466-1.725l49.926-10.66a2.515,2.515,0,1,0-1.049-4.92s-47.889,10.242-54.99,11.768a2,2,0,0,1-1.6-.343q-2.479-1.805-5.074-3.436a1,1,0,0,1,.326-1.838l34.15-7.111a2.592,2.592,0,0,0,2.095-2.757,2.519,2.519,0,0,0-3.014-2.191l-42.18,8.685a1.983,1.983,0,0,1-1.228-.137c-1.049-.474-3.247-1.454-4.536-1.968a1.006,1.006,0,0,1,.157-1.92l32.724-6.984a2.516,2.516,0,0,0-1.052-4.921l-45.071,9.622a.991.991,0,0,1-.422,0c-.891-.2-1.786-.381-2.688-.552a1,1,0,0,1-.017-1.968l24.368-5.2a2.516,2.516,0,0,0-1.053-4.921l-55.59,11.867c-.065.014-.123.041-.185.058-41.289,7.419-72.995,43.48-73.595,86.676a89.3,89.3,0,0,0,99.358,90.059,2.249,2.249,0,0,0,1.18-3.978,45.719,45.719,0,0,1-5.634-5.39,4.711,4.711,0,0,0-3.634-1.615c-.638.014-1.282.021-1.927.021a77.859,77.859,0,1,1,77-66.545,10.52,10.52,0,0,0,1.231,6.69,59.886,59.886,0,0,1,3.305,6.854,2.321,2.321,0,0,0,4.382-.219q.8-2.777,1.406-5.627a1.508,1.508,0,0,1,1.159-1.158l48.2-10.29a2.515,2.515,0,0,0-1.049-4.92l-45.774,9.771a1.009,1.009,0,0,1-1.207-1.117q.453-3.57.614-7.228a1.508,1.508,0,0,1,1.19-1.416Z" transform="translate(-781.531 -1260.604)" fill="#fff"/>
    <path id="Path_707" data-name="Path 707" d="M834.943,1309.243a2.565,2.565,0,0,0,.529-.055l39.444-8.421a2.515,2.515,0,0,0-1.049-4.92l-39.444,8.421a2.515,2.515,0,0,0,.521,4.975Z" transform="translate(-657.912 -1175.147)" fill="#fff"/>
    <path id="Path_708" data-name="Path 708" d="M933.519,1334.257l-51.373,10.965a1,1,0,0,1-1.218-.943c-.394-15.491-9.278-29.209-21.285-38.819-6.741-5.394-9.374-11.336-10.386-15.574-.816-3.391-.387-3.761-.387-3.761a1.145,1.145,0,0,0-1.786-.826s-1.306.281-3.436,2.348c-4.845,4.7-10.321,12.553-6.717,23.281,3.885,11.507,1.828,13.921-.2,13.766-2.627-.205-3.034-1.824-2.613-6.871a12.553,12.553,0,0,0-2.156-7.533,2.858,2.858,0,0,0-4.838-.034c-2.891,4.543-8.205,12.806-12.656,19.3a34.641,34.641,0,0,0-5.661,19.156h-.13a36.072,36.072,0,0,0,48.414,33.9,4.646,4.646,0,0,1,.607-.175l61.409-13.613a2.514,2.514,0,1,0-1.087-4.909l-44.968,9.964a1,1,0,0,1-.984-1.632,36.111,36.111,0,0,0,4.447-6.463,2.022,2.022,0,0,1,1.361-1.035l53.961-11.521a2.516,2.516,0,0,0-1.052-4.92l-49.936,10.663a1,1,0,0,1-1.18-1.234,35.793,35.793,0,0,0,1.008-5.949,1.5,1.5,0,0,1,1.173-1.351l52.717-11.253a2.515,2.515,0,1,0-1.049-4.92Zm-108.551,21.981a19.947,19.947,0,0,1,1.845-10.008.845.845,0,0,1,1.543.055,13.5,13.5,0,0,0,25.8-7.132,1.053,1.053,0,0,1,1.636-1.007,19.9,19.9,0,1,1-30.828,18.093Z" transform="translate(-715.597 -1201.124)" fill="#fff"/>
  </g>
</svg>
