<svg xmlns="http://www.w3.org/2000/svg" width="167.949" height="201.469" viewBox="0 0 167.949 201.469">
  <g id="_30" data-name="30" transform="translate(-70.271 -81.033)">
    <path id="Path_1008" data-name="Path 1008" d="M228.1,175.633a14.384,14.384,0,0,1-3.983-2.9,16.611,16.611,0,0,1-3.26-4.566c-1.234-2.642-2.027-4.731-2.782-6.625a36.539,36.539,0,0,0-1.835-4.086,16.694,16.694,0,0,0-4.838-5.546,44.233,44.233,0,0,0-8.633-4.7,84.914,84.914,0,0,0-13.663-4.411,69.929,69.929,0,0,0-15.452-2.151,28.112,28.112,0,0,0-3.469.225,73.6,73.6,0,0,0-8.85-3.309,4.151,4.151,0,0,0-5.013,2.7c-.033.088-.1.151-.123.243a4.182,4.182,0,0,0,2.938,5.134,114.478,114.478,0,0,1,11.412,4.465,64.7,64.7,0,0,0,14.676,4.562c3.514.517,6.88.719,9.675,1.326,2.819.613,4.866,1.51,6.427,3.146a11.459,11.459,0,0,1,1.8,2.351l.257.605a4.193,4.193,0,0,1-1.34.731,17.094,17.094,0,0,1-3.62.866,60.337,60.337,0,0,1-8.466.517c-9.365.008-20.33-1.426-29.642-1.644-16.633-.366-31.007-7.8-44.543-18.245-11.052-8.525-21.381-18.982-31.648-28.753-2.288-2.176-4.572-4.329-6.86-6.407a4.184,4.184,0,1,0-5.622,6.2c12.208,11.058,24.776,24.578,39.015,35.585,12.641,9.771,26.811,17.6,43.244,19.52-.331,3.328-.413,6.876-.413,10.57,0,16.386,10.431,30.055,24.318,33.273v49.358a6.276,6.276,0,0,0,12.551,0V214.3c13.888-3.218,24.319-16.887,24.319-33.273,0-2.41-.033-4.76-.147-7.03a25.95,25.95,0,0,0,5.687,6.472,20.883,20.883,0,0,0,4.412,2.783,12.15,12.15,0,0,0,5,1.195,7.818,7.818,0,0,0,4.27-1.2,7.706,7.706,0,0,0,2.97-3.689l0,0a20.085,20.085,0,0,0,1.348-7.463c-.049-7.63-3.362-15.234-7.064-22.165-3.726-6.89-8.016-13.117-10.353-17.041a37.632,37.632,0,0,0-10.786-11.518c-6.28-4.429-13.471-7.1-20.6-9.23s-14.222-3.71-20.314-5.7c-16.45-5.316-32.768-6.182-48.286-10a17.066,17.066,0,0,1-8.613-5.093c-2.48-2.458-5.034-5.853-8.927-9.271a4.184,4.184,0,0,0-5.508,6.3c3.15,2.735,5.479,5.818,8.511,8.881a25.587,25.587,0,0,0,12.551,7.313c16.531,4.006,32.613,4.9,47.681,9.832,8.842,2.86,18.578,4.752,27.1,7.937a50.3,50.3,0,0,1,11.571,5.863,29.22,29.22,0,0,1,8.433,8.972c2.594,4.335,6.717,10.316,10.174,16.731,3.481,6.374,6.116,13.173,6.063,18.19a11.952,11.952,0,0,1-.633,3.926A4.92,4.92,0,0,1,228.1,175.633Z" transform="translate(0 0)" fill="#fff"/>
    <path id="Path_1009" data-name="Path 1009" d="M243.821,513.283a4.184,4.184,0,0,0-3.866-2.583H201.778a4.184,4.184,0,0,0,0,8.368h28.078l-6.194,6.194a4.183,4.183,0,0,0,2.958,7.142h47.329a4.2,4.2,0,0,0,3.244-1.543l9.6-11.793h16.445a4.184,4.184,0,0,0,0-8.368H284.8a4.2,4.2,0,0,0-3.244,1.543l-9.6,11.793h-35.24l6.194-6.195A4.187,4.187,0,0,0,243.821,513.283Z" transform="translate(-74.054 -249.901)" fill="#fff"/>
  </g>
</svg>
