<svg id="Group_559" data-name="Group 559" xmlns="http://www.w3.org/2000/svg" width="90.562" height="70" viewBox="0 0 90.562 70">
  <g id="Group_556" data-name="Group 556" transform="translate(39.871 2.69)">
    <path id="Path_712" data-name="Path 712" d="M309.918,1279.619a1.1,1.1,0,1,0,1.1,1.1A1.1,1.1,0,0,0,309.918,1279.619Z" transform="translate(-291.22 -1262.892)" fill="#606060"/>
    <path id="Path_713" data-name="Path 713" d="M319.431,1281.814a1.1,1.1,0,1,0-1.1-1.1A1.1,1.1,0,0,0,319.431,1281.814Z" transform="translate(-287.438 -1262.892)" fill="#606060"/>
    <path id="Path_714" data-name="Path 714" d="M320.58,1285.146a.631.631,0,0,0-1.262,0c0,.914-1.47,1.932-3.579,1.932s-3.578-1.018-3.578-1.932a.632.632,0,0,0-1.263,0c0,1.792,2.127,3.195,4.841,3.195S320.58,1286.938,320.58,1285.146Z" transform="translate(-290.394 -1260.945)" fill="#606060"/>
    <path id="Path_715" data-name="Path 715" d="M342.874,1315.115c-1.915-4.123-4.375-5.842-10.971-7.7a8.936,8.936,0,0,1-6.205-6.317c.21-.056.419-.126.615-.182a15.627,15.627,0,0,0,12.327,5.59,15.169,15.169,0,0,0,3.242-.308.615.615,0,0,0,.447-.419.6.6,0,0,0-.126-.6,87.189,87.189,0,0,1-6.177-7.966c-.335-.559-.643-1.216-.964-1.9-.042-.084-.07-.168-.112-.238a17.251,17.251,0,0,0,2.739-5.1c.769-.447,3.047-2.04,2.725-4.808a2.371,2.371,0,0,0-1.37-2,1.727,1.727,0,0,0-.573-.14,17.334,17.334,0,0,0-.517-2.823v-.028a16.973,16.973,0,0,0-33.068,1.356c0,.028-.014.042-.014.056-.084.475-.154.951-.2,1.439a1.8,1.8,0,0,0-.587.14,2.384,2.384,0,0,0-1.356,2c-.321,2.767,1.957,4.361,2.725,4.808a17.013,17.013,0,0,0,11.978,11.125,8.939,8.939,0,0,1-6.191,6.317c-6.6,1.859-9.057,3.578-10.971,7.7-1.8,3.885-3.955,18.5-4.039,19.12a.628.628,0,1,0,1.244.18c.028-.152,2.208-15.051,3.941-18.769,1.747-3.76,3.927-5.269,10.161-7.016a9.779,9.779,0,0,0,3-1.384l-.238,7.841a.632.632,0,0,0,.377.6.816.816,0,0,0,.252.056.6.6,0,0,0,.447-.2l6.15-6.134,6.136,6.134a.648.648,0,0,0,.447.2.816.816,0,0,0,.252-.056.612.612,0,0,0,.377-.6l-.238-7.841a9.863,9.863,0,0,0,3.019,1.384c6.233,1.747,8.414,3.257,10.161,7.016,1.733,3.717,3.913,18.616,3.927,18.769a.643.643,0,0,0,.629.546.178.178,0,0,0,.084-.014.633.633,0,0,0,.545-.713C346.815,1333.619,344.677,1319,342.874,1315.115Zm-27.212-1.579.21-6.709,4.584,1.915Zm.7-7.869a11.218,11.218,0,0,0,2.474-4.906.668.668,0,0,0-.1-.489.56.56,0,0,0-.391-.266,15.722,15.722,0,0,1-11.768-10.665.61.61,0,0,0-.377-.4c-.405-.224-2.474-1.453-2.208-3.62a1.146,1.146,0,0,1,.587-.992.41.41,0,0,1,.252-.028.579.579,0,0,0,.447.168.636.636,0,0,0,.6-.6,13.376,13.376,0,0,1,.182-1.677c.056-.028.126-.042.2-.07.028-.014.042-.014.056-.028a1.089,1.089,0,0,0,.2-.07.874.874,0,0,0,.1-.042c.07-.028.126-.056.2-.084.042-.014.07-.028.112-.042.084-.042.154-.084.252-.126l.084-.042c.112-.056.238-.126.349-.182.028-.014.056-.042.084-.056.1-.056.2-.112.307-.168l.126-.084c.1-.07.2-.126.28-.182a.944.944,0,0,1,.154-.1c.1-.083.21-.154.307-.223a.771.771,0,0,1,.126-.1c.154-.112.307-.224.461-.349l.056-.056c.14-.112.266-.224.405-.349.056-.042.1-.1.154-.14.112-.1.224-.2.335-.307l.168-.168c.112-.112.224-.238.335-.365a.755.755,0,0,0,.154-.152c.168-.182.335-.377.5-.573a21.4,21.4,0,0,0,3.62-6.263c.28.323.559.616.839.91l.266.266.573.572c.112.1.224.2.335.309.182.154.349.321.531.475.112.1.238.2.349.294.182.154.349.293.531.433.112.1.238.182.349.28.182.14.363.265.531.391.126.1.238.182.349.264.2.127.377.253.559.379.112.07.224.14.335.224.2.126.391.252.587.363.1.056.2.126.293.182.252.154.5.294.741.42a1.227,1.227,0,0,1,.14.084c.307.168.6.322.895.461.042.028.084.042.126.07.252.112.5.238.755.349.1.042.182.07.266.112.21.1.405.182.615.265.1.042.2.07.293.112.2.084.377.154.573.224.1.042.2.07.293.112.2.07.377.126.559.2l.293.084c.2.07.377.126.559.182.1.027.182.056.266.084.21.056.405.1.6.154.07.014.14.042.21.056.238.056.461.112.685.168.028.014.07.014.1.028.545.112,1.048.224,1.551.307h.07c.21.042.433.07.643.112.056,0,.1.014.154.014.182.028.349.056.531.07a.683.683,0,0,0,.168.014c.168.028.321.042.489.056.056,0,.112.013.168.013l.447.043a.522.522,0,0,1,.154.014c.154,0,.307.014.447.014a.343.343,0,0,0,.112.014c.168,0,.321.014.461.014h.07c.5.014.95.014,1.3,0h.056a1.529,1.529,0,0,0,.266-.014h.21a14.618,14.618,0,0,1,.391,2.823.614.614,0,0,0,.615.586.594.594,0,0,0,.433-.138c.056-.042.154-.028.266.014a1.174,1.174,0,0,1,.587.992c.266,2.208-1.887,3.452-2.236,3.634a.621.621,0,0,0-.363.405,15.519,15.519,0,0,1-2.893,5.3c-.084.1-.154.2-.238.278-.154.183-.307.349-.475.519-.084.084-.168.18-.252.265-.14.14-.293.28-.433.419-.112.1-.21.194-.307.28-.154.126-.307.264-.461.391-.1.07-.2.154-.294.238-.182.126-.349.265-.531.391a2.851,2.851,0,0,0-.252.182c-.21.14-.419.266-.629.391a1.835,1.835,0,0,1-.28.168c-.21.126-.419.25-.629.363-.112.056-.21.1-.321.154-.21.112-.419.21-.643.308-.112.042-.224.1-.335.14l-.545.21a4.244,4.244,0,0,1-.447.154,13.07,13.07,0,0,1-1.789.5.618.618,0,0,0-.405.266.662.662,0,0,0-.084.489,11.31,11.31,0,0,0,2.46,4.906l-5.2,2.166Zm6.317,3.075,4.6-1.915.21,6.709Z" transform="translate(-296.227 -1267.651)" fill="#606060"/>
    <path id="Path_716" data-name="Path 716" d="M313.884,1284.085a.632.632,0,0,0,.632-.632.287.287,0,0,1,.574,0,.631.631,0,1,0,1.262,0,1.55,1.55,0,1,0-3.1,0A.632.632,0,0,0,313.884,1284.085Z" transform="translate(-289.458 -1261.984)" fill="#606060"/>
  </g>
  <g id="Group_558" data-name="Group 558" transform="translate(0)">
    <g id="Group_557" data-name="Group 557" transform="translate(20.85 40.848)">
      <path id="Path_717" data-name="Path 717" d="M283.249,1297.993a.633.633,0,0,1-.584-.872l.73-1.776a.631.631,0,1,1,1.167.478l-.728,1.778A.631.631,0,0,1,283.249,1297.993Z" transform="translate(-282.617 -1294.953)" fill="#606060"/>
      <path id="Path_718" data-name="Path 718" d="M288.982,1297.993a.632.632,0,0,1-.584-.393l-.728-1.778a.631.631,0,1,1,1.168-.478l.728,1.776a.633.633,0,0,1-.584.872Z" transform="translate(-280.627 -1294.953)" fill="#606060"/>
      <path id="Path_719" data-name="Path 719" d="M286.011,1298.39a.631.631,0,0,1-.63-.632v-1.81a.631.631,0,1,1,1.262,0v1.81A.631.631,0,0,1,286.011,1298.39Z" transform="translate(-281.519 -1294.807)" fill="#606060"/>
    </g>
    <circle id="Ellipse_95" data-name="Ellipse 95" cx="1.098" cy="1.098" r="1.098" transform="translate(17.596 19.417)" fill="#606060"/>
    <circle id="Ellipse_96" data-name="Ellipse 96" cx="1.098" cy="1.098" r="1.098" transform="translate(30.893 19.417)" fill="#606060"/>
    <path id="Path_720" data-name="Path 720" d="M287.209,1288.341c-2.714,0-4.841-1.4-4.841-3.195a.631.631,0,0,1,1.262,0c0,.914,1.47,1.932,3.579,1.932s3.579-1.018,3.579-1.932a.631.631,0,0,1,1.262,0C292.051,1286.938,289.925,1288.341,287.209,1288.341Z" transform="translate(-261.866 -1258.255)" fill="#606060"/>
    <path id="Path_721" data-name="Path 721" d="M282.665,1278.5h-2.2a.631.631,0,0,1,0-1.262h2.2a.631.631,0,1,1,0,1.262Z" transform="translate(-262.873 -1261.148)" fill="#606060"/>
    <path id="Path_722" data-name="Path 722" d="M292.18,1278.5h-2.2a.631.631,0,1,1,0-1.262h2.2a.631.631,0,0,1,0,1.262Z" transform="translate(-259.09 -1261.148)" fill="#606060"/>
    <path id="Path_723" data-name="Path 723" d="M287.189,1284.085a.632.632,0,0,1-.632-.632.287.287,0,0,0-.574,0,.631.631,0,1,1-1.262,0,1.55,1.55,0,1,1,3.1,0A.632.632,0,0,1,287.189,1284.085Z" transform="translate(-260.931 -1259.294)" fill="#606060"/>
    <path id="Path_724" data-name="Path 724" d="M318.378,1335c-.09-.621-2.231-15.238-4.034-19.121-1.913-4.122-4.375-5.849-10.973-7.7a8.51,8.51,0,0,1-5.2-4.01h0a10.143,10.143,0,0,1-1-2.314,16.807,16.807,0,0,0,5.359-2.393,17.057,17.057,0,0,0,6.625-8.725c.767-.454,3.05-2.046,2.73-4.808h0a2.722,2.722,0,0,0-.521-1.339,18.343,18.343,0,0,0-17.31-18.287,1.172,1.172,0,0,0-2.022,0,18.339,18.339,0,0,0-17.307,18.285,2.71,2.71,0,0,0-.523,1.34c-.321,2.765,1.966,4.358,2.732,4.809a17.045,17.045,0,0,0,6.621,8.723,16.784,16.784,0,0,0,5.36,2.394,10.166,10.166,0,0,1-1,2.317v0a8.52,8.52,0,0,1-5.2,4.007c-6.6,1.849-9.055,3.575-10.973,7.7-1.8,3.882-3.944,18.5-4.034,19.121a.632.632,0,0,0,.625.723h49.424a.632.632,0,0,0,.623-.723Zm-25.338-67.464a17.083,17.083,0,0,1,16.823,14.242c-1.656-2.878-4.341-7.354-5.688-8.583l-.214-.2c-1.864-1.715-3.978-3.661-10.921-3.661s-9.054,1.945-10.918,3.661l-.214.2c-1.345,1.227-4.027,5.7-5.687,8.582A17.081,17.081,0,0,1,293.041,1267.539Zm15.192,13.948a25.421,25.421,0,0,0-4.211-3.16l-.214-.1c-1.93-.927-3.926-1.884-10.767-1.884s-8.834.957-10.764,1.884l-.212.1a25.416,25.416,0,0,0-4.214,3.162c1.667-2.851,3.859-6.4,4.911-7.36l.217-.2c1.778-1.635,3.616-3.326,10.063-3.326s8.289,1.691,10.067,3.326l.217.2C304.363,1275.078,306.524,1278.566,308.233,1281.487Zm-11.814,22.878a9.12,9.12,0,0,1-6.746.006c-.116-.047-.229-.1-.342-.148a11.3,11.3,0,0,0,.971-2.7.631.631,0,0,0-.488-.749,15.575,15.575,0,0,1-5.553-2.351,15.764,15.764,0,0,1-6.207-8.319.62.62,0,0,0-.409-.407c-.46-.256-2.436-1.489-2.189-3.616a1.154,1.154,0,0,1,.6-.987.386.386,0,0,1,.239-.029.631.631,0,0,0,1.064-.428c.018-.372.053-.741.1-1.108a34.093,34.093,0,0,1,5.156-4.059l.217-.1c1.8-.865,3.667-1.758,10.218-1.758s8.418.893,10.221,1.758l.217.1a33.831,33.831,0,0,1,5.156,4.062c.045.363.08.73.1,1.1a.631.631,0,0,0,1.034.448.332.332,0,0,1,.267.017,1.154,1.154,0,0,1,.6.987c.253,2.17-1.809,3.409-2.212,3.63a.637.637,0,0,0-.387.4,15.77,15.77,0,0,1-6.207,8.307,15.529,15.529,0,0,1-5.55,2.351.631.631,0,0,0-.488.749,11.174,11.174,0,0,0,.971,2.7C296.644,1304.271,296.532,1304.319,296.419,1304.365Z" transform="translate(-267.699 -1265.726)" fill="#606060"/>
  </g>
</svg>
