<svg xmlns="http://www.w3.org/2000/svg" width="58.354" height="70" viewBox="0 0 58.354 70">
  <g id="_30" data-name="30" transform="translate(-70.271 -81.034)">
    <path id="Path_1008" data-name="Path 1008" d="M125.108,113.9a5,5,0,0,1-1.384-1.009,5.771,5.771,0,0,1-1.133-1.586c-.429-.918-.7-1.644-.967-2.3a12.7,12.7,0,0,0-.637-1.42,5.8,5.8,0,0,0-1.681-1.927,15.369,15.369,0,0,0-3-1.634,29.5,29.5,0,0,0-4.747-1.532,24.3,24.3,0,0,0-5.369-.747,9.767,9.767,0,0,0-1.205.078,25.571,25.571,0,0,0-3.075-1.15,1.442,1.442,0,0,0-1.742.937c-.011.031-.034.052-.043.084a1.453,1.453,0,0,0,1.021,1.784,39.774,39.774,0,0,1,3.965,1.552,22.481,22.481,0,0,0,5.1,1.585c1.221.18,2.391.25,3.362.461a4.1,4.1,0,0,1,2.233,1.093,3.981,3.981,0,0,1,.626.817l.089.21a1.457,1.457,0,0,1-.466.254,5.939,5.939,0,0,1-1.258.3,20.963,20.963,0,0,1-2.941.18c-3.254,0-7.064-.5-10.3-.571-5.779-.127-10.773-2.71-15.476-6.339a146.162,146.162,0,0,1-11-9.99c-.795-.756-1.588-1.5-2.383-2.226a1.454,1.454,0,1,0-1.953,2.154c4.242,3.842,8.608,8.54,13.556,12.364,4.392,3.4,9.315,6.116,15.025,6.782-.115,1.156-.143,2.389-.143,3.672,0,5.693,3.624,10.443,8.449,11.561v17.149a2.18,2.18,0,0,0,4.361,0V127.336c4.825-1.118,8.449-5.867,8.449-11.561,0-.837-.011-1.654-.051-2.442a9.016,9.016,0,0,0,1.976,2.249,7.256,7.256,0,0,0,1.533.967,4.222,4.222,0,0,0,1.736.415,2.716,2.716,0,0,0,1.483-.417,2.678,2.678,0,0,0,1.032-1.282h0a6.979,6.979,0,0,0,.469-2.593,17.212,17.212,0,0,0-2.455-7.7c-1.295-2.394-2.785-4.558-3.6-5.921a13.075,13.075,0,0,0-3.748-4,24.326,24.326,0,0,0-7.156-3.207c-2.476-.737-4.942-1.289-7.058-1.98-5.715-1.847-11.385-2.148-16.777-3.476a5.93,5.93,0,0,1-2.993-1.77c-.862-.854-1.749-2.034-3.1-3.221a1.454,1.454,0,0,0-1.914,2.189c1.095.95,1.9,2.022,2.957,3.086a8.89,8.89,0,0,0,4.361,2.541c5.744,1.392,11.331,1.7,16.567,3.416,3.072.994,6.455,1.651,9.415,2.758a17.478,17.478,0,0,1,4.02,2.037,10.153,10.153,0,0,1,2.93,3.117c.9,1.506,2.334,3.584,3.535,5.813a14.628,14.628,0,0,1,2.107,6.32,4.153,4.153,0,0,1-.22,1.364A1.71,1.71,0,0,1,125.108,113.9Z" transform="translate(0 0)" fill="#606060"/>
    <path id="Path_1009" data-name="Path 1009" d="M213.655,511.6a1.454,1.454,0,0,0-1.343-.9H199.048a1.454,1.454,0,0,0,0,2.907H208.8l-2.152,2.152a1.454,1.454,0,0,0,1.028,2.482h16.445a1.458,1.458,0,0,0,1.127-.536l3.335-4.1H234.3a1.454,1.454,0,0,0,0-2.907h-6.405a1.458,1.458,0,0,0-1.127.536l-3.335,4.1H211.188l2.152-2.152A1.455,1.455,0,0,0,213.655,511.6Z" transform="translate(-108.815 -367.207)" fill="#606060"/>
  </g>
</svg>
