<svg xmlns="http://www.w3.org/2000/svg" width="79.864" height="52.661" viewBox="0 0 79.864 52.661">
  <g id="Group_1007" data-name="Group 1007" transform="translate(0 0)">
    <g id="Group_562" data-name="Group 562" transform="translate(48.142 0)">
      <path id="Path_728" data-name="Path 728" d="M695.248,1269.9a.238.238,0,0,0,.236.321h1.111a.449.449,0,0,0,.407-.321l.532-2a.4.4,0,0,1,.562-.269,1.774,1.774,0,0,0,.992.26,2.794,2.794,0,0,0,1.043-.2,3.5,3.5,0,0,0,.94-.562,3.87,3.87,0,0,0,.746-.834,3.436,3.436,0,0,0,.463-1.028,2.733,2.733,0,0,0,.088-1.037,1.91,1.91,0,0,0-.3-.844,1.741,1.741,0,0,0-.649-.567,2.035,2.035,0,0,0-.94-.208,2.441,2.441,0,0,0-1.72.708l.147-.552H697.47a.447.447,0,0,0-.406.322Zm2.944-4.643a1.351,1.351,0,0,1,.209-.441,1.847,1.847,0,0,1,.339-.364,1.561,1.561,0,0,1,.419-.242,1.267,1.267,0,0,1,.46-.087.94.94,0,0,1,.426.092.808.808,0,0,1,.3.247.769.769,0,0,1,.141.364,1.124,1.124,0,0,1-.035.441,1.291,1.291,0,0,1-.206.427,1.776,1.776,0,0,1-.339.358,1.524,1.524,0,0,1-.418.243,1.273,1.273,0,0,1-.461.087.906.906,0,0,1-.416-.092.833.833,0,0,1-.3-.242.779.779,0,0,1-.147-.354A1.028,1.028,0,0,1,698.191,1265.261Z" transform="translate(-695.236 -1259.696)" fill="#606060"/>
      <path id="Path_729" data-name="Path 729" d="M703.575,1267.651h1.112a.449.449,0,0,0,.407-.321l1.973-7.4a.239.239,0,0,0-.236-.322h-1.111a.448.448,0,0,0-.407.322l-1.974,7.4A.238.238,0,0,0,703.575,1267.651Z" transform="translate(-695.482 -1259.604)" fill="#606060"/>
      <path id="Path_730" data-name="Path 730" d="M707.463,1267.428a2.664,2.664,0,0,0,1.848.5,3.915,3.915,0,0,0,2.116-.5,2.459,2.459,0,0,0,1.069-1.513l.751-2.82a.239.239,0,0,0-.236-.322H711.9a.447.447,0,0,0-.406.322l-.662,2.48a1.093,1.093,0,0,1-1.138.921q-.891,0-.646-.921l.661-2.48a.239.239,0,0,0-.236-.322h-1.112a.449.449,0,0,0-.407.322l-.751,2.82A1.444,1.444,0,0,0,707.463,1267.428Z" transform="translate(-695.598 -1259.701)" fill="#606060"/>
      <path id="Path_731" data-name="Path 731" d="M715.417,1267.926a3.7,3.7,0,0,0,.995-.131,3.119,3.119,0,0,0,.846-.368,2.488,2.488,0,0,0,.641-.587,2.195,2.195,0,0,0,.383-.785,1.107,1.107,0,0,0-.1-.955,1.473,1.473,0,0,0-.947-.519c-.165-.039-.3-.071-.4-.1a.656.656,0,0,1-.219-.087.17.17,0,0,1-.081-.1.347.347,0,0,1,.014-.141.422.422,0,0,1,.22-.262.862.862,0,0,1,.419-.1,1.682,1.682,0,0,1,.882.252l.9-1.144a3.558,3.558,0,0,0-1.514-.32,3.5,3.5,0,0,0-.95.126,2.864,2.864,0,0,0-.8.359,2.327,2.327,0,0,0-.6.567,2.256,2.256,0,0,0-.355.751,1.022,1.022,0,0,0,.086.9,1.657,1.657,0,0,0,1.008.49c.152.033.275.063.368.092a.624.624,0,0,1,.2.1.18.18,0,0,1,.071.116.438.438,0,0,1-.019.16.443.443,0,0,1-.227.271.837.837,0,0,1-.426.107,1.939,1.939,0,0,1-1.261-.5l-.747.954a.293.293,0,0,0,.021.442A3.139,3.139,0,0,0,715.417,1267.926Z" transform="translate(-695.799 -1259.695)" fill="#606060"/>
    </g>
    <g id="Group_563" data-name="Group 563" transform="translate(0 12.765)">
      <path id="Path_732" data-name="Path 732" d="M723.626,1285.8l-5.306-8.445a9.808,9.808,0,0,0-8.3-4.586H685.3a15.477,15.477,0,0,0-11.051,4.64L667.2,1284.6l-16.822,3.894a6.193,6.193,0,0,0-4.795,6.034v6.605a2.581,2.581,0,0,0,2.58,2.58h8.943c-.012.177-.029.355-.029.534a8.418,8.418,0,0,0,16.837,0c0-.179-.017-.357-.029-.534h26.466c-.012.177-.029.355-.029.534a8.416,8.416,0,1,0,16.833,0c0-.179-.013-.357-.025-.534h5.738a2.581,2.581,0,0,0,2.58-2.58v-9.017A11.867,11.867,0,0,0,723.626,1285.8ZM665.5,1307.6a3.353,3.353,0,1,1,3.353-3.354A3.354,3.354,0,0,1,665.5,1307.6Zm21.286-21.163H671.624l5.8-5.917a11.1,11.1,0,0,1,7.878-3.307h1.479v9.224Zm17.294,0H690.672v-9.224h13.405Zm4.662,21.163a3.353,3.353,0,1,1,3.352-3.354A3.355,3.355,0,0,1,708.739,1307.6Zm-.771-21.163v-9.224h2.05a5.325,5.325,0,0,1,4.535,2.506l4.221,6.717Z" transform="translate(-645.583 -1272.77)" fill="#606060"/>
    </g>
  </g>
</svg>
