<svg id="Group_1006" data-name="Group 1006" xmlns="http://www.w3.org/2000/svg" width="180.038" height="180.037" viewBox="0 0 180.038 180.037">
  <path id="Path_725" data-name="Path 725" d="M583.981,1355.744c0-5.41-18.361-8.95-19.375-14.062-1.042-5.27,14.551-15.553,12.541-20.4-2.049-4.932-20.36-1.161-23.3-5.547-2.951-4.417,7.513-19.9,3.767-23.645s-19.231,6.718-23.649,3.764c-4.382-2.937-.611-21.251-5.543-23.3-4.849-2.01-15.13,13.584-20.4,12.542-5.111-1.014-8.652-19.375-14.062-19.375s-8.947,18.361-14.062,19.375c-5.27,1.042-15.55-14.551-20.4-12.542-4.932,2.049-1.157,20.359-5.546,23.3-4.414,2.951-19.9-7.513-23.645-3.768s6.722,19.232,3.764,23.649c-2.937,4.382-21.251.612-23.3,5.544-2.009,4.849,13.587,15.129,12.542,20.4-1.014,5.111-19.375,8.652-19.375,14.062s18.361,8.947,19.375,14.062c1.046,5.27-14.551,15.55-12.542,20.4,2.049,4.928,20.36,1.157,23.3,5.546,2.955,4.415-7.509,19.9-3.764,23.645s19.231-6.721,23.645-3.763c4.382,2.936.615,21.247,5.546,23.3,4.849,2.009,15.13-13.588,20.4-12.542,5.115,1.013,8.652,19.374,14.062,19.374s8.95-18.361,14.062-19.374c5.27-1.046,15.554,14.55,20.4,12.542,4.932-2.046,1.161-20.36,5.546-23.293,4.418-2.959,19.9,7.509,23.645,3.764s-6.718-19.235-3.764-23.65c2.937-4.381,21.247-.614,23.3-5.546,2.009-4.849-13.584-15.129-12.538-20.4C565.62,1364.69,583.981,1361.153,583.981,1355.744Zm-90.019,54.008a54.01,54.01,0,1,1,54.012-54.008A54.011,54.011,0,0,1,493.963,1409.752Z" transform="translate(-403.944 -1265.725)" fill="#fff"/>
</svg>
