<svg xmlns="http://www.w3.org/2000/svg" width="322.832" height="80" viewBox="0 0 322.832 80">
  <g id="Group_2524" data-name="Group 2524" transform="translate(-887.168)">
    <g id="Group_2517" data-name="Group 2517" transform="translate(1082.016)">
      <path id="Path_570" data-name="Path 570" d="M941.25,33.606H898.112l-41.215,80h43.143Z" transform="translate(-856.897 -33.606)" fill="#edc732"/>
      <path id="Path_571" data-name="Path 571" d="M940.13,33.606H916.009l-41.2,80h24.122Z" transform="translate(-821.743 -33.606)" fill="#cc6029"/>
    </g>
    <g id="Group_2518" data-name="Group 2518" transform="translate(13.133 -20)">
      <g id="Group_1426" data-name="Group 1426" transform="translate(874.035 42.856)">
        <path id="Path_1331" data-name="Path 1331" d="M151.151,171.793h4.888l-5.51,12.452h-5.152Z" transform="translate(-145.377 -171.793)" fill="#003385"/>
        <rect id="Rectangle_1128" data-name="Rectangle 1128" width="4.536" height="12.513" transform="translate(1.322 22.074)" fill="#003385"/>
        <rect id="Rectangle_1129" data-name="Rectangle 1129" width="4.531" height="12.513" transform="translate(13.719 22.074)" fill="#003385"/>
        <path id="Path_1332" data-name="Path 1332" d="M153.874,209.148h5.736V195.312s1.46.021,1.966,0a2.862,2.862,0,0,0,1.85-.825,3.281,3.281,0,0,0,1.093-2.21V179.885l-5.356,9.889h-1.149l5.975-12.982h-5.211l-6.8,13.278h-3.592v5.418h5.5Z" transform="translate(-146.919 -174.35)" fill="#003385"/>
        <path id="Path_1333" data-name="Path 1333" d="M183.51,174.167v7.592h5.652v-2.95h9.3v2.95h5.33v-7.592h-7.334v-2.373h-5.184v2.373Z" transform="translate(-164.879 -171.793)" fill="#003385"/>
        <rect id="Rectangle_1130" data-name="Rectangle 1130" width="20.512" height="3.871" transform="translate(18.732 11.068)" fill="#003385"/>
        <path id="Path_1334" data-name="Path 1334" d="M185.4,216.792H189.5v7.794a5.281,5.281,0,0,1-1.391,3.07,4.673,4.673,0,0,1-2.6,1.571,13.167,13.167,0,0,1-1.414.085v-4.5a.9.9,0,0,0,.89-.575,3.843,3.843,0,0,0,.385-1.445C185.4,222.395,185.4,216.792,185.4,216.792Z" transform="translate(-165.176 -194.809)" fill="#003385"/>
        <path id="Path_1335" data-name="Path 1335" d="M203.922,205.786h-20.2v4.1h7.434c.026,1.653.12,7.545.1,7.889a3.3,3.3,0,0,1-.286,1.621c-.238.438-.958.4-.958.4v4.192s2.231.081,2.912-.006a3.885,3.885,0,0,0,2.583-1.269,5.308,5.308,0,0,0,1.134-3.352v-9.471h7.29Z" transform="translate(-164.986 -189.18)" fill="#003385"/>
        <path id="Path_1336" data-name="Path 1336" d="M217.962,216.792h-4.1v7.481a5.772,5.772,0,0,0,1.461,3.2,5.2,5.2,0,0,0,2.531,1.756,14.761,14.761,0,0,0,1.534.085v-4.5a1.036,1.036,0,0,1-1.011-.575A3.9,3.9,0,0,1,218,222.79C217.962,222.395,217.962,216.792,217.962,216.792Z" transform="translate(-180.404 -194.809)" fill="#003385"/>
      </g>
      <g id="Group_1427" data-name="Group 1427" transform="translate(923.331 42.073)">
        <path id="Path_1337" data-name="Path 1337" d="M230.937,174.677V180.1s7.119.207,8.825-.054a18.754,18.754,0,0,0,5.626-1.8,33.092,33.092,0,0,0,4.017-3.2s2.942,3.148,5.061,3.87a11.608,11.608,0,0,0,4.85.98h8.569v-5.312s-5.626.047-7.428-.049-5.526-1.4-6.657-2.74a10.867,10.867,0,0,1-1.242-1.6h-6.452a12.306,12.306,0,0,1-1.909,2.315,9.95,9.95,0,0,1-4.434,2.021C238.414,174.677,230.937,174.677,230.937,174.677Z" transform="translate(-230.937 -170.191)" fill="#003385"/>
        <rect id="Rectangle_1131" data-name="Rectangle 1131" width="35.863" height="4.951" transform="translate(0.409 11.969)" fill="#003385"/>
        <path id="Path_1338" data-name="Path 1338" d="M267.7,222.486a46.6,46.6,0,0,1-18.579,3.964c-10.475,0-17.026-3.964-17.026-3.964V209.272H267.7Zm-5.831-8.117H238.056v4.912A40.28,40.28,0,0,0,249.8,221.4a33.12,33.12,0,0,0,12.074-2.117Z" transform="translate(-231.531 -190.18)" fill="#003385"/>
      </g>
      <path id="Path_1339" data-name="Path 1339" d="M345.895,172.923V202.9a53.4,53.4,0,0,1-16.88,3.253c-8.516,0-17.392-3.253-17.392-3.253V172.923h13.394l.991-2.732h7.086l-.99,2.732Zm-5.734,5.11H317.926v3.662h22.235Zm.215,8.929h-22.5v3.714h22.5Zm-.365,8.925H318.075v3.3a33.419,33.419,0,0,0,11.044,2.065,31.938,31.938,0,0,0,10.892-2.065Z" transform="translate(658.609 -128.118)" fill="#003385"/>
      <g id="Group_1428" data-name="Group 1428" transform="translate(1014.726 42.015)">
        <path id="Path_1340" data-name="Path 1340" d="M401.025,193.344v1.768h5.863v3.442h-5.863V200.5c.5-.1.975-.189,1.378-.269a20.436,20.436,0,0,0,4.485-1.549v4.139s-4.617,1.376-6.9,1.764a63.245,63.245,0,0,1-6.983.912c-1.378.053-4.4-.217-4.4-.217V201.4s2.716.085,5.3.085c.48,0,1-.027,1.552-.081v-2.852h-6.856v-3.442h6.856v-1.768h-4.354a2.477,2.477,0,0,1-2.477-2.481v-9.242h6.831v-1.509h-6.943V176.28h6.943v-1.523l-6.856.276v-3.794l18.271-1.166V174.3l-5.859.238v1.745h5.819v3.832h-5.819v1.509h5.992v9.242a2.479,2.479,0,0,1-2.483,2.481Zm-5.823-8.659h-1.845v1.761H395.2Zm7.718,0h-1.852v1.761h1.852Zm-7.718,4.307h-1.845v1.766H395.2Zm7.718,0h-1.852v1.766h1.852Z" transform="translate(-388.526 -170.073)" fill="#003385"/>
        <path id="Path_1341" data-name="Path 1341" d="M447.164,176.532H436.378c-.037-3.37-.068-5.841-.068-5.841h-5.348s.011,2.5.018,5.841H428.4v5.282h2.582c.007,5.063.007,10.2-.022,11.479a12.948,12.948,0,0,1-.58,4.641,3.435,3.435,0,0,1-1.392,1.683,1.587,1.587,0,0,1-.75.3v5.811a7.227,7.227,0,0,0,4.642-2.268,19.118,19.118,0,0,0,3.484-8.54c.12-1.2.1-7.32.066-13.1h5.244v17.617a1.284,1.284,0,0,1-.524,1.118,2.012,2.012,0,0,1-1.164.434c-.574.021-1.87-.017-1.87-.017v4.624s3.293.011,4.7-.047a4.728,4.728,0,0,0,3.047-1.622,6.336,6.336,0,0,0,1.3-3C447.239,199.873,447.164,176.532,447.164,176.532Z" transform="translate(-408.836 -170.389)" fill="#003385"/>
      </g>
      <path id="Path_1342" data-name="Path 1342" d="M495.311,178.015v1.856h12.721v12.877a3.094,3.094,0,0,1-3.1,3.094h-9.621v1.749h14.865v4.647H495.311v3.076h-6.569v-3.076H473.519v-4.647h15.223v-1.749H478.359a3.092,3.092,0,0,1-3.095-3.094V179.871h13.478v-1.856H473.519v-4.651h15.223v-2.672h6.569v2.672h14.865v4.651Zm-6.219,5.8h-7.608v1.8h7.608Zm0,5.638h-7.608v2.2h7.608Zm13.822-5.638h-7.6v1.8h7.6Zm0,5.638h-7.6v2.2h7.6Z" transform="translate(589.811 -128.374)" fill="#003385"/>
      <g id="Group_1429" data-name="Group 1429" transform="translate(1110.257 42.455)">
        <path id="Path_1343" data-name="Path 1343" d="M586.384,174.712l2.1-3.739h-7.056l-2.154,3.813-5.162.057-1.422-3.87h-5.5l1.448,3.926-2.659.028-1.462-3.954h-5.492l1.48,4.015-6.363.071v10.418h6.066v-5.99h26.371v5.99h6.1V174.639Z" transform="translate(-554.147 -170.973)" fill="#003385"/>
        <path id="Path_1344" data-name="Path 1344" d="M592.578,201.592h-14.92v-.84s1.833-.687,3.321-1.338a6.165,6.165,0,0,0,3.131-3.625,16,16,0,0,0,.34-4.582H562.432v4.8H576.67s-.194.31-.308.5a4.136,4.136,0,0,1-1.946.919,26.852,26.852,0,0,1-2.979.149v4.015H554.459v4.992h16.977v2.408c0,1.111-.036,1.489-.606,1.872s-3.93.261-3.93.261v4.624s4.623,0,5.687-.033a4.8,4.8,0,0,0,3.05-1.229,5.867,5.867,0,0,0,2.021-3.474v-4.43h14.92Z" transform="translate(-554.307 -181.323)" fill="#003385"/>
      </g>
      <g id="Group_1430" data-name="Group 1430" transform="translate(1159.008 42.261)">
        <path id="Path_1345" data-name="Path 1345" d="M650.461,182.418c-.453-.855-.9-1.874-1.141-2.432v-.221h3.528v-5.1H649.32v-3.949h-5.884v3.949h-5.025v5.1h5.025v2.023c-.1.48-.213,1.025-.339,1.5a15.147,15.147,0,0,1-1.693,3.564,12.42,12.42,0,0,1-2.652,3.14v7.718l4.685-3.905v11.673h5.884V189.957a13.992,13.992,0,0,0,1.381,1.663,13.065,13.065,0,0,0,2.332,1.652v-7.855A15.985,15.985,0,0,1,650.461,182.418Z" transform="translate(-638.412 -170.648)" fill="#003385"/>
        <path id="Path_1346" data-name="Path 1346" d="M692.242,200.32v5.222s-3.087-.082-3.816-.114a24.325,24.325,0,0,1-3.793-.66,34.6,34.6,0,0,1-3.365-1.2s-1.814.815-2.468,1.006a27.9,27.9,0,0,1-4.252.968c-1.318.115-4.443.035-4.443.035v-5.563s2.666.232,3.321.273a9.791,9.791,0,0,0,2.242-.273,2.2,2.2,0,0,0,.927-.766s-.234-.352-.77-1.047a25.943,25.943,0,0,1-2.016-4.8,24.736,24.736,0,0,1-.843-5.211s-1.045.231-1.7.308a10.214,10.214,0,0,1-1.625,0v-5.251a16.837,16.837,0,0,0,2.166-.274,7.429,7.429,0,0,0,2.817-1.583,2.921,2.921,0,0,0,.847-1.768h-5.436v-5.1h8.614v-3.951h5.443v3.951h8.062v5.1h-5.089c.051.244.119.5.2.762a3.942,3.942,0,0,0,1.93,1.962,14.81,14.81,0,0,0,2.788.932l.037,4.99-2.861-.235a12.88,12.88,0,0,1-.073,2.241,30.254,30.254,0,0,1-.708,4.412,17.427,17.427,0,0,1-2.543,4.592.969.969,0,0,0,.233.307,15.718,15.718,0,0,0,2.9.813A26.514,26.514,0,0,0,692.242,200.32ZM680.134,183c-.2.293-1.2,1.389-1.2,1.389s-.174,1.3-.22,2.3a29.452,29.452,0,0,0,.409,5.046,12.231,12.231,0,0,0,2.147,4.444s2.042-1.135,2.4-5.476a62.3,62.3,0,0,0-.2-6.6l-2.178-3.5S680.33,182.7,680.134,183Z" transform="translate(-654.383 -170.576)" fill="#003385"/>
      </g>
    </g>
  </g>
</svg>
