<svg xmlns="http://www.w3.org/2000/svg" width="569.998" height="161.873" viewBox="0 0 569.998 161.873">
  <g id="Group_2524" data-name="Group 2524" transform="translate(-90.002 -19715.385)">
    <g id="Group_1440" data-name="Group 1440" transform="translate(90.002 19813.115)">
      <g id="Group_1426" data-name="Group 1426" transform="translate(0 1.496)">
        <path id="Path_1331" data-name="Path 1331" d="M155.652,171.793h8.7l-9.8,22.158h-9.168Z" transform="translate(-145.377 -171.793)" fill="#003385"/>
        <rect id="Rectangle_1128" data-name="Rectangle 1128" width="8.071" height="22.265" transform="translate(2.353 38.778)" fill="#003385"/>
        <rect id="Rectangle_1129" data-name="Rectangle 1129" width="8.062" height="22.265" transform="translate(24.412 38.778)" fill="#003385"/>
        <path id="Path_1332" data-name="Path 1332" d="M158.147,233.864h10.207v-24.4s2.6.037,3.5,0A5.114,5.114,0,0,0,175.144,208a5.77,5.77,0,0,0,1.946-3.9V182.248l-9.53,17.444h-2.044l10.632-22.9h-9.272l-12.092,23.422h-6.391v9.557h9.787Z" transform="translate(-145.771 -172.446)" fill="#003385"/>
        <path id="Path_1333" data-name="Path 1333" d="M183.51,176.016v13.509h10.058v-5.249h16.557v5.249h9.484V176.016H206.557v-4.223h-9.225v4.223Z" transform="translate(-150.358 -171.793)" fill="#003385"/>
        <rect id="Rectangle_1130" data-name="Rectangle 1130" width="36.5" height="6.889" transform="translate(33.333 19.515)" fill="#003385"/>
        <path id="Path_1334" data-name="Path 1334" d="M186.423,216.792h7.285V230.66a9.4,9.4,0,0,1-2.476,5.462,8.314,8.314,0,0,1-4.627,2.8,23.425,23.425,0,0,1-2.516.152v-8.012a1.6,1.6,0,0,0,1.583-1.022,6.839,6.839,0,0,0,.685-2.572C186.423,226.762,186.423,216.792,186.423,216.792Z" transform="translate(-150.433 -178.176)" fill="#003385"/>
        <path id="Path_1335" data-name="Path 1335" d="M219.671,205.786H183.718v7.294h13.228c.046,2.942.214,13.425.17,14.038a5.874,5.874,0,0,1-.509,2.884c-.424.78-1.7.7-1.7.7v7.46s3.97.143,5.182-.01a6.912,6.912,0,0,0,4.6-2.258c1.736-1.826,2.019-4.873,2.019-5.964V213.08h12.972Z" transform="translate(-150.385 -176.739)" fill="#003385"/>
        <path id="Path_1336" data-name="Path 1336" d="M221.156,216.792h-7.291V230.1a10.27,10.27,0,0,0,2.6,5.69c1.735,1.816,3.292,2.972,4.5,3.125a26.263,26.263,0,0,0,2.73.152v-8.012a1.844,1.844,0,0,1-1.8-1.022,6.941,6.941,0,0,1-.678-2.572C221.156,226.762,221.156,216.792,221.156,216.792Z" transform="translate(-154.322 -178.176)" fill="#003385"/>
      </g>
      <g id="Group_1427" data-name="Group 1427" transform="translate(86.95 0.103)">
        <path id="Path_1337" data-name="Path 1337" d="M230.937,178.173v9.643s12.668.368,15.7-.1a33.373,33.373,0,0,0,10.011-3.209,58.886,58.886,0,0,0,7.147-5.7s5.236,5.6,9.005,6.886,4.878,1.744,8.63,1.744h15.247v-9.452s-10.011.084-13.217-.087c-3.228-.191-9.834-2.484-11.846-4.876a19.329,19.329,0,0,1-2.21-2.841h-11.48a21.9,21.9,0,0,1-3.4,4.12,17.707,17.707,0,0,1-7.891,3.6C244.242,178.173,230.937,178.173,230.937,178.173Z" transform="translate(-230.937 -170.191)" fill="#003385"/>
        <rect id="Rectangle_1131" data-name="Rectangle 1131" width="63.817" height="8.81" transform="translate(0.728 21.107)" fill="#003385"/>
        <path id="Path_1338" data-name="Path 1338" d="M295.456,232.785A82.919,82.919,0,0,1,262.4,239.84c-18.639,0-30.3-7.054-30.3-7.054V209.272h63.358Zm-10.375-14.444H242.7v8.741a71.677,71.677,0,0,0,20.9,3.766,58.935,58.935,0,0,0,21.485-3.766Z" transform="translate(-231.089 -175.801)" fill="#003385"/>
      </g>
      <path id="Path_1339" data-name="Path 1339" d="M372.608,175.014v52.931s-14.886,5.743-30.036,5.743-30.949-5.743-30.949-5.743V175.014h23.834l1.763-4.823h12.609l-1.762,4.823Zm-10.2,9.022H322.838V190.5H362.4Zm.383,15.764H322.743v6.558h40.043Zm-.649,15.757H323.1v5.832a59.873,59.873,0,0,0,19.652,3.646,57.215,57.215,0,0,0,19.382-3.646Z" transform="translate(-141.933 -170.088)" fill="#003385"/>
      <g id="Group_1428" data-name="Group 1428" transform="translate(248.145 0)">
        <path id="Path_1340" data-name="Path 1340" d="M410.768,211.153v3.121H421.2v6.076H410.768v3.438c.891-.174,1.735-.334,2.452-.474a36.56,36.56,0,0,0,7.981-2.735v7.306s-8.216,2.429-12.271,3.114a113.4,113.4,0,0,1-12.425,1.609c-2.453.093-7.825-.384-7.825-.384v-6.848s4.833.151,9.439.151c.854,0,1.782-.047,2.761-.142v-5.034h-12.2v-6.076h12.2v-3.121h-7.747a4.391,4.391,0,0,1-4.408-4.379V190.458h12.155v-2.663H388.526V181.03h12.355v-2.689l-12.2.487v-6.7l32.513-2.058v7.456l-10.426.421v3.08h10.354v6.765H410.768v2.663H421.43v16.315a4.394,4.394,0,0,1-4.419,4.379Zm-10.361-15.285h-3.283v3.108h3.283Zm13.734,0h-3.3v3.108h3.3Zm-13.734,7.6h-3.283v3.118h3.283Zm13.734,0h-3.3v3.118h3.3Z" transform="translate(-388.526 -170.073)" fill="#003385"/>
        <path id="Path_1341" data-name="Path 1341" d="M461.915,181H442.722c-.066-5.948-.122-10.309-.122-10.309h-9.516s.019,4.408.031,10.309H428.53v9.324h4.594c.013,8.937.013,18.013-.04,20.263-.09,4.713-.405,6.661-1.033,8.191a6.077,6.077,0,0,1-2.478,2.97,2.839,2.839,0,0,1-1.335.524V232.53s5.156-.313,8.261-4,5.785-10.868,6.2-15.074c.214-2.118.182-12.921.117-23.129h9.332v31.1a2.258,2.258,0,0,1-.932,1.973,3.6,3.6,0,0,1-2.072.766c-1.021.037-3.328-.03-3.328-.03v8.161s5.86.02,8.363-.084a8.431,8.431,0,0,0,5.422-2.864,11.138,11.138,0,0,0,2.314-5.3C462.049,222.2,461.915,181,461.915,181Z" transform="translate(-393.713 -170.154)" fill="#003385"/>
      </g>
      <path id="Path_1342" data-name="Path 1342" d="M512.3,183.617v3.276h22.635V209.62a5.483,5.483,0,0,1-5.516,5.461H512.3v3.086h26.452v8.2H512.3v5.43H500.608v-5.43H473.519v-8.2h27.089v-3.086H482.132a5.48,5.48,0,0,1-5.507-5.461V186.893h23.983v-3.276H473.519v-8.21h27.089v-4.717H512.3v4.717h26.452v8.21Zm-11.066,10.244H487.693v3.185h13.538Zm0,9.95H487.693V207.7h13.538Zm24.6-9.95H512.3v3.185h13.529Zm0,9.95H512.3V207.7h13.529Z" transform="translate(-139.631 -170.154)" fill="#003385"/>
      <g id="Group_1429" data-name="Group 1429" transform="translate(415.88 0.783)">
        <path id="Path_1343" data-name="Path 1343" d="M611.511,177.627l3.74-6.654H602.7l-3.832,6.785-9.185.1-2.53-6.886h-9.784l2.577,6.987-4.732.05-2.6-7.037h-9.772l2.633,7.145-11.323.126v18.539h10.794V186.125h46.926v10.658h10.859V177.5Z" transform="translate(-554.147 -170.973)" fill="#003385"/>
        <path id="Path_1344" data-name="Path 1344" d="M622.289,209.687H595.741v-1.5s3.262-1.222,5.909-2.381a10.971,10.971,0,0,0,5.571-6.45c.94-2.724.605-8.153.605-8.153H568.646v8.55h25.336s-.345.552-.548.885a7.36,7.36,0,0,1-3.464,1.635,47.771,47.771,0,0,1-5.3.265v7.145h-30.21v8.883h30.21v4.285c0,1.977-.063,2.649-1.078,3.332s-6.993.465-6.993.465v8.228s8.226,0,10.12-.058a8.545,8.545,0,0,0,5.427-2.187c2.122-1.712,3.6-4.838,3.6-6.181v-7.883h26.549Z" transform="translate(-554.188 -174.121)" fill="#003385"/>
      </g>
      <g id="Group_1430" data-name="Group 1430" transform="translate(502.63 0.437)">
        <path id="Path_1345" data-name="Path 1345" d="M659.853,191.37c-.806-1.51-1.6-3.308-2.03-4.292v-.39H664.1v-9h-6.279v-6.97H647.353v6.97h-8.942v9h8.942v3.571c-.18.848-.38,1.81-.6,2.649-.549,2.107-1.322,3.183-3.013,6.29a21.982,21.982,0,0,1-4.72,5.543v13.622l8.337-6.893v20.6h10.469v-27.4a24.753,24.753,0,0,0,2.458,2.934,23.254,23.254,0,0,0,4.149,2.916V196.662S661.016,193.542,659.853,191.37Z" transform="translate(-638.412 -170.594)" fill="#003385"/>
        <path id="Path_1346" data-name="Path 1346" d="M709.859,223.077v9.217s-5.494-.145-6.791-.2a43.6,43.6,0,0,1-6.749-1.164,61.911,61.911,0,0,1-5.989-2.119s-3.227,1.439-4.392,1.776a49.984,49.984,0,0,1-7.566,1.708c-2.345.2-7.906.062-7.906.062v-9.82s4.744.41,5.91.481a17.554,17.554,0,0,0,3.989-.481,3.9,3.9,0,0,0,1.649-1.352s-.417-.622-1.37-1.849-2.41-5.178-3.588-8.465c-1.161-3.267-1.5-9.2-1.5-9.2s-1.859.408-3.025.543a18.319,18.319,0,0,1-2.891,0v-9.269a30.2,30.2,0,0,0,3.854-.483,13.254,13.254,0,0,0,5.013-2.794,5.14,5.14,0,0,0,1.507-3.12h-9.674v-9h15.327v-6.975h9.685v6.975H709.7v9h-9.056c.09.431.211.887.35,1.345.482,1.566,2.073,2.677,3.435,3.464A26.5,26.5,0,0,0,709.391,193l.065,8.808-5.091-.414a22.528,22.528,0,0,1-.13,3.956,53.059,53.059,0,0,1-1.26,7.788c-.806,3.244-4.524,8.105-4.524,8.105a1.711,1.711,0,0,0,.414.542,28.147,28.147,0,0,0,5.156,1.435A47.561,47.561,0,0,0,709.859,223.077Zm-21.546-30.565c-.353.517-2.14,2.453-2.14,2.453s-.309,2.3-.391,4.059a51.572,51.572,0,0,0,.728,8.907c.559,3.624,3.821,7.844,3.821,7.844s3.634-2,4.274-9.666a109.045,109.045,0,0,0-.353-11.645l-3.875-6.181S688.662,191.982,688.313,192.512Z" transform="translate(-642.491 -170.576)" fill="#003385"/>
      </g>
    </g>
    <g id="Group_2148" data-name="Group 2148" transform="translate(197 19715.385)">
      <g id="Group_2147" data-name="Group 2147" transform="translate(109.148 0)">
        <path id="Path_551" data-name="Path 551" d="M933.063,62.84a14.87,14.87,0,0,1-7.27,9.6q-5.537,3.1-13.931,3.085a51.2,51.2,0,0,1-7.968-.522,23.767,23.767,0,0,1-5.1-1.328l1.855-6.971a16.1,16.1,0,0,0,4.822,1.724,30.126,30.126,0,0,0,6.871.8q4.888.008,7.055-1.188a6.06,6.06,0,0,0,2.9-3.98,3.62,3.62,0,0,0-.485-3.143c-.635-.931-2.826-2.157-6.562-3.7a13.736,13.736,0,0,1-6.415-4.691q-1.96-2.849-.637-7.8,1.247-4.695,6.488-7.957a24.108,24.108,0,0,1,12.948-3.232,33.239,33.239,0,0,1,6.577.58,28.031,28.031,0,0,1,3.925.992l-1.629,6.168c-1.6-.375-3.188-.7-4.775-1a29.155,29.155,0,0,0-5.213-.443,12.694,12.694,0,0,0-6.074,1.149,4.812,4.812,0,0,0-2.532,2.87,3.331,3.331,0,0,0,.462,3.274q1.016,1.114,6.9,3.274c3.644,1.356,6.042,3.07,7.192,5.119A9.458,9.458,0,0,1,933.063,62.84Z" transform="translate(-898.017 -33.537)"/>
        <path id="Path_552" data-name="Path 552" d="M936.75,66.548a8.879,8.879,0,0,1-7.118,3.384c-3.495-.005-5.439-1.055-5.848-3.148s.144-5.95,1.642-11.568l.273-1.034q2.232-8.367,4.7-11.625t7.378-3.245q5.329.012,5.756,3.678T941.966,54.2l-.3,1.126Q939.581,63.166,936.75,66.548Zm15.456-12.874q2.314-8.7-.722-14.4t-11.906-5.714a21.872,21.872,0,0,0-15.269,5.586,29.117,29.117,0,0,0-8.561,14.485l-.614,2.325q-2.542,9.536,1.141,14.629t11.819,5.106a22.7,22.7,0,0,0,14.59-5.069q6.367-5.085,8.939-14.734Z" transform="translate(-873.175 -33.508)"/>
        <path id="Path_553" data-name="Path 553" d="M960.6,74.73l-10.027-.013,4.683-17.61-11.313-.018L939.25,74.7l-10.025-.008,10.891-40.915,10.027.013-4.528,17,11.323.016,4.523-17,10.032.008Z" transform="translate(-848.61 -33.151)"/>
        <path id="Path_554" data-name="Path 554" d="M978.4,68.918a22.055,22.055,0,0,1-7.307,4.9,27.149,27.149,0,0,1-10.783,1.913q-8.757-.012-12.389-5.15t-1.015-15l.593-2.206A26.242,26.242,0,0,1,973.789,33.6a24.672,24.672,0,0,1,6.142.645,14.658,14.658,0,0,1,3.443,1.259l-1.753,6.575a36.856,36.856,0,0,0-3.458-1.417,15.214,15.214,0,0,0-5.124-.761,14.6,14.6,0,0,0-9.505,3.377q-4.14,3.377-6.231,11.219l-.15.554q-2.165,8.17-.491,11.3Q958.346,69.5,962.8,69.5a13.306,13.306,0,0,0,4.628-.782,7.527,7.527,0,0,0,3.1-1.776l2.246-8.406-6.779-.008,1.445-5.42,15.172.016Z" transform="translate(-821.677 -33.437)"/>
        <path id="Path_555" data-name="Path 555" d="M984,66.614a8.873,8.873,0,0,1-7.125,3.379c-3.49-.005-5.428-1.055-5.843-3.148s.147-5.948,1.64-11.568l.275-1.031q2.232-8.371,4.707-11.617,2.459-3.262,7.375-3.256c3.547,0,5.465,1.233,5.756,3.684s-.234,6.181-1.576,11.211l-.3,1.123Q986.825,63.225,984,66.614ZM999.45,53.737q2.326-8.713-.716-14.406-3.05-5.71-11.906-5.712a21.866,21.866,0,0,0-15.27,5.583A29.092,29.092,0,0,0,963,53.69l-.62,2.325q-2.534,9.532,1.144,14.627t11.817,5.111a22.65,22.65,0,0,0,14.59-5.071q6.372-5.089,8.939-14.737Z" transform="translate(-796.455 -33.405)"/>
        <path id="Path_556" data-name="Path 556" d="M1007.848,74.794l-10.028-.013,4.691-17.612-11.318-.018L986.5,74.768l-10.028-.016,10.883-40.915,10.036.013-4.531,17,11.321.016,4.528-17.006,10.03.018Z" transform="translate(-771.89 -33.049)"/>
        <path id="Path_557" data-name="Path 557" d="M909.248,68.161a4.342,4.342,0,0,1-3.293,1.388h-2.13l3.2-13.921h1.737a2.807,2.807,0,0,1,2.794,1.713c.525,1.157.53,2.81.037,4.982l-.131.546Q910.558,66.781,909.248,68.161Zm7.044-5.964q1.016-4.443-.394-7c-.934-1.708-2.959-2.566-6.053-2.558l-6.771.005L898.5,72.542l7.556-.01a9.048,9.048,0,0,0,6.407-2.343,13.755,13.755,0,0,0,3.644-7.184Z" transform="translate(-898.499 -2.519)"/>
        <path id="Path_558" data-name="Path 558" d="M917.12,60.146a4.4,4.4,0,0,1-2.5.593h-1.27l1.225-5.292h1.516a2.848,2.848,0,0,1,1.981.551,1.86,1.86,0,0,1,.283,1.844l-.124.554A2.765,2.765,0,0,1,917.12,60.146Zm3.508,4.9a4.252,4.252,0,0,0-2.946-3.117,6.363,6.363,0,0,0,3.508-1.209A4.669,4.669,0,0,0,922.9,58l.249-1.086a3.485,3.485,0,0,0-.535-3.046q-.96-1.236-3.919-1.228l-8.115.005L906,72.532h4.641l2.062-8.949,1.091-.005a2.245,2.245,0,0,1,2.361,2.067q.413,2.062-.633,6.879h4.61C920.909,69.137,921.079,66.647,920.628,65.044Z" transform="translate(-886.314 -2.526)"/>
        <path id="Path_559" data-name="Path 559" d="M917.9,72.528h-4.641l4.573-19.9h4.641Z" transform="translate(-874.543 -2.539)"/>
        <path id="Path_560" data-name="Path 560" d="M935.793,52.624l-11.55,19.895-3.878,0-2.227-19.884,5.014-.005,1.272,13.743,7.559-13.75Z" transform="translate(-866.61 -2.547)"/>
        <path id="Path_561" data-name="Path 561" d="M929.141,72.506l-4.638,0,4.57-19.884h4.639Z" transform="translate(-856.276 -2.547)"/>
        <path id="Path_562" data-name="Path 562" d="M944.035,72.509h-2.009L934.611,60.02l-2.873,12.5h-3.319l4.57-19.892h2.5l7.1,11.738,2.7-11.746,3.325,0Z" transform="translate(-849.921 -2.564)"/>
        <path id="Path_563" data-name="Path 563" d="M951.764,69.686a9.884,9.884,0,0,1-3.34,2.406,11.952,11.952,0,0,1-4.98.942c-2.71,0-4.647-.829-5.811-2.5s-1.375-4.106-.64-7.3l.247-1.084a12.549,12.549,0,0,1,4.164-6.953,11.706,11.706,0,0,1,7.808-2.7,11.018,11.018,0,0,1,2.854.3,7.214,7.214,0,0,1,1.619.606l-.75,3.222a16.33,16.33,0,0,0-1.619-.682,6.918,6.918,0,0,0-2.393-.362,6.433,6.433,0,0,0-4.368,1.642,10.016,10.016,0,0,0-2.76,5.46l-.063.27c-.614,2.658-.648,4.486-.1,5.5a3,3,0,0,0,2.889,1.524,5.978,5.978,0,0,0,2.143-.378,3.4,3.4,0,0,0,1.425-.868l.939-4.077-3.153.008.611-2.647,7.044-.008Z" transform="translate(-836.692 -2.76)"/>
        <path id="Path_564" data-name="Path 564" d="M962.849,66.752a6.984,6.984,0,0,1-3.251,4.681,12.4,12.4,0,0,1-6.425,1.516,22.859,22.859,0,0,1-3.7-.244,11.326,11.326,0,0,1-2.382-.624l.784-3.426a7.151,7.151,0,0,0,2.248.861,13.363,13.363,0,0,0,3.185.391,6.671,6.671,0,0,0,3.251-.593,2.9,2.9,0,0,0,1.307-1.947,1.912,1.912,0,0,0-.257-1.553,8.228,8.228,0,0,0-3.083-1.781,6.5,6.5,0,0,1-3.02-2.283,4.709,4.709,0,0,1-.383-3.8,6.331,6.331,0,0,1,2.915-3.878,10.6,10.6,0,0,1,5.969-1.585,15.351,15.351,0,0,1,3.069.26,11.06,11.06,0,0,1,1.834.478l-.692,3.02c-.74-.2-1.483-.359-2.222-.5a12.94,12.94,0,0,0-2.422-.207,5.588,5.588,0,0,0-2.81.567,2.224,2.224,0,0,0-1.136,1.4,1.727,1.727,0,0,0,.239,1.6,10.953,10.953,0,0,0,3.232,1.6,6.166,6.166,0,0,1,3.392,2.471A4.911,4.911,0,0,1,962.849,66.752Z" transform="translate(-819.599 -2.774)"/>
        <path id="Path_565" data-name="Path 565" d="M966.817,72.132a7.748,7.748,0,0,1-1.874.593,14.127,14.127,0,0,1-2.97.289c-2.779.01-4.851-.829-6.215-2.482s-1.687-4.1-.95-7.323l.189-.795a12.758,12.758,0,0,1,4.324-7.215,11.236,11.236,0,0,1,7.323-2.721,17.29,17.29,0,0,1,2.847.194,5.494,5.494,0,0,1,1.682.514l-.708,3.088a5.148,5.148,0,0,0-1.469-.522,10.234,10.234,0,0,0-2.306-.228,5.886,5.886,0,0,0-4.357,1.91,10.751,10.751,0,0,0-2.618,5.239l-.063.278q-.834,3.585.089,5.3a3.349,3.349,0,0,0,3.208,1.708,10.835,10.835,0,0,0,2.7-.3c.774-.2,1.393-.38,1.865-.554Z" transform="translate(-807.704 -2.784)"/>
        <path id="Path_566" data-name="Path 566" d="M975.253,72.477l-4.633.005,1.965-8.571-5.25.005-1.97,8.574h-4.644l4.573-19.895,4.639-.005-1.894,8.275,5.244-.005,1.9-8.27,4.647,0Z" transform="translate(-797.473 -2.608)"/>
        <path id="Path_567" data-name="Path 567" d="M979.894,68.543a3.95,3.95,0,0,1-3.264,1.642c-1.624.008-2.539-.509-2.752-1.527s-.005-2.9.625-5.63l.113-.5a17.611,17.611,0,0,1,2.044-5.667,3.855,3.855,0,0,1,3.39-1.582c1.656,0,2.563.588,2.726,1.781a16.915,16.915,0,0,1-.606,5.462l-.121.551A14.668,14.668,0,0,1,979.894,68.543Zm7.018-6.286q.972-4.262-.493-7.023-1.488-2.771-5.593-2.768A9.676,9.676,0,0,0,973.8,55.2a14.02,14.02,0,0,0-3.8,7.065l-.259,1.136q-1.067,4.656.7,7.128a6.354,6.354,0,0,0,5.536,2.471,10.027,10.027,0,0,0,6.712-2.485,12.906,12.906,0,0,0,3.972-7.2Z" transform="translate(-783.482 -2.805)"/>
        <path id="Path_568" data-name="Path 568" d="M988.279,68.53a3.95,3.95,0,0,1-3.263,1.656q-2.44,0-2.752-1.532c-.213-1.018,0-2.9.622-5.63l.121-.5a17.457,17.457,0,0,1,2.039-5.662,3.874,3.874,0,0,1,3.4-1.6c1.645,0,2.553.6,2.723,1.787a16.863,16.863,0,0,1-.606,5.46l-.131.548A14.546,14.546,0,0,1,988.279,68.53Zm7.016-6.281q.98-4.258-.493-7.023c-.992-1.847-2.847-2.768-5.591-2.768a9.7,9.7,0,0,0-7.021,2.739,13.951,13.951,0,0,0-3.807,7.071l-.26,1.131q-1.066,4.652.706,7.126c1.178,1.653,3.025,2.469,5.541,2.469a9.983,9.983,0,0,0,6.7-2.479,12.994,12.994,0,0,0,3.991-7.194Z" transform="translate(-769.872 -2.816)"/>
        <path id="Path_569" data-name="Path 569" d="M998.152,72.45l-12.3.016,4.565-19.892,4.644-.005-3.88,16.912,7.653-.005Z" transform="translate(-756.673 -2.637)"/>
      </g>
      <g id="Group_2146" data-name="Group 2146" transform="translate(0 0.18)">
        <path id="Path_570" data-name="Path 570" d="M931.591,33.606h-38.2L856.9,104.445h38.2Z" transform="translate(-856.898 -33.606)" fill="#edc732"/>
        <path id="Path_571" data-name="Path 571" d="M932.65,33.606H911.291l-36.484,70.839h21.36Z" transform="translate(-827.816 -33.606)" fill="#cc6029"/>
      </g>
    </g>
  </g>
</svg>
