<svg xmlns="http://www.w3.org/2000/svg" width="232.099" height="91.256" viewBox="0 0 232.099 91.256">
  <g id="Group_2524" data-name="Group 2524" transform="translate(-852 -9749.982)">
    <g id="Group_2350" data-name="Group 2350" transform="translate(-22.035 9773.105)">
      <g id="Group_1426" data-name="Group 1426" transform="translate(874.035 42.62)">
        <path id="Path_1331" data-name="Path 1331" d="M149.528,171.793h3.514l-3.961,8.952h-3.7Z" transform="translate(-145.377 -171.793)" fill="#003385"/>
        <rect id="Rectangle_1128" data-name="Rectangle 1128" width="3.261" height="8.996" transform="translate(0.951 15.87)" fill="#003385"/>
        <rect id="Rectangle_1129" data-name="Rectangle 1129" width="3.257" height="8.996" transform="translate(9.863 15.87)" fill="#003385"/>
        <path id="Path_1332" data-name="Path 1332" d="M152.333,200.054h4.124v-9.947s1.05.015,1.413,0a2.058,2.058,0,0,0,1.33-.593,2.359,2.359,0,0,0,.786-1.589v-8.909l-3.85,7.11h-.826l4.3-9.333H155.86l-4.886,9.546h-2.582v3.9h3.954Z" transform="translate(-147.333 -175.037)" fill="#003385"/>
        <path id="Path_1333" data-name="Path 1333" d="M183.51,173.5v5.458h4.064v-2.121h6.689v2.121h3.832V173.5h-5.273v-1.706h-3.727V173.5Z" transform="translate(-170.115 -171.793)" fill="#003385"/>
        <rect id="Rectangle_1130" data-name="Rectangle 1130" width="14.747" height="2.783" transform="translate(13.467 7.957)" fill="#003385"/>
        <path id="Path_1334" data-name="Path 1334" d="M185.033,216.792h2.944v5.6a3.8,3.8,0,0,1-1,2.207,3.359,3.359,0,0,1-1.869,1.13,9.467,9.467,0,0,1-1.017.061v-3.237a.645.645,0,0,0,.64-.413,2.763,2.763,0,0,0,.277-1.039C185.033,220.82,185.033,216.792,185.033,216.792Z" transform="translate(-170.492 -200.987)" fill="#003385"/>
        <path id="Path_1335" data-name="Path 1335" d="M198.244,205.786H183.718v2.947h5.344c.019,1.189.086,5.424.069,5.672a2.373,2.373,0,0,1-.206,1.165c-.171.315-.689.285-.689.285v3.014s1.6.058,2.093,0a2.793,2.793,0,0,0,1.857-.912,3.816,3.816,0,0,0,.816-2.41v-6.809h5.241Z" transform="translate(-170.25 -193.847)" fill="#003385"/>
        <path id="Path_1336" data-name="Path 1336" d="M216.811,216.792h-2.946v5.378a4.15,4.15,0,0,0,1.051,2.3,3.739,3.739,0,0,0,1.819,1.262,10.613,10.613,0,0,0,1.1.061v-3.237a.745.745,0,0,1-.727-.413,2.8,2.8,0,0,1-.274-1.039C216.811,220.82,216.811,216.792,216.811,216.792Z" transform="translate(-189.808 -200.987)" fill="#003385"/>
      </g>
      <g id="Group_1427" data-name="Group 1427" transform="translate(909.476 42.057)">
        <path id="Path_1337" data-name="Path 1337" d="M230.937,173.416v3.9s5.118.149,6.345-.039a13.483,13.483,0,0,0,4.045-1.3,23.792,23.792,0,0,0,2.888-2.3s2.115,2.263,3.638,2.782a8.346,8.346,0,0,0,3.487.7h6.16v-3.819s-4.045.034-5.34-.035-3.973-1-4.786-1.97a7.813,7.813,0,0,1-.893-1.148h-4.638a8.848,8.848,0,0,1-1.372,1.665,7.154,7.154,0,0,1-3.188,1.453C236.313,173.416,230.937,173.416,230.937,173.416Z" transform="translate(-230.937 -170.191)" fill="#003385"/>
        <rect id="Rectangle_1131" data-name="Rectangle 1131" width="25.784" height="3.56" transform="translate(0.294 8.605)" fill="#003385"/>
        <path id="Path_1338" data-name="Path 1338" d="M257.7,218.772a33.5,33.5,0,0,1-13.358,2.85,25.4,25.4,0,0,1-12.241-2.85v-9.5h25.6Zm-4.192-5.836H236.382v3.532a28.959,28.959,0,0,0,8.442,1.522,23.812,23.812,0,0,0,8.681-1.522Z" transform="translate(-231.69 -195.546)" fill="#003385"/>
      </g>
      <path id="Path_1339" data-name="Path 1339" d="M336.263,172.155V193.71a38.39,38.39,0,0,1-12.136,2.339,42.163,42.163,0,0,1-12.5-2.339V172.155h9.63l.712-1.964h5.094l-.712,1.964Zm-4.123,3.674H316.154v2.633H332.14Zm.155,6.42H316.116v2.67h16.178Zm-.262,6.416H316.261v2.375a24.027,24.027,0,0,0,7.94,1.485,22.961,22.961,0,0,0,7.831-1.485Z" transform="translate(631.572 -128.134)" fill="#003385"/>
      <g id="Group_1428" data-name="Group 1428" transform="translate(975.184 42.015)">
        <path id="Path_1340" data-name="Path 1340" d="M397.512,186.8v1.271h4.215v2.474h-4.215v1.4l.991-.193a14.692,14.692,0,0,0,3.225-1.114v2.975s-3.319.989-4.958,1.268a45.474,45.474,0,0,1-5.02.655c-.991.038-3.161-.156-3.161-.156V192.6s1.953.061,3.814.061c.345,0,.72-.019,1.116-.058v-2.05h-4.929v-2.474h4.929V186.8h-3.13a1.781,1.781,0,0,1-1.781-1.784v-6.645h4.911v-1.085h-4.992v-2.755h4.992v-1.1l-4.929.2v-2.728l13.136-.838v3.037l-4.212.171v1.254H401.7v2.755h-4.183v1.085h4.308v6.645a1.782,1.782,0,0,1-1.785,1.784Zm-4.186-6.225H392v1.266h1.326Zm5.549,0h-1.332v1.266h1.332Zm-5.549,3.1H392v1.27h1.326Zm5.549,0h-1.332v1.27h1.332Z" transform="translate(-388.526 -170.073)" fill="#003385"/>
        <path id="Path_1341" data-name="Path 1341" d="M441.845,174.89H434.09c-.027-2.423-.049-4.2-.049-4.2H430.2s.008,1.8.013,4.2h-1.853v3.8h1.856c.005,3.64.005,7.337-.016,8.253a9.309,9.309,0,0,1-.417,3.336,2.47,2.47,0,0,1-1,1.21,1.141,1.141,0,0,1-.54.214v4.178a5.2,5.2,0,0,0,3.338-1.63,13.745,13.745,0,0,0,2.5-6.14c.086-.863.073-5.263.047-9.421h3.77v12.666a.923.923,0,0,1-.377.8,1.447,1.447,0,0,1-.837.312c-.412.015-1.345-.012-1.345-.012v3.324s2.367.008,3.379-.034a3.4,3.4,0,0,0,2.191-1.166,4.555,4.555,0,0,0,.935-2.158C441.9,191.671,441.845,174.89,441.845,174.89Z" transform="translate(-414.289 -170.474)" fill="#003385"/>
      </g>
      <path id="Path_1342" data-name="Path 1342" d="M489.186,175.956v1.334h9.145v9.258a2.224,2.224,0,0,1-2.229,2.224h-6.917v1.257h10.687v3.341H489.186v2.212h-4.723v-2.212H473.519V190.03h10.945v-1.257H477a2.223,2.223,0,0,1-2.225-2.224v-9.258h9.69v-1.334H473.519v-3.344h10.945v-1.921h4.723v1.921h10.687v3.344Zm-4.471,4.173h-5.47v1.3h5.47Zm0,4.053h-5.47v1.583h5.47Zm9.937-4.053h-5.466v1.3h5.466Zm0,4.053h-5.466v1.583h5.466Z" transform="translate(536.608 -128.459)" fill="#003385"/>
      <g id="Group_1429" data-name="Group 1429" transform="translate(1043.865 42.331)">
        <path id="Path_1343" data-name="Path 1343" d="M577.324,173.661l1.511-2.688h-5.073l-1.548,2.741-3.711.041-1.022-2.782h-3.953l1.041,2.823-1.912.02-1.051-2.843h-3.948l1.064,2.887-4.575.051v7.49h4.361v-4.306h18.959V181.4h4.387v-7.792Z" transform="translate(-554.147 -170.973)" fill="#003385"/>
        <path id="Path_1344" data-name="Path 1344" d="M581.864,198.673H571.138v-.6s1.318-.494,2.388-.962a4.433,4.433,0,0,0,2.251-2.606,11.5,11.5,0,0,0,.245-3.294h-15.83v3.454h10.236s-.14.223-.221.358a2.974,2.974,0,0,1-1.4.661,19.307,19.307,0,0,1-2.142.107v2.887H554.459v3.589h12.206v1.731c0,.8-.026,1.07-.436,1.346a10.809,10.809,0,0,1-2.826.188v3.324s3.324,0,4.089-.024a3.452,3.452,0,0,0,2.193-.884,4.218,4.218,0,0,0,1.453-2.5v-3.185h10.726Z" transform="translate(-554.35 -184.101)" fill="#003385"/>
      </g>
      <g id="Group_1430" data-name="Group 1430" transform="translate(1078.914 42.192)">
        <path id="Path_1345" data-name="Path 1345" d="M647.075,179.129c-.326-.615-.648-1.347-.82-1.748v-.159h2.537v-3.667h-2.537v-2.839h-4.23v2.839h-3.613v3.667h3.613v1.454c-.073.345-.153.737-.244,1.079a10.889,10.889,0,0,1-1.217,2.562,8.93,8.93,0,0,1-1.907,2.258v5.549l3.368-2.808v8.392h4.23V184.549a10.063,10.063,0,0,0,.993,1.2,9.394,9.394,0,0,0,1.676,1.188v-5.648A11.493,11.493,0,0,1,647.075,179.129Z" transform="translate(-638.412 -170.667)" fill="#003385"/>
        <path id="Path_1346" data-name="Path 1346" d="M685.89,191.96v3.754s-2.22-.059-2.744-.082a17.486,17.486,0,0,1-2.727-.474A24.881,24.881,0,0,1,678,194.3s-1.3.586-1.774.723a20.057,20.057,0,0,1-3.057.7c-.947.083-3.194.025-3.194.025v-4s1.917.167,2.388.2a7.039,7.039,0,0,0,1.612-.2,1.58,1.58,0,0,0,.666-.551s-.169-.253-.554-.753a18.656,18.656,0,0,1-1.45-3.448,17.786,17.786,0,0,1-.606-3.747s-.751.166-1.222.221a7.343,7.343,0,0,1-1.168,0v-3.775a12.108,12.108,0,0,0,1.557-.2,5.342,5.342,0,0,0,2.025-1.138,2.1,2.1,0,0,0,.609-1.271h-3.908v-3.665h6.193v-2.841h3.913v2.841h5.8v3.665h-3.659c.036.176.085.361.142.548a2.834,2.834,0,0,0,1.388,1.411,10.645,10.645,0,0,0,2,.67l.026,3.588-2.057-.169a9.259,9.259,0,0,1-.053,1.611,21.749,21.749,0,0,1-.509,3.172,12.53,12.53,0,0,1-1.828,3.3.7.7,0,0,0,.167.221,11.3,11.3,0,0,0,2.083.584A19.063,19.063,0,0,0,685.89,191.96Zm-8.705-12.449c-.143.211-.865,1-.865,1s-.125.936-.158,1.653a21.176,21.176,0,0,0,.294,3.628A8.793,8.793,0,0,0,678,188.986s1.468-.816,1.727-3.937a44.778,44.778,0,0,0-.143-4.743l-1.566-2.518S677.326,179.295,677.185,179.511Z" transform="translate(-658.672 -170.576)" fill="#003385"/>
      </g>
    </g>
    <g id="Group_2352" data-name="Group 2352" transform="translate(-17.035 -753.375)">
      <g id="Group_2147" data-name="Group 2147" transform="translate(940.196 10503.357)">
        <path id="Path_551" data-name="Path 551" d="M921.137,52.642a9.7,9.7,0,0,1-4.74,6.26,18.377,18.377,0,0,1-9.083,2.012,33.381,33.381,0,0,1-5.195-.34,15.494,15.494,0,0,1-3.323-.865l1.209-4.545a10.494,10.494,0,0,0,3.144,1.124,19.642,19.642,0,0,0,4.48.52,10.027,10.027,0,0,0,4.6-.775,3.952,3.952,0,0,0,1.89-2.595,2.361,2.361,0,0,0-.316-2.049c-.414-.607-1.842-1.406-4.278-2.41a8.955,8.955,0,0,1-4.182-3.058q-1.278-1.858-.416-5.087a8.868,8.868,0,0,1,4.23-5.188,15.718,15.718,0,0,1,8.441-2.107,21.67,21.67,0,0,1,4.288.378,18.275,18.275,0,0,1,2.559.647l-1.062,4.021c-1.04-.245-2.078-.458-3.113-.65a19.007,19.007,0,0,0-3.4-.289,8.275,8.275,0,0,0-3.96.749,3.137,3.137,0,0,0-1.651,1.871,2.172,2.172,0,0,0,.3,2.135q.662.726,4.5,2.135c2.376.884,3.939,2,4.688,3.337A6.166,6.166,0,0,1,921.137,52.642Z" transform="translate(-898.288 -33.537)"/>
        <path id="Path_552" data-name="Path 552" d="M928.866,55.065a5.789,5.789,0,0,1-4.641,2.207c-2.278,0-3.546-.688-3.813-2.053s.094-3.879,1.071-7.542l.178-.674q1.455-5.455,3.067-7.579a5.655,5.655,0,0,1,4.81-2.116q3.474.008,3.753,2.4a21.628,21.628,0,0,1-1.025,7.309l-.195.734Q930.711,52.861,928.866,55.065Zm10.077-8.393q1.509-5.673-.471-9.391t-7.762-3.725a14.26,14.26,0,0,0-9.955,3.642,18.982,18.982,0,0,0-5.581,9.444l-.4,1.515q-1.658,6.217.744,9.538t7.706,3.329a14.8,14.8,0,0,0,9.512-3.3,17.663,17.663,0,0,0,5.828-9.606Z" transform="translate(-887.417 -33.525)"/>
        <path id="Path_553" data-name="Path 553" d="M949.679,60.476l-6.537-.009,3.053-11.481-7.376-.012-3.058,11.481-6.536-.005,7.1-26.675,6.537.009-2.952,11.086,7.382.01L950.242,33.8l6.541.005Z" transform="translate(-876.667 -33.368)"/>
        <path id="Path_554" data-name="Path 554" d="M967.061,56.626a14.379,14.379,0,0,1-4.764,3.194,17.7,17.7,0,0,1-7.03,1.247q-5.709-.008-8.077-3.358t-.662-9.779l.387-1.439A17.109,17.109,0,0,1,964.052,33.6a16.085,16.085,0,0,1,4,.421,9.555,9.555,0,0,1,2.244.821l-1.143,4.287A24.032,24.032,0,0,0,966.9,38.2a9.918,9.918,0,0,0-3.341-.5,9.517,9.517,0,0,0-6.2,2.2q-2.7,2.2-4.062,7.314l-.1.361q-1.411,5.326-.32,7.367a4.127,4.127,0,0,0,4,2.053,8.676,8.676,0,0,0,3.017-.51,4.907,4.907,0,0,0,2.022-1.158l1.464-5.48-4.42-.005.943-3.534,9.892.01Z" transform="translate(-864.882 -33.493)"/>
        <path id="Path_555" data-name="Path 555" d="M976.118,55.13a5.785,5.785,0,0,1-4.646,2.2c-2.275,0-3.539-.688-3.809-2.053s.1-3.878,1.069-7.542l.18-.672q1.455-5.457,3.069-7.574a5.634,5.634,0,0,1,4.808-2.123c2.313,0,3.563.8,3.753,2.4a21.509,21.509,0,0,1-1.028,7.309l-.194.732Q977.958,52.921,976.118,55.13Zm10.071-8.4q1.516-5.681-.467-9.392t-7.762-3.724a14.256,14.256,0,0,0-9.955,3.64,18.966,18.966,0,0,0-5.579,9.445l-.4,1.515q-1.652,6.214.746,9.536t7.7,3.332a14.767,14.767,0,0,0,9.512-3.306,17.656,17.656,0,0,0,5.828-9.608Z" transform="translate(-853.845 -33.48)"/>
        <path id="Path_556" data-name="Path 556" d="M996.929,60.54l-6.537-.009,3.059-11.483-7.379-.012-3.057,11.486-6.538-.01,7.1-26.675,6.543.009-2.954,11.086,7.381.01,2.952-11.087,6.539.012Z" transform="translate(-843.095 -33.323)"/>
        <path id="Path_557" data-name="Path 557" d="M905.507,62.76a2.831,2.831,0,0,1-2.147.9h-1.389l2.085-9.076h1.132a1.83,1.83,0,0,1,1.822,1.117,5.271,5.271,0,0,1,.024,3.248l-.086.356A7.735,7.735,0,0,1,905.507,62.76Zm4.593-3.888a6.46,6.46,0,0,0-.257-4.562c-.609-1.114-1.93-1.673-3.946-1.668l-4.415,0L898.5,65.616l4.926-.007a5.9,5.9,0,0,0,4.177-1.527,8.967,8.967,0,0,0,2.376-4.683Z" transform="translate(-898.499 -19.964)"/>
        <path id="Path_558" data-name="Path 558" d="M913.251,57.532a2.866,2.866,0,0,1-1.63.387h-.828l.8-3.45h.989a1.856,1.856,0,0,1,1.291.359,1.212,1.212,0,0,1,.185,1.2l-.081.361A1.8,1.8,0,0,1,913.251,57.532Zm2.287,3.193a2.772,2.772,0,0,0-1.921-2.032,4.148,4.148,0,0,0,2.287-.789,3.044,3.044,0,0,0,1.114-1.774l.163-.708a2.273,2.273,0,0,0-.349-1.986,3.122,3.122,0,0,0-2.555-.8l-5.291,0L906,65.608h3.026l1.344-5.835.711,0a1.463,1.463,0,0,1,1.54,1.348,12.442,12.442,0,0,1-.412,4.485h3.006A10.827,10.827,0,0,0,915.538,60.726Z" transform="translate(-893.167 -19.967)"/>
        <path id="Path_559" data-name="Path 559" d="M916.28,65.6h-3.026l2.982-12.972h3.026Z" transform="translate(-888.016 -19.973)"/>
        <path id="Path_560" data-name="Path 560" d="M929.649,52.624l-7.53,12.971-2.528,0-1.452-12.964,3.269,0,.83,8.96,4.928-8.965Z" transform="translate(-884.544 -19.976)"/>
        <path id="Path_561" data-name="Path 561" d="M927.527,65.586l-3.024,0,2.98-12.964h3.024Z" transform="translate(-880.022 -19.976)"/>
        <path id="Path_562" data-name="Path 562" d="M938.6,65.585h-1.31l-4.834-8.142-1.873,8.147h-2.164l2.98-12.969h1.632l4.628,7.653,1.758-7.658,2.167,0Z" transform="translate(-877.241 -19.983)"/>
        <path id="Path_563" data-name="Path 563" d="M946.475,63.7A6.444,6.444,0,0,1,944.3,65.27a7.791,7.791,0,0,1-3.247.614,4.283,4.283,0,0,1-3.789-1.632c-.756-1.086-.9-2.677-.418-4.76l.161-.706a8.182,8.182,0,0,1,2.715-4.533,7.631,7.631,0,0,1,5.09-1.76,7.183,7.183,0,0,1,1.861.2,4.7,4.7,0,0,1,1.055.4l-.489,2.1a10.64,10.64,0,0,0-1.055-.445,4.51,4.51,0,0,0-1.56-.236,4.194,4.194,0,0,0-2.848,1.071,6.529,6.529,0,0,0-1.8,3.56l-.041.176c-.4,1.733-.422,2.925-.065,3.589a1.957,1.957,0,0,0,1.883.994,3.9,3.9,0,0,0,1.4-.246,2.216,2.216,0,0,0,.929-.566l.612-2.658-2.056.005.4-1.726,4.593-.005Z" transform="translate(-871.452 -20.069)"/>
        <path id="Path_564" data-name="Path 564" d="M957.366,61.787a4.553,4.553,0,0,1-2.119,3.052,8.085,8.085,0,0,1-4.189.989,14.9,14.9,0,0,1-2.41-.159,7.385,7.385,0,0,1-1.553-.407l.511-2.234a4.663,4.663,0,0,0,1.466.561,8.711,8.711,0,0,0,2.076.255,4.349,4.349,0,0,0,2.119-.387,1.891,1.891,0,0,0,.852-1.269,1.246,1.246,0,0,0-.168-1.013,5.364,5.364,0,0,0-2.01-1.161,4.239,4.239,0,0,1-1.969-1.488,3.07,3.07,0,0,1-.249-2.478,4.127,4.127,0,0,1,1.9-2.528,6.909,6.909,0,0,1,3.891-1.033,10.007,10.007,0,0,1,2,.169,7.212,7.212,0,0,1,1.2.311l-.451,1.969c-.482-.13-.967-.234-1.449-.327a8.435,8.435,0,0,0-1.579-.135,3.642,3.642,0,0,0-1.832.369,1.45,1.45,0,0,0-.741.915,1.126,1.126,0,0,0,.156,1.045,7.139,7.139,0,0,0,2.107,1.042,4.019,4.019,0,0,1,2.211,1.611A3.2,3.2,0,0,1,957.366,61.787Z" transform="translate(-863.973 -20.075)"/>
        <path id="Path_565" data-name="Path 565" d="M962.5,65.291a5.056,5.056,0,0,1-1.221.387,9.212,9.212,0,0,1-1.936.188,4.931,4.931,0,0,1-4.052-1.618c-.9-1.083-1.1-2.67-.619-4.774l.123-.518a8.318,8.318,0,0,1,2.819-4.7,7.325,7.325,0,0,1,4.774-1.774,11.271,11.271,0,0,1,1.856.127,3.581,3.581,0,0,1,1.1.335l-.462,2.013a3.356,3.356,0,0,0-.958-.34,6.67,6.67,0,0,0-1.5-.149,3.838,3.838,0,0,0-2.841,1.245,7.009,7.009,0,0,0-1.707,3.416l-.041.181a5.134,5.134,0,0,0,.058,3.459,2.183,2.183,0,0,0,2.091,1.114,7.064,7.064,0,0,0,1.762-.2c.5-.128.908-.248,1.216-.361Z" transform="translate(-858.767 -20.08)"/>
        <path id="Path_566" data-name="Path 566" d="M970.2,65.554l-3.021,0,1.281-5.588-3.423,0-1.284,5.59h-3.028L963.7,52.592l3.024,0-1.235,5.395,3.419,0,1.24-5.391,3.029,0Z" transform="translate(-854.29 -20.003)"/>
        <path id="Path_567" data-name="Path 567" d="M976.22,62.947a2.575,2.575,0,0,1-2.128,1.071c-1.059.005-1.656-.332-1.794-1a10.2,10.2,0,0,1,.407-3.671l.073-.323a11.479,11.479,0,0,1,1.332-3.695,2.514,2.514,0,0,1,2.21-1.031c1.079,0,1.671.383,1.777,1.161a11.029,11.029,0,0,1-.4,3.561l-.079.359A9.562,9.562,0,0,1,976.22,62.947Zm4.576-4.1a6.519,6.519,0,0,0-.322-4.579q-.97-1.806-3.647-1.8a6.309,6.309,0,0,0-4.579,1.786,9.14,9.14,0,0,0-2.479,4.606l-.169.741q-.7,3.035.457,4.647a4.143,4.143,0,0,0,3.609,1.611,6.537,6.537,0,0,0,4.376-1.62,8.413,8.413,0,0,0,2.59-4.694Z" transform="translate(-848.167 -20.089)"/>
        <path id="Path_568" data-name="Path 568" d="M984.6,62.936a2.575,2.575,0,0,1-2.128,1.079q-1.591,0-1.794-1a10.3,10.3,0,0,1,.405-3.671l.079-.323a11.38,11.38,0,0,1,1.329-3.691,2.526,2.526,0,0,1,2.215-1.04c1.073,0,1.664.39,1.776,1.165a11,11,0,0,1-.4,3.56l-.085.357A9.486,9.486,0,0,1,984.6,62.936Zm4.574-4.095a6.5,6.5,0,0,0-.321-4.579c-.647-1.2-1.856-1.8-3.645-1.8a6.324,6.324,0,0,0-4.577,1.786,9.1,9.1,0,0,0-2.482,4.61l-.169.737q-.7,3.033.46,4.646a4.127,4.127,0,0,0,3.612,1.61,6.508,6.508,0,0,0,4.367-1.616,8.471,8.471,0,0,0,2.6-4.69Z" transform="translate(-842.212 -20.094)"/>
        <path id="Path_569" data-name="Path 569" d="M993.871,65.53l-8.021.01,2.976-12.969,3.027,0-2.53,11.026,4.989,0Z" transform="translate(-836.436 -20.015)"/>
      </g>
      <g id="Group_2146" data-name="Group 2146" transform="translate(869.036 10503.475)">
        <path id="Path_570" data-name="Path 570" d="M905.595,33.606h-24.9L856.9,79.79H881.8Z" transform="translate(-856.898 -33.606)" fill="#edc732"/>
        <path id="Path_571" data-name="Path 571" d="M912.518,33.606H898.593L874.807,79.79h13.926Z" transform="translate(-844.171 -33.606)" fill="#cc6029"/>
      </g>
    </g>
  </g>
</svg>
