<svg id="Group_559" data-name="Group 559" xmlns="http://www.w3.org/2000/svg" width="251.884" height="194.694" viewBox="0 0 251.884 194.694">
  <g id="Group_556" data-name="Group 556" transform="translate(110.896 7.483)">
    <path id="Path_712" data-name="Path 712" d="M311.874,1279.619a3.053,3.053,0,1,0,3.051,3.052A3.053,3.053,0,0,0,311.874,1279.619Z" transform="translate(-259.871 -1233.095)" fill="#c1272d"/>
    <path id="Path_713" data-name="Path 713" d="M321.387,1285.725a3.053,3.053,0,1,0-3.055-3.055A3.056,3.056,0,0,0,321.387,1285.725Z" transform="translate(-232.405 -1233.095)" fill="#c1272d"/>
    <path id="Path_714" data-name="Path 714" d="M337.828,1286.269a1.755,1.755,0,0,0-3.51,0c0,2.542-4.089,5.372-9.955,5.372s-9.951-2.83-9.951-5.372a1.757,1.757,0,0,0-3.514,0c0,4.983,5.917,8.886,13.466,8.886S337.828,1291.252,337.828,1286.269Z" transform="translate(-253.871 -1218.957)" fill="#c1272d"/>
    <path id="Path_715" data-name="Path 715" d="M425.968,1399.662c-5.326-11.468-12.167-16.249-30.515-21.419-11.74-3.265-15.9-12.866-17.259-17.57.583-.155,1.166-.35,1.71-.5,10.845,13.1,25.15,15.549,34.286,15.549a42.179,42.179,0,0,0,9.018-.855,1.712,1.712,0,0,0,1.244-1.166,1.655,1.655,0,0,0-.35-1.671c-.116-.156-12.945-15.005-17.182-22.157-.933-1.555-1.788-3.382-2.682-5.287-.117-.233-.194-.466-.311-.661a47.99,47.99,0,0,0,7.619-14.189c2.138-1.244,8.474-5.675,7.58-13.372a6.592,6.592,0,0,0-3.809-5.559,4.794,4.794,0,0,0-1.594-.389,48.2,48.2,0,0,0-1.438-7.852v-.078a47.208,47.208,0,0,0-91.973,3.771c0,.077-.039.117-.039.155-.233,1.323-.428,2.644-.544,4a5.009,5.009,0,0,0-1.633.389,6.631,6.631,0,0,0-3.771,5.559c-.894,7.7,5.442,12.128,7.58,13.372a47.317,47.317,0,0,0,33.314,30.943c-1.361,4.7-5.52,14.305-17.221,17.57-18.348,5.17-25.19,9.952-30.515,21.419-5.015,10.807-11,51.468-11.234,53.178a1.748,1.748,0,1,0,3.46.5c.078-.424,6.142-41.863,10.962-52.2,4.859-10.457,10.923-14.656,28.261-19.515a27.193,27.193,0,0,0,8.357-3.848l-.661,21.808a1.758,1.758,0,0,0,1.05,1.672,2.263,2.263,0,0,0,.7.156,1.668,1.668,0,0,0,1.244-.548l17.1-17.061,17.065,17.061a1.8,1.8,0,0,0,1.244.548,2.261,2.261,0,0,0,.7-.156,1.7,1.7,0,0,0,1.05-1.672l-.661-21.808a27.432,27.432,0,0,0,8.4,3.848c17.337,4.859,23.4,9.058,28.26,19.515,4.82,10.339,10.884,51.778,10.923,52.2a1.788,1.788,0,0,0,1.749,1.52.5.5,0,0,0,.233-.038,1.76,1.76,0,0,0,1.516-1.983C436.93,1451.13,430.982,1410.469,425.968,1399.662Zm-75.685-4.392.583-18.659,12.75,5.325Zm1.944-21.886a31.2,31.2,0,0,0,6.881-13.644,1.859,1.859,0,0,0-.272-1.36,1.559,1.559,0,0,0-1.089-.739,43.73,43.73,0,0,1-32.731-29.663,1.694,1.694,0,0,0-1.05-1.124c-1.127-.622-6.881-4.043-6.142-10.068a3.187,3.187,0,0,1,1.633-2.76,1.144,1.144,0,0,1,.7-.078,1.612,1.612,0,0,0,1.244.467,1.77,1.77,0,0,0,1.672-1.672,37.2,37.2,0,0,1,.505-4.664c.155-.078.35-.117.544-.194.078-.039.117-.039.155-.078a3.033,3.033,0,0,0,.544-.194,2.432,2.432,0,0,0,.272-.117c.194-.078.35-.155.544-.233.117-.039.194-.078.311-.116.233-.117.428-.234.7-.351l.233-.116c.311-.156.661-.35.972-.506.078-.038.155-.117.233-.156.272-.156.544-.311.855-.466l.35-.233c.272-.194.544-.35.777-.505a2.6,2.6,0,0,1,.428-.272c.272-.233.583-.427.855-.622a2.134,2.134,0,0,1,.35-.272c.428-.311.855-.622,1.283-.972l.156-.156c.389-.311.738-.622,1.127-.972.156-.116.272-.272.428-.389.311-.271.622-.544.933-.855l.467-.466c.311-.312.622-.661.933-1.015a2.087,2.087,0,0,0,.428-.423c.466-.505.933-1.049,1.4-1.594a59.525,59.525,0,0,0,10.068-17.419c.778.9,1.555,1.714,2.332,2.531l.739.739c.544.544,1.088,1.088,1.594,1.59.311.276.622.548.933.859.505.427.972.894,1.477,1.321.311.273.661.544.972.817.506.427.972.816,1.477,1.2.311.272.661.505.972.778.505.389,1.011.738,1.477,1.088.35.272.661.5.972.734.544.354,1.049.7,1.555,1.054.311.194.622.389.933.622.544.35,1.088.7,1.633,1.011.272.156.544.35.816.5.7.428,1.4.817,2.06,1.167a3.426,3.426,0,0,1,.389.233c.855.467,1.672.895,2.488,1.283.117.078.233.117.35.194.7.311,1.4.661,2.1.972.272.117.505.195.738.311.583.273,1.128.506,1.711.739.272.117.544.195.816.311.544.234,1.05.428,1.594.622.272.117.544.195.816.311.544.194,1.05.35,1.555.545l.816.233c.544.195,1.049.35,1.555.506.272.074.505.156.738.233.583.155,1.127.272,1.672.427.194.039.389.117.583.155.661.156,1.283.312,1.9.467.078.039.194.039.272.078,1.516.312,2.916.622,4.315.855h.194c.583.117,1.2.2,1.788.312.155,0,.272.039.427.039.505.078.972.155,1.477.194a1.888,1.888,0,0,0,.466.039c.467.078.894.116,1.361.155.156,0,.311.036.466.036.427.043.855.082,1.244.12a1.456,1.456,0,0,1,.428.039c.428,0,.855.039,1.244.039a.963.963,0,0,0,.311.039c.467,0,.894.038,1.283.038h.195c1.4.039,2.643.039,3.615,0h.155a4.3,4.3,0,0,0,.739-.038h.583a40.673,40.673,0,0,1,1.089,7.852,1.708,1.708,0,0,0,1.71,1.629,1.657,1.657,0,0,0,1.2-.385c.155-.117.427-.078.739.039a3.267,3.267,0,0,1,1.632,2.76c.739,6.142-5.248,9.6-6.219,10.107a1.73,1.73,0,0,0-1.011,1.127,43.162,43.162,0,0,1-8.046,14.732c-.233.273-.428.544-.661.774-.428.51-.855.972-1.322,1.443-.233.232-.466.5-.7.738-.389.389-.816.778-1.205,1.167-.311.272-.583.541-.855.778-.427.35-.855.735-1.283,1.089-.272.194-.544.427-.816.661-.505.35-.972.738-1.477,1.089a7.9,7.9,0,0,0-.7.5c-.583.389-1.166.739-1.749,1.089a5.092,5.092,0,0,1-.778.466c-.583.35-1.166.7-1.749,1.011-.311.156-.583.272-.894.428-.583.311-1.166.583-1.788.855-.311.116-.622.272-.933.389l-1.516.583a11.778,11.778,0,0,1-1.244.428,36.3,36.3,0,0,1-4.976,1.4,1.722,1.722,0,0,0-1.127.739,1.841,1.841,0,0,0-.233,1.36,31.459,31.459,0,0,0,6.842,13.644l-14.461,6.026Zm17.571,8.552,12.789-5.325.583,18.659Z" transform="translate(-296.227 -1267.651)" fill="#c1272d"/>
    <path id="Path_716" data-name="Path 716" d="M315.009,1287.971a1.757,1.757,0,0,0,1.757-1.757.8.8,0,0,1,1.6,0,1.755,1.755,0,1,0,3.51,0,4.311,4.311,0,1,0-8.622,0A1.757,1.757,0,0,0,315.009,1287.971Z" transform="translate(-247.072 -1226.502)" fill="#c1272d"/>
  </g>
  <g id="Group_558" data-name="Group 558" transform="translate(0)">
    <g id="Group_557" data-name="Group 557" transform="translate(57.991 113.611)">
      <path id="Path_717" data-name="Path 717" d="M284.373,1303.41a1.761,1.761,0,0,1-1.625-2.426l2.029-4.941a1.754,1.754,0,1,1,3.246,1.33L286,1302.317A1.754,1.754,0,0,1,284.373,1303.41Z" transform="translate(-282.617 -1294.952)" fill="#c1272d"/>
      <path id="Path_718" data-name="Path 718" d="M291.4,1303.41a1.758,1.758,0,0,1-1.625-1.093l-2.025-4.945a1.756,1.756,0,0,1,3.25-1.33l2.025,4.941a1.761,1.761,0,0,1-1.625,2.426Z" transform="translate(-268.168 -1294.952)" fill="#c1272d"/>
      <path id="Path_719" data-name="Path 719" d="M287.134,1303.865a1.754,1.754,0,0,1-1.753-1.757v-5.035a1.755,1.755,0,1,1,3.51,0v5.035A1.755,1.755,0,0,1,287.134,1303.865Z" transform="translate(-274.638 -1293.899)" fill="#c1272d"/>
    </g>
    <circle id="Ellipse_95" data-name="Ellipse 95" cx="3.055" cy="3.055" r="3.055" transform="translate(48.942 54.004)" fill="#c1272d"/>
    <circle id="Ellipse_96" data-name="Ellipse 96" cx="3.055" cy="3.055" r="3.055" transform="translate(85.923 54.004)" fill="#c1272d"/>
    <path id="Path_720" data-name="Path 720" d="M295.833,1295.155c-7.549,0-13.465-3.9-13.465-8.886a1.755,1.755,0,0,1,3.51,0c0,2.542,4.089,5.372,9.955,5.372s9.955-2.83,9.955-5.372a1.755,1.755,0,0,1,3.51,0C309.3,1291.252,303.386,1295.155,295.833,1295.155Z" transform="translate(-225.346 -1211.474)" fill="#c1272d"/>
    <path id="Path_721" data-name="Path 721" d="M287.7,1280.749h-6.111a1.755,1.755,0,0,1,0-3.51H287.7a1.755,1.755,0,1,1,0,3.51Z" transform="translate(-232.651 -1232.485)" fill="#c1272d"/>
    <path id="Path_722" data-name="Path 722" d="M297.219,1280.749h-6.111a1.755,1.755,0,1,1,0-3.51h6.111a1.755,1.755,0,0,1,0,3.51Z" transform="translate(-205.185 -1232.485)" fill="#c1272d"/>
    <path id="Path_723" data-name="Path 723" d="M291.586,1287.971a1.757,1.757,0,0,1-1.757-1.757.8.8,0,0,0-1.6,0,1.755,1.755,0,1,1-3.51,0,4.311,4.311,0,1,1,8.622,0A1.757,1.757,0,0,1,291.586,1287.971Z" transform="translate(-218.553 -1219.019)" fill="#c1272d"/>
    <path id="Path_724" data-name="Path 724" d="M408.655,1458.406c-.249-1.725-6.2-42.383-11.219-53.181-5.322-11.464-12.167-16.269-30.519-21.412a23.669,23.669,0,0,1-14.472-11.153h0v0a28.217,28.217,0,0,1-2.776-6.437,46.743,46.743,0,0,0,14.9-6.656A47.443,47.443,0,0,0,383,1335.3c2.134-1.264,8.482-5.691,7.592-13.373v0a7.568,7.568,0,0,0-1.45-3.724A51.019,51.019,0,0,0,341,1267.336a3.26,3.26,0,0,0-5.625,0,51.007,51.007,0,0,0-48.136,50.858,7.538,7.538,0,0,0-1.454,3.727c-.894,7.689,5.469,12.121,7.6,13.377a47.409,47.409,0,0,0,18.414,24.26,46.686,46.686,0,0,0,14.908,6.659,28.267,28.267,0,0,1-2.772,6.444l0,0a23.7,23.7,0,0,1-14.472,11.144c-18.344,5.143-25.186,9.944-30.519,21.412-5.015,10.8-10.97,51.456-11.219,53.181a1.759,1.759,0,0,0,1.738,2.01H406.921a1.759,1.759,0,0,0,1.734-2.01Zm-70.472-187.638a47.514,47.514,0,0,1,46.791,39.611c-4.606-8-12.074-20.455-15.821-23.872l-.595-.548c-5.185-4.77-11.063-10.181-30.375-10.181S313,1281.19,307.815,1285.96l-.595.544c-3.74,3.412-11.2,15.848-15.817,23.868A47.507,47.507,0,0,1,338.182,1270.768Zm42.255,38.8c-4.171-3.616-8.941-7.471-11.712-8.789l-.595-.284c-5.368-2.577-10.919-5.239-29.948-5.239s-24.571,2.662-29.94,5.239l-.591.284c-2.771,1.314-7.545,5.178-11.72,8.793,4.638-7.931,10.733-17.8,13.66-20.47l.6-.552c4.945-4.548,10.056-9.252,27.988-9.252s23.055,4.7,28,9.252l.6.556C369.673,1291.736,375.683,1301.438,380.437,1309.563Zm-32.859,63.631a25.366,25.366,0,0,1-18.764.015c-.322-.132-.637-.268-.952-.412a31.448,31.448,0,0,0,2.7-7.522,1.756,1.756,0,0,0-1.357-2.084,43.322,43.322,0,0,1-15.444-6.538,43.85,43.85,0,0,1-17.263-23.137,1.724,1.724,0,0,0-1.139-1.131c-1.279-.711-6.776-4.141-6.088-10.057a3.211,3.211,0,0,1,1.656-2.745,1.08,1.08,0,0,1,.665-.082,1.755,1.755,0,0,0,2.958-1.189c.051-1.034.148-2.06.268-3.082,4.688-4.207,11.269-9.828,14.34-11.289l.6-.287c5.015-2.407,10.2-4.891,28.42-4.891s23.413,2.484,28.428,4.891l.6.287c3.036,1.446,9.512,6.958,14.34,11.3.124,1.011.222,2.029.272,3.052a1.754,1.754,0,0,0,2.877,1.247.927.927,0,0,1,.742.047,3.211,3.211,0,0,1,1.656,2.745c.7,6.036-5.03,9.481-6.153,10.095a1.769,1.769,0,0,0-1.077,1.124,43.865,43.865,0,0,1-17.263,23.106,43.2,43.2,0,0,1-15.436,6.538,1.756,1.756,0,0,0-1.357,2.084,31.083,31.083,0,0,0,2.7,7.518C348.2,1372.933,347.893,1373.065,347.578,1373.194Z" transform="translate(-267.699 -1265.726)" fill="#c1272d"/>
  </g>
</svg>
