<svg xmlns="http://www.w3.org/2000/svg" width="154.576" height="97.001" viewBox="0 0 154.576 97.001">
  <g id="Group_2526" data-name="Group 2526" transform="translate(-912.003 -839.394)">
    <g id="Group_1414" data-name="Group 1414" transform="translate(912.003 768.363)">
      <path id="Path_1315" data-name="Path 1315" d="M95.715,91.729,52.843,71.995a10.537,10.537,0,0,0-8.8,0L1.166,91.729a2.006,2.006,0,0,0,0,3.643l42.872,19.735a10.522,10.522,0,0,0,8.8,0L86.678,99.533v15.683a2.689,2.689,0,0,0-.459,5.252l-2.288,15.1H94.466l-2.288-15.1a2.689,2.689,0,0,0-.459-5.252v-18l4-1.839a2.006,2.006,0,0,0,0-3.643Z" transform="translate(0 0)" fill="#333"/>
      <path id="Path_1316" data-name="Path 1316" d="M139.891,299.708a14.561,14.561,0,0,1-6.128-1.344l-20.97-9.653v19.232c0,4.222,12.758,9.579,27.1,9.579s27.1-5.356,27.1-9.579V288.71l-20.971,9.653A14.551,14.551,0,0,1,139.891,299.708Z" transform="translate(-91.45 -176.49)" fill="#333"/>
    </g>
    <path id="Icon_awesome-car-side" data-name="Icon awesome-car-side" d="M8.572,16.536H10L19.713,4.395A5.717,5.717,0,0,1,24.175,2.25h19.1A5.714,5.714,0,0,1,48.58,5.842l4.278,10.9a5.7,5.7,0,0,1,4.286,5.513v10a1.428,1.428,0,0,1-1.429,1.429H51.429a8.572,8.572,0,0,1-17.143,0H22.857a8.572,8.572,0,0,1-17.143,0H1.429A1.428,1.428,0,0,1,0,32.25V25.107A8.571,8.571,0,0,1,8.572,16.536ZM42.858,37.964a4.286,4.286,0,1,0-4.286-4.286A4.29,4.29,0,0,0,42.858,37.964ZM36.429,16.536H46.7L43.274,7.964H36.429Zm-4.286,0V7.964H24.175l-6.857,8.571ZM14.286,37.964A4.286,4.286,0,1,0,10,33.679,4.29,4.29,0,0,0,14.286,37.964Z" transform="translate(1009.436 894.145)" fill="#333"/>
    <path id="Icon_awesome-heart" data-name="Icon awesome-heart" d="M30.957,4.3a9.157,9.157,0,0,0-12.5.911L17.142,6.569,15.823,5.21A9.157,9.157,0,0,0,3.328,4.3a9.615,9.615,0,0,0-.663,13.922L15.622,31.6a2.1,2.1,0,0,0,3.033,0L31.613,18.221A9.609,9.609,0,0,0,30.957,4.3Z" transform="translate(1023.32 854.811)" fill="#c1272d"/>
  </g>
</svg>
