<svg xmlns="http://www.w3.org/2000/svg" width="139.244" height="97.394" viewBox="0 0 139.244 97.394">
  <g id="Group_2525" data-name="Group 2525" transform="translate(-640.335 -839)">
    <path id="Icon_awesome-car-side" data-name="Icon awesome-car-side" d="M8.572,16.536H10L19.713,4.395A5.717,5.717,0,0,1,24.175,2.25h19.1A5.714,5.714,0,0,1,48.58,5.842l4.278,10.9a5.7,5.7,0,0,1,4.286,5.513v10a1.428,1.428,0,0,1-1.429,1.429H51.429a8.572,8.572,0,0,1-17.143,0H22.857a8.572,8.572,0,0,1-17.143,0H1.429A1.428,1.428,0,0,1,0,32.25V25.107A8.571,8.571,0,0,1,8.572,16.536ZM42.858,37.964a4.286,4.286,0,1,0-4.286-4.286A4.29,4.29,0,0,0,42.858,37.964ZM36.429,16.536H46.7L43.274,7.964H36.429Zm-4.286,0V7.964H24.175l-6.857,8.571ZM14.286,37.964A4.286,4.286,0,1,0,10,33.679,4.29,4.29,0,0,0,14.286,37.964Z" transform="translate(722.436 894.145)" fill="#333"/>
    <path id="Icon_metro-file-text" data-name="Icon metro-file-text" d="M62.864,17.588A61.994,61.994,0,0,0,56.9,10.772a62,62,0,0,0-6.816-5.959c-3.526-2.585-5.236-2.884-6.216-2.884H9.967A5.475,5.475,0,0,0,4.5,7.4V66.459a5.475,5.475,0,0,0,5.469,5.469H60.28a5.475,5.475,0,0,0,5.469-5.469V23.8c0-.98-.3-2.69-2.884-6.216Zm-9.053-3.722a59.667,59.667,0,0,1,4.962,5.563H48.249V8.9a59.606,59.606,0,0,1,5.563,4.961Zm7.562,52.594a1.108,1.108,0,0,1-1.094,1.094H9.967a1.108,1.108,0,0,1-1.094-1.094V7.4A1.108,1.108,0,0,1,9.967,6.3H43.874V21.616A2.188,2.188,0,0,0,46.061,23.8H61.374ZM50.436,58.8H19.811a2.187,2.187,0,1,1,0-4.375H50.436a2.187,2.187,0,0,1,0,4.375Zm0-8.75H19.811a2.187,2.187,0,1,1,0-4.375H50.436a2.187,2.187,0,0,1,0,4.375Zm0-8.75H19.811a2.187,2.187,0,1,1,0-4.375H50.436a2.187,2.187,0,0,1,0,4.375Z" transform="translate(635.836 837.072)" fill="#333"/>
    <path id="Icon_awesome-heart" data-name="Icon awesome-heart" d="M30.957,4.3a9.157,9.157,0,0,0-12.5.911L17.142,6.569,15.823,5.21A9.157,9.157,0,0,0,3.328,4.3a9.615,9.615,0,0,0-.663,13.922L15.622,31.6a2.1,2.1,0,0,0,3.033,0L31.613,18.221A9.609,9.609,0,0,0,30.957,4.3Z" transform="translate(736.32 854.811)" fill="#c1272d"/>
  </g>
</svg>
