<svg xmlns="http://www.w3.org/2000/svg" width="142.842" height="96.781" viewBox="0 0 142.842 96.781">
  <g id="Group_2524" data-name="Group 2524" transform="translate(-359.737 -839.614)">
    <path id="Icon_awesome-car-side" data-name="Icon awesome-car-side" d="M8.572,16.536H10L19.713,4.395A5.717,5.717,0,0,1,24.175,2.25h19.1A5.714,5.714,0,0,1,48.58,5.842l4.278,10.9a5.7,5.7,0,0,1,4.286,5.513v10a1.428,1.428,0,0,1-1.429,1.429H51.429a8.572,8.572,0,0,1-17.143,0H22.857a8.572,8.572,0,0,1-17.143,0H1.429A1.428,1.428,0,0,1,0,32.25V25.107A8.571,8.571,0,0,1,8.572,16.536ZM42.858,37.964a4.286,4.286,0,1,0-4.286-4.286A4.29,4.29,0,0,0,42.858,37.964ZM36.429,16.536H46.7L43.274,7.964H36.429Zm-4.286,0V7.964H24.175l-6.857,8.571ZM14.286,37.964A4.286,4.286,0,1,0,10,33.679,4.29,4.29,0,0,0,14.286,37.964Z" transform="translate(445.436 894.145)" fill="#333"/>
    <g id="Icon_ionic-md-time" data-name="Icon ionic-md-time" transform="translate(356.362 836.239)">
      <path id="Path_1317" data-name="Path 1317" d="M38.341,3.375a35,35,0,1,0,35.034,35A34.987,34.987,0,0,0,38.341,3.375Zm.034,63a28,28,0,1,1,28-28A28,28,0,0,1,38.375,66.375Z" fill="#333"/>
      <path id="Path_1318" data-name="Path 1318" d="M21.788,10.688h-5.25v21L34.913,42.709,37.537,38.4l-15.75-9.339Z" transform="translate(18.337 10.188)" fill="#333"/>
    </g>
    <path id="Icon_awesome-heart" data-name="Icon awesome-heart" d="M30.957,4.3a9.157,9.157,0,0,0-12.5.911L17.142,6.569,15.823,5.21A9.157,9.157,0,0,0,3.328,4.3a9.615,9.615,0,0,0-.663,13.922L15.622,31.6a2.1,2.1,0,0,0,3.033,0L31.613,18.221A9.609,9.609,0,0,0,30.957,4.3Z" transform="translate(459.32 854.811)" fill="#c1272d"/>
  </g>
</svg>
