<svg id="_i_icon_11036_icon_110360" xmlns="http://www.w3.org/2000/svg" width="125.945" height="97.533" viewBox="0 0 125.945 97.533">
  <path id="Path_1125" data-name="Path 1125" d="M90.651,259.419a9.4,9.4,0,1,0-9.4-9.394A9.4,9.4,0,0,0,90.651,259.419Z" transform="translate(-61.264 -195.64)" fill="#c1272d"/>
  <path id="Path_1126" data-name="Path 1126" d="M82.982,337.422c-6.892,0-11.9,8.144-11.9,13.156V366.16H94.889V350.578C94.889,345.566,89.877,337.422,82.982,337.422Z" transform="translate(-53.594 -268.627)" fill="#c1272d"/>
  <path id="Path_1127" data-name="Path 1127" d="M227.182,259.419a9.4,9.4,0,1,0-9.4-9.394A9.4,9.4,0,0,0,227.182,259.419Z" transform="translate(-164.21 -195.64)" fill="#c1272d"/>
  <path id="Path_1128" data-name="Path 1128" d="M219.5,337.422c-6.9,0-11.907,8.144-11.907,13.156V366.16h23.815V350.578C231.409,345.566,226.393,337.422,219.5,337.422Z" transform="translate(-156.529 -268.627)" fill="#c1272d"/>
  <path id="Path_1129" data-name="Path 1129" d="M363.71,259.419a9.4,9.4,0,1,0-9.4-9.394A9.4,9.4,0,0,0,363.71,259.419Z" transform="translate(-267.157 -195.64)" fill="#c1272d"/>
  <path id="Path_1130" data-name="Path 1130" d="M0,57.75v78.715H14a19.81,19.81,0,0,1,2.541-5.9H5.9V63.654H120.041v66.908H109.4a19.81,19.81,0,0,1,2.541,5.9h14V57.75Z" transform="translate(0 -57.75)" fill="#c1272d"/>
  <path id="Path_1131" data-name="Path 1131" d="M356.028,337.422c-6.892,0-11.9,8.144-11.9,13.156V366.16h23.811V350.578C367.936,345.566,362.92,337.422,356.028,337.422Z" transform="translate(-259.475 -268.627)" fill="#c1272d"/>
</svg>
