<svg id="グループ_1415" data-name="グループ 1415" xmlns="http://www.w3.org/2000/svg" width="165.537" height="113.269" viewBox="0 0 165.537 113.269">
  <path id="パス_1324" data-name="パス 1324" d="M144.091,101.886l-2.4-7.274a1.19,1.19,0,0,0-1.044-.779H124.135a.548.548,0,0,0-.531.779l2.4,7.274a1.2,1.2,0,0,0,1.05.788h16.509a.55.55,0,0,0,.525-.788Z" transform="translate(-44.159 -31.652)" fill="#c1272d"/>
  <path id="パス_1325" data-name="パス 1325" d="M127.921,43.409a7.237,7.237,0,0,0-5.172-2.249H94.557c-1.909,0-3.462.946-3.686,2.249-.13.764-2.755,12.439-2.755,12.439a2.925,2.925,0,0,0,2.713,3.075h47.386c1.769,0,1.635-2,.683-3.075C138.9,55.847,128.559,44.174,127.921,43.409Z" transform="translate(-31.727 -13.189)" fill="#c1272d"/>
  <path id="パス_1326" data-name="パス 1326" d="M99.546,91.367a9.025,9.025,0,0,0-7.924-5.954c-3.288,0-5.074,2.668-3.986,5.957a9.026,9.026,0,0,0,7.924,5.954c3.288,0,5.072-2.666,3.987-5.954Z" transform="translate(-31.458 -28.701)" fill="#c1272d"/>
  <path id="パス_1327" data-name="パス 1327" d="M152.076,77.49c-3.514-10.859-8.1-34.064-12.251-44.7C131.335,11.063,120.65,2.965,120.65,2.965s-11.639,3.206-35.222,1.2C74.056,3.2,50.887-1.57,39.477-1.861,16.155-2.454,1.31,2.965,1.31,2.965S12,11.063,20.485,32.794c4.153,10.631,8.736,33.837,12.251,44.7C40.025,100.007,47.508,109.5,47.508,109.5s14.845-5.416,38.168-4.822c11.409.29,34.578,5.057,45.951,6.026,23.583,2.006,35.221-1.2,35.221-1.2S159.364,100.007,152.076,77.49ZM118.869,37.574a5.967,5.967,0,0,1,5.237,3.936c.718,2.174-.462,3.936-2.636,3.936h-1.528c-.633-.8-1.767-2.117-3.76-4.429-.916-1.065-1.934-2.239-2.982-3.443Zm-76.3,3.936c-.718-2.174.462-3.936,2.636-3.936h5.668c-.249,1.2-.493,2.378-.706,3.442-.466,2.311-.731,3.629-.833,4.429H47.811a5.964,5.964,0,0,1-5.239-3.935Zm25.889,43.4a8.045,8.045,0,0,1-7.04-5.335l-1.658-5.018H70.374l1.658,5.018.019.058c.953,2.932-.655,5.293-3.59,5.277Zm58.395-.027a8.044,8.044,0,0,1-7.063-5.308l-1.658-5.018h10.618l1.658,5.018c.968,2.931-.623,5.307-3.555,5.308Zm1.677-11.9H58.941c-3.242,0-4.23-1.505-5.138-4.255L48.932,53.979c-.423-1.279-.944-2.556-.058-4.031.162-.26,2.351-3.518,2.351-3.518-.24.08,3.727-18.445,3.879-19.443.4-2.652,3.016-4.252,6.089-4.252H93.075a12.142,12.142,0,0,1,8.9,4.252c.813,1,17.026,19.522,16.731,19.443,0,0,4.346,3.257,4.672,3.519a7.035,7.035,0,0,1,2.613,4.031l4.871,14.74c.909,2.751.914,4.257-2.328,4.257Z" transform="translate(-1.31 1.907)" fill="#c1272d"/>
  <path id="パス_1328" data-name="パス 1328" d="M180.4,91.37a9.025,9.025,0,0,0-7.924-5.957c-3.29,0-5.076,2.663-3.989,5.955a9.022,9.022,0,0,0,7.924,5.957c3.29,0,5.074-2.663,3.989-5.954Z" transform="translate(-59.8 -28.701)" fill="#c1272d"/>
</svg>
