<svg id="Group_2221" data-name="Group 2221" xmlns="http://www.w3.org/2000/svg" width="123.091" height="81.837" viewBox="0 0 123.091 81.837">
  <path id="Path_526" data-name="Path 526" d="M847.881,2075.309H747.422a11.315,11.315,0,0,0-11.316,11.315v59.207a11.317,11.317,0,0,0,11.316,11.315H847.881a11.317,11.317,0,0,0,11.316-11.315v-59.207A11.315,11.315,0,0,0,847.881,2075.309Zm-82.143,19.618a11.306,11.306,0,1,1-11.306,11.307A11.307,11.307,0,0,1,765.738,2094.927Zm0,43.638c-7.766,0-15.72-2.689-14.48-10.134a20.784,20.784,0,0,1,4.906-9.16,2.209,2.209,0,0,1,1.663-.121,15.023,15.023,0,0,0,15.821,0,2.215,2.215,0,0,1,1.664.121,20.789,20.789,0,0,1,4.9,9.16C781.456,2135.876,773.5,2138.565,765.738,2138.565Zm58.461-3.708h-32.27v-6.491H824.2v6.491Zm19.3-15.969H791.928V2112.4h51.567Zm0-15.969H791.928v-6.491h51.567Z" transform="translate(-736.106 -2075.309)" fill="#fff"/>
</svg>
