<svg id="Group_363" data-name="Group 363" xmlns="http://www.w3.org/2000/svg" width="89.565" height="84.724" viewBox="0 0 89.565 84.724">
  <rect id="Rectangle_314" data-name="Rectangle 314" width="89.565" height="6.746" transform="translate(0 77.978)" fill="#fff"/>
  <g id="Group_362" data-name="Group 362" transform="translate(8.842)">
    <path id="Path_493" data-name="Path 493" d="M444.876,2280.181l-8.312-8.308a5.7,5.7,0,0,0-8.057,0l-5.388,5.388-40.42,40.426a10.473,10.473,0,0,0-2.449,3.86l-5.336,14.853a4.251,4.251,0,0,0,5.441,5.438l14.851-5.339a10.469,10.469,0,0,0,3.861-2.448l39.014-39.015v0l1.408-1.411,5.386-5.386,0,0A5.7,5.7,0,0,0,444.876,2280.181ZM385.518,2320.5l40.223-40.228,4.662,4.662-40.625,40.625-4.639-4.636C385.26,2320.78,385.383,2320.635,385.518,2320.5Zm8.341,12.245-9.464,3.4-3.794-3.794,3.4-9.463c.025-.069.058-.134.085-.2l9.973,9.972C393.992,2332.689,393.927,2332.722,393.859,2332.747Zm2.389-1.516c-.133.134-.277.258-.423.38l-4.639-4.639,40.625-40.627,4.66,4.661Zm45.81-45.811-3.977,3.979-.2.2-10.733-10.733,4.176-4.177a1.717,1.717,0,0,1,2.421,0l8.312,8.308a1.713,1.713,0,0,1,0,2.424Z" transform="translate(-374.664 -2270.203)" fill="#fff"/>
  </g>
</svg>
