<svg id="Group_360" data-name="Group 360" xmlns="http://www.w3.org/2000/svg" width="81.091" height="89.196" viewBox="0 0 81.091 89.196">
  <path id="Path_492" data-name="Path 492" d="M606.442,2121.137a17.905,17.905,0,0,0-2.923-4.611c-.553-.648-1.125-1.247-1.7-1.841a2.222,2.222,0,0,0-.5-1.977l.011-.005a2,2,0,0,1-.12-.528,10.967,10.967,0,0,1-.066-1.312c0-1.356.139-3.245.139-5.416a29.591,29.591,0,0,0-1.333-9.348,23.92,23.92,0,0,0-6.5-10.066,29.2,29.2,0,0,0-13.265-6.979c-.148-.035-.292-.063-.433-.1a7.551,7.551,0,0,0-12.2-8.89,7.552,7.552,0,0,0-12.2,8.89c-.144.035-.286.063-.433.1a29.161,29.161,0,0,0-13.264,6.979,23.914,23.914,0,0,0-6.5,10.066,29.628,29.628,0,0,0-1.331,9.347c0,2.172.139,4.055.139,5.411a8.3,8.3,0,0,1-.112,1.574,1.084,1.084,0,0,1-.074.267l0,.005.009.006a2.223,2.223,0,0,0-.5,1.976c-.19.191-.379.386-.566.583a19.6,19.6,0,0,0-4.058,5.869,23.812,23.812,0,0,0-1.653,9.554,21.023,21.023,0,0,0,3.057,11.188c2.994,4.862,8.005,8.476,14.4,10.869s14.242,3.6,23.086,3.6c11.792-.005,21.79-2.126,29-6.4a24.357,24.357,0,0,0,8.493-8.069,21.023,21.023,0,0,0,3.057-11.188A23.812,23.812,0,0,0,606.442,2121.137Zm-32.964-49.449a3.03,3.03,0,1,1-3.027,3.027A3.037,3.037,0,0,1,573.478,2071.688Zm-11.86,0a3.03,3.03,0,1,1-3.027,3.027A3.038,3.038,0,0,1,561.618,2071.688Zm35.036,37.243a26.462,26.462,0,0,1-3.2-6.016c-2.129-5.553-5.24-9.473-9.565-11.863s-9.682-3.271-16.338-3.271-12.015.876-16.337,3.271-7.437,6.31-9.565,11.863a26.953,26.953,0,0,1-3.2,6.027c-.044-1.106-.09-2.255-.088-3.5a25.186,25.186,0,0,1,1.108-7.933,19.3,19.3,0,0,1,5.3-8.171,24.589,24.589,0,0,1,11.239-5.88,57.262,57.262,0,0,1,23.089,0,24.6,24.6,0,0,1,11.24,5.88,19.334,19.334,0,0,1,5.3,8.171,25.173,25.173,0,0,1,1.107,7.933C596.743,2106.684,596.7,2107.832,596.654,2108.932Z" transform="translate(-527.004 -2067.148)" fill="#fff"/>
</svg>
