<svg id="Group_371" data-name="Group 371" xmlns="http://www.w3.org/2000/svg" width="86.032" height="112.84" viewBox="0 0 86.032 112.84">
  <path id="Path_516" data-name="Path 516" d="M372.649,2067.9h-8.958v5.7a9.711,9.711,0,0,1-.212,2h10.13a2.033,2.033,0,0,1,2.031,2.032V2156.2a2.032,2.032,0,0,1-2.031,2.031H305.979a2.031,2.031,0,0,1-2.031-2.031v-78.561a2.032,2.032,0,0,1,2.031-2.032h10.13a9.711,9.711,0,0,1-.212-2v-5.7h-8.958a10.162,10.162,0,0,0-10.161,10.161V2158.1a10.161,10.161,0,0,0,10.161,10.16h65.71a10.161,10.161,0,0,0,10.161-10.16v-80.049A10.162,10.162,0,0,0,372.649,2067.9Z" transform="translate(-296.778 -2055.425)" fill="#fff"/>
  <path id="Path_517" data-name="Path 517" d="M329.017,2077.807h28.432a6.1,6.1,0,0,0,6.1-6.1v-6.105a6.1,6.1,0,0,0-6.1-6.1h-7.7a6.536,6.536,0,0,0-13.024,0h-7.7a6.1,6.1,0,0,0-6.1,6.1v6.105A6.1,6.1,0,0,0,329.017,2077.807Zm14.216-20.687a2.987,2.987,0,1,1-2.987,2.986A2.986,2.986,0,0,1,343.232,2057.12Z" transform="translate(-300.217 -2053.536)" fill="#fff"/>
  <path id="Path_518" data-name="Path 518" d="M324.5,2106.246l2.618-2.618,7.2-7.2-2.617-2.617-7.2,7.2-4.58-4.582-2.619,2.618Z" transform="translate(-299.478 -2058.834)" fill="#fff"/>
  <path id="Path_519" data-name="Path 519" d="M331.7,2115.48l-7.2,7.2-4.58-4.582-2.619,2.618,7.2,7.2,2.618-2.618,7.2-7.2Z" transform="translate(-299.478 -2061.685)" fill="#fff"/>
  <path id="Path_520" data-name="Path 520" d="M319.92,2139.766l-2.619,2.619,7.2,7.2,2.618-2.618,7.2-7.2-2.617-2.617-7.2,7.2Z" transform="translate(-299.478 -2064.535)" fill="#fff"/>
</svg>
