<svg xmlns="http://www.w3.org/2000/svg" width="64.353" height="83.932" viewBox="0 0 64.353 83.932">
  <path id="Path_549" data-name="Path 549" d="M724.543,2273.759c-5.768,3.741-6.9,15.431-4.723,24.96a86.06,86.06,0,0,0,11.38,26.747,89.338,89.338,0,0,0,19.781,21.3c7.813,5.874,18.949,9.608,24.716,5.867,2.915-1.891,7.249-7.058,7.446-7.985,0,0-2.541-3.917-3.1-4.777l-8.52-13.135c-.633-.977-4.6-.083-6.62,1.058-2.721,1.542-5.227,5.677-5.227,5.677-1.865,1.078-3.428,0-6.693-1.5-4.012-1.847-8.524-7.582-12.114-12.778-3.279-5.4-6.677-11.856-6.726-16.271-.041-3.594-.383-5.458,1.362-6.722,0,0,4.8-.6,7.315-2.457,1.867-1.375,4.3-4.636,3.667-5.613l-8.52-13.136-3.1-4.777C733.943,2270.019,727.458,2271.868,724.543,2273.759Z" transform="translate(-718.789 -2270.202)" fill="#fff"/>
</svg>
